M48
METRIC,LZ,000.000
;FILE_FORMAT=3:3
;TYPE=PLATED
;Layer: PTH_Through
;EasyEDA v6.4.30, 2022-01-21 15:04:52
;c46cb3ee090d4a1eb143410c139ed502,dc6f5eff9a9d40dcab93570daa8facdf,10
;Gerber Generator version 0.2
;Holesize 1 = 0.305 mm
T01C0.305
;Holesize 2 = 0.600 mm
T02C0.600
;Holesize 3 = 0.889 mm
T03C0.889
;Holesize 4 = 0.915 mm
T04C0.915
;Holesize 5 = 1.000 mm
T05C1.000
;Holesize 6 = 1.301 mm
T06C1.301
;Holesize 7 = 1.400 mm
T07C1.400
%
G05
G90
T01
X012500Y081500
X012500Y082500
X011500Y082500
X011500Y081500
X038000Y078250
X039500Y079400
X040300Y079400
X040300Y078600
X039500Y078600
X039500Y077800
X040300Y077800
X030630Y076180
X017800Y078100
X016800Y078100
X010600Y066700
X010700Y079100
X029050Y066100
X029050Y065300
X029050Y064500
X026900Y073300
X026000Y057200
X026800Y057200
X026900Y074100
X047100Y083400
X048000Y083400
X047100Y082400
X048000Y082400
X046200Y082400
X046200Y083400
X048900Y082400
X048900Y083400
X032550Y064450
X036850Y068900
X043286Y069700
X043286Y070700
X042386Y070700
X042386Y069700
X041600Y069700
X041600Y070700
X017850Y067850
X016350Y060850
X019350Y062700
X013750Y061550
X013750Y060450
X013200Y061000
X014300Y061000
X012600Y060400
X013150Y059850
X035150Y087350
X035150Y085750
X035150Y086550
X034350Y087350
X034350Y086550
X034350Y085750
X030950Y083250
X030200Y083250
X030200Y082550
X030950Y082550
X030950Y081850
X030200Y081850
X017050Y085350
X044150Y070700
X044150Y069700
X032600Y063000
X055832Y063832
X054782Y063832
X054782Y064732
X055832Y064732
X045800Y065800
X046250Y072500
X043910Y035790
X043330Y036340
X039350Y036350
X029150Y029050
X031100Y029050
X024500Y029050
X024500Y031250
X045050Y026100
X032096Y028197
X033150Y035200
X037400Y025250
X026300Y027350
X047100Y023400
X051000Y034950
X055950Y036250
X023450Y037250
X022450Y037250
X023450Y021950
X022450Y021950
X037550Y035250
X035950Y034000
X037550Y036200
X046206Y027256
X043250Y029050
X040900Y030500
X038800Y028800
X043050Y032750
X036450Y027100
T02
X052150Y062050G85X051550Y062050
X045150Y062050G85X044550Y062050
X050150Y057250G85X049550Y057250
X009050Y068330G85X009850Y068330
X009050Y076970G85X009850Y076970
X012600Y068330G85X013700Y068330
X012600Y076970G85X013700Y076970
T03
X013299Y088400
X009601Y086200
X055300Y043750
X055200Y078750
X041300Y057700
X041300Y022700
X037851Y057699
X055300Y053050
X055300Y046850
X037850Y022700
X055200Y088050
X055200Y081850
X043299Y040079
X043299Y042619
X043299Y045159
X043299Y047699
X043299Y050239
X043299Y052779
X055200Y084950
X034400Y057700
X055300Y049950
X034400Y022700
X028500Y022700
X031400Y022700
X035200Y035800
X025600Y022700
T04
X045750Y085600
X043750Y085600
X041750Y085600
X045750Y088100
X043750Y088100
X041750Y088100
T05
X022750Y084700
X026750Y084700
X030750Y084700
T06
X020750Y082950
X020750Y088950
X032750Y088950
X032750Y082950
T07
X048750Y086850
X038750Y086850
M30
