G04 Layer: BottomSolderMaskLayer*
G04 EasyEDA v6.4.30, 2022-01-21 15:04:52*
G04 c46cb3ee090d4a1eb143410c139ed502,dc6f5eff9a9d40dcab93570daa8facdf,10*
G04 Gerber Generator version 0.2*
G04 Scale: 100 percent, Rotated: No, Reflected: No *
G04 Dimensions in millimeters *
G04 leading zeros omitted , absolute positions ,4 integer and 5 decimal *
%FSLAX45Y45*%
%MOMM*%

%ADD75C,1.3016*%
%ADD76C,1.1016*%
%ADD89C,1.9016*%
%ADD90C,1.6256*%
%ADD92C,2.1016*%
%ADD96C,1.6764*%

%LPD*%
D75*
X5215003Y6204991D02*
G01*
X5155003Y6204991D01*
X4515004Y6204991D02*
G01*
X4455005Y6204991D01*
X5015003Y5724982D02*
G01*
X4955004Y5724982D01*
D76*
X985006Y6832980D02*
G01*
X905007Y6832980D01*
X985006Y7696962D02*
G01*
X905007Y7696962D01*
X1370009Y6832980D02*
G01*
X1260010Y6832980D01*
X1370009Y7696962D02*
G01*
X1260010Y7696962D01*
G36*
X1246123Y8756142D02*
G01*
X1246123Y8923781D01*
X1413763Y8923781D01*
X1413763Y8756142D01*
G37*
G36*
X876300Y8536178D02*
G01*
X876300Y8703818D01*
X1043939Y8703818D01*
X1043939Y8536178D01*
G37*
G36*
X5446268Y4291076D02*
G01*
X5446268Y4458715D01*
X5613908Y4458715D01*
X5613908Y4291076D01*
G37*
G36*
X5436108Y7791195D02*
G01*
X5436108Y7958836D01*
X5603747Y7958836D01*
X5603747Y7791195D01*
G37*
G36*
X4046220Y5686044D02*
G01*
X4046220Y5853684D01*
X4213859Y5853684D01*
X4213859Y5686044D01*
G37*
G36*
X4046220Y2186178D02*
G01*
X4046220Y2353818D01*
X4213859Y2353818D01*
X4213859Y2186178D01*
G37*
G36*
X3701288Y5686044D02*
G01*
X3701288Y5853684D01*
X3868927Y5853684D01*
X3868927Y5686044D01*
G37*
D89*
G01*
X2075002Y8294979D03*
G01*
X2075002Y8894978D03*
G01*
X3274999Y8894978D03*
G01*
X3274999Y8294979D03*
D90*
G01*
X2275001Y8469985D03*
G01*
X2675000Y8469985D03*
G01*
X3075000Y8469985D03*
G01*
X4574997Y8560003D03*
G01*
X4374997Y8560003D03*
G01*
X4174997Y8560003D03*
G01*
X4574997Y8809989D03*
G01*
X4374997Y8809989D03*
G01*
X4174997Y8809989D03*
D92*
G01*
X4874996Y8684996D03*
G01*
X3874998Y8684996D03*
G36*
X5446268Y5221223D02*
G01*
X5446268Y5388863D01*
X5613908Y5388863D01*
X5613908Y5221223D01*
G37*
G36*
X5446268Y4601210D02*
G01*
X5446268Y4768850D01*
X5613908Y4768850D01*
X5613908Y4601210D01*
G37*
G36*
X3701288Y2186178D02*
G01*
X3701288Y2353818D01*
X3868927Y2353818D01*
X3868927Y2186178D01*
G37*
G36*
X5436108Y8721089D02*
G01*
X5436108Y8888729D01*
X5603747Y8888729D01*
X5603747Y8721089D01*
G37*
G36*
X5436108Y8101076D02*
G01*
X5436108Y8268715D01*
X5603747Y8268715D01*
X5603747Y8101076D01*
G37*
D96*
G01*
X4329938Y4007942D03*
G01*
X4329938Y4261942D03*
G01*
X4329938Y4515942D03*
G01*
X4329938Y4769942D03*
G01*
X4329938Y5023942D03*
G36*
X4246118Y5194045D02*
G01*
X4246118Y5361686D01*
X4413758Y5361686D01*
X4413758Y5194045D01*
G37*
G36*
X5436108Y8411210D02*
G01*
X5436108Y8578850D01*
X5603747Y8578850D01*
X5603747Y8411210D01*
G37*
G36*
X3356102Y5686044D02*
G01*
X3356102Y5853684D01*
X3523741Y5853684D01*
X3523741Y5686044D01*
G37*
G36*
X5446268Y4911089D02*
G01*
X5446268Y5078729D01*
X5613908Y5078729D01*
X5613908Y4911089D01*
G37*
G36*
X3356102Y2186178D02*
G01*
X3356102Y2353818D01*
X3523741Y2353818D01*
X3523741Y2186178D01*
G37*
G36*
X2766059Y2186178D02*
G01*
X2766059Y2353818D01*
X2933700Y2353818D01*
X2933700Y2186178D01*
G37*
G36*
X3056127Y2186178D02*
G01*
X3056127Y2353818D01*
X3223768Y2353818D01*
X3223768Y2186178D01*
G37*
G36*
X3436111Y3496055D02*
G01*
X3436111Y3663695D01*
X3603752Y3663695D01*
X3603752Y3496055D01*
G37*
G36*
X2476245Y2186178D02*
G01*
X2476245Y2353818D01*
X2643886Y2353818D01*
X2643886Y2186178D01*
G37*
M02*
