G04 Layer: BottomSilkscreenLayer*
G04 EasyEDA v6.4.30, 2022-01-21 15:04:52*
G04 c46cb3ee090d4a1eb143410c139ed502,dc6f5eff9a9d40dcab93570daa8facdf,10*
G04 Gerber Generator version 0.2*
G04 Scale: 100 percent, Rotated: No, Reflected: No *
G04 Dimensions in millimeters *
G04 leading zeros omitted , absolute positions ,4 integer and 5 decimal *
%FSLAX45Y45*%
%MOMM*%

%ADD67C,0.1524*%

%LPD*%
G36*
X2343708Y7859268D02*
G01*
X2337866Y7858759D01*
X2332075Y7857490D01*
X2326284Y7855305D01*
X2321915Y7852765D01*
X2317496Y7849209D01*
X2313228Y7844891D01*
X2309164Y7839913D01*
X2305405Y7834579D01*
X2302103Y7829042D01*
X2299309Y7823453D01*
X2297176Y7818069D01*
X2296168Y7814411D01*
X2317902Y7814411D01*
X2319477Y7820152D01*
X2323084Y7825841D01*
X2328265Y7830515D01*
X2334412Y7833614D01*
X2341118Y7835138D01*
X2347976Y7835239D01*
X2354478Y7833868D01*
X2360218Y7831124D01*
X2364790Y7826959D01*
X2367686Y7821523D01*
X2369362Y7814767D01*
X2369769Y7808925D01*
X2368854Y7804150D01*
X2366568Y7800238D01*
X2362962Y7797292D01*
X2357932Y7795209D01*
X2351481Y7793990D01*
X2343607Y7793583D01*
X2335834Y7794345D01*
X2329281Y7796479D01*
X2324100Y7799781D01*
X2320340Y7804048D01*
X2318207Y7808975D01*
X2317902Y7814411D01*
X2296168Y7814411D01*
X2295804Y7813090D01*
X2295296Y7808671D01*
X2295753Y7805064D01*
X2297328Y7802067D01*
X2296566Y7800543D01*
X2291740Y7794244D01*
X2282850Y7783982D01*
X2270252Y7770114D01*
X2246262Y7744561D01*
X2317800Y7744561D01*
X2319426Y7750302D01*
X2323084Y7756093D01*
X2327910Y7760258D01*
X2334006Y7763205D01*
X2340864Y7764881D01*
X2347976Y7765338D01*
X2354834Y7764627D01*
X2360930Y7762697D01*
X2365705Y7759547D01*
X2368651Y7755229D01*
X2370531Y7748574D01*
X2370785Y7742580D01*
X2369749Y7737805D01*
X2393797Y7737805D01*
X2393797Y7738719D01*
X2394305Y7739227D01*
X2395169Y7739329D01*
X2396439Y7739024D01*
X2400147Y7737144D01*
X2405329Y7733538D01*
X2412085Y7728356D01*
X2429814Y7713167D01*
X2453081Y7691831D01*
X2481630Y7664551D01*
X2513736Y7633004D01*
X2542032Y7604759D01*
X2567178Y7579258D01*
X2588107Y7557617D01*
X2603804Y7540904D01*
X2613152Y7530338D01*
X2615133Y7527645D01*
X2615375Y7526781D01*
X2664206Y7526781D01*
X2665171Y7528509D01*
X2672638Y7537246D01*
X2686456Y7552283D01*
X2705709Y7572451D01*
X2729331Y7596733D01*
X2756306Y7624013D01*
X2792171Y7659776D01*
X2842209Y7708544D01*
X2861208Y7726527D01*
X2874721Y7738872D01*
X2879090Y7742580D01*
X2881731Y7744510D01*
X2882341Y7744764D01*
X2885389Y7744307D01*
X2886405Y7743698D01*
X2887116Y7742885D01*
X2887522Y7741767D01*
X2887522Y7740396D01*
X2886456Y7736840D01*
X2883966Y7732064D01*
X2880703Y7727289D01*
X2911906Y7727289D01*
X2911906Y7762189D01*
X2930601Y7764322D01*
X2939288Y7764525D01*
X2946400Y7762748D01*
X2952038Y7759090D01*
X2956306Y7753502D01*
X2959049Y7746847D01*
X2960014Y7740802D01*
X2959249Y7735925D01*
X2981655Y7735925D01*
X2981706Y7736840D01*
X2982061Y7737449D01*
X2982671Y7737805D01*
X2983585Y7737856D01*
X2984804Y7737602D01*
X2987954Y7736128D01*
X2992221Y7733436D01*
X2997555Y7729524D01*
X3011525Y7717993D01*
X3029864Y7701483D01*
X3052572Y7679994D01*
X3079750Y7653528D01*
X3111042Y7622336D01*
X3139998Y7592923D01*
X3163824Y7568031D01*
X3182620Y7547711D01*
X3196336Y7531811D01*
X3201365Y7525562D01*
X3205073Y7520381D01*
X3207562Y7516317D01*
X3208832Y7513370D01*
X3208985Y7512303D01*
X3208832Y7511542D01*
X3208375Y7510983D01*
X3207613Y7510780D01*
X3205327Y7511288D01*
X3201924Y7513015D01*
X3197402Y7515961D01*
X3191865Y7520127D01*
X3177489Y7532065D01*
X3158998Y7548676D01*
X3136442Y7569962D01*
X3109874Y7595768D01*
X3079546Y7625994D01*
X3050997Y7654950D01*
X3027375Y7679588D01*
X3008680Y7699806D01*
X2994914Y7715758D01*
X2989834Y7722108D01*
X2985973Y7727391D01*
X2983331Y7731607D01*
X2981909Y7734757D01*
X2981655Y7735925D01*
X2959249Y7735925D01*
X2956712Y7731252D01*
X2952648Y7727950D01*
X2947162Y7725714D01*
X2940253Y7724698D01*
X2932074Y7725003D01*
X2911906Y7727289D01*
X2880703Y7727289D01*
X2877210Y7722616D01*
X2870708Y7714589D01*
X2862529Y7705140D01*
X2852572Y7694168D01*
X2827121Y7667447D01*
X2794000Y7633868D01*
X2757068Y7597140D01*
X2726893Y7567930D01*
X2714396Y7556195D01*
X2694025Y7538110D01*
X2686050Y7531658D01*
X2679496Y7526832D01*
X2674162Y7523581D01*
X2671978Y7522514D01*
X2670098Y7521854D01*
X2668473Y7521549D01*
X2667101Y7521549D01*
X2666034Y7521956D01*
X2665222Y7522667D01*
X2664663Y7523734D01*
X2664307Y7525105D01*
X2664206Y7526781D01*
X2615375Y7526781D01*
X2615285Y7525258D01*
X2614930Y7523835D01*
X2614371Y7522768D01*
X2613507Y7522006D01*
X2612440Y7521600D01*
X2611069Y7521549D01*
X2609443Y7521854D01*
X2605328Y7523581D01*
X2599994Y7526832D01*
X2593340Y7531658D01*
X2585313Y7538212D01*
X2575814Y7546441D01*
X2564790Y7556449D01*
X2537815Y7582103D01*
X2503779Y7615631D01*
X2472080Y7647635D01*
X2446121Y7674609D01*
X2424734Y7697825D01*
X2408478Y7716570D01*
X2402433Y7724038D01*
X2397963Y7730134D01*
X2395016Y7734706D01*
X2393797Y7737805D01*
X2369749Y7737805D01*
X2369616Y7737195D01*
X2367076Y7732623D01*
X2363165Y7728915D01*
X2358034Y7726121D01*
X2351684Y7724394D01*
X2344267Y7723835D01*
X2336292Y7724546D01*
X2329535Y7726680D01*
X2324201Y7729981D01*
X2320340Y7734198D01*
X2318207Y7739125D01*
X2317800Y7744561D01*
X2246262Y7744561D01*
X2207818Y7704581D01*
X2156968Y7652715D01*
X2017282Y7512862D01*
X2064207Y7512862D01*
X2064969Y7514234D01*
X2070912Y7521295D01*
X2082038Y7533487D01*
X2117242Y7570317D01*
X2165045Y7618831D01*
X2209342Y7662824D01*
X2235454Y7688072D01*
X2256739Y7707934D01*
X2265629Y7715910D01*
X2279954Y7727950D01*
X2285441Y7732064D01*
X2289810Y7734909D01*
X2293061Y7736484D01*
X2294280Y7736840D01*
X2295194Y7736840D01*
X2295906Y7736586D01*
X2296312Y7735976D01*
X2296414Y7734960D01*
X2295398Y7731861D01*
X2292756Y7727340D01*
X2288540Y7721396D01*
X2282748Y7714030D01*
X2266442Y7695234D01*
X2248988Y7676286D01*
X2318054Y7676286D01*
X2318512Y7680807D01*
X2319832Y7685430D01*
X2322626Y7689037D01*
X2327554Y7691983D01*
X2334056Y7694168D01*
X2341372Y7695590D01*
X2348941Y7696047D01*
X2356053Y7695539D01*
X2362149Y7693964D01*
X2366518Y7691272D01*
X2369058Y7687716D01*
X2370582Y7683296D01*
X2371140Y7678318D01*
X2370785Y7673035D01*
X2369566Y7667752D01*
X2369003Y7666380D01*
X2392121Y7666380D01*
X2392527Y7669682D01*
X2393696Y7672425D01*
X2395372Y7674305D01*
X2397455Y7674965D01*
X2398369Y7674609D01*
X2402078Y7671917D01*
X2416048Y7659573D01*
X2436622Y7640116D01*
X2461361Y7615986D01*
X2494229Y7583170D01*
X2519070Y7557770D01*
X2539898Y7535875D01*
X2554224Y7520025D01*
X2558186Y7515098D01*
X2559478Y7512862D01*
X2720035Y7512862D01*
X2721051Y7514793D01*
X2728823Y7524089D01*
X2743098Y7539685D01*
X2762605Y7560056D01*
X2785922Y7583881D01*
X2817622Y7615377D01*
X2840736Y7637780D01*
X2860040Y7656068D01*
X2874162Y7668768D01*
X2878836Y7672679D01*
X2881680Y7674711D01*
X2882341Y7674965D01*
X2884220Y7674813D01*
X2885694Y7674406D01*
X2886811Y7673746D01*
X2887522Y7672730D01*
X2887804Y7671104D01*
X2909722Y7671104D01*
X2909824Y7677861D01*
X2911195Y7682230D01*
X2913938Y7686040D01*
X2917799Y7689291D01*
X2922422Y7691932D01*
X2927705Y7693863D01*
X2933242Y7695133D01*
X2938881Y7695692D01*
X2944368Y7695438D01*
X2949448Y7694371D01*
X2953816Y7692440D01*
X2957322Y7689596D01*
X2959608Y7685836D01*
X2961233Y7680045D01*
X2961640Y7674457D01*
X2960928Y7669123D01*
X2959785Y7665923D01*
X2981604Y7665923D01*
X2981655Y7666990D01*
X2982061Y7667701D01*
X2982823Y7668107D01*
X2983839Y7668158D01*
X2986887Y7667193D01*
X2991154Y7664805D01*
X2996641Y7660944D01*
X3003346Y7655661D01*
X3020568Y7640726D01*
X3042767Y7620050D01*
X3070047Y7593482D01*
X3108198Y7555179D01*
X3133140Y7529220D01*
X3143402Y7518196D01*
X3159455Y7499959D01*
X3166408Y7491323D01*
X3225342Y7491323D01*
X3226460Y7493508D01*
X3228035Y7494168D01*
X3230372Y7493863D01*
X3233369Y7492695D01*
X3236976Y7490764D01*
X3241040Y7488174D01*
X3250336Y7481265D01*
X3260496Y7472629D01*
X3270758Y7462977D01*
X3280460Y7452969D01*
X3284880Y7448092D01*
X3292297Y7438847D01*
X3295142Y7434732D01*
X3297275Y7431074D01*
X3298647Y7427874D01*
X3299104Y7425334D01*
X3298850Y7421981D01*
X3298190Y7419543D01*
X3296920Y7418070D01*
X3295091Y7417511D01*
X3292652Y7418019D01*
X3289554Y7419492D01*
X3285693Y7422083D01*
X3281070Y7425690D01*
X3275584Y7430465D01*
X3262020Y7443419D01*
X3245866Y7459929D01*
X3239211Y7467346D01*
X3233877Y7473899D01*
X3229813Y7479538D01*
X3227019Y7484364D01*
X3225546Y7488275D01*
X3225342Y7491323D01*
X3166408Y7491323D01*
X3169666Y7486903D01*
X3172561Y7482230D01*
X3174034Y7478826D01*
X3174187Y7477607D01*
X3174034Y7476693D01*
X3173476Y7476134D01*
X3172612Y7475880D01*
X3171444Y7475981D01*
X3168142Y7477302D01*
X3163620Y7479995D01*
X3157880Y7484160D01*
X3150920Y7489647D01*
X3142742Y7496556D01*
X3122980Y7514386D01*
X3098647Y7537500D01*
X3069996Y7565745D01*
X3041091Y7595057D01*
X3017926Y7619390D01*
X3000451Y7638796D01*
X2993847Y7646670D01*
X2988665Y7653324D01*
X2984906Y7658760D01*
X2982518Y7662925D01*
X2981604Y7665923D01*
X2959785Y7665923D01*
X2959150Y7664145D01*
X2956306Y7659624D01*
X2952546Y7655763D01*
X2947873Y7652562D01*
X2942285Y7650225D01*
X2935681Y7649057D01*
X2929382Y7649565D01*
X2923540Y7651648D01*
X2918409Y7655001D01*
X2914243Y7659522D01*
X2911246Y7664958D01*
X2909722Y7671104D01*
X2887804Y7671104D01*
X2887726Y7669885D01*
X2887218Y7667955D01*
X2885033Y7663230D01*
X2881122Y7657185D01*
X2875534Y7649768D01*
X2868168Y7640929D01*
X2859024Y7630617D01*
X2848051Y7618831D01*
X2820466Y7590536D01*
X2789072Y7559497D01*
X2763875Y7535722D01*
X2753614Y7526629D01*
X2744825Y7519365D01*
X2737510Y7513828D01*
X2731516Y7510018D01*
X2726842Y7507884D01*
X2725013Y7507427D01*
X2723438Y7507325D01*
X2722219Y7507681D01*
X2721254Y7508392D01*
X2720543Y7509509D01*
X2720136Y7511034D01*
X2720035Y7512862D01*
X2559478Y7512862D01*
X2559558Y7512659D01*
X2558846Y7510678D01*
X2556967Y7509052D01*
X2554173Y7507935D01*
X2550718Y7507528D01*
X2549448Y7507884D01*
X2545232Y7510424D01*
X2538882Y7515301D01*
X2530754Y7522159D01*
X2510332Y7540752D01*
X2486202Y7563815D01*
X2460802Y7589062D01*
X2436368Y7614158D01*
X2415286Y7636764D01*
X2406751Y7646365D01*
X2399893Y7654493D01*
X2395016Y7660843D01*
X2393442Y7663230D01*
X2392476Y7665110D01*
X2392121Y7666380D01*
X2369003Y7666380D01*
X2367483Y7662672D01*
X2364638Y7658100D01*
X2361082Y7654340D01*
X2357170Y7651648D01*
X2353106Y7649819D01*
X2348941Y7648854D01*
X2344775Y7648651D01*
X2340660Y7649108D01*
X2336647Y7650276D01*
X2332837Y7652003D01*
X2329332Y7654290D01*
X2326132Y7657084D01*
X2323388Y7660284D01*
X2321102Y7663891D01*
X2319426Y7667752D01*
X2318359Y7671917D01*
X2318054Y7676286D01*
X2248988Y7676286D01*
X2223414Y7649667D01*
X2190851Y7616698D01*
X2157374Y7583576D01*
X2129891Y7556957D01*
X2107895Y7536434D01*
X2090928Y7521702D01*
X2084222Y7516418D01*
X2078532Y7512354D01*
X2073910Y7509611D01*
X2070252Y7508036D01*
X2068779Y7507681D01*
X2067560Y7507630D01*
X2066493Y7507833D01*
X2065629Y7508341D01*
X2065020Y7509052D01*
X2064562Y7510068D01*
X2064207Y7512862D01*
X2017282Y7512862D01*
X1956155Y7451699D01*
X1938274Y7451699D01*
X1930247Y7450937D01*
X1921713Y7448854D01*
X1913585Y7445705D01*
X1906930Y7441895D01*
X1893519Y7432090D01*
X1893286Y7401864D01*
X1911654Y7401864D01*
X1911807Y7406386D01*
X1913077Y7411110D01*
X1915566Y7416038D01*
X1918563Y7420051D01*
X1921967Y7423353D01*
X1925777Y7425893D01*
X1929790Y7427772D01*
X1934006Y7428941D01*
X1938223Y7429347D01*
X1942439Y7429093D01*
X1946503Y7428077D01*
X1950364Y7426350D01*
X1951105Y7425842D01*
X1980488Y7425842D01*
X1980996Y7428382D01*
X1982368Y7431582D01*
X1984603Y7435342D01*
X1991106Y7444079D01*
X1999742Y7453833D01*
X2009698Y7463942D01*
X2020214Y7473645D01*
X2030475Y7482281D01*
X2039823Y7489088D01*
X2043887Y7491628D01*
X2047392Y7493406D01*
X2050288Y7494422D01*
X2052421Y7494473D01*
X2053742Y7493558D01*
X2054250Y7491171D01*
X2053488Y7487716D01*
X2051507Y7483398D01*
X2048122Y7477963D01*
X2099106Y7477963D01*
X2099970Y7479588D01*
X2106726Y7487666D01*
X2119325Y7501381D01*
X2136800Y7519822D01*
X2158238Y7541920D01*
X2182723Y7566710D01*
X2211679Y7595565D01*
X2239213Y7622286D01*
X2261108Y7642656D01*
X2269998Y7650530D01*
X2277567Y7656830D01*
X2283866Y7661656D01*
X2288844Y7664958D01*
X2292553Y7666837D01*
X2295042Y7667244D01*
X2295855Y7666888D01*
X2296312Y7666177D01*
X2296464Y7665008D01*
X2296058Y7663383D01*
X2295194Y7661300D01*
X2291943Y7655864D01*
X2286762Y7648752D01*
X2279700Y7640015D01*
X2270760Y7629652D01*
X2247392Y7604302D01*
X2216962Y7573060D01*
X2183739Y7540091D01*
X2156561Y7513929D01*
X2135276Y7494473D01*
X2126691Y7487158D01*
X2119426Y7481417D01*
X2113330Y7477099D01*
X2108403Y7474254D01*
X2104593Y7472781D01*
X2103120Y7472578D01*
X2101850Y7472680D01*
X2100834Y7473137D01*
X2100072Y7473848D01*
X2099513Y7474915D01*
X2099106Y7477963D01*
X2048122Y7477963D01*
X2044039Y7472324D01*
X2038756Y7465771D01*
X2032406Y7458659D01*
X2025192Y7451039D01*
X2013040Y7438999D01*
X2061667Y7438999D01*
X2061921Y7443470D01*
X2064766Y7448600D01*
X2070354Y7454442D01*
X2076754Y7459573D01*
X2081834Y7461910D01*
X2085746Y7461503D01*
X2088743Y7458456D01*
X2090115Y7453782D01*
X2089200Y7448702D01*
X2087148Y7444790D01*
X2130704Y7444790D01*
X2315565Y7630007D01*
X2377948Y7629601D01*
X2467914Y7540244D01*
X2491892Y7515555D01*
X2516760Y7488783D01*
X2566517Y7488783D01*
X2567381Y7491679D01*
X2569667Y7493304D01*
X2573172Y7493762D01*
X2577439Y7493050D01*
X2582316Y7491323D01*
X2587345Y7488681D01*
X2592324Y7485125D01*
X2596845Y7480808D01*
X2601010Y7475677D01*
X2604262Y7470546D01*
X2606598Y7465669D01*
X2607919Y7461199D01*
X2608181Y7458354D01*
X2671013Y7458354D01*
X2671724Y7462621D01*
X2673451Y7467498D01*
X2676093Y7472527D01*
X2679649Y7477506D01*
X2683967Y7482027D01*
X2689098Y7486192D01*
X2694228Y7489444D01*
X2699105Y7491780D01*
X2703576Y7493101D01*
X2707436Y7493406D01*
X2710434Y7492695D01*
X2712364Y7490815D01*
X2713075Y7487818D01*
X2711754Y7484313D01*
X2708249Y7479334D01*
X2703169Y7473442D01*
X2697124Y7467244D01*
X2690774Y7461351D01*
X2684678Y7456424D01*
X2679547Y7452969D01*
X2675991Y7451699D01*
X2673096Y7452563D01*
X2671470Y7454849D01*
X2671013Y7458354D01*
X2608181Y7458354D01*
X2608275Y7457338D01*
X2607513Y7454341D01*
X2605633Y7452410D01*
X2602636Y7451699D01*
X2599131Y7453020D01*
X2594152Y7456525D01*
X2588260Y7461605D01*
X2582062Y7467650D01*
X2576169Y7474000D01*
X2571242Y7480046D01*
X2567787Y7485227D01*
X2566517Y7488783D01*
X2516760Y7488783D01*
X2529484Y7474305D01*
X2535631Y7466888D01*
X2540152Y7460996D01*
X2542844Y7456881D01*
X2553004Y7437628D01*
X2545232Y7423099D01*
X2542032Y7415326D01*
X2541258Y7409688D01*
X2563520Y7409688D01*
X2564587Y7415072D01*
X2566720Y7419187D01*
X2569667Y7421880D01*
X2573324Y7423251D01*
X2577541Y7423251D01*
X2582164Y7421981D01*
X2587142Y7419340D01*
X2592273Y7415479D01*
X2597556Y7410297D01*
X2601925Y7404658D01*
X2604566Y7399375D01*
X2605582Y7394549D01*
X2674010Y7394549D01*
X2675026Y7399375D01*
X2677668Y7404658D01*
X2682036Y7410297D01*
X2687320Y7415479D01*
X2692450Y7419340D01*
X2697429Y7421981D01*
X2702052Y7423251D01*
X2706268Y7423251D01*
X2709926Y7421880D01*
X2712872Y7419187D01*
X2715006Y7415072D01*
X2716072Y7409688D01*
X2715615Y7404049D01*
X2713837Y7398512D01*
X2710942Y7393330D01*
X2707182Y7388758D01*
X2702661Y7385151D01*
X2697632Y7382814D01*
X2692298Y7381951D01*
X2685643Y7382560D01*
X2680462Y7384186D01*
X2676804Y7386828D01*
X2674620Y7390333D01*
X2674010Y7394549D01*
X2605582Y7394549D01*
X2604973Y7390333D01*
X2602788Y7386828D01*
X2599080Y7384186D01*
X2593898Y7382560D01*
X2587294Y7381951D01*
X2581960Y7382814D01*
X2576931Y7385151D01*
X2572410Y7388758D01*
X2568651Y7393330D01*
X2565755Y7398512D01*
X2563977Y7404049D01*
X2563520Y7409688D01*
X2541258Y7409688D01*
X2540965Y7407554D01*
X2542082Y7399172D01*
X2545384Y7389418D01*
X2553309Y7370267D01*
X2537257Y7335062D01*
X2564485Y7335062D01*
X2564790Y7341616D01*
X2567076Y7348016D01*
X2570784Y7353300D01*
X2575458Y7357160D01*
X2580741Y7359548D01*
X2586532Y7360564D01*
X2592425Y7360107D01*
X2598318Y7358176D01*
X2603855Y7354824D01*
X2605270Y7353452D01*
X2637180Y7353452D01*
X2637739Y7356754D01*
X2639060Y7359142D01*
X2640685Y7359700D01*
X2641904Y7358176D01*
X2642616Y7354824D01*
X2642717Y7349998D01*
X2642260Y7345121D01*
X2641346Y7342733D01*
X2640076Y7342936D01*
X2638501Y7345781D01*
X2637434Y7349642D01*
X2637180Y7353452D01*
X2605270Y7353452D01*
X2608884Y7349947D01*
X2612085Y7344714D01*
X2613437Y7338771D01*
X2665272Y7338771D01*
X2666847Y7344257D01*
X2670708Y7349947D01*
X2674823Y7354112D01*
X2679242Y7357160D01*
X2683865Y7359142D01*
X2688539Y7360158D01*
X2693162Y7360259D01*
X2697683Y7359497D01*
X2701899Y7358024D01*
X2705811Y7355840D01*
X2709214Y7353046D01*
X2712008Y7349744D01*
X2714142Y7345984D01*
X2715463Y7341819D01*
X2715869Y7337348D01*
X2715260Y7332675D01*
X2713532Y7327798D01*
X2710586Y7322870D01*
X2706217Y7318248D01*
X2701086Y7315200D01*
X2695498Y7313625D01*
X2689707Y7313523D01*
X2683865Y7314844D01*
X2678277Y7317638D01*
X2673197Y7321753D01*
X2668879Y7327290D01*
X2665984Y7333284D01*
X2665272Y7338771D01*
X2613437Y7338771D01*
X2613152Y7333488D01*
X2611272Y7328001D01*
X2607919Y7322972D01*
X2603296Y7318654D01*
X2597505Y7315301D01*
X2590647Y7313168D01*
X2584145Y7312964D01*
X2578201Y7314793D01*
X2572969Y7318248D01*
X2568803Y7323023D01*
X2565908Y7328712D01*
X2564485Y7335062D01*
X2537257Y7335062D01*
X2536190Y7332725D01*
X2550363Y7313726D01*
X2553970Y7309358D01*
X2557780Y7305446D01*
X2561793Y7301992D01*
X2566009Y7299096D01*
X2570378Y7296607D01*
X2574798Y7294625D01*
X2579370Y7293102D01*
X2583942Y7292035D01*
X2588564Y7291476D01*
X2593187Y7291374D01*
X2597708Y7291781D01*
X2602179Y7292594D01*
X2606548Y7293914D01*
X2610764Y7295692D01*
X2614828Y7297978D01*
X2618689Y7300671D01*
X2622245Y7303871D01*
X2625598Y7307529D01*
X2628646Y7311644D01*
X2631338Y7316216D01*
X2640634Y7333996D01*
X2648712Y7316317D01*
X2651099Y7311745D01*
X2653893Y7307630D01*
X2656992Y7304024D01*
X2660446Y7300823D01*
X2664155Y7298080D01*
X2668168Y7295845D01*
X2672334Y7294016D01*
X2676702Y7292695D01*
X2681173Y7291831D01*
X2685745Y7291425D01*
X2690418Y7291527D01*
X2695092Y7292086D01*
X2699766Y7293102D01*
X2704388Y7294575D01*
X2708910Y7296505D01*
X2713329Y7298944D01*
X2717596Y7301890D01*
X2721660Y7305243D01*
X2725470Y7309154D01*
X2729026Y7313472D01*
X2742996Y7332218D01*
X2725826Y7373721D01*
X2742133Y7404150D01*
X2732836Y7426604D01*
X2731008Y7431786D01*
X2729890Y7436713D01*
X2729585Y7439101D01*
X2729839Y7443978D01*
X2730347Y7446568D01*
X2732278Y7452004D01*
X2735580Y7458100D01*
X2740456Y7465110D01*
X2747010Y7473238D01*
X2755392Y7482789D01*
X2765856Y7493965D01*
X2793492Y7522159D01*
X2901645Y7629601D01*
X2964027Y7630007D01*
X3143050Y7450632D01*
X3189071Y7450632D01*
X3189224Y7454950D01*
X3191764Y7458811D01*
X3195726Y7461199D01*
X3200146Y7460996D01*
X3205276Y7458151D01*
X3211118Y7452563D01*
X3214370Y7448397D01*
X3216503Y7444587D01*
X3217621Y7441082D01*
X3217722Y7438136D01*
X3216960Y7435697D01*
X3215487Y7433868D01*
X3213303Y7432751D01*
X3210560Y7432395D01*
X3207359Y7432903D01*
X3203752Y7434376D01*
X3199892Y7436815D01*
X3195828Y7440371D01*
X3191256Y7445806D01*
X3189071Y7450632D01*
X3143050Y7450632D01*
X3145434Y7448245D01*
X3009544Y7305192D01*
X2939440Y7305192D01*
X2845816Y7210856D01*
X2731058Y7213853D01*
X2720289Y7242860D01*
X2556459Y7238949D01*
X2542133Y7211009D01*
X2434336Y7211009D01*
X2339441Y7305192D01*
X2269744Y7305192D01*
X2130704Y7444790D01*
X2087148Y7444790D01*
X2086508Y7443571D01*
X2082596Y7438999D01*
X2077872Y7435392D01*
X2072893Y7433208D01*
X2068118Y7432954D01*
X2064105Y7435088D01*
X2061667Y7438999D01*
X2013040Y7438999D01*
X2003602Y7430058D01*
X1998167Y7425385D01*
X1993646Y7421829D01*
X1989836Y7419390D01*
X1986788Y7417968D01*
X1984400Y7417612D01*
X1982622Y7418222D01*
X1981403Y7419797D01*
X1980692Y7422337D01*
X1980488Y7425842D01*
X1951105Y7425842D01*
X1953920Y7423912D01*
X1957019Y7420711D01*
X1959559Y7416800D01*
X1967484Y7401966D01*
X1959203Y7391958D01*
X1955139Y7387894D01*
X1950770Y7384897D01*
X1946198Y7382814D01*
X1941423Y7381646D01*
X1936699Y7381341D01*
X1932076Y7381798D01*
X1927606Y7383018D01*
X1923491Y7384846D01*
X1919833Y7387285D01*
X1916684Y7390282D01*
X1914194Y7393736D01*
X1912518Y7397597D01*
X1911654Y7401864D01*
X1893286Y7401864D01*
X1893042Y7370114D01*
X1994458Y7370114D01*
X1994916Y7372400D01*
X1996287Y7375448D01*
X1998472Y7379106D01*
X2001367Y7383272D01*
X2004872Y7387793D01*
X2008886Y7392517D01*
X2018080Y7402118D01*
X2023821Y7407402D01*
X2029053Y7411669D01*
X2033676Y7414869D01*
X2037740Y7417104D01*
X2041143Y7418425D01*
X2043887Y7418882D01*
X2045919Y7418476D01*
X2047239Y7417308D01*
X2047849Y7415377D01*
X2047646Y7412736D01*
X2046681Y7409484D01*
X2044295Y7404658D01*
X2091537Y7404658D01*
X2103374Y7417714D01*
X2108352Y7422794D01*
X2113127Y7426959D01*
X2117140Y7429753D01*
X2119884Y7430770D01*
X2120747Y7430414D01*
X2124456Y7427468D01*
X2130602Y7421930D01*
X2149144Y7404049D01*
X2180590Y7372248D01*
X2265070Y7284262D01*
X2333193Y7284262D01*
X2388311Y7228840D01*
X2401417Y7216495D01*
X2413711Y7205624D01*
X2429408Y7193280D01*
X2433624Y7190435D01*
X2437180Y7188352D01*
X2440025Y7187031D01*
X2447086Y7186066D01*
X2451811Y7184542D01*
X2455773Y7182358D01*
X2458415Y7179614D01*
X2461056Y7177379D01*
X2465628Y7175601D01*
X2471877Y7174280D01*
X2479294Y7173366D01*
X2487574Y7172909D01*
X2496312Y7172858D01*
X2505151Y7173214D01*
X2513634Y7173975D01*
X2521508Y7175144D01*
X2528316Y7176719D01*
X2533700Y7178700D01*
X2537256Y7181037D01*
X2545588Y7189368D01*
X2545588Y7132320D01*
X2726232Y7132320D01*
X2730500Y7176160D01*
X2773324Y7173772D01*
X2782620Y7173417D01*
X2791206Y7173366D01*
X2798927Y7173620D01*
X2805684Y7174179D01*
X2811322Y7174992D01*
X2815844Y7176109D01*
X2819044Y7177430D01*
X2820822Y7179005D01*
X2823565Y7181951D01*
X2827629Y7184390D01*
X2832455Y7186015D01*
X2839567Y7187031D01*
X2842412Y7188352D01*
X2845968Y7190435D01*
X2850184Y7193280D01*
X2860192Y7200950D01*
X2871876Y7210856D01*
X2884678Y7222490D01*
X2897936Y7235444D01*
X2946400Y7284262D01*
X3009798Y7284262D01*
X3104642Y7379258D01*
X3130143Y7404049D01*
X3149244Y7421930D01*
X3155543Y7427468D01*
X3159302Y7430414D01*
X3160115Y7430770D01*
X3162655Y7429804D01*
X3166465Y7427112D01*
X3170986Y7423150D01*
X3178279Y7415428D01*
X3229356Y7415428D01*
X3229813Y7419797D01*
X3231286Y7422438D01*
X3233775Y7423302D01*
X3237280Y7422438D01*
X3241954Y7419746D01*
X3247694Y7415275D01*
X3254654Y7408925D01*
X3260635Y7402982D01*
X3315614Y7402982D01*
X3316579Y7409129D01*
X3319779Y7416393D01*
X3322828Y7421067D01*
X3326384Y7424724D01*
X3330346Y7427417D01*
X3334512Y7429195D01*
X3338880Y7430058D01*
X3343300Y7430160D01*
X3347618Y7429449D01*
X3351784Y7428026D01*
X3355644Y7425893D01*
X3359150Y7423150D01*
X3362096Y7419848D01*
X3364484Y7415987D01*
X3366109Y7411669D01*
X3366871Y7406894D01*
X3366719Y7401712D01*
X3365500Y7396225D01*
X3363722Y7392314D01*
X3361182Y7389063D01*
X3357930Y7386370D01*
X3354222Y7384288D01*
X3350056Y7382916D01*
X3345637Y7382154D01*
X3341065Y7382052D01*
X3336493Y7382611D01*
X3331972Y7383881D01*
X3327704Y7385862D01*
X3323793Y7388555D01*
X3320389Y7391958D01*
X3316884Y7397394D01*
X3315614Y7402982D01*
X3260635Y7402982D01*
X3270148Y7392771D01*
X3276142Y7385354D01*
X3280664Y7378598D01*
X3283712Y7372705D01*
X3285185Y7367828D01*
X3284982Y7364171D01*
X3283153Y7361834D01*
X3279546Y7361021D01*
X3276701Y7361885D01*
X3272790Y7364374D01*
X3268014Y7368184D01*
X3262629Y7373010D01*
X3256940Y7378598D01*
X3245561Y7390942D01*
X3240430Y7397140D01*
X3235960Y7402931D01*
X3232454Y7408113D01*
X3230168Y7412380D01*
X3229356Y7415428D01*
X3178279Y7415428D01*
X3187039Y7405725D01*
X3002381Y7221474D01*
X2940100Y7221474D01*
X2842107Y7126071D01*
X2726232Y7132320D01*
X2545588Y7132320D01*
X2545588Y7127290D01*
X2433878Y7127798D01*
X2339441Y7221474D01*
X2270048Y7221423D01*
X2091537Y7404658D01*
X2044295Y7404658D01*
X2042160Y7401153D01*
X2038604Y7396175D01*
X2034133Y7390688D01*
X2028748Y7384846D01*
X2020214Y7376312D01*
X2013051Y7369759D01*
X2007107Y7365136D01*
X2002383Y7362444D01*
X1998827Y7361580D01*
X1996338Y7362596D01*
X1994916Y7365492D01*
X1994458Y7370114D01*
X1893042Y7370114D01*
X1892767Y7334351D01*
X1912213Y7334351D01*
X1912620Y7339838D01*
X1914956Y7345273D01*
X1919427Y7350607D01*
X1925015Y7354620D01*
X1931212Y7357211D01*
X1937766Y7358430D01*
X1944166Y7358125D01*
X1950110Y7356398D01*
X1955139Y7353147D01*
X1958848Y7348372D01*
X1961235Y7342378D01*
X1961931Y7337044D01*
X2029307Y7337044D01*
X2029815Y7338974D01*
X2031136Y7341616D01*
X2036064Y7348728D01*
X2043379Y7357414D01*
X2052320Y7366609D01*
X2061514Y7375296D01*
X2069541Y7382357D01*
X2075535Y7387183D01*
X2078583Y7388910D01*
X2080361Y7387691D01*
X2090623Y7378395D01*
X2108504Y7361275D01*
X2160625Y7309967D01*
X2269845Y7200544D01*
X2332482Y7200544D01*
X2434234Y7099452D01*
X2545537Y7099401D01*
X2545588Y7067702D01*
X2727960Y7067702D01*
X2727960Y7073138D01*
X2728518Y7078675D01*
X2729585Y7084212D01*
X2733446Y7099401D01*
X2845358Y7099452D01*
X2947111Y7200544D01*
X3009747Y7200544D01*
X3126384Y7317282D01*
X3153765Y7344257D01*
X3176422Y7366203D01*
X3192729Y7381494D01*
X3201060Y7388606D01*
X3201720Y7388910D01*
X3204057Y7388047D01*
X3207613Y7385507D01*
X3212084Y7381697D01*
X3222802Y7371283D01*
X3233978Y7359091D01*
X3239160Y7353046D01*
X3247136Y7342631D01*
X3249422Y7338771D01*
X3250234Y7336231D01*
X3249048Y7334097D01*
X3314750Y7334097D01*
X3315157Y7339990D01*
X3317697Y7345883D01*
X3321862Y7350810D01*
X3327146Y7354417D01*
X3333242Y7356805D01*
X3339744Y7357922D01*
X3346399Y7357719D01*
X3352698Y7356195D01*
X3358438Y7353300D01*
X3363163Y7349032D01*
X3366211Y7343952D01*
X3367379Y7338618D01*
X3366820Y7333284D01*
X3364687Y7328153D01*
X3361131Y7323531D01*
X3356203Y7319568D01*
X3350158Y7316571D01*
X3343097Y7314742D01*
X3335883Y7314539D01*
X3329381Y7316165D01*
X3323742Y7319162D01*
X3319272Y7323378D01*
X3316224Y7328458D01*
X3314750Y7334097D01*
X3249048Y7334097D01*
X3244291Y7328255D01*
X3234283Y7317130D01*
X3220161Y7301992D01*
X3181756Y7262164D01*
X3133750Y7213396D01*
X3067304Y7146848D01*
X3008376Y7088682D01*
X2962300Y7043877D01*
X2926892Y7010349D01*
X2914700Y6999274D01*
X2906928Y6992772D01*
X2904337Y6991248D01*
X2900121Y6992670D01*
X2894076Y6996582D01*
X2887116Y7002322D01*
X2875432Y7013854D01*
X2870403Y7018223D01*
X2865069Y7022439D01*
X2859328Y7026402D01*
X2853334Y7030212D01*
X2847035Y7033768D01*
X2840583Y7037070D01*
X2833928Y7040168D01*
X2827172Y7043013D01*
X2820365Y7045553D01*
X2813507Y7047839D01*
X2799943Y7051548D01*
X2793288Y7052919D01*
X2786786Y7053935D01*
X2780538Y7054646D01*
X2774492Y7054951D01*
X2768752Y7054951D01*
X2763316Y7054545D01*
X2758338Y7053732D01*
X2753766Y7052513D01*
X2749651Y7050887D01*
X2746044Y7048855D01*
X2743047Y7046366D01*
X2740609Y7044639D01*
X2738272Y7044232D01*
X2736037Y7045045D01*
X2733954Y7046925D01*
X2732125Y7049770D01*
X2730550Y7053376D01*
X2729331Y7057694D01*
X2728417Y7062470D01*
X2727960Y7067702D01*
X2545588Y7067702D01*
X2545588Y7037324D01*
X2537256Y7045655D01*
X2533700Y7047992D01*
X2528316Y7049973D01*
X2521508Y7051548D01*
X2513634Y7052716D01*
X2505151Y7053478D01*
X2496312Y7053834D01*
X2487574Y7053783D01*
X2479294Y7053325D01*
X2471877Y7052411D01*
X2465628Y7051090D01*
X2461056Y7049312D01*
X2458415Y7047077D01*
X2455773Y7044334D01*
X2451760Y7042150D01*
X2446985Y7040625D01*
X2439009Y7039609D01*
X2435301Y7038187D01*
X2431084Y7035901D01*
X2426360Y7032904D01*
X2421382Y7029297D01*
X2416200Y7025131D01*
X2411069Y7020559D01*
X2401163Y7010755D01*
X2391613Y7002018D01*
X2383180Y6995414D01*
X2379726Y6993178D01*
X2376982Y6991756D01*
X2375001Y6991248D01*
X2373579Y6991959D01*
X2366924Y6997192D01*
X2355748Y7007199D01*
X2322017Y7039000D01*
X2277059Y7082739D01*
X2225395Y7133742D01*
X2145690Y7213752D01*
X2097735Y7262672D01*
X2059381Y7302601D01*
X2045258Y7317790D01*
X2035302Y7328966D01*
X2030018Y7335621D01*
X2029307Y7337044D01*
X1961931Y7337044D01*
X1961235Y7331049D01*
X1959102Y7326020D01*
X1955698Y7321702D01*
X1951126Y7318298D01*
X1945538Y7315962D01*
X1938934Y7314895D01*
X1931974Y7315301D01*
X1925777Y7317181D01*
X1920493Y7320280D01*
X1916328Y7324344D01*
X1913534Y7329119D01*
X1912213Y7334351D01*
X1892767Y7334351D01*
X1892528Y7303262D01*
X1994458Y7303262D01*
X1994865Y7306716D01*
X1995982Y7309561D01*
X1997659Y7311491D01*
X1999742Y7312202D01*
X2000859Y7311542D01*
X2006854Y7306462D01*
X2017420Y7296759D01*
X2050288Y7265314D01*
X2095754Y7220864D01*
X2150008Y7167067D01*
X2212238Y7104481D01*
X2239162Y7076795D01*
X2262174Y7052767D01*
X2281123Y7032447D01*
X2296058Y7015835D01*
X2306878Y7002983D01*
X2313482Y6994042D01*
X2315260Y6990994D01*
X2315921Y6988962D01*
X2315870Y6988302D01*
X2315565Y6987895D01*
X2315006Y6987794D01*
X2312873Y6988759D01*
X2309418Y6990994D01*
X2299055Y6999173D01*
X2284526Y7011720D01*
X2266442Y7028027D01*
X2245410Y7047484D01*
X2197201Y7093305D01*
X2164689Y7124852D01*
X2106015Y7182815D01*
X2058771Y7230770D01*
X2038502Y7251852D01*
X2021332Y7270191D01*
X2007870Y7285177D01*
X1998725Y7296099D01*
X1996033Y7299909D01*
X1994611Y7302449D01*
X1994458Y7303262D01*
X1892528Y7303262D01*
X1892269Y7269530D01*
X1911146Y7269530D01*
X1911451Y7274559D01*
X1912874Y7279843D01*
X1915972Y7284516D01*
X1920798Y7287920D01*
X1926945Y7290053D01*
X1933854Y7290917D01*
X1941017Y7290460D01*
X1947976Y7288733D01*
X1954174Y7285634D01*
X1959203Y7281214D01*
X1967484Y7271207D01*
X1959559Y7256373D01*
X1956562Y7251903D01*
X1955500Y7250887D01*
X1980488Y7250887D01*
X1980895Y7253020D01*
X1982063Y7254748D01*
X1983739Y7255916D01*
X1985772Y7256373D01*
X1987092Y7255611D01*
X1993747Y7250023D01*
X2005228Y7239508D01*
X2039721Y7206386D01*
X2085086Y7161885D01*
X2167534Y7079538D01*
X2214880Y7031532D01*
X2252929Y6992315D01*
X2273494Y6970268D01*
X2388819Y6970268D01*
X2434234Y7015683D01*
X2542133Y7015683D01*
X2556459Y6987743D01*
X2720289Y6983831D01*
X2731058Y7012838D01*
X2846120Y7015835D01*
X2872159Y6988962D01*
X2963672Y6988962D01*
X2964332Y6990994D01*
X2966110Y6994042D01*
X2972714Y7002983D01*
X2983534Y7015835D01*
X2998470Y7032447D01*
X3017418Y7052767D01*
X3040430Y7076795D01*
X3067354Y7104481D01*
X3129584Y7167067D01*
X3183839Y7220864D01*
X3229254Y7265314D01*
X3262172Y7296759D01*
X3272739Y7306462D01*
X3278733Y7311542D01*
X3279851Y7312202D01*
X3282238Y7311898D01*
X3283864Y7311085D01*
X3284372Y7310424D01*
X3284677Y7309561D01*
X3284575Y7307427D01*
X3283610Y7304531D01*
X3281679Y7300874D01*
X3278733Y7296353D01*
X3269640Y7284618D01*
X3257124Y7270242D01*
X3315614Y7270242D01*
X3316884Y7275779D01*
X3320389Y7281214D01*
X3323793Y7284618D01*
X3327704Y7287310D01*
X3331972Y7289292D01*
X3336493Y7290562D01*
X3341065Y7291171D01*
X3345637Y7291070D01*
X3350056Y7290308D01*
X3354222Y7288885D01*
X3357930Y7286853D01*
X3361182Y7284161D01*
X3363722Y7280859D01*
X3365500Y7276947D01*
X3366719Y7271461D01*
X3366871Y7266330D01*
X3366109Y7261555D01*
X3364484Y7257237D01*
X3362096Y7253376D01*
X3359150Y7250023D01*
X3355644Y7247331D01*
X3351784Y7245197D01*
X3347618Y7243775D01*
X3343300Y7243064D01*
X3338880Y7243114D01*
X3334512Y7244029D01*
X3330346Y7245807D01*
X3326384Y7248499D01*
X3322828Y7252157D01*
X3319779Y7256830D01*
X3316579Y7264095D01*
X3315614Y7270242D01*
X3257124Y7270242D01*
X3242564Y7254341D01*
X3220110Y7230770D01*
X3192119Y7202119D01*
X3120542Y7130338D01*
X3089503Y7099706D01*
X3061614Y7072528D01*
X3036976Y7048906D01*
X3015691Y7028992D01*
X2997911Y7012889D01*
X2983687Y7000646D01*
X2977997Y6996023D01*
X2969361Y6989825D01*
X2966466Y6988251D01*
X2964586Y6987743D01*
X2964027Y6987895D01*
X2963722Y6988302D01*
X2963672Y6988962D01*
X2872159Y6988962D01*
X2890520Y6970014D01*
X2747568Y6827012D01*
X2696667Y6777278D01*
X2675737Y6757365D01*
X2658821Y6741718D01*
X2646832Y6731152D01*
X2642870Y6727952D01*
X2640431Y6726326D01*
X2639771Y6726123D01*
X2638145Y6726936D01*
X2630271Y6733286D01*
X2616911Y6745224D01*
X2598928Y6761988D01*
X2577084Y6782866D01*
X2524963Y6834022D01*
X2388819Y6970268D01*
X2273494Y6970268D01*
X2278186Y6964832D01*
X2329332Y6964832D01*
X2329637Y6967474D01*
X2330602Y6969201D01*
X2331313Y6969709D01*
X2332278Y6969963D01*
X2334717Y6969759D01*
X2337968Y6968490D01*
X2342083Y6966153D01*
X2347163Y6962648D01*
X2353259Y6958025D01*
X2368651Y6944918D01*
X2388768Y6926478D01*
X2414016Y6902297D01*
X2444953Y6872020D01*
X2481935Y6835190D01*
X2512822Y6803999D01*
X2539593Y6776567D01*
X2562098Y6752996D01*
X2580284Y6733286D01*
X2594102Y6717538D01*
X2603449Y6705853D01*
X2606446Y6701536D01*
X2608326Y6698234D01*
X2609037Y6696049D01*
X2670556Y6696049D01*
X2671267Y6698234D01*
X2673096Y6701536D01*
X2676093Y6705853D01*
X2685491Y6717538D01*
X2699308Y6733286D01*
X2717495Y6752996D01*
X2739999Y6776567D01*
X2766771Y6803999D01*
X2797657Y6835190D01*
X2834640Y6872020D01*
X2865526Y6902297D01*
X2890824Y6926478D01*
X2910890Y6944918D01*
X2926334Y6958025D01*
X2932430Y6962648D01*
X2937510Y6966153D01*
X2941624Y6968490D01*
X2944876Y6969759D01*
X2947314Y6969963D01*
X2948279Y6969709D01*
X2948990Y6969201D01*
X2949956Y6967474D01*
X2950260Y6964832D01*
X2949549Y6963613D01*
X2942956Y6955840D01*
X2996234Y6955840D01*
X2997301Y6958075D01*
X2999740Y6961733D01*
X3008731Y6972960D01*
X3022600Y6988911D01*
X3040735Y7008875D01*
X3062681Y7032345D01*
X3087776Y7058609D01*
X3115513Y7087108D01*
X3190138Y7162088D01*
X3218281Y7189774D01*
X3241395Y7212075D01*
X3259937Y7229348D01*
X3274314Y7241997D01*
X3284982Y7250328D01*
X3289046Y7252970D01*
X3292348Y7254697D01*
X3294938Y7255560D01*
X3296818Y7255560D01*
X3297529Y7255306D01*
X3298545Y7254138D01*
X3299053Y7252258D01*
X3299104Y7251090D01*
X3298342Y7249363D01*
X3296107Y7246264D01*
X3287674Y7236358D01*
X3274466Y7222083D01*
X3236722Y7183069D01*
X3201314Y7147509D01*
X3149346Y7096252D01*
X3097174Y7045756D01*
X3050590Y7001662D01*
X3031236Y6983831D01*
X3015437Y6969658D01*
X3003905Y6959955D01*
X2999994Y6957009D01*
X2997454Y6955383D01*
X2996692Y6955129D01*
X2996285Y6955231D01*
X2996234Y6955840D01*
X2942956Y6955840D01*
X2919222Y6930491D01*
X2879242Y6889343D01*
X2806801Y6816648D01*
X2776982Y6787286D01*
X2750464Y6761683D01*
X2727502Y6740042D01*
X2708148Y6722364D01*
X2692603Y6708952D01*
X2681071Y6699859D01*
X2676855Y6697014D01*
X2672537Y6694830D01*
X2671622Y6694728D01*
X2670962Y6694881D01*
X2670606Y6695338D01*
X2670556Y6696049D01*
X2609037Y6696049D01*
X2608986Y6695338D01*
X2608630Y6694881D01*
X2607970Y6694728D01*
X2607056Y6694830D01*
X2604465Y6695998D01*
X2600756Y6698284D01*
X2595981Y6701739D01*
X2583434Y6711899D01*
X2566974Y6726428D01*
X2546705Y6745071D01*
X2522778Y6767728D01*
X2495448Y6794296D01*
X2464816Y6824573D01*
X2418334Y6871106D01*
X2373833Y6916521D01*
X2342743Y6949135D01*
X2333599Y6959244D01*
X2329484Y6964375D01*
X2329332Y6964832D01*
X2278186Y6964832D01*
X2279751Y6962851D01*
X2280513Y6961530D01*
X2279904Y6959549D01*
X2278380Y6957872D01*
X2276094Y6956755D01*
X2273300Y6956348D01*
X2271826Y6957110D01*
X2265019Y6962648D01*
X2253488Y6973163D01*
X2237943Y6987844D01*
X2197506Y7027164D01*
X2149195Y7075068D01*
X2073910Y7151014D01*
X2029917Y7196328D01*
X1997151Y7230973D01*
X1986737Y7242606D01*
X1981200Y7249464D01*
X1980488Y7250887D01*
X1955500Y7250887D01*
X1953006Y7248499D01*
X1948992Y7246112D01*
X1944674Y7244689D01*
X1940153Y7244130D01*
X1935581Y7244435D01*
X1931060Y7245502D01*
X1926691Y7247280D01*
X1922678Y7249718D01*
X1919020Y7252766D01*
X1915972Y7256322D01*
X1913534Y7260336D01*
X1911857Y7264755D01*
X1911146Y7269530D01*
X1892269Y7269530D01*
X1892096Y7247077D01*
X1904898Y7234275D01*
X1907946Y7231684D01*
X1911654Y7229246D01*
X1915922Y7227112D01*
X1920595Y7225182D01*
X1925472Y7223658D01*
X1930501Y7222439D01*
X1935530Y7221728D01*
X1940356Y7221423D01*
X1963064Y7221423D01*
X2248058Y6935520D01*
X2294432Y6935520D01*
X2294839Y6938213D01*
X2296007Y6940397D01*
X2297684Y6941870D01*
X2299766Y6942429D01*
X2301646Y6941566D01*
X2304999Y6939127D01*
X2315718Y6929932D01*
X2331059Y6915708D01*
X2350160Y6897319D01*
X2395982Y6851853D01*
X2420924Y6826503D01*
X2464562Y6781546D01*
X2509164Y6734403D01*
X2527249Y6714744D01*
X2541320Y6698843D01*
X2550566Y6687616D01*
X2553711Y6682943D01*
X2724302Y6682943D01*
X2724302Y6683603D01*
X2725420Y6686092D01*
X2728214Y6690207D01*
X2732481Y6695744D01*
X2738170Y6702602D01*
X2758033Y6725107D01*
X2778861Y6747713D01*
X2803347Y6773468D01*
X2830728Y6801612D01*
X2874975Y6846062D01*
X2907944Y6878675D01*
X2933954Y6903821D01*
X2953766Y6922058D01*
X2961538Y6928764D01*
X2968040Y6933996D01*
X2973374Y6937857D01*
X2977540Y6940346D01*
X2980740Y6941566D01*
X2982976Y6941616D01*
X2983788Y6941210D01*
X2984398Y6940600D01*
X2985058Y6938518D01*
X2985160Y6937095D01*
X2984296Y6935216D01*
X2981858Y6931863D01*
X2972663Y6921144D01*
X2958439Y6905802D01*
X2940050Y6886702D01*
X2918460Y6864807D01*
X2882036Y6828485D01*
X2836976Y6784543D01*
X2788107Y6737959D01*
X2766872Y6718198D01*
X2748991Y6702044D01*
X2735326Y6690258D01*
X2730347Y6686296D01*
X2726791Y6683806D01*
X2724759Y6682841D01*
X2553711Y6682943D01*
X2554071Y6682028D01*
X2553919Y6681622D01*
X2553360Y6681571D01*
X2551023Y6682740D01*
X2547213Y6685381D01*
X2535682Y6694830D01*
X2519629Y6709003D01*
X2499969Y6727088D01*
X2477465Y6748221D01*
X2427732Y6796074D01*
X2389784Y6833514D01*
X2365756Y6857542D01*
X2343810Y6879894D01*
X2324862Y6899605D01*
X2309774Y6915912D01*
X2299411Y6927900D01*
X2296261Y6932015D01*
X2294636Y6934758D01*
X2294432Y6935520D01*
X2248058Y6935520D01*
X2349601Y6833260D01*
X2440279Y6740906D01*
X2477160Y6702958D01*
X2509067Y6669735D01*
X2637180Y6669735D01*
X2637739Y6673037D01*
X2639060Y6675424D01*
X2640685Y6675983D01*
X2641904Y6674459D01*
X2642616Y6671106D01*
X2642717Y6666230D01*
X2642260Y6661403D01*
X2641346Y6659016D01*
X2640076Y6659219D01*
X2638501Y6662013D01*
X2637434Y6665925D01*
X2637180Y6669735D01*
X2509067Y6669735D01*
X2520317Y6657898D01*
X2569616Y6657898D01*
X2569768Y6661403D01*
X2570886Y6664350D01*
X2572816Y6666382D01*
X2576474Y6666331D01*
X2581808Y6663537D01*
X2588056Y6658711D01*
X2594508Y6652666D01*
X2600299Y6646113D01*
X2604820Y6639915D01*
X2607208Y6634784D01*
X2607127Y6634124D01*
X2671165Y6634124D01*
X2671876Y6637985D01*
X2673807Y6642455D01*
X2676906Y6647281D01*
X2681071Y6652310D01*
X2686202Y6657289D01*
X2696057Y6665772D01*
X2701493Y6669379D01*
X2704795Y6669024D01*
X2708452Y6665620D01*
X2708960Y6662521D01*
X2707030Y6657644D01*
X2703220Y6651599D01*
X2698140Y6645097D01*
X2692400Y6638848D01*
X2686558Y6633565D01*
X2681224Y6629857D01*
X2676956Y6628485D01*
X2673604Y6629146D01*
X2671724Y6631127D01*
X2671165Y6634124D01*
X2607127Y6634124D01*
X2606802Y6631482D01*
X2603906Y6630517D01*
X2599486Y6631279D01*
X2594152Y6633464D01*
X2588260Y6636715D01*
X2582468Y6640779D01*
X2577236Y6645249D01*
X2573020Y6649872D01*
X2570480Y6654241D01*
X2569616Y6657898D01*
X2520317Y6657898D01*
X2536494Y6640423D01*
X2544470Y6631076D01*
X2548077Y6622491D01*
X2549144Y6614769D01*
X2547975Y6606692D01*
X2545470Y6599986D01*
X2637180Y6599986D01*
X2637739Y6603288D01*
X2639060Y6605625D01*
X2640685Y6606235D01*
X2641904Y6604711D01*
X2642616Y6601358D01*
X2642717Y6596481D01*
X2642260Y6591604D01*
X2641346Y6589217D01*
X2640076Y6589420D01*
X2638501Y6592265D01*
X2637434Y6596176D01*
X2637180Y6599986D01*
X2545470Y6599986D01*
X2544521Y6597446D01*
X2536393Y6579616D01*
X2537365Y6577482D01*
X2561894Y6577482D01*
X2562199Y6583476D01*
X2564028Y6590080D01*
X2566060Y6594602D01*
X2568244Y6597751D01*
X2570784Y6599478D01*
X2573731Y6599783D01*
X2577338Y6598666D01*
X2581656Y6596024D01*
X2586888Y6591909D01*
X2593136Y6586321D01*
X2599842Y6579616D01*
X2604465Y6573875D01*
X2605573Y6571792D01*
X2671724Y6571792D01*
X2673756Y6576974D01*
X2677820Y6582714D01*
X2683967Y6589014D01*
X2689809Y6593890D01*
X2695092Y6597345D01*
X2699816Y6599377D01*
X2703931Y6599986D01*
X2707487Y6599224D01*
X2710434Y6596989D01*
X2712821Y6593382D01*
X2714599Y6588353D01*
X2716022Y6581190D01*
X2716225Y6575044D01*
X2715260Y6569913D01*
X2713024Y6565798D01*
X2709570Y6562648D01*
X2704896Y6560413D01*
X2698851Y6559143D01*
X2691536Y6558686D01*
X2683662Y6559296D01*
X2677769Y6560972D01*
X2673756Y6563715D01*
X2671775Y6567373D01*
X2671724Y6571792D01*
X2605573Y6571792D01*
X2607005Y6569100D01*
X2607462Y6565290D01*
X2605836Y6562344D01*
X2602077Y6560312D01*
X2596184Y6559092D01*
X2588209Y6558686D01*
X2580843Y6559296D01*
X2574544Y6561023D01*
X2569464Y6563817D01*
X2565603Y6567525D01*
X2563063Y6572148D01*
X2561894Y6577482D01*
X2537365Y6577482D01*
X2544521Y6561785D01*
X2547874Y6552742D01*
X2549093Y6544767D01*
X2548128Y6537299D01*
X2545029Y6529730D01*
X2542844Y6525107D01*
X2541219Y6520484D01*
X2540152Y6516014D01*
X2539593Y6511544D01*
X2539559Y6508648D01*
X2561894Y6508648D01*
X2562352Y6514338D01*
X2564028Y6520332D01*
X2566822Y6523939D01*
X2571750Y6526885D01*
X2578201Y6529070D01*
X2585567Y6530441D01*
X2593136Y6530949D01*
X2600248Y6530441D01*
X2601232Y6530187D01*
X2637180Y6530187D01*
X2637739Y6533540D01*
X2639060Y6535877D01*
X2640685Y6536435D01*
X2641904Y6534912D01*
X2642616Y6531559D01*
X2642717Y6526733D01*
X2642260Y6521856D01*
X2641346Y6519468D01*
X2640076Y6519672D01*
X2638501Y6522516D01*
X2637434Y6526377D01*
X2637180Y6530187D01*
X2601232Y6530187D01*
X2606344Y6528866D01*
X2610713Y6526123D01*
X2613558Y6522161D01*
X2615082Y6517436D01*
X2615488Y6512255D01*
X2614748Y6506972D01*
X2665323Y6506972D01*
X2665526Y6512052D01*
X2667660Y6519367D01*
X2672029Y6524447D01*
X2679192Y6527647D01*
X2689656Y6529425D01*
X2697530Y6529730D01*
X2703982Y6529019D01*
X2709113Y6527241D01*
X2712821Y6524396D01*
X2715260Y6520434D01*
X2716377Y6515303D01*
X2716174Y6509054D01*
X2714701Y6501638D01*
X2712923Y6496862D01*
X2710383Y6492951D01*
X2707182Y6489852D01*
X2703423Y6487566D01*
X2699308Y6486042D01*
X2694940Y6485280D01*
X2690418Y6485178D01*
X2685897Y6485839D01*
X2681528Y6487109D01*
X2677414Y6488988D01*
X2673705Y6491478D01*
X2670505Y6494576D01*
X2667965Y6498183D01*
X2666187Y6502349D01*
X2665323Y6506972D01*
X2614748Y6506972D01*
X2612948Y6501536D01*
X2610154Y6496659D01*
X2606446Y6492443D01*
X2601925Y6489192D01*
X2596032Y6486652D01*
X2590241Y6485382D01*
X2584653Y6485229D01*
X2579471Y6486194D01*
X2574696Y6488074D01*
X2570530Y6490817D01*
X2567076Y6494322D01*
X2564384Y6498539D01*
X2562656Y6503314D01*
X2561894Y6508648D01*
X2539559Y6508648D01*
X2539949Y6503060D01*
X2540812Y6498945D01*
X2542082Y6495034D01*
X2543759Y6491274D01*
X2545791Y6487718D01*
X2548128Y6484315D01*
X2550769Y6481114D01*
X2553716Y6478168D01*
X2556916Y6475476D01*
X2560320Y6472986D01*
X2563926Y6470802D01*
X2567686Y6468922D01*
X2571597Y6467297D01*
X2575610Y6466027D01*
X2579725Y6465062D01*
X2583942Y6464401D01*
X2588107Y6464147D01*
X2592324Y6464300D01*
X2596540Y6464808D01*
X2600655Y6465722D01*
X2604770Y6467043D01*
X2608732Y6468821D01*
X2612542Y6471056D01*
X2616200Y6473748D01*
X2619705Y6476898D01*
X2623007Y6480556D01*
X2626004Y6484721D01*
X2636875Y6501282D01*
X2661259Y6477101D01*
X2665679Y6473342D01*
X2670149Y6469888D01*
X2678684Y6464452D01*
X2682494Y6462623D01*
X2685846Y6461455D01*
X2688539Y6460998D01*
X2694686Y6461404D01*
X2700578Y6462572D01*
X2706166Y6464452D01*
X2711399Y6466992D01*
X2716276Y6470091D01*
X2720746Y6473748D01*
X2724708Y6477863D01*
X2728264Y6482435D01*
X2731211Y6487363D01*
X2733649Y6492544D01*
X2735427Y6498031D01*
X2736596Y6503720D01*
X2737053Y6509562D01*
X2736799Y6515455D01*
X2735783Y6521399D01*
X2731617Y6535826D01*
X2730855Y6544716D01*
X2731617Y6553606D01*
X2736342Y6570776D01*
X2737104Y6579768D01*
X2736240Y6588759D01*
X2731262Y6606387D01*
X2730550Y6614769D01*
X2731719Y6622846D01*
X2734970Y6631127D01*
X2737662Y6634530D01*
X2750515Y6648754D01*
X2772308Y6671919D01*
X2802178Y6703009D01*
X2881934Y6784695D01*
X2981604Y6885635D01*
X3316478Y7221474D01*
X3339185Y7221474D01*
X3344367Y7221728D01*
X3349599Y7222540D01*
X3354730Y7223759D01*
X3359708Y7225487D01*
X3364433Y7227620D01*
X3368903Y7230109D01*
X3372967Y7232954D01*
X3376523Y7236155D01*
X3391154Y7250785D01*
X3385210Y7281824D01*
X3383076Y7297267D01*
X3382924Y7303211D01*
X3388258Y7425385D01*
X3375050Y7438542D01*
X3368446Y7443673D01*
X3360115Y7447838D01*
X3351174Y7450683D01*
X3342640Y7451699D01*
X3323386Y7451699D01*
X3129483Y7645857D01*
X3077718Y7698486D01*
X3034487Y7743342D01*
X3016910Y7761935D01*
X3002584Y7777480D01*
X2991815Y7789621D01*
X2984906Y7797901D01*
X2983026Y7800543D01*
X2982264Y7802067D01*
X2983788Y7804962D01*
X2984195Y7808518D01*
X2983687Y7812887D01*
X2982366Y7817866D01*
X2980334Y7823200D01*
X2977692Y7828788D01*
X2974543Y7834325D01*
X2970987Y7839709D01*
X2967177Y7844637D01*
X2963164Y7848955D01*
X2959049Y7852460D01*
X2954985Y7855000D01*
X2949498Y7857134D01*
X2943809Y7858404D01*
X2938068Y7858912D01*
X2932277Y7858607D01*
X2926588Y7857591D01*
X2920949Y7855915D01*
X2915564Y7853629D01*
X2910433Y7850733D01*
X2905607Y7847330D01*
X2901238Y7843367D01*
X2897327Y7839049D01*
X2893974Y7834274D01*
X2891231Y7829143D01*
X2889199Y7823708D01*
X2887929Y7817967D01*
X2887319Y7810855D01*
X2886049Y7807604D01*
X2883560Y7803286D01*
X2879223Y7797088D01*
X2911906Y7797088D01*
X2911906Y7831937D01*
X2930601Y7834122D01*
X2939288Y7834274D01*
X2946400Y7832547D01*
X2952038Y7828889D01*
X2956306Y7823250D01*
X2959049Y7816596D01*
X2960014Y7810601D01*
X2959201Y7805369D01*
X2956712Y7801051D01*
X2952648Y7797698D01*
X2947162Y7795463D01*
X2940253Y7794447D01*
X2932074Y7794752D01*
X2911906Y7797088D01*
X2879223Y7797088D01*
X2874772Y7791297D01*
X2860903Y7774838D01*
X2841955Y7753959D01*
X2817977Y7728559D01*
X2788869Y7698689D01*
X2639923Y7549388D01*
X2494076Y7695234D01*
X2467102Y7723022D01*
X2443226Y7748219D01*
X2423160Y7770114D01*
X2407564Y7787944D01*
X2397048Y7801051D01*
X2393950Y7805623D01*
X2392324Y7808671D01*
X2391714Y7816088D01*
X2390546Y7822285D01*
X2388666Y7828076D01*
X2386126Y7833563D01*
X2383028Y7838592D01*
X2379370Y7843215D01*
X2375204Y7847279D01*
X2370683Y7850886D01*
X2365756Y7853832D01*
X2360523Y7856220D01*
X2355088Y7857947D01*
X2349449Y7858963D01*
G37*
D67*
X5644997Y5775322D02*
G01*
X5644997Y5666219D01*
X5644997Y5775322D02*
G01*
X5598238Y5775322D01*
X5582653Y5770128D01*
X5577456Y5764931D01*
X5572262Y5754540D01*
X5572262Y5744149D01*
X5577456Y5733757D01*
X5582653Y5728563D01*
X5598238Y5723369D01*
X5644997Y5723369D01*
X5608629Y5723369D02*
G01*
X5572262Y5666219D01*
X5537972Y5775322D02*
G01*
X5537972Y5666219D01*
X5537972Y5775322D02*
G01*
X5470431Y5775322D01*
X5537972Y5723369D02*
G01*
X5496407Y5723369D01*
X5537972Y5666219D02*
G01*
X5470431Y5666219D01*
X5436141Y5775322D02*
G01*
X5394576Y5666219D01*
X5353011Y5775322D02*
G01*
X5394576Y5666219D01*
X5238711Y5754540D02*
G01*
X5228323Y5759737D01*
X5212735Y5775322D01*
X5212735Y5666219D01*
X5173251Y5692195D02*
G01*
X5178445Y5686999D01*
X5173251Y5681804D01*
X5168054Y5686999D01*
X5173251Y5692195D01*
X5107787Y5775322D02*
G01*
X5123373Y5770128D01*
X5128569Y5759737D01*
X5128569Y5749345D01*
X5123373Y5738954D01*
X5112981Y5733757D01*
X5092202Y5728563D01*
X5076614Y5723369D01*
X5066223Y5712978D01*
X5061028Y5702587D01*
X5061028Y5686999D01*
X5066223Y5676607D01*
X5071419Y5671413D01*
X5087005Y5666219D01*
X5107787Y5666219D01*
X5123373Y5671413D01*
X5128569Y5676607D01*
X5133764Y5686999D01*
X5133764Y5702587D01*
X5128569Y5712978D01*
X5118178Y5723369D01*
X5102593Y5728563D01*
X5081811Y5733757D01*
X5071419Y5738954D01*
X5066223Y5749345D01*
X5066223Y5759737D01*
X5071419Y5770128D01*
X5087005Y5775322D01*
X5107787Y5775322D01*
X3294994Y5775327D02*
G01*
X3294994Y5666224D01*
X3294994Y5775327D02*
G01*
X3248235Y5775327D01*
X3232650Y5770133D01*
X3227453Y5764936D01*
X3222259Y5754545D01*
X3222259Y5744154D01*
X3227453Y5733762D01*
X3232650Y5728568D01*
X3248235Y5723374D01*
X3294994Y5723374D02*
G01*
X3248235Y5723374D01*
X3232650Y5718177D01*
X3227453Y5712983D01*
X3222259Y5702592D01*
X3222259Y5687004D01*
X3227453Y5676612D01*
X3232650Y5671418D01*
X3248235Y5666224D01*
X3294994Y5666224D01*
X3187969Y5775327D02*
G01*
X3182772Y5770133D01*
X3177578Y5775327D01*
X3182772Y5780524D01*
X3187969Y5775327D01*
X3182772Y5738959D02*
G01*
X3182772Y5666224D01*
X3117308Y5738959D02*
G01*
X3127700Y5733762D01*
X3138091Y5723374D01*
X3143288Y5707786D01*
X3143288Y5697395D01*
X3138091Y5681809D01*
X3127700Y5671418D01*
X3117308Y5666224D01*
X3101723Y5666224D01*
X3091332Y5671418D01*
X3080941Y5681809D01*
X3075746Y5697395D01*
X3075746Y5707786D01*
X3080941Y5723374D01*
X3091332Y5733762D01*
X3101723Y5738959D01*
X3117308Y5738959D01*
X2999892Y5775327D02*
G01*
X3010283Y5775327D01*
X3020674Y5770133D01*
X3025868Y5754545D01*
X3025868Y5666224D01*
X3041456Y5738959D02*
G01*
X3005089Y5738959D01*
X2965602Y5738959D02*
G01*
X2965602Y5687004D01*
X2960408Y5671418D01*
X2950016Y5666224D01*
X2934428Y5666224D01*
X2924040Y5671418D01*
X2908452Y5687004D01*
X2908452Y5738959D02*
G01*
X2908452Y5666224D01*
X2817012Y5723374D02*
G01*
X2822209Y5733762D01*
X2837794Y5738959D01*
X2853380Y5738959D01*
X2868968Y5733762D01*
X2874162Y5723374D01*
X2868968Y5712983D01*
X2858576Y5707786D01*
X2832600Y5702592D01*
X2822209Y5697395D01*
X2817012Y5687004D01*
X2817012Y5681809D01*
X2822209Y5671418D01*
X2837794Y5666224D01*
X2853380Y5666224D01*
X2868968Y5671418D01*
X2874162Y5681809D01*
X2782722Y5775327D02*
G01*
X2777528Y5770133D01*
X2772331Y5775327D01*
X2777528Y5780524D01*
X2782722Y5775327D01*
X2777528Y5738959D02*
G01*
X2777528Y5666224D01*
X2712064Y5738959D02*
G01*
X2722455Y5733762D01*
X2732846Y5723374D01*
X2738041Y5707786D01*
X2738041Y5697395D01*
X2732846Y5681809D01*
X2722455Y5671418D01*
X2712064Y5666224D01*
X2696479Y5666224D01*
X2686088Y5671418D01*
X2675696Y5681809D01*
X2670500Y5697395D01*
X2670500Y5707786D01*
X2675696Y5723374D01*
X2686088Y5733762D01*
X2696479Y5738959D01*
X2712064Y5738959D01*
X2636210Y5738959D02*
G01*
X2636210Y5666224D01*
X2636210Y5718177D02*
G01*
X2620624Y5733762D01*
X2610233Y5738959D01*
X2594648Y5738959D01*
X2584256Y5733762D01*
X2579060Y5718177D01*
X2579060Y5666224D01*
X2464760Y5775327D02*
G01*
X2464760Y5666224D01*
X2464760Y5775327D02*
G01*
X2397218Y5775327D01*
X2464760Y5723374D02*
G01*
X2423198Y5723374D01*
X2464760Y5666224D02*
G01*
X2397218Y5666224D01*
X2362928Y5738959D02*
G01*
X2362928Y5666224D01*
X2362928Y5718177D02*
G01*
X2347343Y5733762D01*
X2336952Y5738959D01*
X2321366Y5738959D01*
X2310975Y5733762D01*
X2305778Y5718177D01*
X2305778Y5666224D01*
X2209144Y5738959D02*
G01*
X2209144Y5655833D01*
X2214338Y5640245D01*
X2219535Y5635050D01*
X2229926Y5629854D01*
X2245512Y5629854D01*
X2255903Y5635050D01*
X2209144Y5723374D02*
G01*
X2219535Y5733762D01*
X2229926Y5738959D01*
X2245512Y5738959D01*
X2255903Y5733762D01*
X2266294Y5723374D01*
X2271488Y5707786D01*
X2271488Y5697395D01*
X2266294Y5681809D01*
X2255903Y5671418D01*
X2245512Y5666224D01*
X2229926Y5666224D01*
X2219535Y5671418D01*
X2209144Y5681809D01*
X2174854Y5775327D02*
G01*
X2169660Y5770133D01*
X2164463Y5775327D01*
X2169660Y5780524D01*
X2174854Y5775327D01*
X2169660Y5738959D02*
G01*
X2169660Y5666224D01*
X2130173Y5738959D02*
G01*
X2130173Y5666224D01*
X2130173Y5718177D02*
G01*
X2114588Y5733762D01*
X2104196Y5738959D01*
X2088608Y5738959D01*
X2078220Y5733762D01*
X2073023Y5718177D01*
X2073023Y5666224D01*
X2038733Y5707786D02*
G01*
X1976389Y5707786D01*
X1976389Y5718177D01*
X1981583Y5728568D01*
X1986780Y5733762D01*
X1997168Y5738959D01*
X2012756Y5738959D01*
X2023148Y5733762D01*
X2033539Y5723374D01*
X2038733Y5707786D01*
X2038733Y5697395D01*
X2033539Y5681809D01*
X2023148Y5671418D01*
X2012756Y5666224D01*
X1997168Y5666224D01*
X1986780Y5671418D01*
X1976389Y5681809D01*
X1942099Y5707786D02*
G01*
X1879752Y5707786D01*
X1879752Y5718177D01*
X1884949Y5728568D01*
X1890143Y5733762D01*
X1900534Y5738959D01*
X1916120Y5738959D01*
X1926511Y5733762D01*
X1936902Y5723374D01*
X1942099Y5707786D01*
X1942099Y5697395D01*
X1936902Y5681809D01*
X1926511Y5671418D01*
X1916120Y5666224D01*
X1900534Y5666224D01*
X1890143Y5671418D01*
X1879752Y5681809D01*
X1845462Y5738959D02*
G01*
X1845462Y5666224D01*
X1845462Y5707786D02*
G01*
X1840268Y5723374D01*
X1829876Y5733762D01*
X1819485Y5738959D01*
X1803900Y5738959D01*
X1769610Y5775327D02*
G01*
X1764413Y5770133D01*
X1759219Y5775327D01*
X1764413Y5780524D01*
X1769610Y5775327D01*
X1764413Y5738959D02*
G01*
X1764413Y5666224D01*
X1724929Y5738959D02*
G01*
X1724929Y5666224D01*
X1724929Y5718177D02*
G01*
X1709341Y5733762D01*
X1698950Y5738959D01*
X1683364Y5738959D01*
X1672973Y5733762D01*
X1667779Y5718177D01*
X1667779Y5666224D01*
X1571142Y5738959D02*
G01*
X1571142Y5655833D01*
X1576339Y5640245D01*
X1581533Y5635050D01*
X1591924Y5629854D01*
X1607510Y5629854D01*
X1617901Y5635050D01*
X1571142Y5723374D02*
G01*
X1581533Y5733762D01*
X1591924Y5738959D01*
X1607510Y5738959D01*
X1617901Y5733762D01*
X1628292Y5723374D01*
X1633489Y5707786D01*
X1633489Y5697395D01*
X1628292Y5681809D01*
X1617901Y5671418D01*
X1607510Y5666224D01*
X1591924Y5666224D01*
X1581533Y5671418D01*
X1571142Y5681809D01*
X1378910Y5749350D02*
G01*
X1384106Y5759742D01*
X1394498Y5770133D01*
X1404889Y5775327D01*
X1425668Y5775327D01*
X1436060Y5770133D01*
X1446451Y5759742D01*
X1451648Y5749350D01*
X1456842Y5733762D01*
X1456842Y5707786D01*
X1451648Y5692200D01*
X1446451Y5681809D01*
X1436060Y5671418D01*
X1425668Y5666224D01*
X1404889Y5666224D01*
X1394498Y5671418D01*
X1384106Y5681809D01*
X1378910Y5692200D01*
X1318643Y5738959D02*
G01*
X1329034Y5733762D01*
X1339425Y5723374D01*
X1344620Y5707786D01*
X1344620Y5697395D01*
X1339425Y5681809D01*
X1329034Y5671418D01*
X1318643Y5666224D01*
X1303058Y5666224D01*
X1292666Y5671418D01*
X1282275Y5681809D01*
X1277078Y5697395D01*
X1277078Y5707786D01*
X1282275Y5723374D01*
X1292666Y5733762D01*
X1303058Y5738959D01*
X1318643Y5738959D01*
X1242788Y5738959D02*
G01*
X1242788Y5666224D01*
X1242788Y5718177D02*
G01*
X1227203Y5733762D01*
X1216812Y5738959D01*
X1201226Y5738959D01*
X1190835Y5733762D01*
X1185638Y5718177D01*
X1185638Y5666224D01*
X1185638Y5718177D02*
G01*
X1170053Y5733762D01*
X1159662Y5738959D01*
X1144076Y5738959D01*
X1133685Y5733762D01*
X1128488Y5718177D01*
X1128488Y5666224D01*
X1094198Y5738959D02*
G01*
X1094198Y5629854D01*
X1094198Y5723374D02*
G01*
X1083810Y5733762D01*
X1073419Y5738959D01*
X1057831Y5738959D01*
X1047440Y5733762D01*
X1037048Y5723374D01*
X1031854Y5707786D01*
X1031854Y5697395D01*
X1037048Y5681809D01*
X1047440Y5671418D01*
X1057831Y5666224D01*
X1073419Y5666224D01*
X1083810Y5671418D01*
X1094198Y5681809D01*
X935220Y5738959D02*
G01*
X935220Y5666224D01*
X935220Y5723374D02*
G01*
X945608Y5733762D01*
X956000Y5738959D01*
X971588Y5738959D01*
X981979Y5733762D01*
X992370Y5723374D01*
X997564Y5707786D01*
X997564Y5697395D01*
X992370Y5681809D01*
X981979Y5671418D01*
X971588Y5666224D01*
X956000Y5666224D01*
X945608Y5671418D01*
X935220Y5681809D01*
X900930Y5738959D02*
G01*
X900930Y5666224D01*
X900930Y5718177D02*
G01*
X885342Y5733762D01*
X874951Y5738959D01*
X859365Y5738959D01*
X848974Y5733762D01*
X843780Y5718177D01*
X843780Y5666224D01*
X804293Y5738959D02*
G01*
X773120Y5666224D01*
X741949Y5738959D02*
G01*
X773120Y5666224D01*
X783511Y5645442D01*
X793902Y5635050D01*
X804293Y5629854D01*
X809490Y5629854D01*
X3294994Y5970325D02*
G01*
X3294994Y5861222D01*
X3294994Y5970325D02*
G01*
X3248235Y5970325D01*
X3232650Y5965131D01*
X3227453Y5959934D01*
X3222259Y5949543D01*
X3222259Y5933958D01*
X3227453Y5923567D01*
X3232650Y5918372D01*
X3248235Y5913175D01*
X3294994Y5913175D01*
X3187969Y5933958D02*
G01*
X3187969Y5861222D01*
X3187969Y5902784D02*
G01*
X3182772Y5918372D01*
X3172381Y5928761D01*
X3161990Y5933958D01*
X3146404Y5933958D01*
X3086138Y5933958D02*
G01*
X3096529Y5928761D01*
X3106920Y5918372D01*
X3112114Y5902784D01*
X3112114Y5892393D01*
X3106920Y5876808D01*
X3096529Y5866417D01*
X3086138Y5861222D01*
X3070550Y5861222D01*
X3060158Y5866417D01*
X3049770Y5876808D01*
X3044573Y5892393D01*
X3044573Y5902784D01*
X3049770Y5918372D01*
X3060158Y5928761D01*
X3070550Y5933958D01*
X3086138Y5933958D01*
X3010283Y5933958D02*
G01*
X3010283Y5824852D01*
X3010283Y5918372D02*
G01*
X2999892Y5928761D01*
X2989501Y5933958D01*
X2973915Y5933958D01*
X2963524Y5928761D01*
X2953133Y5918372D01*
X2947939Y5902784D01*
X2947939Y5892393D01*
X2953133Y5876808D01*
X2963524Y5866417D01*
X2973915Y5861222D01*
X2989501Y5861222D01*
X2999892Y5866417D01*
X3010283Y5876808D01*
X2913649Y5902784D02*
G01*
X2851302Y5902784D01*
X2851302Y5913175D01*
X2856499Y5923567D01*
X2861693Y5928761D01*
X2872084Y5933958D01*
X2887670Y5933958D01*
X2898061Y5928761D01*
X2908452Y5918372D01*
X2913649Y5902784D01*
X2913649Y5892393D01*
X2908452Y5876808D01*
X2898061Y5866417D01*
X2887670Y5861222D01*
X2872084Y5861222D01*
X2861693Y5866417D01*
X2851302Y5876808D01*
X2817012Y5933958D02*
G01*
X2817012Y5861222D01*
X2817012Y5902784D02*
G01*
X2811818Y5918372D01*
X2801426Y5928761D01*
X2791035Y5933958D01*
X2775450Y5933958D01*
X2725572Y5970325D02*
G01*
X2725572Y5882002D01*
X2720378Y5866417D01*
X2709986Y5861222D01*
X2699595Y5861222D01*
X2741160Y5933958D02*
G01*
X2704790Y5933958D01*
X2660108Y5933958D02*
G01*
X2628938Y5861222D01*
X2597764Y5933958D02*
G01*
X2628938Y5861222D01*
X2639329Y5840440D01*
X2649720Y5830049D01*
X2660108Y5824852D01*
X2665305Y5824852D01*
X2457488Y5933958D02*
G01*
X2467879Y5928761D01*
X2478270Y5918372D01*
X2483464Y5902784D01*
X2483464Y5892393D01*
X2478270Y5876808D01*
X2467879Y5866417D01*
X2457488Y5861222D01*
X2441900Y5861222D01*
X2431508Y5866417D01*
X2421120Y5876808D01*
X2415923Y5892393D01*
X2415923Y5902784D01*
X2421120Y5918372D01*
X2431508Y5928761D01*
X2441900Y5933958D01*
X2457488Y5933958D01*
X2340068Y5970325D02*
G01*
X2350460Y5970325D01*
X2360851Y5965131D01*
X2366048Y5949543D01*
X2366048Y5861222D01*
X2381633Y5933958D02*
G01*
X2345265Y5933958D01*
X3294987Y3750322D02*
G01*
X3294987Y3641219D01*
X3294987Y3750322D02*
G01*
X3248230Y3750322D01*
X3232640Y3745120D01*
X3227443Y3739929D01*
X3222249Y3729548D01*
X3222249Y3713947D01*
X3227443Y3703571D01*
X3232640Y3698369D01*
X3248230Y3693172D01*
X3294987Y3693172D01*
X3187964Y3713947D02*
G01*
X3187964Y3641219D01*
X3187964Y3682779D02*
G01*
X3182754Y3698369D01*
X3172383Y3708768D01*
X3161979Y3713947D01*
X3146402Y3713947D01*
X3086135Y3713947D02*
G01*
X3096526Y3708768D01*
X3106910Y3698369D01*
X3112104Y3682779D01*
X3112104Y3672398D01*
X3106910Y3656797D01*
X3096526Y3646421D01*
X3086135Y3641219D01*
X3070545Y3641219D01*
X3060151Y3646421D01*
X3049760Y3656797D01*
X3044560Y3672398D01*
X3044560Y3682779D01*
X3049760Y3698369D01*
X3060151Y3708768D01*
X3070545Y3713947D01*
X3086135Y3713947D01*
X3010275Y3713947D02*
G01*
X3010275Y3604844D01*
X3010275Y3698369D02*
G01*
X2999882Y3708768D01*
X2989491Y3713947D01*
X2973900Y3713947D01*
X2963519Y3708768D01*
X2953125Y3698369D01*
X2947931Y3682779D01*
X2947931Y3672398D01*
X2953125Y3656797D01*
X2963519Y3646421D01*
X2973900Y3641219D01*
X2989491Y3641219D01*
X2999882Y3646421D01*
X3010275Y3656797D01*
X2913644Y3682779D02*
G01*
X2851297Y3682779D01*
X2851297Y3693172D01*
X2856494Y3703571D01*
X2861690Y3708768D01*
X2872071Y3713947D01*
X2887662Y3713947D01*
X2898066Y3708768D01*
X2908447Y3698369D01*
X2913644Y3682779D01*
X2913644Y3672398D01*
X2908447Y3656797D01*
X2898066Y3646421D01*
X2887662Y3641219D01*
X2872071Y3641219D01*
X2861690Y3646421D01*
X2851297Y3656797D01*
X2817012Y3713947D02*
G01*
X2817012Y3641219D01*
X2817012Y3682779D02*
G01*
X2811815Y3698369D01*
X2801411Y3708768D01*
X2791030Y3713947D01*
X2775440Y3713947D01*
X2725554Y3750322D02*
G01*
X2725554Y3661994D01*
X2720380Y3646421D01*
X2709976Y3641219D01*
X2699583Y3641219D01*
X2741155Y3713947D02*
G01*
X2704779Y3713947D01*
X2660101Y3713947D02*
G01*
X2628935Y3641219D01*
X2597754Y3713947D02*
G01*
X2628935Y3641219D01*
X2639326Y3620444D01*
X2649710Y3610046D01*
X2660101Y3604844D01*
X2665298Y3604844D01*
X2457485Y3713947D02*
G01*
X2467876Y3708768D01*
X2478260Y3698369D01*
X2483454Y3682779D01*
X2483454Y3672398D01*
X2478260Y3656797D01*
X2467876Y3646421D01*
X2457485Y3641219D01*
X2441895Y3641219D01*
X2431501Y3646421D01*
X2421110Y3656797D01*
X2415910Y3672398D01*
X2415910Y3682779D01*
X2421110Y3698369D01*
X2431501Y3708768D01*
X2441895Y3713947D01*
X2457485Y3713947D01*
X2340066Y3750322D02*
G01*
X2350447Y3750322D01*
X2360841Y3745120D01*
X2366048Y3729548D01*
X2366048Y3641219D01*
X2381625Y3713947D02*
G01*
X2345250Y3713947D01*
X3294987Y3555334D02*
G01*
X3294987Y3446218D01*
X3294987Y3555334D02*
G01*
X3248230Y3555334D01*
X3232640Y3550137D01*
X3227443Y3544935D01*
X3222249Y3534537D01*
X3222249Y3524161D01*
X3227443Y3513762D01*
X3232640Y3508560D01*
X3248230Y3503368D01*
X3294987Y3503368D02*
G01*
X3248230Y3503368D01*
X3232640Y3498184D01*
X3227443Y3492987D01*
X3222249Y3482583D01*
X3222249Y3467011D01*
X3227443Y3456612D01*
X3232640Y3451410D01*
X3248230Y3446218D01*
X3294987Y3446218D01*
X3187964Y3555334D02*
G01*
X3182754Y3550137D01*
X3177580Y3555334D01*
X3182754Y3560518D01*
X3187964Y3555334D01*
X3182754Y3518959D02*
G01*
X3182754Y3446218D01*
X3117301Y3518959D02*
G01*
X3127695Y3513762D01*
X3138076Y3503368D01*
X3143285Y3487785D01*
X3143285Y3477387D01*
X3138076Y3461809D01*
X3127695Y3451410D01*
X3117301Y3446218D01*
X3101710Y3446218D01*
X3091329Y3451410D01*
X3080926Y3461809D01*
X3075752Y3477387D01*
X3075752Y3487785D01*
X3080926Y3503368D01*
X3091329Y3513762D01*
X3101710Y3518959D01*
X3117301Y3518959D01*
X2999882Y3555334D02*
G01*
X3010275Y3555334D01*
X3020669Y3550137D01*
X3025866Y3534537D01*
X3025866Y3446218D01*
X3041444Y3518959D02*
G01*
X3005081Y3518959D01*
X2965597Y3518959D02*
G01*
X2965597Y3467011D01*
X2960390Y3451410D01*
X2950019Y3446218D01*
X2934418Y3446218D01*
X2924037Y3451410D01*
X2908447Y3467011D01*
X2908447Y3518959D02*
G01*
X2908447Y3446218D01*
X2817012Y3503368D02*
G01*
X2822199Y3513762D01*
X2837787Y3518959D01*
X2853364Y3518959D01*
X2868965Y3513762D01*
X2874162Y3503368D01*
X2868965Y3492987D01*
X2858561Y3487785D01*
X2832590Y3482583D01*
X2822199Y3477387D01*
X2817012Y3467011D01*
X2817012Y3461809D01*
X2822199Y3451410D01*
X2837787Y3446218D01*
X2853364Y3446218D01*
X2868965Y3451410D01*
X2874162Y3461809D01*
X2782704Y3555334D02*
G01*
X2777530Y3550137D01*
X2772333Y3555334D01*
X2777530Y3560518D01*
X2782704Y3555334D01*
X2777530Y3518959D02*
G01*
X2777530Y3446218D01*
X2712054Y3518959D02*
G01*
X2722448Y3513762D01*
X2732852Y3503368D01*
X2738026Y3487785D01*
X2738026Y3477387D01*
X2732852Y3461809D01*
X2722448Y3451410D01*
X2712054Y3446218D01*
X2696476Y3446218D01*
X2686085Y3451410D01*
X2675702Y3461809D01*
X2670495Y3477387D01*
X2670495Y3487785D01*
X2675702Y3503368D01*
X2686085Y3513762D01*
X2696476Y3518959D01*
X2712054Y3518959D01*
X2636197Y3518959D02*
G01*
X2636197Y3446218D01*
X2636197Y3498184D02*
G01*
X2620619Y3513762D01*
X2610225Y3518959D01*
X2594648Y3518959D01*
X2584244Y3513762D01*
X2579047Y3498184D01*
X2579047Y3446218D01*
X2464747Y3555334D02*
G01*
X2464747Y3446218D01*
X2464747Y3555334D02*
G01*
X2397216Y3555334D01*
X2464747Y3503368D02*
G01*
X2423198Y3503368D01*
X2464747Y3446218D02*
G01*
X2397216Y3446218D01*
X2362918Y3518959D02*
G01*
X2362918Y3446218D01*
X2362918Y3498184D02*
G01*
X2347340Y3513762D01*
X2336947Y3518959D01*
X2321369Y3518959D01*
X2310965Y3513762D01*
X2305768Y3498184D01*
X2305768Y3446218D01*
X2209137Y3518959D02*
G01*
X2209137Y3435837D01*
X2214333Y3420237D01*
X2219530Y3415057D01*
X2229911Y3409861D01*
X2245512Y3409861D01*
X2255893Y3415057D01*
X2209137Y3503368D02*
G01*
X2219530Y3513762D01*
X2229911Y3518959D01*
X2245512Y3518959D01*
X2255893Y3513762D01*
X2266287Y3503368D01*
X2271483Y3487785D01*
X2271483Y3477387D01*
X2266287Y3461809D01*
X2255893Y3451410D01*
X2245512Y3446218D01*
X2229911Y3446218D01*
X2219530Y3451410D01*
X2209137Y3461809D01*
X2174852Y3555334D02*
G01*
X2169655Y3550137D01*
X2164458Y3555334D01*
X2169655Y3560518D01*
X2174852Y3555334D01*
X2169655Y3518959D02*
G01*
X2169655Y3446218D01*
X2130160Y3518959D02*
G01*
X2130160Y3446218D01*
X2130160Y3498184D02*
G01*
X2114585Y3513762D01*
X2104202Y3518959D01*
X2088601Y3518959D01*
X2078210Y3513762D01*
X2073010Y3498184D01*
X2073010Y3446218D01*
X2038725Y3487785D02*
G01*
X1976381Y3487785D01*
X1976381Y3498184D01*
X1981575Y3508560D01*
X1986767Y3513762D01*
X1997166Y3518959D01*
X2012744Y3518959D01*
X2023148Y3513762D01*
X2033531Y3503368D01*
X2038725Y3487785D01*
X2038725Y3477387D01*
X2033531Y3461809D01*
X2023148Y3451410D01*
X2012744Y3446218D01*
X1997166Y3446218D01*
X1986767Y3451410D01*
X1976381Y3461809D01*
X1942099Y3487785D02*
G01*
X1879757Y3487785D01*
X1879757Y3498184D01*
X1884951Y3508560D01*
X1890153Y3513762D01*
X1900529Y3518959D01*
X1916132Y3518959D01*
X1926521Y3513762D01*
X1936907Y3503368D01*
X1942099Y3487785D01*
X1942099Y3477387D01*
X1936907Y3461809D01*
X1926521Y3451410D01*
X1916132Y3446218D01*
X1900529Y3446218D01*
X1890153Y3451410D01*
X1879757Y3461809D01*
X1845477Y3518959D02*
G01*
X1845477Y3446218D01*
X1845477Y3487785D02*
G01*
X1840273Y3503368D01*
X1829874Y3513762D01*
X1819498Y3518959D01*
X1803897Y3518959D01*
X1769618Y3555334D02*
G01*
X1764436Y3550137D01*
X1759219Y3555334D01*
X1764436Y3560518D01*
X1769618Y3555334D01*
X1764436Y3518959D02*
G01*
X1764436Y3446218D01*
X1724941Y3518959D02*
G01*
X1724941Y3446218D01*
X1724941Y3498184D02*
G01*
X1709338Y3513762D01*
X1698960Y3518959D01*
X1683382Y3518959D01*
X1672983Y3513762D01*
X1667791Y3498184D01*
X1667791Y3446218D01*
X1571155Y3518959D02*
G01*
X1571155Y3435837D01*
X1576351Y3420237D01*
X1581553Y3415057D01*
X1591932Y3409861D01*
X1607510Y3409861D01*
X1617908Y3415057D01*
X1571155Y3503368D02*
G01*
X1581553Y3513762D01*
X1591932Y3518959D01*
X1607510Y3518959D01*
X1617908Y3513762D01*
X1628305Y3503368D01*
X1633501Y3487785D01*
X1633501Y3477387D01*
X1628305Y3461809D01*
X1617908Y3451410D01*
X1607510Y3446218D01*
X1591932Y3446218D01*
X1581553Y3451410D01*
X1571155Y3461809D01*
X1378910Y3529357D02*
G01*
X1384127Y3539733D01*
X1394503Y3550137D01*
X1404901Y3555334D01*
X1425686Y3555334D01*
X1436060Y3550137D01*
X1446458Y3539733D01*
X1451653Y3529357D01*
X1456855Y3513762D01*
X1456855Y3487785D01*
X1451653Y3472207D01*
X1446458Y3461809D01*
X1436060Y3451410D01*
X1425686Y3446218D01*
X1404901Y3446218D01*
X1394503Y3451410D01*
X1384127Y3461809D01*
X1378910Y3472207D01*
X1318653Y3518959D02*
G01*
X1329049Y3513762D01*
X1339428Y3503368D01*
X1344632Y3487785D01*
X1344632Y3477387D01*
X1339428Y3461809D01*
X1329049Y3451410D01*
X1318653Y3446218D01*
X1303073Y3446218D01*
X1292677Y3451410D01*
X1282278Y3461809D01*
X1277096Y3477387D01*
X1277096Y3487785D01*
X1282278Y3503368D01*
X1292677Y3513762D01*
X1303073Y3518959D01*
X1318653Y3518959D01*
X1242796Y3518959D02*
G01*
X1242796Y3446218D01*
X1242796Y3498184D02*
G01*
X1227216Y3513762D01*
X1216827Y3518959D01*
X1201224Y3518959D01*
X1190848Y3513762D01*
X1185646Y3498184D01*
X1185646Y3446218D01*
X1185646Y3498184D02*
G01*
X1170066Y3513762D01*
X1159677Y3518959D01*
X1144074Y3518959D01*
X1133698Y3513762D01*
X1128496Y3498184D01*
X1128496Y3446218D01*
X1094214Y3518959D02*
G01*
X1094214Y3409861D01*
X1094214Y3503368D02*
G01*
X1083818Y3513762D01*
X1073419Y3518959D01*
X1057841Y3518959D01*
X1047442Y3513762D01*
X1037064Y3503368D01*
X1031872Y3487785D01*
X1031872Y3477387D01*
X1037064Y3461809D01*
X1047442Y3451410D01*
X1057841Y3446218D01*
X1073419Y3446218D01*
X1083818Y3451410D01*
X1094214Y3461809D01*
X935215Y3518959D02*
G01*
X935215Y3446218D01*
X935215Y3503368D02*
G01*
X945614Y3513762D01*
X956010Y3518959D01*
X971605Y3518959D01*
X981991Y3513762D01*
X992365Y3503368D01*
X997582Y3487785D01*
X997582Y3477387D01*
X992365Y3461809D01*
X981991Y3451410D01*
X971605Y3446218D01*
X956010Y3446218D01*
X945614Y3451410D01*
X935215Y3461809D01*
X900950Y3518959D02*
G01*
X900950Y3446218D01*
X900950Y3498184D02*
G01*
X885355Y3513762D01*
X874958Y3518959D01*
X859378Y3518959D01*
X848982Y3513762D01*
X843800Y3498184D01*
X843800Y3446218D01*
X804303Y3518959D02*
G01*
X773132Y3446218D01*
X741972Y3518959D02*
G01*
X773132Y3446218D01*
X783531Y3425433D01*
X793907Y3415057D01*
X804303Y3409861D01*
X809500Y3409861D01*
X5644997Y2260343D02*
G01*
X5644997Y2151240D01*
X5644997Y2260343D02*
G01*
X5598238Y2260343D01*
X5582653Y2255149D01*
X5577456Y2249952D01*
X5572262Y2239561D01*
X5572262Y2229170D01*
X5577456Y2218778D01*
X5582653Y2213584D01*
X5598238Y2208390D01*
X5644997Y2208390D01*
X5608629Y2208390D02*
G01*
X5572262Y2151240D01*
X5537972Y2260343D02*
G01*
X5537972Y2151240D01*
X5537972Y2260343D02*
G01*
X5470431Y2260343D01*
X5537972Y2208390D02*
G01*
X5496407Y2208390D01*
X5537972Y2151240D02*
G01*
X5470431Y2151240D01*
X5436141Y2260343D02*
G01*
X5394576Y2151240D01*
X5353011Y2260343D02*
G01*
X5394576Y2151240D01*
X5238711Y2239561D02*
G01*
X5228323Y2244758D01*
X5212735Y2260343D01*
X5212735Y2151240D01*
X5173251Y2177216D02*
G01*
X5178445Y2172020D01*
X5173251Y2166825D01*
X5168054Y2172020D01*
X5173251Y2177216D01*
X5107787Y2260343D02*
G01*
X5123373Y2255149D01*
X5128569Y2244758D01*
X5128569Y2234366D01*
X5123373Y2223975D01*
X5112981Y2218778D01*
X5092202Y2213584D01*
X5076614Y2208390D01*
X5066223Y2197999D01*
X5061028Y2187608D01*
X5061028Y2172020D01*
X5066223Y2161628D01*
X5071419Y2156434D01*
X5087005Y2151240D01*
X5107787Y2151240D01*
X5123373Y2156434D01*
X5128569Y2161628D01*
X5133764Y2172020D01*
X5133764Y2187608D01*
X5128569Y2197999D01*
X5118178Y2208390D01*
X5102593Y2213584D01*
X5081811Y2218778D01*
X5071419Y2223975D01*
X5066223Y2234366D01*
X5066223Y2244758D01*
X5071419Y2255149D01*
X5087005Y2260343D01*
X5107787Y2260343D01*
X2149988Y2450322D02*
G01*
X2149988Y2341219D01*
X2149988Y2450322D02*
G01*
X2113620Y2450322D01*
X2098032Y2445128D01*
X2087643Y2434737D01*
X2082446Y2424346D01*
X2077252Y2408758D01*
X2077252Y2382781D01*
X2082446Y2367196D01*
X2087643Y2356805D01*
X2098032Y2346413D01*
X2113620Y2341219D01*
X2149988Y2341219D01*
X2042962Y2382781D02*
G01*
X1980615Y2382781D01*
X1980615Y2393172D01*
X1985812Y2403563D01*
X1991006Y2408758D01*
X2001398Y2413955D01*
X2016983Y2413955D01*
X2027374Y2408758D01*
X2037765Y2398369D01*
X2042962Y2382781D01*
X2042962Y2372390D01*
X2037765Y2356805D01*
X2027374Y2346413D01*
X2016983Y2341219D01*
X2001398Y2341219D01*
X1991006Y2346413D01*
X1980615Y2356805D01*
X1889175Y2398369D02*
G01*
X1894372Y2408758D01*
X1909958Y2413955D01*
X1925543Y2413955D01*
X1941131Y2408758D01*
X1946325Y2398369D01*
X1941131Y2387978D01*
X1930740Y2382781D01*
X1904763Y2377587D01*
X1894372Y2372390D01*
X1889175Y2361999D01*
X1889175Y2356805D01*
X1894372Y2346413D01*
X1909958Y2341219D01*
X1925543Y2341219D01*
X1941131Y2346413D01*
X1946325Y2356805D01*
X1854885Y2450322D02*
G01*
X1849691Y2445128D01*
X1844494Y2450322D01*
X1849691Y2455519D01*
X1854885Y2450322D01*
X1849691Y2413955D02*
G01*
X1849691Y2341219D01*
X1747860Y2413955D02*
G01*
X1747860Y2330828D01*
X1753054Y2315240D01*
X1758251Y2310046D01*
X1768642Y2304849D01*
X1784228Y2304849D01*
X1794619Y2310046D01*
X1747860Y2398369D02*
G01*
X1758251Y2408758D01*
X1768642Y2413955D01*
X1784228Y2413955D01*
X1794619Y2408758D01*
X1805010Y2398369D01*
X1810204Y2382781D01*
X1810204Y2372390D01*
X1805010Y2356805D01*
X1794619Y2346413D01*
X1784228Y2341219D01*
X1768642Y2341219D01*
X1758251Y2346413D01*
X1747860Y2356805D01*
X1713570Y2413955D02*
G01*
X1713570Y2341219D01*
X1713570Y2393172D02*
G01*
X1697982Y2408758D01*
X1687593Y2413955D01*
X1672005Y2413955D01*
X1661614Y2408758D01*
X1656420Y2393172D01*
X1656420Y2341219D01*
X1622130Y2382781D02*
G01*
X1559783Y2382781D01*
X1559783Y2393172D01*
X1564980Y2403563D01*
X1570174Y2408758D01*
X1580565Y2413955D01*
X1596153Y2413955D01*
X1606542Y2408758D01*
X1616933Y2398369D01*
X1622130Y2382781D01*
X1622130Y2372390D01*
X1616933Y2356805D01*
X1606542Y2346413D01*
X1596153Y2341219D01*
X1580565Y2341219D01*
X1570174Y2346413D01*
X1559783Y2356805D01*
X1463149Y2450322D02*
G01*
X1463149Y2341219D01*
X1463149Y2398369D02*
G01*
X1473540Y2408758D01*
X1483931Y2413955D01*
X1499516Y2413955D01*
X1509908Y2408758D01*
X1520299Y2398369D01*
X1525493Y2382781D01*
X1525493Y2372390D01*
X1520299Y2356805D01*
X1509908Y2346413D01*
X1499516Y2341219D01*
X1483931Y2341219D01*
X1473540Y2346413D01*
X1463149Y2356805D01*
X1348849Y2450322D02*
G01*
X1348849Y2341219D01*
X1348849Y2398369D02*
G01*
X1338458Y2408758D01*
X1328066Y2413955D01*
X1312481Y2413955D01*
X1302090Y2408758D01*
X1291699Y2398369D01*
X1286502Y2382781D01*
X1286502Y2372390D01*
X1291699Y2356805D01*
X1302090Y2346413D01*
X1312481Y2341219D01*
X1328066Y2341219D01*
X1338458Y2346413D01*
X1348849Y2356805D01*
X1247018Y2413955D02*
G01*
X1215844Y2341219D01*
X1184673Y2413955D02*
G01*
X1215844Y2341219D01*
X1226235Y2320437D01*
X1236626Y2310046D01*
X1247018Y2304849D01*
X1252212Y2304849D01*
X1145186Y2403563D02*
G01*
X1150383Y2398369D01*
X1145186Y2393172D01*
X1139992Y2398369D01*
X1145186Y2403563D01*
X1145186Y2367196D02*
G01*
X1150383Y2361999D01*
X1145186Y2356805D01*
X1139992Y2361999D01*
X1145186Y2367196D01*
X2014989Y2275324D02*
G01*
X2014989Y2166221D01*
X1942254Y2275324D02*
G01*
X2014989Y2202588D01*
X1989013Y2228565D02*
G01*
X1942254Y2166221D01*
X1902767Y2192197D02*
G01*
X1907964Y2187000D01*
X1902767Y2181806D01*
X1897573Y2187000D01*
X1902767Y2192197D01*
X1832109Y2275324D02*
G01*
X1842500Y2270130D01*
X1852891Y2259738D01*
X1858086Y2249347D01*
X1863283Y2233759D01*
X1863283Y2207783D01*
X1858086Y2192197D01*
X1852891Y2181806D01*
X1842500Y2171415D01*
X1832109Y2166221D01*
X1811327Y2166221D01*
X1800936Y2171415D01*
X1790545Y2181806D01*
X1785350Y2192197D01*
X1780153Y2207783D01*
X1780153Y2233759D01*
X1785350Y2249347D01*
X1790545Y2259738D01*
X1800936Y2270130D01*
X1811327Y2275324D01*
X1832109Y2275324D01*
X1740669Y2192197D02*
G01*
X1745863Y2187000D01*
X1740669Y2181806D01*
X1735475Y2187000D01*
X1740669Y2192197D01*
X1701185Y2275324D02*
G01*
X1701185Y2166221D01*
X1701185Y2275324D02*
G01*
X1654423Y2275324D01*
X1638838Y2270130D01*
X1633644Y2264933D01*
X1628447Y2254542D01*
X1628447Y2244150D01*
X1633644Y2233759D01*
X1638838Y2228565D01*
X1654423Y2223371D01*
X1701185Y2223371D01*
X1664815Y2223371D02*
G01*
X1628447Y2166221D01*
X1588963Y2192197D02*
G01*
X1594157Y2187000D01*
X1588963Y2181806D01*
X1583766Y2187000D01*
X1588963Y2192197D01*
X1549476Y2275324D02*
G01*
X1549476Y2166221D01*
X1549476Y2275324D02*
G01*
X1481935Y2275324D01*
X1549476Y2223371D02*
G01*
X1507914Y2223371D01*
X1549476Y2166221D02*
G01*
X1481935Y2166221D01*
X1442450Y2192197D02*
G01*
X1447645Y2187000D01*
X1442450Y2181806D01*
X1437253Y2187000D01*
X1442450Y2192197D01*
X1402963Y2275324D02*
G01*
X1402963Y2166221D01*
X1402963Y2275324D02*
G01*
X1366596Y2275324D01*
X1351010Y2270130D01*
X1340619Y2259738D01*
X1335425Y2249347D01*
X1330228Y2233759D01*
X1330228Y2207783D01*
X1335425Y2192197D01*
X1340619Y2181806D01*
X1351010Y2171415D01*
X1366596Y2166221D01*
X1402963Y2166221D01*
X1290744Y2192197D02*
G01*
X1295938Y2187000D01*
X1290744Y2181806D01*
X1285547Y2187000D01*
X1290744Y2192197D01*
M02*
