G04 Layer: BottomLayer*
G04 EasyEDA v6.4.30, 2022-01-21 15:04:52*
G04 c46cb3ee090d4a1eb143410c139ed502,dc6f5eff9a9d40dcab93570daa8facdf,10*
G04 Gerber Generator version 0.2*
G04 Scale: 100 percent, Rotated: No, Reflected: No *
G04 Dimensions in millimeters *
G04 leading zeros omitted , absolute positions ,4 integer and 5 decimal *
%FSLAX45Y45*%
%MOMM*%

%ADD11C,1.0000*%
%ADD12C,1.2000*%
%ADD13C,0.8000*%
%ADD14C,0.7000*%
%ADD16C,0.5000*%
%ADD21C,2.0000*%
%ADD22C,1.5000*%
%ADD27C,0.6000*%
%ADD31C,0.6096*%
%ADD63R,1.5748X1.5748*%
%ADD64C,1.8000*%
%ADD65C,1.5240*%
%ADD66C,1.5748*%

%LPD*%
G36*
X4022598Y5618226D02*
G01*
X4018737Y5618530D01*
X4015232Y5620308D01*
X4012692Y5622290D01*
X4007307Y5624728D01*
X3999839Y5625896D01*
X736092Y5625846D01*
X732231Y5626608D01*
X728929Y5628843D01*
X726694Y5632145D01*
X725932Y5636006D01*
X726897Y8801049D01*
X727862Y8805418D01*
X730656Y8808923D01*
X734720Y8810904D01*
X739190Y8810955D01*
X743254Y8809075D01*
X746658Y8804554D01*
X754989Y8791854D01*
X764794Y8780170D01*
X775868Y8769756D01*
X788060Y8760663D01*
X801268Y8753043D01*
X815238Y8746998D01*
X829818Y8742629D01*
X844803Y8739987D01*
X862076Y8739073D01*
X866292Y8738158D01*
X869797Y8735568D01*
X871829Y8731758D01*
X872134Y8727440D01*
X870559Y8723376D01*
X867460Y8720328D01*
X865276Y8718956D01*
X861161Y8714841D01*
X858113Y8709964D01*
X856183Y8704478D01*
X855471Y8698179D01*
X855471Y8541816D01*
X856183Y8535517D01*
X858113Y8530031D01*
X861161Y8525154D01*
X865276Y8521039D01*
X870153Y8517991D01*
X875639Y8516061D01*
X881938Y8515350D01*
X1038301Y8515350D01*
X1044600Y8516061D01*
X1050086Y8517991D01*
X1054963Y8521039D01*
X1059078Y8525154D01*
X1062126Y8530031D01*
X1064056Y8535517D01*
X1064768Y8541816D01*
X1064768Y8698179D01*
X1064056Y8704478D01*
X1062126Y8709964D01*
X1059078Y8714841D01*
X1054963Y8718956D01*
X1052779Y8720328D01*
X1049680Y8723376D01*
X1048105Y8727440D01*
X1048410Y8731758D01*
X1050442Y8735568D01*
X1053947Y8738158D01*
X1058164Y8739073D01*
X1075182Y8739987D01*
X1090168Y8742629D01*
X1104747Y8746998D01*
X1118768Y8753043D01*
X1131925Y8760663D01*
X1144117Y8769756D01*
X1155192Y8780170D01*
X1164996Y8791854D01*
X1173378Y8804554D01*
X1180185Y8818168D01*
X1185418Y8832443D01*
X1188923Y8847277D01*
X1190650Y8862415D01*
X1190650Y8877604D01*
X1188923Y8892743D01*
X1185418Y8907526D01*
X1180185Y8921851D01*
X1173378Y8935466D01*
X1164996Y8948166D01*
X1157884Y8956598D01*
X1156055Y8959951D01*
X1155547Y8963761D01*
X1156462Y8967470D01*
X1158697Y8970518D01*
X1161948Y8972600D01*
X1165707Y8973312D01*
X1969262Y8973312D01*
X1973427Y8972397D01*
X1976882Y8969806D01*
X1978964Y8966047D01*
X1979320Y8961729D01*
X1977796Y8957716D01*
X1973427Y8950807D01*
X1967230Y8937650D01*
X1962759Y8923782D01*
X1960016Y8909507D01*
X1959102Y8894978D01*
X1960016Y8880449D01*
X1962759Y8866174D01*
X1967230Y8852306D01*
X1973427Y8839149D01*
X1981250Y8826855D01*
X1990496Y8815628D01*
X2001113Y8805672D01*
X2012899Y8797137D01*
X2025650Y8790127D01*
X2039162Y8784742D01*
X2053285Y8781135D01*
X2067712Y8779306D01*
X2082292Y8779306D01*
X2096719Y8781135D01*
X2110790Y8784742D01*
X2124354Y8790127D01*
X2137105Y8797137D01*
X2148840Y8805672D01*
X2159457Y8815628D01*
X2168753Y8826855D01*
X2176526Y8839149D01*
X2182723Y8852306D01*
X2187244Y8866174D01*
X2189988Y8880449D01*
X2190902Y8894978D01*
X2189988Y8909507D01*
X2187244Y8923782D01*
X2182723Y8937650D01*
X2176526Y8950807D01*
X2172157Y8957716D01*
X2170684Y8961729D01*
X2170988Y8966047D01*
X2173071Y8969806D01*
X2176526Y8972397D01*
X2180742Y8973312D01*
X3169259Y8973312D01*
X3173425Y8972397D01*
X3176879Y8969806D01*
X3178962Y8966047D01*
X3179318Y8961729D01*
X3177794Y8957716D01*
X3173425Y8950807D01*
X3167227Y8937650D01*
X3162757Y8923782D01*
X3160014Y8909507D01*
X3159099Y8894978D01*
X3160014Y8880449D01*
X3162757Y8866174D01*
X3167227Y8852306D01*
X3173425Y8839149D01*
X3181248Y8826855D01*
X3190494Y8815628D01*
X3201111Y8805672D01*
X3212896Y8797137D01*
X3225647Y8790127D01*
X3239160Y8784742D01*
X3253282Y8781135D01*
X3255365Y8780881D01*
X3259582Y8779357D01*
X3262731Y8776157D01*
X3264204Y8771890D01*
X3263646Y8767419D01*
X3261258Y8763609D01*
X3072180Y8574532D01*
X3069082Y8572398D01*
X3051302Y8569299D01*
X3038297Y8565235D01*
X3025952Y8559495D01*
X3014421Y8552180D01*
X3004007Y8543340D01*
X2994863Y8533231D01*
X2987141Y8522004D01*
X2980994Y8509812D01*
X2976524Y8496960D01*
X2973832Y8483600D01*
X2973527Y8479434D01*
X2972663Y8475929D01*
X2970631Y8472982D01*
X2964434Y8466683D01*
X2958795Y8459927D01*
X2957372Y8457895D01*
X2952800Y8450275D01*
X2951683Y8448090D01*
X2948279Y8439861D01*
X2947517Y8437524D01*
X2945384Y8428888D01*
X2944977Y8426500D01*
X2944114Y8417661D01*
X2944063Y8185150D01*
X2944317Y8179409D01*
X2945434Y8170875D01*
X2947517Y8162544D01*
X2949295Y8157311D01*
X2952902Y8149539D01*
X2957626Y8141716D01*
X2958693Y8139175D01*
X2959100Y8136432D01*
X2959100Y7661300D01*
X2959557Y7653274D01*
X2959862Y7651191D01*
X2962300Y7641437D01*
X2965348Y7634071D01*
X2966313Y7632192D01*
X2970530Y7625435D01*
X2977134Y7617714D01*
X3019602Y7575194D01*
X3027629Y7568438D01*
X3036265Y7563307D01*
X3045612Y7559649D01*
X3055467Y7557566D01*
X3065526Y7557160D01*
X3075482Y7558430D01*
X3085134Y7561275D01*
X3094177Y7565694D01*
X3102356Y7571536D01*
X3109468Y7578648D01*
X3115310Y7586827D01*
X3119678Y7595870D01*
X3122574Y7605471D01*
X3123793Y7615478D01*
X3123387Y7625537D01*
X3121355Y7635341D01*
X3117697Y7644739D01*
X3112516Y7653375D01*
X3105759Y7661351D01*
X3083864Y7683246D01*
X3081680Y7686548D01*
X3080867Y7690408D01*
X3080867Y7992160D01*
X3081680Y7996072D01*
X3083864Y7999374D01*
X3087166Y8001558D01*
X3091027Y8002320D01*
X3094939Y8001558D01*
X3098241Y7999374D01*
X3128213Y7969453D01*
X3137052Y7962392D01*
X3144672Y7957769D01*
X3155086Y7953298D01*
X3157423Y7952486D01*
X3166059Y7950352D01*
X3168497Y7949946D01*
X3177336Y7949133D01*
X3829354Y7949082D01*
X3833215Y7948320D01*
X3836517Y7946085D01*
X3871112Y7911541D01*
X3873296Y7908239D01*
X3874058Y7904327D01*
X3874058Y7780172D01*
X3874312Y7774330D01*
X3874922Y7768640D01*
X3875989Y7763103D01*
X3877462Y7757617D01*
X3879342Y7752232D01*
X3881577Y7747050D01*
X3884269Y7742021D01*
X3887266Y7737195D01*
X3890619Y7732674D01*
X3894328Y7728356D01*
X3898341Y7724343D01*
X3902659Y7720634D01*
X3907231Y7717281D01*
X3912006Y7714234D01*
X3917035Y7711592D01*
X3922268Y7709306D01*
X3927601Y7707477D01*
X3933088Y7705953D01*
X3938676Y7704937D01*
X3944315Y7704277D01*
X3950157Y7704074D01*
X4029811Y7704074D01*
X4035653Y7704277D01*
X4041292Y7704937D01*
X4046880Y7706004D01*
X4052366Y7707477D01*
X4057700Y7709306D01*
X4062933Y7711592D01*
X4067962Y7714234D01*
X4072737Y7717281D01*
X4077309Y7720634D01*
X4081627Y7724343D01*
X4085640Y7728356D01*
X4089349Y7732674D01*
X4092701Y7737246D01*
X4095699Y7742021D01*
X4098391Y7747050D01*
X4100626Y7752232D01*
X4102506Y7757617D01*
X4103979Y7763103D01*
X4105046Y7768691D01*
X4105656Y7774330D01*
X4105910Y7780172D01*
X4105910Y7939786D01*
X4105656Y7945577D01*
X4104538Y7954111D01*
X4102506Y7962442D01*
X4100677Y7967624D01*
X4097070Y7975447D01*
X4092651Y7982813D01*
X4089400Y7987233D01*
X4083456Y7993888D01*
X4048861Y8028482D01*
X4046677Y8031784D01*
X4045864Y8035645D01*
X4046677Y8039557D01*
X4048861Y8042859D01*
X4086148Y8080146D01*
X4089450Y8082330D01*
X4093311Y8083092D01*
X4176623Y8083143D01*
X4185513Y8083956D01*
X4196537Y8086547D01*
X4198874Y8087309D01*
X4207103Y8090712D01*
X4209288Y8091830D01*
X4216908Y8096402D01*
X4218940Y8097824D01*
X4225747Y8103514D01*
X4509262Y8386927D01*
X4513072Y8389315D01*
X4517542Y8389823D01*
X4521809Y8388350D01*
X4525010Y8385200D01*
X4526534Y8380933D01*
X4526076Y8376462D01*
X4522520Y8366048D01*
X4519980Y8353145D01*
X4519066Y8339632D01*
X4519066Y8240318D01*
X4519980Y8226806D01*
X4522520Y8213852D01*
X4526788Y8201355D01*
X4532630Y8189518D01*
X4539945Y8178546D01*
X4541570Y8176717D01*
X4543399Y8173567D01*
X4544060Y8170011D01*
X4544060Y7870647D01*
X4543298Y7866735D01*
X4541113Y7863433D01*
X4104487Y7426756D01*
X4098798Y7419898D01*
X4097375Y7417917D01*
X4092803Y7410297D01*
X4091686Y7408113D01*
X4088282Y7399883D01*
X4087520Y7397546D01*
X4085386Y7388910D01*
X4084980Y7386472D01*
X4084116Y7377633D01*
X4084065Y7139940D01*
X4083456Y7136333D01*
X4081576Y7133234D01*
X4079951Y7131405D01*
X4072636Y7120432D01*
X4066794Y7108596D01*
X4062526Y7096099D01*
X4059986Y7083145D01*
X4059072Y7069632D01*
X4059072Y6970318D01*
X4059986Y6956806D01*
X4062526Y6943852D01*
X4066794Y6931355D01*
X4072636Y6919518D01*
X4079951Y6908546D01*
X4088637Y6898640D01*
X4098594Y6889953D01*
X4109567Y6882638D01*
X4121404Y6876796D01*
X4133900Y6872528D01*
X4146804Y6869938D01*
X4160316Y6869074D01*
X4414672Y6869074D01*
X4428185Y6869938D01*
X4441088Y6872528D01*
X4453585Y6876796D01*
X4465421Y6882638D01*
X4476394Y6889953D01*
X4486351Y6898640D01*
X4495038Y6908546D01*
X4502353Y6919518D01*
X4508195Y6931355D01*
X4512462Y6943852D01*
X4515002Y6956806D01*
X4515916Y6970318D01*
X4515916Y7069632D01*
X4515002Y7083145D01*
X4512462Y7096099D01*
X4508195Y7108596D01*
X4502353Y7120432D01*
X4495038Y7131405D01*
X4493412Y7133234D01*
X4491532Y7136333D01*
X4490923Y7139940D01*
X4490923Y7199325D01*
X4491685Y7203236D01*
X4493869Y7206538D01*
X4945481Y7658201D01*
X4951171Y7665059D01*
X4952593Y7667040D01*
X4957165Y7674660D01*
X4958283Y7676845D01*
X4961686Y7685074D01*
X4962448Y7687411D01*
X4964582Y7696047D01*
X4964988Y7698486D01*
X4965852Y7707325D01*
X4965903Y8170011D01*
X4966563Y8173567D01*
X4968392Y8176717D01*
X4970018Y8178546D01*
X4977333Y8189518D01*
X4983175Y8201355D01*
X4987442Y8213852D01*
X4989982Y8226806D01*
X4990896Y8240318D01*
X4990896Y8339632D01*
X4989982Y8353145D01*
X4987442Y8366048D01*
X4983175Y8378545D01*
X4977333Y8390382D01*
X4970018Y8401354D01*
X4961331Y8411311D01*
X4951374Y8419998D01*
X4940401Y8427313D01*
X4928565Y8433155D01*
X4916119Y8437422D01*
X4903165Y8439962D01*
X4889652Y8440877D01*
X4620310Y8440877D01*
X4606798Y8439962D01*
X4593894Y8437422D01*
X4583480Y8433866D01*
X4579010Y8433409D01*
X4574743Y8434933D01*
X4571593Y8438134D01*
X4570120Y8442401D01*
X4570628Y8446871D01*
X4573016Y8450681D01*
X4577943Y8455609D01*
X4580788Y8457641D01*
X4584141Y8458555D01*
X4591964Y8459317D01*
X4605223Y8462518D01*
X4617974Y8467394D01*
X4629912Y8473948D01*
X4640884Y8482025D01*
X4650689Y8491524D01*
X4659172Y8502243D01*
X4666081Y8513978D01*
X4671415Y8526526D01*
X4675022Y8539683D01*
X4676851Y8553196D01*
X4676851Y8566810D01*
X4675022Y8580323D01*
X4671415Y8593480D01*
X4666081Y8606028D01*
X4659172Y8617762D01*
X4650689Y8628481D01*
X4640884Y8637930D01*
X4629912Y8646058D01*
X4617974Y8652611D01*
X4605223Y8657488D01*
X4591964Y8660638D01*
X4578400Y8662009D01*
X4564786Y8661552D01*
X4559960Y8660892D01*
X4390034Y8660892D01*
X4378401Y8662009D01*
X4364786Y8661552D01*
X4351324Y8659317D01*
X4338320Y8655253D01*
X4325924Y8649512D01*
X4314444Y8642197D01*
X4304030Y8633358D01*
X4294886Y8623249D01*
X4287164Y8612022D01*
X4284218Y8606180D01*
X4281474Y8602827D01*
X4277614Y8600897D01*
X4273296Y8600744D01*
X4269333Y8602421D01*
X4266387Y8605570D01*
X4259173Y8617762D01*
X4250690Y8628481D01*
X4240885Y8637930D01*
X4229912Y8646058D01*
X4217974Y8652611D01*
X4205224Y8657488D01*
X4191965Y8660638D01*
X4178401Y8662009D01*
X4164787Y8661552D01*
X4151325Y8659317D01*
X4138320Y8655253D01*
X4125925Y8649512D01*
X4114444Y8642197D01*
X4104030Y8633358D01*
X4094886Y8623249D01*
X4087164Y8612022D01*
X4081018Y8599830D01*
X4076547Y8586978D01*
X4073804Y8573617D01*
X4072890Y8560003D01*
X4073804Y8546388D01*
X4076547Y8533028D01*
X4081018Y8520125D01*
X4087164Y8507984D01*
X4094886Y8496706D01*
X4104030Y8486597D01*
X4114444Y8477808D01*
X4125925Y8470493D01*
X4138320Y8464753D01*
X4151325Y8460689D01*
X4164787Y8458403D01*
X4178401Y8457946D01*
X4191965Y8459317D01*
X4205224Y8462518D01*
X4217974Y8467394D01*
X4229912Y8473948D01*
X4240885Y8482025D01*
X4250690Y8491524D01*
X4259173Y8502243D01*
X4266387Y8514435D01*
X4269333Y8517585D01*
X4273296Y8519261D01*
X4277614Y8519109D01*
X4281474Y8517178D01*
X4284218Y8513826D01*
X4287164Y8507984D01*
X4294886Y8496706D01*
X4296359Y8495080D01*
X4298289Y8491931D01*
X4299000Y8488273D01*
X4299000Y8460587D01*
X4298238Y8456676D01*
X4296003Y8453374D01*
X4141470Y8298840D01*
X4138168Y8296605D01*
X4134256Y8295843D01*
X4029456Y8295792D01*
X4021277Y8294979D01*
X4018178Y8294420D01*
X4010253Y8292439D01*
X4007256Y8291423D01*
X3999687Y8288274D01*
X3996893Y8286851D01*
X3989882Y8282584D01*
X3987292Y8280755D01*
X3981043Y8275472D01*
X3885336Y8178342D01*
X3882898Y8176514D01*
X3880002Y8175447D01*
X3876954Y8175345D01*
X3869893Y8175904D01*
X3338017Y8175904D01*
X3333699Y8176869D01*
X3330194Y8179562D01*
X3328162Y8183524D01*
X3328060Y8187944D01*
X3329787Y8192008D01*
X3333140Y8194954D01*
X3337102Y8197138D01*
X3348837Y8205673D01*
X3359454Y8215630D01*
X3368751Y8226856D01*
X3376523Y8239150D01*
X3382721Y8252307D01*
X3387242Y8266175D01*
X3389985Y8280450D01*
X3390900Y8294979D01*
X3389985Y8309508D01*
X3387242Y8323783D01*
X3382721Y8337651D01*
X3376523Y8350808D01*
X3368751Y8363102D01*
X3359454Y8374329D01*
X3348837Y8384286D01*
X3337102Y8392820D01*
X3324351Y8399830D01*
X3310788Y8405215D01*
X3296716Y8408822D01*
X3282289Y8410651D01*
X3267710Y8410651D01*
X3253282Y8408822D01*
X3239160Y8405215D01*
X3225647Y8399830D01*
X3212896Y8392820D01*
X3201111Y8384286D01*
X3190494Y8374329D01*
X3188868Y8372348D01*
X3185668Y8369757D01*
X3181705Y8368690D01*
X3177641Y8369249D01*
X3174085Y8371433D01*
X3171748Y8374786D01*
X3170885Y8378850D01*
X3170885Y8414918D01*
X3171698Y8418830D01*
X3173882Y8422132D01*
X3247847Y8496096D01*
X3251149Y8498281D01*
X3255060Y8499094D01*
X3514801Y8499094D01*
X3520643Y8499297D01*
X3526282Y8499906D01*
X3531870Y8500973D01*
X3537356Y8502446D01*
X3542741Y8504326D01*
X3547922Y8506612D01*
X3552951Y8509254D01*
X3557727Y8512251D01*
X3562299Y8515654D01*
X3566617Y8519363D01*
X3570630Y8523376D01*
X3574338Y8527643D01*
X3577691Y8532215D01*
X3580739Y8537041D01*
X3583381Y8542070D01*
X3585667Y8547252D01*
X3587546Y8552637D01*
X3588969Y8558072D01*
X3590036Y8563660D01*
X3590696Y8569299D01*
X3590899Y8575192D01*
X3590899Y8734806D01*
X3590696Y8740648D01*
X3590036Y8746286D01*
X3588969Y8751874D01*
X3587546Y8757361D01*
X3585667Y8762695D01*
X3583381Y8767927D01*
X3580739Y8772956D01*
X3577691Y8777732D01*
X3574338Y8782304D01*
X3570630Y8786622D01*
X3566617Y8790635D01*
X3562299Y8794343D01*
X3557727Y8797696D01*
X3552951Y8800693D01*
X3547922Y8803386D01*
X3542741Y8805621D01*
X3537356Y8807500D01*
X3531870Y8808974D01*
X3526282Y8810040D01*
X3520643Y8810650D01*
X3514801Y8810904D01*
X3377082Y8810904D01*
X3372865Y8811818D01*
X3369411Y8814358D01*
X3367328Y8818168D01*
X3367024Y8822436D01*
X3368497Y8826500D01*
X3376523Y8839149D01*
X3382721Y8852306D01*
X3387242Y8866174D01*
X3389985Y8880449D01*
X3390900Y8894978D01*
X3389985Y8909507D01*
X3387242Y8923782D01*
X3382721Y8937650D01*
X3376523Y8950807D01*
X3372154Y8957716D01*
X3370681Y8961729D01*
X3370986Y8966047D01*
X3373069Y8969806D01*
X3376523Y8972397D01*
X3380740Y8973312D01*
X5663742Y8973312D01*
X5667603Y8972550D01*
X5670905Y8970314D01*
X5673090Y8967063D01*
X5673902Y8963152D01*
X5674106Y8761222D01*
X5674106Y5648858D01*
X5673394Y5645200D01*
X5671413Y5642000D01*
X5668365Y5639714D01*
X5664758Y5638749D01*
X5660999Y5639155D01*
X5657951Y5640070D01*
X5649518Y5640882D01*
X5076139Y5640882D01*
X5072024Y5641797D01*
X5068620Y5644235D01*
X5066487Y5647842D01*
X5066030Y5652058D01*
X5067300Y5656021D01*
X5079898Y5668772D01*
X5087264Y5678576D01*
X5093106Y5689295D01*
X5097373Y5700776D01*
X5100015Y5712764D01*
X5100878Y5725007D01*
X5100015Y5737199D01*
X5097373Y5749188D01*
X5093106Y5760669D01*
X5087264Y5771438D01*
X5079898Y5781243D01*
X5071211Y5789879D01*
X5061407Y5797245D01*
X5050688Y5803087D01*
X5039207Y5807405D01*
X5027218Y5809996D01*
X5014620Y5810910D01*
X4955336Y5810910D01*
X4942789Y5809996D01*
X4930800Y5807405D01*
X4919319Y5803087D01*
X4908550Y5797245D01*
X4898745Y5789879D01*
X4890109Y5781243D01*
X4882743Y5771438D01*
X4876850Y5760669D01*
X4872583Y5749188D01*
X4869992Y5737199D01*
X4869129Y5725007D01*
X4869992Y5712764D01*
X4872583Y5700776D01*
X4876850Y5689295D01*
X4882743Y5678576D01*
X4890109Y5668772D01*
X4902708Y5656021D01*
X4903978Y5652058D01*
X4903470Y5647842D01*
X4901387Y5644235D01*
X4897932Y5641797D01*
X4893868Y5640882D01*
X4064508Y5640882D01*
X4056024Y5640070D01*
X4048353Y5637733D01*
X4041292Y5633974D01*
X4035094Y5628894D01*
X4029354Y5621883D01*
X4026357Y5619394D01*
G37*

%LPC*%
G36*
X3706926Y5665216D02*
G01*
X3863289Y5665216D01*
X3869588Y5665927D01*
X3875074Y5667857D01*
X3879951Y5670905D01*
X3884066Y5675020D01*
X3887114Y5679897D01*
X3889044Y5685383D01*
X3889756Y5691682D01*
X3889756Y5848045D01*
X3889044Y5854344D01*
X3887114Y5859830D01*
X3884066Y5864707D01*
X3879951Y5868822D01*
X3875074Y5871870D01*
X3869588Y5873800D01*
X3863289Y5874512D01*
X3770833Y5874512D01*
X3766921Y5875274D01*
X3763619Y5877509D01*
X3315970Y6325158D01*
X3308045Y6337401D01*
X3301237Y6344767D01*
X3293313Y6350965D01*
X3284423Y6355740D01*
X3274923Y6358991D01*
X3265017Y6360668D01*
X3254959Y6360668D01*
X3245053Y6358991D01*
X3235553Y6355740D01*
X3226714Y6350965D01*
X3218789Y6344767D01*
X3211931Y6337401D01*
X3206445Y6328968D01*
X3202432Y6319774D01*
X3199942Y6310020D01*
X3199079Y6299555D01*
X3199079Y6295288D01*
X3199587Y6287262D01*
X3199892Y6285179D01*
X3201670Y6277406D01*
X3205378Y6268059D01*
X3206343Y6266180D01*
X3211779Y6257747D01*
X3217164Y6251702D01*
X3677462Y5791352D01*
X3679698Y5788050D01*
X3680460Y5784189D01*
X3680460Y5691682D01*
X3681171Y5685383D01*
X3683101Y5679897D01*
X3686149Y5675020D01*
X3690264Y5670905D01*
X3695141Y5667857D01*
X3700627Y5665927D01*
G37*
G36*
X3485692Y5665317D02*
G01*
X3518154Y5665317D01*
X3524504Y5666028D01*
X3529939Y5667959D01*
X3534867Y5671058D01*
X3538931Y5675122D01*
X3542029Y5680049D01*
X3543909Y5685485D01*
X3544620Y5691835D01*
X3544620Y5724245D01*
X3485692Y5724245D01*
G37*
G36*
X3361842Y5665317D02*
G01*
X3394252Y5665317D01*
X3394252Y5724245D01*
X3335324Y5724245D01*
X3335324Y5691835D01*
X3336036Y5685485D01*
X3337966Y5680049D01*
X3341065Y5675122D01*
X3345129Y5671058D01*
X3350056Y5667959D01*
X3355492Y5666028D01*
G37*
G36*
X4051808Y5665317D02*
G01*
X4208170Y5665317D01*
X4214469Y5666028D01*
X4219956Y5667959D01*
X4224832Y5671058D01*
X4228947Y5675122D01*
X4231995Y5680049D01*
X4233926Y5685485D01*
X4234637Y5691835D01*
X4234637Y5848146D01*
X4233926Y5854496D01*
X4231995Y5859932D01*
X4228947Y5864860D01*
X4224832Y5868924D01*
X4219956Y5872022D01*
X4214469Y5873902D01*
X4208170Y5874613D01*
X4051808Y5874613D01*
X4045508Y5873902D01*
X4040022Y5872022D01*
X4035145Y5868924D01*
X4031030Y5864860D01*
X4027982Y5859932D01*
X4026052Y5854496D01*
X4025341Y5848146D01*
X4025341Y5691835D01*
X4026052Y5685485D01*
X4027982Y5680049D01*
X4031030Y5675122D01*
X4035145Y5671058D01*
X4040022Y5667959D01*
X4045508Y5666028D01*
G37*
G36*
X3485692Y5815685D02*
G01*
X3544620Y5815685D01*
X3544620Y5848146D01*
X3543909Y5854496D01*
X3542029Y5859932D01*
X3538931Y5864860D01*
X3534867Y5868924D01*
X3529939Y5872022D01*
X3524504Y5873902D01*
X3518154Y5874613D01*
X3485692Y5874613D01*
G37*
G36*
X3335324Y5815685D02*
G01*
X3394252Y5815685D01*
X3394252Y5874613D01*
X3361842Y5874613D01*
X3355492Y5873902D01*
X3350056Y5872022D01*
X3345129Y5868924D01*
X3341065Y5864860D01*
X3337966Y5859932D01*
X3336036Y5854496D01*
X3335324Y5848146D01*
G37*
G36*
X5185003Y5879084D02*
G01*
X5197246Y5879998D01*
X5209184Y5882589D01*
X5220665Y5886856D01*
X5231434Y5892749D01*
X5241239Y5900064D01*
X5249926Y5908751D01*
X5257241Y5918555D01*
X5263134Y5929325D01*
X5267401Y5940806D01*
X5269992Y5952744D01*
X5270906Y5964986D01*
X5269992Y5977229D01*
X5267401Y5989167D01*
X5263134Y6000648D01*
X5257241Y6011418D01*
X5249926Y6021222D01*
X5241239Y6029909D01*
X5231434Y6037224D01*
X5220665Y6043117D01*
X5209184Y6047384D01*
X5197246Y6049975D01*
X5185003Y6050889D01*
X5172760Y6049975D01*
X5160822Y6047384D01*
X5149342Y6043117D01*
X5138572Y6037224D01*
X5128768Y6029909D01*
X5120081Y6021222D01*
X5112766Y6011418D01*
X5106873Y6000648D01*
X5102606Y5989167D01*
X5100015Y5977229D01*
X5099100Y5964986D01*
X5100015Y5952744D01*
X5102606Y5940806D01*
X5106873Y5929325D01*
X5112766Y5918555D01*
X5120081Y5908751D01*
X5128768Y5900064D01*
X5138572Y5892749D01*
X5149342Y5886856D01*
X5160822Y5882589D01*
X5172760Y5879998D01*
G37*
G36*
X4585004Y5879084D02*
G01*
X4597247Y5879998D01*
X4609185Y5882589D01*
X4620666Y5886856D01*
X4631436Y5892749D01*
X4641240Y5900064D01*
X4649927Y5908751D01*
X4657242Y5918555D01*
X4663135Y5929325D01*
X4667402Y5940806D01*
X4669993Y5952744D01*
X4670907Y5964986D01*
X4669993Y5977229D01*
X4667402Y5989167D01*
X4663135Y6000648D01*
X4657242Y6011418D01*
X4649927Y6021222D01*
X4641240Y6029909D01*
X4631436Y6037224D01*
X4620666Y6043117D01*
X4609185Y6047384D01*
X4597247Y6049975D01*
X4585004Y6050889D01*
X4572762Y6049975D01*
X4560824Y6047384D01*
X4549343Y6043117D01*
X4538573Y6037224D01*
X4528769Y6029909D01*
X4520082Y6021222D01*
X4512767Y6011418D01*
X4506874Y6000648D01*
X4502607Y5989167D01*
X4500016Y5977229D01*
X4499102Y5964986D01*
X4500016Y5952744D01*
X4502607Y5940806D01*
X4506874Y5929325D01*
X4512767Y5918555D01*
X4520082Y5908751D01*
X4528769Y5900064D01*
X4538573Y5892749D01*
X4549343Y5886856D01*
X4560824Y5882589D01*
X4572762Y5879998D01*
G37*
G36*
X1315008Y5919114D02*
G01*
X1325321Y5919927D01*
X1335379Y5922314D01*
X1344930Y5926277D01*
X1353718Y5931712D01*
X1361897Y5938672D01*
X1526286Y6103061D01*
X1533296Y6111240D01*
X1538732Y6120130D01*
X1540205Y6122009D01*
X1611376Y6193637D01*
X1620012Y6203543D01*
X1627378Y6214567D01*
X1633220Y6226403D01*
X1637436Y6238849D01*
X1640027Y6251803D01*
X1640890Y6265316D01*
X1640890Y8319668D01*
X1640027Y8333130D01*
X1637436Y8346084D01*
X1633220Y8358581D01*
X1627378Y8370417D01*
X1620012Y8381390D01*
X1611122Y8391550D01*
X1535938Y8466734D01*
X1533753Y8470036D01*
X1532991Y8473897D01*
X1533753Y8477808D01*
X1535938Y8481110D01*
X1539240Y8483295D01*
X1543151Y8484057D01*
X1679092Y8484057D01*
X1683410Y8483142D01*
X1685747Y8482025D01*
X1695196Y8479485D01*
X1705000Y8478621D01*
X1714804Y8479485D01*
X1724253Y8482025D01*
X1733194Y8486190D01*
X1741220Y8491829D01*
X1748180Y8498738D01*
X1753819Y8506815D01*
X1757934Y8515705D01*
X1760474Y8525205D01*
X1761337Y8534958D01*
X1760474Y8544763D01*
X1757934Y8554262D01*
X1753819Y8563152D01*
X1748180Y8571230D01*
X1741220Y8578138D01*
X1733194Y8583777D01*
X1724253Y8587943D01*
X1714804Y8590483D01*
X1705000Y8591346D01*
X1695196Y8590483D01*
X1685747Y8587943D01*
X1683359Y8586825D01*
X1679092Y8585911D01*
X1441043Y8585911D01*
X1437182Y8586673D01*
X1433880Y8588857D01*
X1431696Y8592159D01*
X1430883Y8596071D01*
X1430883Y8745372D01*
X1431493Y8748776D01*
X1433880Y8755481D01*
X1434592Y8761780D01*
X1434592Y8918143D01*
X1433880Y8924442D01*
X1431950Y8929928D01*
X1428902Y8934805D01*
X1424787Y8938920D01*
X1419910Y8941968D01*
X1414424Y8943898D01*
X1408125Y8944610D01*
X1251762Y8944610D01*
X1245463Y8943898D01*
X1239977Y8941968D01*
X1235100Y8938920D01*
X1230985Y8934805D01*
X1227937Y8929928D01*
X1226007Y8924442D01*
X1225296Y8918143D01*
X1225296Y8761780D01*
X1226007Y8755532D01*
X1228496Y8748674D01*
X1229106Y8745220D01*
X1229106Y8530336D01*
X1229969Y8516823D01*
X1232560Y8503869D01*
X1236776Y8491372D01*
X1242618Y8479536D01*
X1249934Y8468563D01*
X1258874Y8458403D01*
X1436116Y8281162D01*
X1438300Y8277859D01*
X1439113Y8273999D01*
X1439113Y7759649D01*
X1438402Y7755940D01*
X1436370Y7752740D01*
X1433322Y7750505D01*
X1429664Y7749540D01*
X1425905Y7749946D01*
X1422552Y7751775D01*
X1412697Y7759700D01*
X1402943Y7765338D01*
X1392377Y7769504D01*
X1381302Y7771993D01*
X1373835Y7772552D01*
X1373835Y7728356D01*
X1428953Y7728356D01*
X1432814Y7727543D01*
X1436116Y7725359D01*
X1438300Y7722057D01*
X1439113Y7718196D01*
X1439113Y7675778D01*
X1438300Y7671917D01*
X1436116Y7668615D01*
X1432814Y7666431D01*
X1428953Y7665618D01*
X1373835Y7665618D01*
X1373835Y7621371D01*
X1381302Y7621930D01*
X1392377Y7624470D01*
X1402943Y7628636D01*
X1412697Y7634274D01*
X1422552Y7642199D01*
X1425905Y7644028D01*
X1429664Y7644434D01*
X1433322Y7643469D01*
X1436370Y7641234D01*
X1438402Y7638034D01*
X1439113Y7634325D01*
X1439113Y6895642D01*
X1438402Y6891934D01*
X1436370Y6888734D01*
X1433322Y6886498D01*
X1429664Y6885533D01*
X1425905Y6885990D01*
X1422552Y6887768D01*
X1412697Y6895693D01*
X1402943Y6901332D01*
X1392377Y6905498D01*
X1381302Y6908038D01*
X1373835Y6908596D01*
X1373835Y6864350D01*
X1428953Y6864350D01*
X1432814Y6863588D01*
X1436116Y6861352D01*
X1438300Y6858050D01*
X1439113Y6854190D01*
X1439113Y6811822D01*
X1438300Y6807911D01*
X1436116Y6804609D01*
X1432814Y6802424D01*
X1428953Y6801662D01*
X1373835Y6801662D01*
X1373835Y6757416D01*
X1381302Y6757974D01*
X1392377Y6760464D01*
X1402943Y6764629D01*
X1412697Y6770268D01*
X1422552Y6778244D01*
X1425905Y6780022D01*
X1429664Y6780428D01*
X1433322Y6779463D01*
X1436370Y6777228D01*
X1438402Y6774027D01*
X1439113Y6770319D01*
X1439113Y6310782D01*
X1438300Y6306921D01*
X1436116Y6303619D01*
X1398879Y6266129D01*
X1386230Y6258255D01*
X1378051Y6251295D01*
X1213713Y6086906D01*
X1206703Y6078728D01*
X1201318Y6069888D01*
X1197356Y6060338D01*
X1194917Y6050280D01*
X1194104Y6039967D01*
X1194917Y6029706D01*
X1197356Y6019647D01*
X1201318Y6010097D01*
X1206703Y6001258D01*
X1213662Y5993079D01*
X1268120Y5938672D01*
X1276299Y5931712D01*
X1285087Y5926277D01*
X1294638Y5922314D01*
X1304696Y5919927D01*
G37*
G36*
X1635404Y6024067D02*
G01*
X1749704Y6024067D01*
X1757730Y6024575D01*
X1759813Y6024880D01*
X1767586Y6026658D01*
X1776933Y6030366D01*
X1778812Y6031331D01*
X1785569Y6035548D01*
X1793290Y6042152D01*
X1977745Y6226606D01*
X1984552Y6234633D01*
X1989683Y6243269D01*
X1993341Y6252616D01*
X1995424Y6262471D01*
X1995830Y6272479D01*
X1994560Y6282486D01*
X1991715Y6292138D01*
X1987296Y6301130D01*
X1981454Y6309309D01*
X1974342Y6316421D01*
X1966163Y6322263D01*
X1957120Y6326682D01*
X1947468Y6329578D01*
X1937512Y6330797D01*
X1927453Y6330391D01*
X1917649Y6328308D01*
X1908251Y6324650D01*
X1899615Y6319520D01*
X1891639Y6312763D01*
X1727758Y6148882D01*
X1724456Y6146647D01*
X1720545Y6145885D01*
X1635404Y6145885D01*
X1624990Y6145022D01*
X1615236Y6142583D01*
X1606042Y6138519D01*
X1597609Y6133033D01*
X1590192Y6126226D01*
X1584045Y6118301D01*
X1579270Y6109462D01*
X1575968Y6099911D01*
X1574342Y6090005D01*
X1574342Y6079947D01*
X1575968Y6070041D01*
X1579270Y6060541D01*
X1584045Y6051702D01*
X1590192Y6043777D01*
X1597609Y6036970D01*
X1606042Y6031433D01*
X1615236Y6027420D01*
X1624990Y6024930D01*
G37*
G36*
X4455363Y6119063D02*
G01*
X4514646Y6119063D01*
X4527194Y6119977D01*
X4539183Y6122568D01*
X4550664Y6126886D01*
X4561433Y6132728D01*
X4571238Y6140094D01*
X4579874Y6148730D01*
X4587240Y6158534D01*
X4593132Y6169304D01*
X4597400Y6180785D01*
X4599990Y6192774D01*
X4600854Y6204966D01*
X4599990Y6217208D01*
X4597400Y6229197D01*
X4593132Y6240678D01*
X4587240Y6251397D01*
X4579874Y6261252D01*
X4571238Y6269888D01*
X4561433Y6277254D01*
X4550664Y6283096D01*
X4539183Y6287414D01*
X4527194Y6290005D01*
X4514646Y6290919D01*
X4455363Y6290919D01*
X4442764Y6290005D01*
X4430776Y6287414D01*
X4419295Y6283096D01*
X4408576Y6277254D01*
X4398772Y6269888D01*
X4390085Y6261252D01*
X4382719Y6251397D01*
X4376877Y6240678D01*
X4372610Y6229197D01*
X4369968Y6217208D01*
X4369104Y6204966D01*
X4369968Y6192774D01*
X4372610Y6180785D01*
X4376877Y6169304D01*
X4382719Y6158534D01*
X4390085Y6148730D01*
X4398772Y6140094D01*
X4408576Y6132728D01*
X4419295Y6126886D01*
X4430776Y6122568D01*
X4442764Y6119977D01*
G37*
G36*
X5236362Y6121958D02*
G01*
X5239207Y6122568D01*
X5250688Y6126886D01*
X5261406Y6132728D01*
X5271211Y6140094D01*
X5279898Y6148730D01*
X5287264Y6158534D01*
X5292750Y6168644D01*
X5236362Y6168644D01*
G37*
G36*
X5133644Y6121958D02*
G01*
X5133644Y6168644D01*
X5077256Y6168644D01*
X5082743Y6158534D01*
X5090109Y6148730D01*
X5098745Y6140094D01*
X5108549Y6132728D01*
X5119319Y6126886D01*
X5130800Y6122568D01*
G37*
G36*
X5077256Y6241338D02*
G01*
X5133644Y6241338D01*
X5133644Y6288024D01*
X5130800Y6287414D01*
X5119319Y6283096D01*
X5108549Y6277254D01*
X5098745Y6269888D01*
X5090109Y6261252D01*
X5082743Y6251397D01*
G37*
G36*
X5236362Y6241338D02*
G01*
X5292750Y6241338D01*
X5287264Y6251397D01*
X5279898Y6261252D01*
X5271211Y6269888D01*
X5261406Y6277254D01*
X5250688Y6283096D01*
X5239207Y6287414D01*
X5236362Y6288024D01*
G37*
G36*
X1256131Y6757416D02*
G01*
X1256131Y6801662D01*
X1191107Y6801662D01*
X1194308Y6795058D01*
X1200658Y6785660D01*
X1208379Y6777380D01*
X1217269Y6770319D01*
X1227074Y6764629D01*
X1237640Y6760464D01*
X1248664Y6757974D01*
G37*
G36*
X996340Y6757974D02*
G01*
X1007364Y6760464D01*
X1017930Y6764629D01*
X1027734Y6770319D01*
X1036624Y6777380D01*
X1044346Y6785660D01*
X1050696Y6795058D01*
X1053896Y6801662D01*
X996340Y6801662D01*
G37*
G36*
X893622Y6757974D02*
G01*
X893622Y6801662D01*
X836117Y6801662D01*
X839266Y6795058D01*
X845667Y6785660D01*
X853389Y6777380D01*
X862228Y6770319D01*
X872083Y6764629D01*
X882650Y6760464D01*
G37*
G36*
X836117Y6864350D02*
G01*
X893622Y6864350D01*
X893622Y6907987D01*
X882650Y6905498D01*
X872083Y6901332D01*
X862228Y6895693D01*
X853389Y6888632D01*
X845667Y6880301D01*
X839266Y6870903D01*
G37*
G36*
X996340Y6864350D02*
G01*
X1053896Y6864350D01*
X1050696Y6870903D01*
X1044346Y6880301D01*
X1036624Y6888632D01*
X1027734Y6895693D01*
X1017930Y6901332D01*
X1007364Y6905498D01*
X996340Y6907987D01*
G37*
G36*
X1191107Y6864350D02*
G01*
X1256131Y6864350D01*
X1256131Y6908596D01*
X1248664Y6908038D01*
X1237640Y6905498D01*
X1227074Y6901332D01*
X1217269Y6895693D01*
X1208379Y6888632D01*
X1200658Y6880301D01*
X1194308Y6870903D01*
G37*
G36*
X1256131Y7621371D02*
G01*
X1256131Y7665618D01*
X1191107Y7665618D01*
X1194308Y7659065D01*
X1200658Y7649667D01*
X1208379Y7641336D01*
X1217269Y7634274D01*
X1227074Y7628636D01*
X1237640Y7624470D01*
X1248664Y7621930D01*
G37*
G36*
X996340Y7621981D02*
G01*
X1007364Y7624470D01*
X1017930Y7628636D01*
X1027734Y7634274D01*
X1036624Y7641336D01*
X1044346Y7649667D01*
X1050696Y7659065D01*
X1053896Y7665618D01*
X996340Y7665618D01*
G37*
G36*
X893622Y7621981D02*
G01*
X893622Y7665618D01*
X836117Y7665618D01*
X839266Y7659065D01*
X845667Y7649667D01*
X853389Y7641336D01*
X862228Y7634274D01*
X872083Y7628636D01*
X882650Y7624470D01*
G37*
G36*
X996340Y7728356D02*
G01*
X1053896Y7728356D01*
X1050696Y7734909D01*
X1044346Y7744307D01*
X1036624Y7752588D01*
X1027734Y7759700D01*
X1017930Y7765338D01*
X1007364Y7769504D01*
X996340Y7771993D01*
G37*
G36*
X836117Y7728356D02*
G01*
X893622Y7728356D01*
X893622Y7771993D01*
X882650Y7769504D01*
X872083Y7765338D01*
X862228Y7759700D01*
X853389Y7752588D01*
X845667Y7744307D01*
X839266Y7734909D01*
G37*
G36*
X1191107Y7728356D02*
G01*
X1256131Y7728356D01*
X1256131Y7772552D01*
X1248664Y7771993D01*
X1237640Y7769504D01*
X1227074Y7765338D01*
X1217269Y7759700D01*
X1208379Y7752588D01*
X1200658Y7744307D01*
X1194308Y7734909D01*
G37*
G36*
X5441797Y7770317D02*
G01*
X5598160Y7770317D01*
X5604459Y7771028D01*
X5609945Y7772958D01*
X5614822Y7776057D01*
X5618937Y7780121D01*
X5622036Y7785049D01*
X5623915Y7790484D01*
X5624626Y7796834D01*
X5624626Y7953146D01*
X5623915Y7959496D01*
X5622036Y7964931D01*
X5618937Y7969859D01*
X5614822Y7973923D01*
X5609945Y7977022D01*
X5604459Y7978902D01*
X5598160Y7979613D01*
X5441797Y7979613D01*
X5435498Y7978902D01*
X5430012Y7977022D01*
X5425135Y7973923D01*
X5421020Y7969859D01*
X5417972Y7964931D01*
X5416042Y7959496D01*
X5415330Y7953146D01*
X5415330Y7796834D01*
X5416042Y7790484D01*
X5417972Y7785049D01*
X5421020Y7780121D01*
X5425135Y7776057D01*
X5430012Y7772958D01*
X5435498Y7771028D01*
G37*
G36*
X5441797Y8080349D02*
G01*
X5598160Y8080349D01*
X5604459Y8081060D01*
X5609945Y8082940D01*
X5614822Y8086039D01*
X5618937Y8090153D01*
X5622036Y8095030D01*
X5623915Y8100517D01*
X5624626Y8106816D01*
X5624626Y8263178D01*
X5623915Y8269478D01*
X5622036Y8274913D01*
X5618937Y8279841D01*
X5614822Y8283905D01*
X5609945Y8287003D01*
X5604459Y8288934D01*
X5598160Y8289645D01*
X5441797Y8289645D01*
X5435498Y8288934D01*
X5430012Y8287003D01*
X5425135Y8283905D01*
X5421020Y8279841D01*
X5417972Y8274913D01*
X5416042Y8269478D01*
X5415330Y8263178D01*
X5415330Y8106816D01*
X5416042Y8100517D01*
X5417972Y8095030D01*
X5421020Y8090153D01*
X5425135Y8086039D01*
X5430012Y8082940D01*
X5435498Y8081060D01*
G37*
G36*
X1150213Y8089087D02*
G01*
X1252270Y8089138D01*
X1260094Y8089950D01*
X1264818Y8090916D01*
X1272133Y8093252D01*
X1279042Y8096503D01*
X1283208Y8098942D01*
X1289354Y8103514D01*
X1294841Y8108848D01*
X1297990Y8112506D01*
X1302308Y8118805D01*
X1305814Y8125612D01*
X1307541Y8130133D01*
X1309573Y8137499D01*
X1310690Y8145068D01*
X1310894Y8150199D01*
X1310843Y8252307D01*
X1310030Y8260130D01*
X1309065Y8264855D01*
X1306728Y8272119D01*
X1303477Y8279079D01*
X1301038Y8283194D01*
X1296466Y8289340D01*
X1291132Y8294878D01*
X1287475Y8297976D01*
X1281176Y8302294D01*
X1274368Y8305800D01*
X1269847Y8307578D01*
X1262481Y8309609D01*
X1254912Y8310676D01*
X1249781Y8310880D01*
X1147673Y8310829D01*
X1139850Y8310067D01*
X1135126Y8309051D01*
X1127861Y8306714D01*
X1120902Y8303514D01*
X1116787Y8301024D01*
X1110640Y8296452D01*
X1105103Y8291169D01*
X1102004Y8287461D01*
X1097686Y8281162D01*
X1094181Y8274354D01*
X1092403Y8269884D01*
X1090371Y8262467D01*
X1089304Y8254898D01*
X1089101Y8249767D01*
X1089152Y8147710D01*
X1089914Y8139887D01*
X1090930Y8135162D01*
X1093266Y8127847D01*
X1096467Y8120938D01*
X1098956Y8116773D01*
X1103528Y8110626D01*
X1108811Y8105140D01*
X1112520Y8101990D01*
X1118819Y8097672D01*
X1125626Y8094167D01*
X1130096Y8092440D01*
X1137513Y8090408D01*
X1145082Y8089290D01*
G37*
G36*
X2067712Y8179308D02*
G01*
X2082292Y8179308D01*
X2096719Y8181136D01*
X2110790Y8184743D01*
X2124354Y8190128D01*
X2137105Y8197138D01*
X2148840Y8205673D01*
X2159457Y8215630D01*
X2168753Y8226856D01*
X2176526Y8239150D01*
X2182723Y8252307D01*
X2187244Y8266175D01*
X2189988Y8280450D01*
X2190902Y8294979D01*
X2189988Y8309508D01*
X2187244Y8323783D01*
X2182723Y8337651D01*
X2176526Y8350808D01*
X2168753Y8363102D01*
X2159457Y8374329D01*
X2148840Y8384286D01*
X2137105Y8392820D01*
X2124354Y8399830D01*
X2110790Y8405215D01*
X2096719Y8408822D01*
X2082292Y8410651D01*
X2067712Y8410651D01*
X2053285Y8408822D01*
X2039162Y8405215D01*
X2025650Y8399830D01*
X2012899Y8392820D01*
X2001113Y8384286D01*
X1990496Y8374329D01*
X1981250Y8363102D01*
X1973427Y8350808D01*
X1967230Y8337651D01*
X1962759Y8323783D01*
X1960016Y8309508D01*
X1959102Y8294979D01*
X1960016Y8280450D01*
X1962759Y8266175D01*
X1967230Y8252307D01*
X1973427Y8239150D01*
X1981250Y8226856D01*
X1990496Y8215630D01*
X2001113Y8205673D01*
X2012899Y8197138D01*
X2025650Y8190128D01*
X2039162Y8184743D01*
X2053285Y8181136D01*
G37*
G36*
X2678379Y8367979D02*
G01*
X2691993Y8369300D01*
X2705252Y8372500D01*
X2717952Y8377377D01*
X2729941Y8383930D01*
X2740914Y8392007D01*
X2750718Y8401507D01*
X2759151Y8412226D01*
X2766110Y8423960D01*
X2771444Y8436508D01*
X2775051Y8449665D01*
X2776829Y8463178D01*
X2776829Y8476792D01*
X2775051Y8490305D01*
X2771444Y8503462D01*
X2766110Y8516010D01*
X2759151Y8527745D01*
X2750718Y8538464D01*
X2740914Y8547963D01*
X2729941Y8556040D01*
X2717952Y8562594D01*
X2705252Y8567470D01*
X2691993Y8570671D01*
X2678379Y8571992D01*
X2664764Y8571534D01*
X2651302Y8569299D01*
X2638298Y8565235D01*
X2625953Y8559495D01*
X2614422Y8552180D01*
X2604008Y8543340D01*
X2594864Y8533231D01*
X2587142Y8522004D01*
X2580995Y8509812D01*
X2576525Y8496960D01*
X2573832Y8483600D01*
X2572918Y8469985D01*
X2573832Y8456371D01*
X2576525Y8443010D01*
X2580995Y8430107D01*
X2587142Y8417966D01*
X2594864Y8406739D01*
X2604008Y8396579D01*
X2614422Y8387791D01*
X2625953Y8380475D01*
X2638298Y8374735D01*
X2651302Y8370671D01*
X2664764Y8368385D01*
G37*
G36*
X2278430Y8367979D02*
G01*
X2291994Y8369300D01*
X2305253Y8372500D01*
X2317953Y8377377D01*
X2329942Y8383930D01*
X2340914Y8392007D01*
X2350719Y8401507D01*
X2359152Y8412226D01*
X2366111Y8423960D01*
X2371445Y8436508D01*
X2375052Y8449665D01*
X2376830Y8463178D01*
X2376830Y8476792D01*
X2375052Y8490305D01*
X2371445Y8503462D01*
X2366111Y8516010D01*
X2359152Y8527745D01*
X2350719Y8538464D01*
X2340914Y8547963D01*
X2329942Y8556040D01*
X2317953Y8562594D01*
X2305253Y8567470D01*
X2291994Y8570671D01*
X2278430Y8571992D01*
X2264765Y8571534D01*
X2251303Y8569299D01*
X2238298Y8565235D01*
X2225954Y8559495D01*
X2214422Y8552180D01*
X2204008Y8543340D01*
X2194864Y8533231D01*
X2187143Y8522004D01*
X2180996Y8509812D01*
X2176526Y8496960D01*
X2173833Y8483600D01*
X2172919Y8469985D01*
X2173833Y8456371D01*
X2176526Y8443010D01*
X2180996Y8430107D01*
X2187143Y8417966D01*
X2194864Y8406739D01*
X2204008Y8396579D01*
X2214422Y8387791D01*
X2225954Y8380475D01*
X2238298Y8374735D01*
X2251303Y8370671D01*
X2264765Y8368385D01*
G37*
G36*
X5441797Y8390331D02*
G01*
X5474258Y8390331D01*
X5474258Y8449259D01*
X5415330Y8449259D01*
X5415330Y8416798D01*
X5416042Y8410498D01*
X5417972Y8405012D01*
X5421020Y8400135D01*
X5425135Y8396020D01*
X5430012Y8392972D01*
X5435498Y8391042D01*
G37*
G36*
X5565698Y8390331D02*
G01*
X5598160Y8390331D01*
X5604459Y8391042D01*
X5609945Y8392972D01*
X5614822Y8396020D01*
X5618937Y8400135D01*
X5622036Y8405012D01*
X5623915Y8410498D01*
X5624626Y8416798D01*
X5624626Y8449259D01*
X5565698Y8449259D01*
G37*
G36*
X5415330Y8540699D02*
G01*
X5474258Y8540699D01*
X5474258Y8599627D01*
X5441797Y8599627D01*
X5435498Y8598916D01*
X5430012Y8596985D01*
X5425135Y8593937D01*
X5421020Y8589822D01*
X5417972Y8584946D01*
X5416042Y8579459D01*
X5415330Y8573160D01*
G37*
G36*
X5565698Y8540699D02*
G01*
X5624626Y8540699D01*
X5624626Y8573160D01*
X5623915Y8579459D01*
X5622036Y8584946D01*
X5618937Y8589822D01*
X5614822Y8593937D01*
X5609945Y8596985D01*
X5604459Y8598916D01*
X5598160Y8599627D01*
X5565698Y8599627D01*
G37*
G36*
X4874971Y8559088D02*
G01*
X4890160Y8560003D01*
X4905095Y8562746D01*
X4919624Y8567267D01*
X4933492Y8573516D01*
X4946497Y8581390D01*
X4958486Y8590737D01*
X4969205Y8601506D01*
X4978603Y8613495D01*
X4986477Y8626500D01*
X4992674Y8640368D01*
X4997246Y8654846D01*
X4999939Y8669832D01*
X5000904Y8684971D01*
X4999939Y8700160D01*
X4997246Y8715095D01*
X4992674Y8729624D01*
X4986477Y8743492D01*
X4978603Y8756497D01*
X4969205Y8768486D01*
X4958486Y8779205D01*
X4946497Y8788603D01*
X4933492Y8796477D01*
X4919624Y8802674D01*
X4905095Y8807246D01*
X4890160Y8809939D01*
X4874971Y8810904D01*
X4859832Y8809939D01*
X4844846Y8807246D01*
X4830368Y8802674D01*
X4816500Y8796477D01*
X4803495Y8788603D01*
X4791506Y8779205D01*
X4780737Y8768486D01*
X4771390Y8756497D01*
X4763516Y8743492D01*
X4757267Y8729624D01*
X4752746Y8715095D01*
X4750003Y8700160D01*
X4749088Y8684971D01*
X4750003Y8669832D01*
X4752746Y8654846D01*
X4757267Y8640368D01*
X4763516Y8626500D01*
X4771390Y8613495D01*
X4780737Y8601506D01*
X4791506Y8590737D01*
X4803495Y8581390D01*
X4816500Y8573516D01*
X4830368Y8567267D01*
X4844846Y8562746D01*
X4859832Y8560003D01*
G37*
G36*
X3874973Y8559088D02*
G01*
X3890162Y8560003D01*
X3905097Y8562746D01*
X3919626Y8567267D01*
X3933494Y8573516D01*
X3946499Y8581390D01*
X3958488Y8590737D01*
X3969207Y8601506D01*
X3978605Y8613495D01*
X3986479Y8626500D01*
X3992676Y8640368D01*
X3997248Y8654846D01*
X3999941Y8669832D01*
X4000906Y8684971D01*
X3999941Y8700160D01*
X3997248Y8715095D01*
X3992676Y8729624D01*
X3986479Y8743492D01*
X3978605Y8756497D01*
X3969207Y8768486D01*
X3958488Y8779205D01*
X3946499Y8788603D01*
X3933494Y8796477D01*
X3919626Y8802674D01*
X3905097Y8807246D01*
X3890162Y8809939D01*
X3874973Y8810904D01*
X3859834Y8809939D01*
X3844848Y8807246D01*
X3830370Y8802674D01*
X3816502Y8796477D01*
X3803497Y8788603D01*
X3791508Y8779205D01*
X3780739Y8768486D01*
X3771392Y8756497D01*
X3763518Y8743492D01*
X3757269Y8729624D01*
X3752748Y8715095D01*
X3750005Y8700160D01*
X3749090Y8684971D01*
X3750005Y8669832D01*
X3752748Y8654846D01*
X3757269Y8640368D01*
X3763518Y8626500D01*
X3771392Y8613495D01*
X3780739Y8601506D01*
X3791508Y8590737D01*
X3803497Y8581390D01*
X3816502Y8573516D01*
X3830370Y8567267D01*
X3844848Y8562746D01*
X3859834Y8560003D01*
G37*
G36*
X5441797Y8700312D02*
G01*
X5598160Y8700312D01*
X5604459Y8701024D01*
X5609945Y8702954D01*
X5614822Y8706053D01*
X5618937Y8710117D01*
X5622036Y8715044D01*
X5623915Y8720480D01*
X5624626Y8726830D01*
X5624626Y8883142D01*
X5623915Y8889492D01*
X5622036Y8894927D01*
X5618937Y8899855D01*
X5614822Y8903919D01*
X5609945Y8907018D01*
X5604459Y8908897D01*
X5598160Y8909608D01*
X5441797Y8909608D01*
X5435498Y8908897D01*
X5430012Y8907018D01*
X5425135Y8903919D01*
X5421020Y8899855D01*
X5417972Y8894927D01*
X5416042Y8889492D01*
X5415330Y8883142D01*
X5415330Y8726830D01*
X5416042Y8720480D01*
X5417972Y8715044D01*
X5421020Y8710117D01*
X5425135Y8706053D01*
X5430012Y8702954D01*
X5435498Y8701024D01*
G37*
G36*
X4178401Y8707932D02*
G01*
X4191965Y8709304D01*
X4205224Y8712504D01*
X4217974Y8717381D01*
X4229912Y8723934D01*
X4240885Y8732012D01*
X4250690Y8741511D01*
X4259173Y8752230D01*
X4266387Y8764422D01*
X4269333Y8767572D01*
X4273296Y8769248D01*
X4277614Y8769096D01*
X4281474Y8767165D01*
X4284218Y8763812D01*
X4287164Y8757970D01*
X4294886Y8746693D01*
X4304030Y8736584D01*
X4314444Y8727795D01*
X4325924Y8720480D01*
X4338320Y8714740D01*
X4351324Y8710676D01*
X4364786Y8708390D01*
X4378401Y8707932D01*
X4391964Y8709304D01*
X4405223Y8712504D01*
X4417974Y8717381D01*
X4429912Y8723934D01*
X4440885Y8732012D01*
X4450689Y8741511D01*
X4459173Y8752230D01*
X4466386Y8764422D01*
X4469333Y8767572D01*
X4473295Y8769248D01*
X4477613Y8769096D01*
X4481474Y8767165D01*
X4484217Y8763812D01*
X4487164Y8757970D01*
X4494885Y8746693D01*
X4504029Y8736584D01*
X4514443Y8727795D01*
X4525924Y8720480D01*
X4538319Y8714740D01*
X4551324Y8710676D01*
X4564786Y8708390D01*
X4578400Y8707932D01*
X4591964Y8709304D01*
X4605223Y8712504D01*
X4617974Y8717381D01*
X4629912Y8723934D01*
X4640884Y8732012D01*
X4650689Y8741511D01*
X4659172Y8752230D01*
X4666081Y8763965D01*
X4671415Y8776512D01*
X4675022Y8789670D01*
X4676851Y8803182D01*
X4676851Y8816797D01*
X4675022Y8830310D01*
X4671415Y8843467D01*
X4666081Y8856014D01*
X4659172Y8867749D01*
X4650689Y8878468D01*
X4640884Y8887917D01*
X4629912Y8896045D01*
X4617974Y8902598D01*
X4605223Y8907475D01*
X4591964Y8910624D01*
X4578400Y8911996D01*
X4564786Y8911539D01*
X4551324Y8909304D01*
X4538319Y8905240D01*
X4525924Y8899499D01*
X4514443Y8892184D01*
X4504029Y8883345D01*
X4494885Y8873236D01*
X4487164Y8862009D01*
X4484217Y8856167D01*
X4481474Y8852814D01*
X4477613Y8850884D01*
X4473295Y8850731D01*
X4469333Y8852408D01*
X4466386Y8855557D01*
X4459173Y8867749D01*
X4450689Y8878468D01*
X4440885Y8887917D01*
X4429912Y8896045D01*
X4417974Y8902598D01*
X4405223Y8907475D01*
X4391964Y8910624D01*
X4378401Y8911996D01*
X4364786Y8911539D01*
X4351324Y8909304D01*
X4338320Y8905240D01*
X4325924Y8899499D01*
X4314444Y8892184D01*
X4304030Y8883345D01*
X4294886Y8873236D01*
X4287164Y8862009D01*
X4284218Y8856167D01*
X4281474Y8852814D01*
X4277614Y8850884D01*
X4273296Y8850731D01*
X4269333Y8852408D01*
X4266387Y8855557D01*
X4259173Y8867749D01*
X4250690Y8878468D01*
X4240885Y8887917D01*
X4229912Y8896045D01*
X4217974Y8902598D01*
X4205224Y8907475D01*
X4191965Y8910624D01*
X4178401Y8911996D01*
X4164787Y8911539D01*
X4151325Y8909304D01*
X4138320Y8905240D01*
X4125925Y8899499D01*
X4114444Y8892184D01*
X4104030Y8883345D01*
X4094886Y8873236D01*
X4087164Y8862009D01*
X4081018Y8849817D01*
X4076547Y8836964D01*
X4073804Y8823604D01*
X4072890Y8809990D01*
X4073804Y8796375D01*
X4076547Y8783015D01*
X4081018Y8770112D01*
X4087164Y8757970D01*
X4094886Y8746693D01*
X4104030Y8736584D01*
X4114444Y8727795D01*
X4125925Y8720480D01*
X4138320Y8714740D01*
X4151325Y8710676D01*
X4164787Y8708390D01*
G37*

%LPD*%
G36*
X736092Y2125776D02*
G01*
X732180Y2126589D01*
X728878Y2128774D01*
X726694Y2132076D01*
X725932Y2135936D01*
X725932Y3763822D01*
X726694Y3767734D01*
X728878Y3771036D01*
X732180Y3773220D01*
X736092Y3773982D01*
X3999382Y3774084D01*
X4005884Y3774897D01*
X4011422Y3776979D01*
X4016552Y3780536D01*
X4019600Y3783584D01*
X4022242Y3787140D01*
X4024731Y3792677D01*
X4025900Y3800144D01*
X4025900Y5469839D01*
X4026662Y5473750D01*
X4028897Y5477002D01*
X4032199Y5479237D01*
X4036060Y5479999D01*
X4419295Y5479999D01*
X4423003Y5479288D01*
X4427626Y5477510D01*
X4438700Y5474970D01*
X4450384Y5474106D01*
X5249621Y5474106D01*
X5261305Y5474970D01*
X5272379Y5477510D01*
X5276951Y5479288D01*
X5280710Y5479999D01*
X5663946Y5479999D01*
X5667806Y5479237D01*
X5671108Y5477002D01*
X5673344Y5473750D01*
X5674106Y5469839D01*
X5674106Y2135936D01*
X5673344Y2132076D01*
X5671108Y2128774D01*
X5667806Y2126589D01*
X5663946Y2125776D01*
G37*

%LPC*%
G36*
X3361842Y2165350D02*
G01*
X3394252Y2165350D01*
X3394252Y2224278D01*
X3335324Y2224278D01*
X3335324Y2191816D01*
X3336036Y2185517D01*
X3337966Y2180031D01*
X3341065Y2175154D01*
X3345129Y2171039D01*
X3350056Y2167940D01*
X3355492Y2166061D01*
G37*
G36*
X3485692Y2165350D02*
G01*
X3518154Y2165350D01*
X3524504Y2166061D01*
X3529939Y2167940D01*
X3534816Y2171039D01*
X3538931Y2175154D01*
X3542029Y2180031D01*
X3543909Y2185517D01*
X3544620Y2191816D01*
X3544620Y2224278D01*
X3485692Y2224278D01*
G37*
G36*
X4051808Y2165350D02*
G01*
X4208170Y2165350D01*
X4214469Y2166061D01*
X4219956Y2167940D01*
X4224832Y2171039D01*
X4228947Y2175154D01*
X4231995Y2180031D01*
X4233926Y2185517D01*
X4234637Y2191816D01*
X4234637Y2348179D01*
X4233926Y2354478D01*
X4231995Y2359914D01*
X4228947Y2364841D01*
X4224832Y2368905D01*
X4219956Y2372004D01*
X4214469Y2373934D01*
X4208170Y2374646D01*
X4051808Y2374646D01*
X4045508Y2373934D01*
X4040022Y2372004D01*
X4035145Y2368905D01*
X4031030Y2364841D01*
X4027982Y2359914D01*
X4026052Y2354478D01*
X4025341Y2348179D01*
X4025341Y2191816D01*
X4026052Y2185517D01*
X4027982Y2180031D01*
X4031030Y2175154D01*
X4035145Y2171039D01*
X4040022Y2167940D01*
X4045508Y2166061D01*
G37*
G36*
X3706825Y2165350D02*
G01*
X3863136Y2165350D01*
X3869486Y2166061D01*
X3874922Y2167940D01*
X3879850Y2171039D01*
X3883914Y2175154D01*
X3887012Y2180031D01*
X3888943Y2185517D01*
X3889654Y2191816D01*
X3889654Y2348179D01*
X3888943Y2354478D01*
X3887012Y2359914D01*
X3883914Y2364841D01*
X3879850Y2368905D01*
X3874922Y2372004D01*
X3869486Y2373934D01*
X3863136Y2374646D01*
X3706825Y2374646D01*
X3700475Y2373934D01*
X3695039Y2372004D01*
X3690112Y2368905D01*
X3686048Y2364841D01*
X3682949Y2359914D01*
X3681069Y2354478D01*
X3680358Y2348179D01*
X3680358Y2191816D01*
X3681069Y2185517D01*
X3682949Y2180031D01*
X3686048Y2175154D01*
X3690112Y2171039D01*
X3695039Y2167940D01*
X3700475Y2166061D01*
G37*
G36*
X2481834Y2165350D02*
G01*
X2638145Y2165350D01*
X2644495Y2166061D01*
X2649931Y2167940D01*
X2654858Y2171039D01*
X2658922Y2175154D01*
X2662021Y2180031D01*
X2663901Y2185517D01*
X2664612Y2191816D01*
X2664612Y2284272D01*
X2665425Y2288184D01*
X2667609Y2291486D01*
X2728010Y2351836D01*
X2731312Y2354072D01*
X2735173Y2354834D01*
X2739085Y2354072D01*
X2742387Y2351836D01*
X2744571Y2348585D01*
X2745333Y2344674D01*
X2745333Y2191816D01*
X2746044Y2185517D01*
X2747975Y2180031D01*
X2751023Y2175154D01*
X2755138Y2171039D01*
X2760014Y2167940D01*
X2765501Y2166061D01*
X2771800Y2165350D01*
X2928162Y2165350D01*
X2934462Y2166061D01*
X2939948Y2167940D01*
X2944825Y2171039D01*
X2948940Y2175154D01*
X2951988Y2180031D01*
X2953918Y2185517D01*
X2954629Y2191816D01*
X2954629Y2251405D01*
X2955391Y2255316D01*
X2957626Y2258618D01*
X3017977Y2319020D01*
X3021279Y2321204D01*
X3025190Y2321966D01*
X3029051Y2321204D01*
X3032353Y2319020D01*
X3034588Y2315718D01*
X3035350Y2311806D01*
X3035350Y2191816D01*
X3036062Y2185517D01*
X3037941Y2180031D01*
X3041040Y2175154D01*
X3045155Y2171039D01*
X3050032Y2167940D01*
X3055518Y2166061D01*
X3061817Y2165350D01*
X3218180Y2165350D01*
X3224479Y2166061D01*
X3229914Y2167940D01*
X3234842Y2171039D01*
X3238906Y2175154D01*
X3242005Y2180031D01*
X3243935Y2185517D01*
X3244646Y2191816D01*
X3244748Y2351176D01*
X3245764Y2354021D01*
X3247542Y2356459D01*
X4425442Y3534410D01*
X4427220Y3535832D01*
X4434179Y3542741D01*
X4439818Y3550818D01*
X4443933Y3559708D01*
X4446473Y3569208D01*
X4447336Y3578961D01*
X4446473Y3588765D01*
X4443933Y3598265D01*
X4439818Y3607155D01*
X4434179Y3615232D01*
X4427220Y3622141D01*
X4419193Y3627780D01*
X4410252Y3631946D01*
X4400804Y3634486D01*
X4397705Y3634740D01*
X4394352Y3635654D01*
X4391456Y3637635D01*
X4389424Y3640429D01*
X4385919Y3653282D01*
X4381804Y3662172D01*
X4376166Y3670249D01*
X4369206Y3677158D01*
X4361180Y3682796D01*
X4352239Y3686962D01*
X4342790Y3689502D01*
X4332986Y3690365D01*
X4327956Y3689959D01*
X4254195Y3689959D01*
X4249115Y3689705D01*
X4244289Y3689096D01*
X4239514Y3688029D01*
X4234891Y3686556D01*
X4230370Y3684727D01*
X4226052Y3682441D01*
X4221937Y3679850D01*
X4218076Y3676853D01*
X4214317Y3673398D01*
X2918460Y2377592D01*
X2915158Y2375408D01*
X2911297Y2374646D01*
X2875381Y2374646D01*
X2871470Y2375408D01*
X2868168Y2377592D01*
X2865983Y2380894D01*
X2865221Y2384806D01*
X2865983Y2388666D01*
X2868168Y2391968D01*
X3252419Y2776270D01*
X3259175Y2784297D01*
X3264357Y2792933D01*
X3265068Y2794812D01*
X3267354Y2798318D01*
X3974337Y3505301D01*
X3977792Y3509060D01*
X3980789Y3512921D01*
X3983380Y3517036D01*
X3985666Y3521354D01*
X3987495Y3525875D01*
X3988968Y3530549D01*
X3990035Y3535273D01*
X3990644Y3540150D01*
X3990898Y3545230D01*
X3990898Y3629406D01*
X3991356Y3634994D01*
X3990492Y3644798D01*
X3987952Y3654247D01*
X3983786Y3663187D01*
X3978148Y3671214D01*
X3971239Y3678174D01*
X3963162Y3683812D01*
X3954272Y3687927D01*
X3944772Y3690467D01*
X3935018Y3691331D01*
X3925214Y3690467D01*
X3915714Y3687927D01*
X3906824Y3683812D01*
X3898747Y3678174D01*
X3891838Y3671214D01*
X3886200Y3663187D01*
X3882034Y3654247D01*
X3879494Y3644798D01*
X3878630Y3634994D01*
X3879087Y3629609D01*
X3879087Y3572357D01*
X3878326Y3568496D01*
X3876090Y3565194D01*
X3188258Y2877362D01*
X3184804Y2875076D01*
X3182924Y2874365D01*
X3176270Y2870403D01*
X3172256Y2869031D01*
X3167989Y2869438D01*
X3164281Y2871571D01*
X3161792Y2875076D01*
X3160928Y2879242D01*
X3161893Y2883408D01*
X3162960Y2885744D01*
X3165500Y2895193D01*
X3166364Y2904998D01*
X3165500Y2914802D01*
X3162960Y2924251D01*
X3158794Y2933192D01*
X3153156Y2941218D01*
X3144469Y2949600D01*
X2929686Y3164382D01*
X2925927Y3167786D01*
X2922066Y3170783D01*
X2917952Y3173374D01*
X2913634Y3175660D01*
X2909112Y3177489D01*
X2904439Y3178962D01*
X2899714Y3180029D01*
X2894838Y3180689D01*
X2889758Y3180892D01*
X2455519Y3180892D01*
X2450033Y3181350D01*
X2440228Y3180486D01*
X2430729Y3177946D01*
X2421839Y3173780D01*
X2413762Y3168142D01*
X2406853Y3161233D01*
X2401214Y3153156D01*
X2397048Y3144266D01*
X2394508Y3134766D01*
X2393645Y3124962D01*
X2394508Y3115208D01*
X2397048Y3105708D01*
X2401214Y3096818D01*
X2406853Y3088741D01*
X2413762Y3081832D01*
X2421839Y3076194D01*
X2430729Y3072028D01*
X2440228Y3069488D01*
X2450033Y3068624D01*
X2455468Y3069082D01*
X2862630Y3069082D01*
X2866491Y3068320D01*
X2869793Y3066084D01*
X3065526Y2870403D01*
X3066846Y2868777D01*
X3073755Y2861818D01*
X3081832Y2856179D01*
X3090722Y2852064D01*
X3100222Y2849524D01*
X3110026Y2848660D01*
X3119780Y2849524D01*
X3129026Y2851962D01*
X3133445Y2852166D01*
X3137509Y2850489D01*
X3140456Y2847238D01*
X3141776Y2843072D01*
X3141218Y2838704D01*
X3138830Y2834995D01*
X2792831Y2488895D01*
X2789529Y2486660D01*
X2785618Y2485898D01*
X2715310Y2485898D01*
X2707284Y2485390D01*
X2705201Y2485085D01*
X2697429Y2483307D01*
X2688082Y2479598D01*
X2686202Y2478684D01*
X2679446Y2474468D01*
X2671724Y2467864D01*
X2581452Y2377592D01*
X2578150Y2375408D01*
X2574290Y2374646D01*
X2481834Y2374646D01*
X2475484Y2373934D01*
X2470048Y2372004D01*
X2465120Y2368905D01*
X2461056Y2364841D01*
X2457958Y2359914D01*
X2456027Y2354478D01*
X2455316Y2348179D01*
X2455316Y2191816D01*
X2456027Y2185517D01*
X2457958Y2180031D01*
X2461056Y2175154D01*
X2465120Y2171039D01*
X2470048Y2167940D01*
X2475484Y2166061D01*
G37*
G36*
X3335324Y2315718D02*
G01*
X3394252Y2315718D01*
X3394252Y2374646D01*
X3361842Y2374646D01*
X3355492Y2373934D01*
X3350056Y2372004D01*
X3345129Y2368905D01*
X3341065Y2364841D01*
X3337966Y2359914D01*
X3336036Y2354478D01*
X3335324Y2348179D01*
G37*
G36*
X3485692Y2315718D02*
G01*
X3544620Y2315718D01*
X3544620Y2348179D01*
X3543909Y2354478D01*
X3542029Y2359914D01*
X3538931Y2364841D01*
X3534816Y2368905D01*
X3529939Y2372004D01*
X3524504Y2373934D01*
X3518154Y2374646D01*
X3485692Y2374646D01*
G37*
G36*
X4504994Y2553665D02*
G01*
X4514799Y2554528D01*
X4524248Y2557068D01*
X4533188Y2561183D01*
X4541215Y2566822D01*
X4549495Y2575407D01*
X4655108Y2681020D01*
X4656836Y2682392D01*
X4665116Y2691028D01*
X5054346Y3080258D01*
X5057800Y3084017D01*
X5060746Y3087878D01*
X5063388Y3091992D01*
X5065623Y3096361D01*
X5067503Y3100832D01*
X5068976Y3105505D01*
X5070043Y3110230D01*
X5070652Y3115106D01*
X5070906Y3120186D01*
X5070906Y4277614D01*
X5071668Y4281525D01*
X5073853Y4284776D01*
X5407964Y4618939D01*
X5411266Y4621123D01*
X5415178Y4621885D01*
X5419039Y4621123D01*
X5422341Y4618939D01*
X5424576Y4615637D01*
X5425338Y4611725D01*
X5425338Y4606798D01*
X5426049Y4600498D01*
X5427980Y4595012D01*
X5431028Y4590135D01*
X5435142Y4586020D01*
X5440019Y4582972D01*
X5445506Y4581042D01*
X5451805Y4580331D01*
X5608167Y4580331D01*
X5614466Y4581042D01*
X5619953Y4582972D01*
X5624830Y4586020D01*
X5628944Y4590135D01*
X5631992Y4595012D01*
X5633923Y4600498D01*
X5634634Y4606798D01*
X5634634Y4763160D01*
X5633923Y4769459D01*
X5631992Y4774946D01*
X5628944Y4779822D01*
X5624830Y4783937D01*
X5619953Y4786985D01*
X5614466Y4788916D01*
X5608167Y4789627D01*
X5451805Y4789627D01*
X5445506Y4788916D01*
X5440019Y4786985D01*
X5435142Y4783937D01*
X5431028Y4779822D01*
X5427980Y4774946D01*
X5426049Y4769459D01*
X5425338Y4763160D01*
X5425338Y4751019D01*
X5424576Y4747158D01*
X5422341Y4743856D01*
X5419039Y4741672D01*
X5415178Y4740859D01*
X5395214Y4740859D01*
X5390083Y4740656D01*
X5385257Y4739995D01*
X5380532Y4738979D01*
X5375859Y4737506D01*
X5371338Y4735626D01*
X5367020Y4733391D01*
X5362905Y4730750D01*
X5359044Y4727803D01*
X5355285Y4724349D01*
X4975606Y4344670D01*
X4972151Y4340910D01*
X4969205Y4337050D01*
X4966563Y4332935D01*
X4964328Y4328617D01*
X4962448Y4324096D01*
X4960975Y4319473D01*
X4959908Y4314698D01*
X4959299Y4309872D01*
X4959096Y4304741D01*
X4959096Y3147314D01*
X4958283Y3143453D01*
X4956098Y3140151D01*
X4586071Y2770124D01*
X4584344Y2768752D01*
X4576064Y2760116D01*
X4470603Y2654604D01*
X4468774Y2653182D01*
X4461814Y2646222D01*
X4456176Y2638196D01*
X4452061Y2629255D01*
X4449521Y2619806D01*
X4448657Y2610002D01*
X4449521Y2600198D01*
X4452061Y2590749D01*
X4456176Y2581808D01*
X4461814Y2573782D01*
X4468774Y2566822D01*
X4476800Y2561183D01*
X4485741Y2557068D01*
X4495190Y2554528D01*
G37*
G36*
X2450033Y2848660D02*
G01*
X2455367Y2849067D01*
X2909671Y2849067D01*
X2915005Y2848660D01*
X2924810Y2849524D01*
X2934258Y2852064D01*
X2943199Y2856179D01*
X2951226Y2861818D01*
X2958185Y2868777D01*
X2963824Y2876804D01*
X2967939Y2885744D01*
X2970479Y2895193D01*
X2971342Y2904998D01*
X2970479Y2914802D01*
X2967939Y2924251D01*
X2963824Y2933192D01*
X2958185Y2941218D01*
X2951226Y2948178D01*
X2943199Y2953816D01*
X2934258Y2957931D01*
X2924810Y2960471D01*
X2915005Y2961335D01*
X2909366Y2960878D01*
X2455621Y2960878D01*
X2450033Y2961335D01*
X2440228Y2960471D01*
X2430729Y2957931D01*
X2421839Y2953816D01*
X2413762Y2948178D01*
X2406853Y2941218D01*
X2401214Y2933192D01*
X2397048Y2924251D01*
X2394508Y2914802D01*
X2393645Y2904998D01*
X2394508Y2895193D01*
X2397048Y2885744D01*
X2401214Y2876804D01*
X2406853Y2868777D01*
X2413762Y2861818D01*
X2421839Y2856179D01*
X2430729Y2852064D01*
X2440228Y2849524D01*
G37*
G36*
X3441801Y3475329D02*
G01*
X3598164Y3475329D01*
X3604463Y3476040D01*
X3609949Y3477971D01*
X3614826Y3481019D01*
X3618941Y3485134D01*
X3621989Y3490010D01*
X3623919Y3495497D01*
X3624630Y3501796D01*
X3624630Y3658158D01*
X3623919Y3664458D01*
X3621989Y3669944D01*
X3618941Y3674821D01*
X3614826Y3678936D01*
X3609949Y3681984D01*
X3604463Y3683914D01*
X3598164Y3684625D01*
X3441801Y3684625D01*
X3435502Y3683914D01*
X3430015Y3681984D01*
X3425139Y3678936D01*
X3421024Y3674821D01*
X3417976Y3669944D01*
X3416046Y3664458D01*
X3415334Y3658158D01*
X3415334Y3501796D01*
X3416046Y3495497D01*
X3417976Y3490010D01*
X3421024Y3485134D01*
X3425139Y3481019D01*
X3430015Y3477971D01*
X3435502Y3476040D01*
G37*
G36*
X4329938Y3903319D02*
G01*
X4343603Y3904183D01*
X4357014Y3906875D01*
X4369968Y3911295D01*
X4382262Y3917340D01*
X4393641Y3924909D01*
X4403902Y3933951D01*
X4412945Y3944264D01*
X4420514Y3955643D01*
X4426610Y3967886D01*
X4430979Y3980840D01*
X4433671Y3994251D01*
X4434535Y4007916D01*
X4433671Y4021582D01*
X4430979Y4034993D01*
X4426610Y4047947D01*
X4420514Y4060240D01*
X4412945Y4071620D01*
X4403902Y4081932D01*
X4393641Y4090924D01*
X4382262Y4098544D01*
X4369968Y4104589D01*
X4357014Y4109008D01*
X4343603Y4111650D01*
X4329938Y4112564D01*
X4316272Y4111650D01*
X4302861Y4109008D01*
X4289907Y4104589D01*
X4277614Y4098544D01*
X4266234Y4090924D01*
X4255973Y4081932D01*
X4246930Y4071620D01*
X4239310Y4060240D01*
X4233265Y4047947D01*
X4228846Y4034993D01*
X4226204Y4021582D01*
X4225290Y4007916D01*
X4226204Y3994251D01*
X4228846Y3980840D01*
X4233265Y3967886D01*
X4239310Y3955643D01*
X4246930Y3944264D01*
X4255973Y3933951D01*
X4266234Y3924909D01*
X4277614Y3917340D01*
X4289907Y3911295D01*
X4302861Y3906875D01*
X4316272Y3904183D01*
G37*
G36*
X4329938Y4157319D02*
G01*
X4343603Y4158183D01*
X4357014Y4160875D01*
X4369968Y4165295D01*
X4382262Y4171340D01*
X4393641Y4178909D01*
X4403902Y4187951D01*
X4412945Y4198264D01*
X4420514Y4209643D01*
X4426610Y4221886D01*
X4430979Y4234840D01*
X4433671Y4248251D01*
X4434535Y4261916D01*
X4433671Y4275582D01*
X4430979Y4288993D01*
X4426610Y4301947D01*
X4420514Y4314240D01*
X4412945Y4325620D01*
X4403902Y4335932D01*
X4393641Y4344924D01*
X4382262Y4352544D01*
X4369968Y4358589D01*
X4357014Y4363008D01*
X4343603Y4365650D01*
X4329938Y4366564D01*
X4316272Y4365650D01*
X4302861Y4363008D01*
X4289907Y4358589D01*
X4277614Y4352544D01*
X4266234Y4344924D01*
X4255973Y4335932D01*
X4246930Y4325620D01*
X4239310Y4314240D01*
X4233265Y4301947D01*
X4228846Y4288993D01*
X4226204Y4275582D01*
X4225290Y4261916D01*
X4226204Y4248251D01*
X4228846Y4234840D01*
X4233265Y4221886D01*
X4239310Y4209643D01*
X4246930Y4198264D01*
X4255973Y4187951D01*
X4266234Y4178909D01*
X4277614Y4171340D01*
X4289907Y4165295D01*
X4302861Y4160875D01*
X4316272Y4158183D01*
G37*
G36*
X5451805Y4270349D02*
G01*
X5608167Y4270349D01*
X5614466Y4271060D01*
X5619953Y4272940D01*
X5624830Y4276039D01*
X5628944Y4280103D01*
X5631992Y4285030D01*
X5633923Y4290466D01*
X5634634Y4296816D01*
X5634634Y4453128D01*
X5633923Y4459478D01*
X5631992Y4464913D01*
X5628944Y4469841D01*
X5624830Y4473905D01*
X5619953Y4477004D01*
X5614466Y4478934D01*
X5608167Y4479645D01*
X5451805Y4479645D01*
X5445506Y4478934D01*
X5440019Y4477004D01*
X5435142Y4473905D01*
X5431028Y4469841D01*
X5427980Y4464913D01*
X5426049Y4459478D01*
X5425338Y4453128D01*
X5425338Y4296816D01*
X5426049Y4290466D01*
X5427980Y4285030D01*
X5431028Y4280103D01*
X5435142Y4276039D01*
X5440019Y4272940D01*
X5445506Y4271060D01*
G37*
G36*
X4375658Y4422089D02*
G01*
X4382262Y4425340D01*
X4393641Y4432909D01*
X4403902Y4441952D01*
X4412945Y4452264D01*
X4420514Y4463643D01*
X4423765Y4470196D01*
X4375658Y4470196D01*
G37*
G36*
X4284218Y4422089D02*
G01*
X4284218Y4470196D01*
X4236059Y4470196D01*
X4239310Y4463643D01*
X4246930Y4452264D01*
X4255973Y4441952D01*
X4266234Y4432909D01*
X4277614Y4425340D01*
G37*
G36*
X4375658Y4561636D02*
G01*
X4423765Y4561636D01*
X4420514Y4568240D01*
X4412945Y4579620D01*
X4403902Y4589932D01*
X4393641Y4598924D01*
X4382262Y4606544D01*
X4375658Y4609795D01*
G37*
G36*
X4236059Y4561636D02*
G01*
X4284218Y4561636D01*
X4284218Y4609795D01*
X4277614Y4606544D01*
X4266234Y4598924D01*
X4255973Y4589932D01*
X4246930Y4579620D01*
X4239310Y4568240D01*
G37*
G36*
X4329938Y4665319D02*
G01*
X4343603Y4666183D01*
X4357014Y4668875D01*
X4369968Y4673295D01*
X4382262Y4679340D01*
X4393641Y4686909D01*
X4403902Y4695952D01*
X4412945Y4706264D01*
X4420514Y4717643D01*
X4426610Y4729886D01*
X4430979Y4742840D01*
X4433671Y4756251D01*
X4434535Y4769916D01*
X4433671Y4783582D01*
X4430979Y4796993D01*
X4426610Y4809947D01*
X4420514Y4822240D01*
X4412945Y4833620D01*
X4403902Y4843932D01*
X4393641Y4852924D01*
X4382262Y4860544D01*
X4369968Y4866589D01*
X4357014Y4871008D01*
X4343603Y4873650D01*
X4329938Y4874564D01*
X4316272Y4873650D01*
X4302861Y4871008D01*
X4289907Y4866589D01*
X4277614Y4860544D01*
X4266234Y4852924D01*
X4255973Y4843932D01*
X4246930Y4833620D01*
X4239310Y4822240D01*
X4233265Y4809947D01*
X4228846Y4796993D01*
X4226204Y4783582D01*
X4225290Y4769916D01*
X4226204Y4756251D01*
X4228846Y4742840D01*
X4233265Y4729886D01*
X4239310Y4717643D01*
X4246930Y4706264D01*
X4255973Y4695952D01*
X4266234Y4686909D01*
X4277614Y4679340D01*
X4289907Y4673295D01*
X4302861Y4668875D01*
X4316272Y4666183D01*
G37*
G36*
X5575706Y4890312D02*
G01*
X5608167Y4890312D01*
X5614466Y4891024D01*
X5619953Y4892954D01*
X5624830Y4896053D01*
X5628944Y4900117D01*
X5631992Y4905044D01*
X5633923Y4910480D01*
X5634634Y4916830D01*
X5634634Y4949240D01*
X5575706Y4949240D01*
G37*
G36*
X5451805Y4890312D02*
G01*
X5484266Y4890312D01*
X5484266Y4949240D01*
X5425338Y4949240D01*
X5425338Y4916830D01*
X5426049Y4910480D01*
X5427980Y4905044D01*
X5431028Y4900117D01*
X5435142Y4896053D01*
X5440019Y4892954D01*
X5445506Y4891024D01*
G37*
G36*
X4329938Y4919319D02*
G01*
X4343603Y4920183D01*
X4357014Y4922875D01*
X4369968Y4927295D01*
X4382262Y4933340D01*
X4393641Y4940909D01*
X4403902Y4949952D01*
X4412945Y4960264D01*
X4420514Y4971643D01*
X4426610Y4983886D01*
X4430979Y4996840D01*
X4433671Y5010251D01*
X4434535Y5023916D01*
X4433671Y5037582D01*
X4430979Y5050993D01*
X4426610Y5063947D01*
X4420514Y5076240D01*
X4412945Y5087620D01*
X4403902Y5097932D01*
X4393641Y5106924D01*
X4382262Y5114544D01*
X4369968Y5120589D01*
X4357014Y5125008D01*
X4343603Y5127650D01*
X4329938Y5128564D01*
X4316272Y5127650D01*
X4302861Y5125008D01*
X4289907Y5120589D01*
X4277614Y5114544D01*
X4266234Y5106924D01*
X4255973Y5097932D01*
X4246930Y5087620D01*
X4239310Y5076240D01*
X4233265Y5063947D01*
X4228846Y5050993D01*
X4226204Y5037582D01*
X4225290Y5023916D01*
X4226204Y5010251D01*
X4228846Y4996840D01*
X4233265Y4983886D01*
X4239310Y4971643D01*
X4246930Y4960264D01*
X4255973Y4949952D01*
X4266234Y4940909D01*
X4277614Y4933340D01*
X4289907Y4927295D01*
X4302861Y4922875D01*
X4316272Y4920183D01*
G37*
G36*
X5425338Y5040680D02*
G01*
X5484266Y5040680D01*
X5484266Y5099608D01*
X5451805Y5099608D01*
X5445506Y5098897D01*
X5440019Y5097018D01*
X5435142Y5093919D01*
X5431028Y5089855D01*
X5427980Y5084927D01*
X5426049Y5079492D01*
X5425338Y5073142D01*
G37*
G36*
X5575706Y5040680D02*
G01*
X5634634Y5040680D01*
X5634634Y5073142D01*
X5633923Y5079492D01*
X5631992Y5084927D01*
X5628944Y5089855D01*
X5624830Y5093919D01*
X5619953Y5097018D01*
X5614466Y5098897D01*
X5608167Y5099608D01*
X5575706Y5099608D01*
G37*
G36*
X4251756Y5173268D02*
G01*
X4408119Y5173268D01*
X4414418Y5173980D01*
X4419904Y5175910D01*
X4424781Y5179009D01*
X4428896Y5183073D01*
X4431944Y5188000D01*
X4433874Y5193436D01*
X4434586Y5199786D01*
X4434586Y5356098D01*
X4433874Y5362448D01*
X4431944Y5367883D01*
X4428896Y5372760D01*
X4424781Y5376875D01*
X4419904Y5379974D01*
X4414418Y5381853D01*
X4408119Y5382564D01*
X4251756Y5382564D01*
X4245457Y5381853D01*
X4239971Y5379974D01*
X4235094Y5376875D01*
X4230979Y5372760D01*
X4227880Y5367883D01*
X4226001Y5362448D01*
X4225290Y5356098D01*
X4225290Y5199786D01*
X4226001Y5193436D01*
X4227880Y5188000D01*
X4230979Y5183073D01*
X4235094Y5179009D01*
X4239971Y5175910D01*
X4245457Y5173980D01*
G37*
G36*
X5451805Y5200345D02*
G01*
X5608167Y5200345D01*
X5614466Y5201056D01*
X5619953Y5202936D01*
X5624830Y5206034D01*
X5628944Y5210149D01*
X5631992Y5215026D01*
X5633923Y5220512D01*
X5634634Y5226812D01*
X5634634Y5383174D01*
X5633923Y5389473D01*
X5631992Y5394909D01*
X5628944Y5399836D01*
X5624830Y5403900D01*
X5619953Y5406999D01*
X5614466Y5408930D01*
X5608167Y5409641D01*
X5451805Y5409641D01*
X5445506Y5408930D01*
X5440019Y5406999D01*
X5435142Y5403900D01*
X5431028Y5399836D01*
X5427980Y5394909D01*
X5426049Y5389473D01*
X5425338Y5383174D01*
X5425338Y5226812D01*
X5426049Y5220512D01*
X5427980Y5215026D01*
X5431028Y5210149D01*
X5435142Y5206034D01*
X5440019Y5202936D01*
X5445506Y5201056D01*
G37*

%LPD*%
D11*
X3945143Y8024853D02*
G01*
X3945143Y8046481D01*
X4057667Y8159005D01*
X4173999Y8159005D01*
X4574997Y8560003D01*
X3094990Y8184972D02*
G01*
X3179978Y8099983D01*
X3870012Y8099983D01*
X4029991Y7940004D01*
D16*
X1704997Y8534981D02*
G01*
X1334996Y8534981D01*
X1329997Y8529982D01*
D22*
X1329997Y8529982D02*
G01*
X1539996Y8319983D01*
X1539996Y6264986D01*
X1452879Y6177279D01*
X4799990Y8239963D02*
G01*
X4799990Y7749984D01*
X4328622Y7278616D01*
X4328622Y7069983D01*
D11*
X4619980Y8239963D02*
G01*
X4619980Y7834972D01*
X4159991Y7374983D01*
X4159991Y7069983D01*
D14*
X3784993Y5769988D02*
G01*
X3259993Y6294988D01*
X3259993Y6299987D01*
D11*
X4414992Y7069985D02*
G01*
X4414992Y7234984D01*
X4889982Y7709974D01*
X4889982Y8239963D01*
D22*
X4709998Y8239963D02*
G01*
X4709998Y7784990D01*
X4238630Y7313622D01*
X4238630Y7069983D01*
X4414992Y7069985D02*
G01*
X4159994Y7069985D01*
X4414992Y6969986D02*
G01*
X4414992Y7069985D01*
X4159991Y6969986D02*
G01*
X4414992Y6969986D01*
X4159991Y7069983D02*
G01*
X4159991Y6969986D01*
X4889982Y8339962D02*
G01*
X4889982Y8239963D01*
X4619980Y8339962D02*
G01*
X4619980Y8239963D01*
X4889982Y8239963D02*
G01*
X4619980Y8239963D01*
X4619980Y8339962D02*
G01*
X4889982Y8339962D01*
D14*
X3019983Y8184972D02*
G01*
X3019983Y7660995D01*
X3062993Y7617985D01*
D11*
X4374895Y8560054D02*
G01*
X4374895Y8424926D01*
X4169918Y8219947D01*
X4032758Y8219947D01*
X3895090Y8079994D01*
X4574997Y8560003D02*
G01*
X4545012Y8560003D01*
X4374997Y8389988D01*
X3019983Y8184972D02*
G01*
X3179973Y8024982D01*
X3864983Y8024982D01*
X3949971Y7939994D01*
X3949971Y7779974D02*
G01*
X3949971Y7939994D01*
X4029991Y7779984D02*
G01*
X3949981Y7779984D01*
X4029991Y7940004D02*
G01*
X4029991Y7779984D01*
X3949971Y7939994D02*
G01*
X4029981Y7939994D01*
D16*
X1488015Y8534981D02*
G01*
X1461249Y8534981D01*
X1393123Y8466856D01*
D13*
X1374998Y6154986D02*
G01*
X1319997Y6099985D01*
X1319997Y6099985D02*
G01*
X1260000Y6039987D01*
X1259997Y6039987D02*
G01*
X1314998Y5984986D01*
X1314998Y5984986D02*
G01*
X1374998Y6044986D01*
X1374998Y6044989D02*
G01*
X1429997Y6099987D01*
D22*
X1329944Y8839962D02*
G01*
X1329997Y8839908D01*
X1329997Y8529982D01*
D13*
X1374902Y6154928D02*
G01*
X1430020Y6100063D01*
X1374902Y6154928D02*
G01*
X1424939Y6204965D01*
X1479997Y6149987D01*
X1430020Y6100063D01*
D14*
X1934997Y6269987D02*
G01*
X1749996Y6084986D01*
X1634997Y6084986D01*
X1149985Y8149996D02*
G01*
X1249984Y8149996D01*
X1249984Y8149996D02*
G01*
X1249984Y8249996D01*
X1249984Y8249996D02*
G01*
X1149985Y8249996D01*
X1149985Y8249996D02*
G01*
X1149985Y8149996D01*
X1249984Y8249996D02*
G01*
X1149985Y8149996D01*
X1149985Y8249996D02*
G01*
X1249984Y8149996D01*
D11*
X3094995Y8324982D02*
G01*
X3094995Y8184982D01*
X3094995Y8184982D02*
G01*
X3019993Y8184982D01*
X3019993Y8184982D02*
G01*
X3019993Y8324982D01*
X3019993Y8324982D02*
G01*
X3094995Y8324982D01*
X3074992Y8469988D02*
G01*
X3019993Y8414989D01*
X3019993Y8324982D01*
X3074992Y8469988D02*
G01*
X3094995Y8449985D01*
X3094995Y8324982D01*
X3434994Y8734981D02*
G01*
X3514994Y8734981D01*
X3514994Y8734981D02*
G01*
X3514994Y8574984D01*
X3514994Y8574984D02*
G01*
X3434996Y8574984D01*
X3434994Y8574981D02*
G01*
X3434994Y8734981D01*
X3434994Y8654981D02*
G01*
X3259985Y8654981D01*
X3074992Y8469988D01*
X3434994Y8574981D02*
G01*
X3179986Y8574981D01*
X3148784Y8543780D01*
X3094995Y8324982D02*
G01*
X3094995Y8450577D01*
X3299399Y8654981D01*
X3434994Y8734981D02*
G01*
X3339985Y8734981D01*
X3259985Y8654981D01*
D22*
X4374992Y8559998D02*
G01*
X4574992Y8559998D01*
D27*
X4390979Y3578984D02*
G01*
X3139981Y2327983D01*
X3139981Y2269985D01*
X2849877Y2270066D02*
G01*
X2889999Y2270066D01*
X4253984Y3634044D01*
X4332973Y3634044D01*
D14*
X2560058Y2270066D02*
G01*
X2715000Y2425001D01*
X2815076Y2425001D01*
X3209645Y2819656D01*
D27*
X3209645Y2819656D02*
G01*
X3934983Y3545001D01*
X3934983Y3634986D01*
X2914990Y2904985D02*
G01*
X2449987Y2904985D01*
X3109991Y2904985D02*
G01*
X2889986Y3124984D01*
X2449987Y3124984D01*
X4509993Y2614968D02*
G01*
X4620585Y2725567D01*
X4620585Y2725567D02*
G01*
X5014978Y3119960D01*
X5014978Y4304979D01*
X5394975Y4684969D01*
X5529973Y4684969D01*
D63*
G01*
X1329944Y8839962D03*
G01*
X960120Y8619997D03*
G01*
X5529986Y4374972D03*
G01*
X5519978Y7874990D03*
G01*
X4129989Y5769990D03*
G01*
X4129989Y2269972D03*
G01*
X3785108Y5769863D03*
D64*
G01*
X2075002Y8294979D03*
G01*
X2075002Y8894978D03*
G01*
X3274999Y8894978D03*
G01*
X3274999Y8294979D03*
D65*
G01*
X2275001Y8469985D03*
G01*
X2675000Y8469985D03*
G01*
X3075000Y8469985D03*
G01*
X4574997Y8560003D03*
G01*
X4374997Y8560003D03*
G01*
X4174997Y8560003D03*
G01*
X4574997Y8809989D03*
G01*
X4374997Y8809989D03*
G01*
X4174997Y8809989D03*
D21*
G01*
X4874996Y8684996D03*
G01*
X3874998Y8684996D03*
D63*
G01*
X5529986Y5304967D03*
G01*
X5529986Y4684979D03*
G01*
X3784981Y2269972D03*
G01*
X5519978Y8804986D03*
G01*
X5519978Y8184972D03*
D66*
G01*
X4329938Y4007942D03*
G01*
X4329938Y4261942D03*
G01*
X4329938Y4515942D03*
G01*
X4329938Y4769942D03*
G01*
X4329938Y5023942D03*
D63*
G01*
X4329938Y5277942D03*
G01*
X5519978Y8494979D03*
G01*
X3439998Y5769990D03*
G01*
X5529986Y4994986D03*
G01*
X3439998Y2269972D03*
G01*
X2849981Y2269972D03*
G01*
X3139973Y2269972D03*
G01*
X3519982Y3579977D03*
G01*
X2559989Y2269972D03*
D31*
G01*
X1249984Y8149996D03*
G01*
X1249984Y8249996D03*
G01*
X1149985Y8249996D03*
G01*
X1149985Y8149996D03*
G01*
X3799992Y7824978D03*
G01*
X3949979Y7939989D03*
G01*
X4029989Y7940014D03*
G01*
X4029989Y7860004D03*
G01*
X3949979Y7859979D03*
G01*
X3949979Y7779969D03*
G01*
X4029989Y7779994D03*
G01*
X3062986Y7617993D03*
G01*
X1780006Y7809992D03*
G01*
X1680006Y7809992D03*
G01*
X1059992Y6670014D03*
G01*
X1070000Y7909991D03*
G01*
X2904997Y6609994D03*
G01*
X2904997Y6529984D03*
G01*
X2904997Y6449974D03*
G01*
X2689986Y7329982D03*
G01*
X2599994Y5720003D03*
G01*
X2680004Y5720003D03*
G01*
X2689986Y7409992D03*
G01*
X4709998Y8339962D03*
G01*
X4799990Y8339962D03*
G01*
X4709998Y8239963D03*
G01*
X4799990Y8239963D03*
G01*
X4619980Y8239963D03*
G01*
X4619980Y8339962D03*
G01*
X4889982Y8239963D03*
G01*
X4889982Y8339962D03*
G01*
X3254984Y6444995D03*
G01*
X3684981Y6889978D03*
G01*
X4328617Y6969963D03*
G01*
X4328617Y7069988D03*
G01*
X4238625Y7069988D03*
G01*
X4238625Y6969963D03*
G01*
X4159986Y6969988D03*
G01*
X4159986Y7069988D03*
G01*
X1785010Y6784975D03*
G01*
X1634997Y6084976D03*
G01*
X1934997Y6269989D03*
G01*
X1375003Y6154978D03*
G01*
X1375003Y6044996D03*
G01*
X1319987Y6099987D03*
G01*
X1429994Y6099987D03*
G01*
X1259992Y6039993D03*
G01*
X1315008Y5984976D03*
G01*
X3515004Y8734983D03*
G01*
X3515004Y8574989D03*
G01*
X3515004Y8654973D03*
G01*
X3434994Y8734983D03*
G01*
X3434994Y8654973D03*
G01*
X3434994Y8574989D03*
G01*
X3094990Y8324977D03*
G01*
X3019983Y8324977D03*
G01*
X3019983Y8254974D03*
G01*
X3094990Y8254974D03*
G01*
X3094990Y8184972D03*
G01*
X3019983Y8184972D03*
G01*
X1705000Y8534984D03*
G01*
X4415002Y7069988D03*
G01*
X4415002Y6969988D03*
G01*
X3259988Y6299987D03*
G01*
X5583199Y6383223D03*
G01*
X5478195Y6383223D03*
G01*
X5478195Y6473215D03*
G01*
X5583199Y6473215D03*
G01*
X4580000Y6579996D03*
G01*
X4624984Y7249972D03*
G01*
X4390999Y3578987D03*
G01*
X4332986Y3634003D03*
G01*
X3934993Y3634994D03*
G01*
X2915005Y2904997D03*
G01*
X3110001Y2904997D03*
G01*
X2450007Y2904997D03*
G01*
X2450007Y3124987D03*
G01*
X4504994Y2610002D03*
G01*
X3209645Y2819679D03*
G01*
X3315004Y3519982D03*
G01*
X3739997Y2524988D03*
G01*
X2629992Y2734995D03*
G01*
X4709998Y2340000D03*
G01*
X5099989Y3494989D03*
G01*
X5594984Y3624986D03*
G01*
X2345004Y3724986D03*
G01*
X2245004Y3724986D03*
G01*
X2344953Y2195017D03*
G01*
X2244953Y2195017D03*
G01*
X3754983Y3524986D03*
G01*
X3594988Y3399993D03*
G01*
X3754983Y3619982D03*
G01*
X4620590Y2725572D03*
G01*
X4324984Y2904997D03*
G01*
X4089984Y3049981D03*
G01*
X3880002Y2880004D03*
G01*
X4304995Y3274999D03*
G01*
X3645001Y2710002D03*
D12*
X5215003Y6204991D02*
G01*
X5155003Y6204991D01*
X4515004Y6204991D02*
G01*
X4455005Y6204991D01*
X5015003Y5724982D02*
G01*
X4955004Y5724982D01*
D11*
X985006Y6832980D02*
G01*
X905007Y6832980D01*
X985006Y7696962D02*
G01*
X905007Y7696962D01*
X1370009Y6832980D02*
G01*
X1260010Y6832980D01*
X1370009Y7696962D02*
G01*
X1260010Y7696962D01*
M02*
