G04 Layer: TopLayer*
G04 EasyEDA v6.4.30, 2022-01-21 15:04:52*
G04 c46cb3ee090d4a1eb143410c139ed502,dc6f5eff9a9d40dcab93570daa8facdf,10*
G04 Gerber Generator version 0.2*
G04 Scale: 100 percent, Rotated: No, Reflected: No *
G04 Dimensions in millimeters *
G04 leading zeros omitted , absolute positions ,4 integer and 5 decimal *
%FSLAX45Y45*%
%MOMM*%

%ADD11C,1.0000*%
%ADD12C,1.2000*%
%ADD13C,0.8000*%
%ADD14C,0.7000*%
%ADD15C,1.1000*%
%ADD16C,0.5000*%
%ADD17C,0.4000*%
%ADD18C,1.4000*%
%ADD19C,0.4500*%
%ADD20C,0.3500*%
%ADD21C,2.0000*%
%ADD22C,1.5000*%
%ADD23C,1.3000*%
%ADD24C,1.7000*%
%ADD25C,0.3000*%
%ADD26C,1.6000*%
%ADD27C,0.6000*%
%ADD28C,0.5500*%
%ADD29C,0.2800*%
%ADD30C,0.5740*%
%ADD31C,0.6096*%
%ADD32R,0.9000X0.8000*%
%ADD33R,0.8000X0.9000*%
%ADD34R,1.7010X1.2075*%
%ADD35R,1.3005X1.3995*%
%ADD36R,0.8640X0.8065*%
%ADD38R,1.3770X1.1325*%
%ADD40R,1.3500X1.4100*%
%ADD41R,2.5000X2.5000*%
%ADD42R,1.2000X0.9000*%
%ADD43R,1.2000X0.8000*%
%ADD44R,1.2000X0.7000*%
%ADD45R,0.5400X0.7901*%
%ADD49R,1.2000X1.0000*%
%ADD50R,1.9000X2.0000*%
%ADD51R,2.8000X1.5000*%
%ADD52R,0.8000X1.5000*%
%ADD53R,1.2000X1.5000*%
%ADD54R,1.2000X0.6000*%
%ADD55R,1.8000X2.0000*%
%ADD56R,2.0000X1.8000*%
%ADD57R,3.1320X1.4850*%
%ADD60R,1.3970X0.4060*%
%ADD61R,1.5000X5.0000*%
%ADD62R,1.3000X5.0000*%
%ADD63R,1.5748X1.5748*%
%ADD64C,1.8000*%
%ADD65C,1.5240*%
%ADD66C,1.5748*%

%LPD*%
G36*
X3694226Y8504986D02*
G01*
X3690315Y8505748D01*
X3687013Y8507933D01*
X3677970Y8517026D01*
X3675786Y8520328D01*
X3674973Y8524189D01*
X3674973Y8795766D01*
X3675786Y8799677D01*
X3677970Y8802979D01*
X3697020Y8822029D01*
X3700322Y8824214D01*
X3704183Y8824976D01*
X3709924Y8825179D01*
X3710686Y8825687D01*
X3736746Y8851696D01*
X3740353Y8854033D01*
X3744620Y8854643D01*
X4020515Y8835644D01*
X4024223Y8834678D01*
X4027271Y8832443D01*
X4029303Y8829243D01*
X4030014Y8825484D01*
X4030014Y8515146D01*
X4029201Y8511235D01*
X4027017Y8507933D01*
X4023715Y8505748D01*
X4019854Y8504986D01*
G37*

%LPC*%
G36*
X3874973Y8559088D02*
G01*
X3890162Y8560003D01*
X3905097Y8562746D01*
X3919626Y8567267D01*
X3933494Y8573516D01*
X3946499Y8581390D01*
X3958488Y8590737D01*
X3969207Y8601506D01*
X3978605Y8613495D01*
X3986479Y8626500D01*
X3992676Y8640368D01*
X3997248Y8654846D01*
X3999941Y8669832D01*
X4000906Y8684971D01*
X3999941Y8700160D01*
X3997248Y8715095D01*
X3992676Y8729624D01*
X3986479Y8743492D01*
X3978605Y8756497D01*
X3969207Y8768486D01*
X3958488Y8779205D01*
X3946499Y8788603D01*
X3933494Y8796477D01*
X3919626Y8802674D01*
X3905097Y8807246D01*
X3890162Y8809939D01*
X3874973Y8810904D01*
X3859834Y8809939D01*
X3844848Y8807246D01*
X3830370Y8802674D01*
X3816502Y8796477D01*
X3803497Y8788603D01*
X3791508Y8779205D01*
X3780739Y8768486D01*
X3771392Y8756497D01*
X3763518Y8743492D01*
X3757269Y8729624D01*
X3752748Y8715095D01*
X3750005Y8700160D01*
X3749090Y8684971D01*
X3750005Y8669832D01*
X3752748Y8654846D01*
X3757269Y8640368D01*
X3763518Y8626500D01*
X3771392Y8613495D01*
X3780739Y8601506D01*
X3791508Y8590737D01*
X3803497Y8581390D01*
X3816502Y8573516D01*
X3830370Y8567267D01*
X3844848Y8562746D01*
X3859834Y8560003D01*
G37*

%LPD*%
G36*
X2384196Y8149996D02*
G01*
X2380335Y8150758D01*
X2377033Y8152942D01*
X2360726Y8169300D01*
X2358999Y8169960D01*
X2126742Y8169960D01*
X2122830Y8170773D01*
X2119528Y8173008D01*
X2117293Y8176310D01*
X2116582Y8180222D01*
X2117394Y8184134D01*
X2119630Y8187436D01*
X2137105Y8197138D01*
X2148840Y8205673D01*
X2159457Y8215630D01*
X2168753Y8226856D01*
X2176526Y8239150D01*
X2182723Y8252307D01*
X2187244Y8266175D01*
X2189988Y8280450D01*
X2190902Y8294979D01*
X2189988Y8309508D01*
X2187244Y8323783D01*
X2182723Y8337651D01*
X2176526Y8350808D01*
X2168753Y8363102D01*
X2159457Y8374329D01*
X2148840Y8384286D01*
X2137105Y8392820D01*
X2124354Y8399830D01*
X2110790Y8405215D01*
X2096719Y8408822D01*
X2082292Y8410651D01*
X2067712Y8410651D01*
X2052675Y8408670D01*
X2049018Y8408416D01*
X2045462Y8409482D01*
X2042566Y8411718D01*
X2040686Y8414867D01*
X2039975Y8418525D01*
X2039975Y8472068D01*
X2040940Y8476437D01*
X2043684Y8479942D01*
X2047646Y8481923D01*
X2173935Y8514130D01*
X2176424Y8514435D01*
X2230526Y8514435D01*
X2230526Y8520684D01*
X2231491Y8525002D01*
X2234234Y8528507D01*
X2238197Y8530488D01*
X2306777Y8547963D01*
X2310434Y8548217D01*
X2313940Y8547150D01*
X2316886Y8544915D01*
X2318766Y8541766D01*
X2319426Y8538159D01*
X2319426Y8514435D01*
X2366772Y8514435D01*
X2366111Y8516010D01*
X2359152Y8527745D01*
X2350719Y8538464D01*
X2346807Y8542223D01*
X2344470Y8545779D01*
X2343759Y8549995D01*
X2344826Y8554110D01*
X2347569Y8557463D01*
X2351379Y8559342D01*
X2537307Y8606739D01*
X2541016Y8606993D01*
X2544521Y8605926D01*
X2547416Y8603691D01*
X2549347Y8600541D01*
X2550007Y8596884D01*
X2550007Y8174177D01*
X2549245Y8170316D01*
X2547010Y8167014D01*
X2532989Y8152942D01*
X2529687Y8150758D01*
X2525776Y8149996D01*
G37*

%LPC*%
G36*
X2319426Y8378190D02*
G01*
X2329942Y8383930D01*
X2340914Y8392007D01*
X2350719Y8401507D01*
X2359152Y8412226D01*
X2366111Y8423960D01*
X2366772Y8425535D01*
X2319426Y8425535D01*
G37*
G36*
X2230526Y8378342D02*
G01*
X2230526Y8425535D01*
X2183333Y8425535D01*
X2187143Y8417966D01*
X2194864Y8406739D01*
X2204008Y8396579D01*
X2214422Y8387791D01*
X2225954Y8380475D01*
G37*

%LPD*%
G36*
X4034231Y5630011D02*
G01*
X4030319Y5630773D01*
X4027017Y5632958D01*
X4002989Y5657037D01*
X4000754Y5660339D01*
X3999992Y5664200D01*
X3999992Y6065774D01*
X4000754Y6069685D01*
X4002989Y6072987D01*
X4017010Y6087008D01*
X4020312Y6089243D01*
X4024223Y6090005D01*
X4569002Y6090005D01*
X4570730Y6090716D01*
X4919319Y6439306D01*
X4919980Y6440982D01*
X4919980Y7545781D01*
X4920792Y7549692D01*
X4922977Y7552994D01*
X5007051Y7637018D01*
X5010302Y7639253D01*
X5014214Y7640015D01*
X5663946Y7640015D01*
X5667806Y7639253D01*
X5671108Y7637018D01*
X5673344Y7633716D01*
X5674106Y7629855D01*
X5674106Y5640171D01*
X5673344Y5636260D01*
X5671108Y5632958D01*
X5667806Y5630773D01*
X5663946Y5630011D01*
X5059578Y5630011D01*
X5055260Y5630976D01*
X5051755Y5633720D01*
X5049723Y5637631D01*
X5049621Y5642102D01*
X5051399Y5646166D01*
X5054701Y5649061D01*
X5061407Y5652719D01*
X5071211Y5660085D01*
X5079898Y5668772D01*
X5087264Y5678576D01*
X5093106Y5689295D01*
X5097373Y5700776D01*
X5100015Y5712764D01*
X5100878Y5725007D01*
X5100015Y5737199D01*
X5097373Y5749188D01*
X5093106Y5760669D01*
X5087264Y5771438D01*
X5079898Y5781243D01*
X5071211Y5789879D01*
X5061407Y5797245D01*
X5050688Y5803087D01*
X5039207Y5807405D01*
X5027218Y5809996D01*
X5014620Y5810910D01*
X4244797Y5810910D01*
X4240936Y5811672D01*
X4237634Y5813856D01*
X4235399Y5817158D01*
X4234637Y5821070D01*
X4234637Y5848146D01*
X4233926Y5854496D01*
X4231995Y5859932D01*
X4228947Y5864860D01*
X4224832Y5868924D01*
X4219956Y5872022D01*
X4214469Y5873902D01*
X4208170Y5874613D01*
X4051808Y5874613D01*
X4045508Y5873902D01*
X4040022Y5872022D01*
X4035145Y5868924D01*
X4031030Y5864860D01*
X4027982Y5859932D01*
X4026052Y5854496D01*
X4025341Y5848146D01*
X4025341Y5691835D01*
X4026052Y5685485D01*
X4027982Y5680049D01*
X4031030Y5675122D01*
X4035145Y5671058D01*
X4040022Y5667959D01*
X4045508Y5666028D01*
X4051808Y5665317D01*
X4114241Y5665317D01*
X4118051Y5664606D01*
X4121353Y5662422D01*
X4123842Y5659983D01*
X4128515Y5656224D01*
X4133494Y5652770D01*
X4140047Y5648960D01*
X4143298Y5645962D01*
X4144975Y5641898D01*
X4144772Y5637530D01*
X4142740Y5633618D01*
X4139234Y5630976D01*
X4134967Y5630011D01*
G37*

%LPC*%
G36*
X5185003Y5879084D02*
G01*
X5197246Y5879998D01*
X5209184Y5882589D01*
X5220665Y5886856D01*
X5231434Y5892749D01*
X5241239Y5900064D01*
X5249926Y5908751D01*
X5257241Y5918555D01*
X5263134Y5929325D01*
X5267401Y5940806D01*
X5269992Y5952744D01*
X5270906Y5964986D01*
X5269992Y5977229D01*
X5267401Y5989167D01*
X5263134Y6000648D01*
X5257241Y6011418D01*
X5249926Y6021222D01*
X5241239Y6029909D01*
X5231434Y6037224D01*
X5220665Y6043117D01*
X5209184Y6047384D01*
X5197246Y6049975D01*
X5185003Y6050889D01*
X5172760Y6049975D01*
X5160822Y6047384D01*
X5149342Y6043117D01*
X5138572Y6037224D01*
X5128768Y6029909D01*
X5120081Y6021222D01*
X5112766Y6011418D01*
X5106873Y6000648D01*
X5102606Y5989167D01*
X5100015Y5977229D01*
X5099100Y5964986D01*
X5100015Y5952744D01*
X5102606Y5940806D01*
X5106873Y5929325D01*
X5112766Y5918555D01*
X5120081Y5908751D01*
X5128768Y5900064D01*
X5138572Y5892749D01*
X5149342Y5886856D01*
X5160822Y5882589D01*
X5172760Y5879998D01*
G37*
G36*
X4585004Y5879084D02*
G01*
X4597247Y5879998D01*
X4609185Y5882589D01*
X4620666Y5886856D01*
X4631436Y5892749D01*
X4641240Y5900064D01*
X4649927Y5908751D01*
X4657242Y5918555D01*
X4663135Y5929325D01*
X4667402Y5940806D01*
X4669993Y5952744D01*
X4670907Y5964986D01*
X4669993Y5977229D01*
X4667402Y5989167D01*
X4663135Y6000648D01*
X4657242Y6011418D01*
X4649927Y6021222D01*
X4641240Y6029909D01*
X4631436Y6037224D01*
X4620666Y6043117D01*
X4609185Y6047384D01*
X4597247Y6049975D01*
X4585004Y6050889D01*
X4572762Y6049975D01*
X4560824Y6047384D01*
X4549343Y6043117D01*
X4538573Y6037224D01*
X4528769Y6029909D01*
X4520082Y6021222D01*
X4512767Y6011418D01*
X4506874Y6000648D01*
X4502607Y5989167D01*
X4500016Y5977229D01*
X4499102Y5964986D01*
X4500016Y5952744D01*
X4502607Y5940806D01*
X4506874Y5929325D01*
X4512767Y5918555D01*
X4520082Y5908751D01*
X4528769Y5900064D01*
X4538573Y5892749D01*
X4549343Y5886856D01*
X4560824Y5882589D01*
X4572762Y5879998D01*
G37*
G36*
X5236362Y6121958D02*
G01*
X5239207Y6122568D01*
X5250688Y6126886D01*
X5261406Y6132728D01*
X5271211Y6140094D01*
X5279898Y6148730D01*
X5287264Y6158534D01*
X5292750Y6168644D01*
X5236362Y6168644D01*
G37*
G36*
X5133644Y6121958D02*
G01*
X5133644Y6168644D01*
X5077256Y6168644D01*
X5082743Y6158534D01*
X5090109Y6148730D01*
X5098745Y6140094D01*
X5108549Y6132728D01*
X5119319Y6126886D01*
X5130800Y6122568D01*
G37*
G36*
X5236362Y6241338D02*
G01*
X5292750Y6241338D01*
X5287264Y6251397D01*
X5281726Y6258763D01*
X5236362Y6258763D01*
G37*
G36*
X5077256Y6241338D02*
G01*
X5133644Y6241338D01*
X5133644Y6300266D01*
X5134356Y6303975D01*
X5136388Y6307175D01*
X5139436Y6309410D01*
X5143093Y6310376D01*
X5154980Y6311239D01*
X5181142Y6311239D01*
X5181142Y6361125D01*
X5099100Y6361125D01*
X5099100Y6305550D01*
X5099812Y6299250D01*
X5101691Y6293764D01*
X5107127Y6285230D01*
X5107736Y6280962D01*
X5106517Y6276848D01*
X5103672Y6273596D01*
X5098745Y6269888D01*
X5090109Y6261252D01*
X5082743Y6251397D01*
G37*
G36*
X5318861Y6279083D02*
G01*
X5374436Y6279083D01*
X5380736Y6279794D01*
X5386222Y6281724D01*
X5391099Y6284772D01*
X5395214Y6288887D01*
X5398262Y6293764D01*
X5400192Y6299250D01*
X5400903Y6305550D01*
X5400903Y6361125D01*
X5318861Y6361125D01*
G37*
G36*
X5099100Y6498844D02*
G01*
X5181142Y6498844D01*
X5181142Y6580886D01*
X5125567Y6580886D01*
X5119217Y6580174D01*
X5113782Y6578295D01*
X5108854Y6575196D01*
X5104790Y6571132D01*
X5101691Y6566204D01*
X5099812Y6560769D01*
X5099100Y6554419D01*
G37*
G36*
X5318861Y6498844D02*
G01*
X5400903Y6498844D01*
X5400903Y6554419D01*
X5400192Y6560769D01*
X5398262Y6566204D01*
X5395214Y6571132D01*
X5391099Y6575196D01*
X5386222Y6578295D01*
X5380736Y6580174D01*
X5374436Y6580886D01*
X5318861Y6580886D01*
G37*

%LPD*%
G36*
X5516168Y2125776D02*
G01*
X5511901Y2126742D01*
X5508447Y2129332D01*
X5506415Y2133142D01*
X5506110Y2137460D01*
X5507634Y2141524D01*
X5515203Y2148890D01*
X5518251Y2153767D01*
X5520182Y2159203D01*
X5520893Y2165553D01*
X5520893Y2664409D01*
X5520182Y2670708D01*
X5518251Y2676194D01*
X5515203Y2681071D01*
X5511088Y2685186D01*
X5506212Y2688285D01*
X5500725Y2690164D01*
X5494426Y2690876D01*
X5345531Y2690876D01*
X5339232Y2690164D01*
X5333746Y2688285D01*
X5328869Y2685186D01*
X5324754Y2681071D01*
X5321706Y2676194D01*
X5319776Y2670708D01*
X5319064Y2664409D01*
X5319064Y2486050D01*
X5318302Y2482138D01*
X5316118Y2478836D01*
X5312816Y2476652D01*
X5308904Y2475890D01*
X5184902Y2475890D01*
X5181041Y2476652D01*
X5177739Y2478836D01*
X5110886Y2545740D01*
X5108651Y2549042D01*
X5107178Y2560726D01*
X5105095Y2566619D01*
X5104536Y2569972D01*
X5105095Y2573324D01*
X5107178Y2579217D01*
X5107889Y2585567D01*
X5107889Y2598369D01*
X5074818Y2598369D01*
X5074818Y2591054D01*
X5074056Y2587142D01*
X5071872Y2583891D01*
X5068570Y2581656D01*
X5064658Y2580894D01*
X5045303Y2580894D01*
X5041392Y2581656D01*
X5038090Y2583891D01*
X5035905Y2587142D01*
X5035143Y2591054D01*
X5035143Y2598369D01*
X5001920Y2598369D01*
X4998059Y2599182D01*
X4994757Y2601366D01*
X4977231Y2618841D01*
X4975098Y2621991D01*
X4974285Y2625648D01*
X4975352Y2630881D01*
X4976063Y2637180D01*
X4976063Y2756814D01*
X4975352Y2763113D01*
X4973421Y2768600D01*
X4970373Y2773476D01*
X4966258Y2777591D01*
X4961382Y2780639D01*
X4955895Y2782570D01*
X4949596Y2783281D01*
X4919726Y2783281D01*
X4915662Y2784144D01*
X4912258Y2786532D01*
X4906213Y2793136D01*
X4898288Y2799283D01*
X4889449Y2804109D01*
X4879949Y2807360D01*
X4869992Y2808986D01*
X4859934Y2808986D01*
X4850028Y2807360D01*
X4840528Y2804109D01*
X4828235Y2797302D01*
X4824933Y2796743D01*
X4723739Y2796743D01*
X4719828Y2797505D01*
X4716526Y2799740D01*
X4693005Y2823260D01*
X4690668Y2826867D01*
X4690059Y2831084D01*
X4691227Y2835249D01*
X4694021Y2838500D01*
X4697882Y2840329D01*
X4699711Y2840786D01*
X4707839Y2844393D01*
X4715205Y2849422D01*
X4721555Y2855722D01*
X4726584Y2863088D01*
X4730191Y2871266D01*
X4732223Y2879953D01*
X4732375Y2883509D01*
X4733290Y2887268D01*
X4735525Y2890418D01*
X4738776Y2892501D01*
X4742535Y2893212D01*
X4824933Y2893212D01*
X4828235Y2892653D01*
X4840528Y2885846D01*
X4850028Y2882595D01*
X4859934Y2880969D01*
X4869992Y2880969D01*
X4879949Y2882595D01*
X4889449Y2885846D01*
X4898288Y2890672D01*
X4906213Y2896819D01*
X4912055Y2903169D01*
X4915458Y2905607D01*
X4919522Y2906471D01*
X4949596Y2906471D01*
X4955895Y2907182D01*
X4961382Y2909062D01*
X4966258Y2912160D01*
X4970373Y2916275D01*
X4973421Y2921152D01*
X4975352Y2926638D01*
X4976063Y2932938D01*
X4976063Y3052572D01*
X4975352Y3058871D01*
X4973472Y3064205D01*
X4972913Y3067964D01*
X4973777Y3071622D01*
X4975910Y3074771D01*
X4989728Y3088589D01*
X4993030Y3090824D01*
X4996942Y3091586D01*
X5035143Y3091586D01*
X5035143Y3098901D01*
X5035905Y3102813D01*
X5038090Y3106115D01*
X5041392Y3108299D01*
X5045303Y3109061D01*
X5064658Y3109061D01*
X5068570Y3108299D01*
X5071872Y3106115D01*
X5074056Y3102813D01*
X5074818Y3098901D01*
X5074818Y3091586D01*
X5107889Y3091586D01*
X5107889Y3104388D01*
X5107178Y3110738D01*
X5105095Y3116630D01*
X5104536Y3119983D01*
X5105095Y3123336D01*
X5107178Y3129229D01*
X5107889Y3137052D01*
X5108651Y3140964D01*
X5110886Y3144215D01*
X5177739Y3211118D01*
X5181041Y3213303D01*
X5184902Y3214065D01*
X5318912Y3214065D01*
X5322824Y3213303D01*
X5326075Y3211118D01*
X5328310Y3207816D01*
X5329072Y3203905D01*
X5329072Y3025546D01*
X5329783Y3019247D01*
X5331714Y3013760D01*
X5334762Y3008884D01*
X5338876Y3004769D01*
X5343753Y3001721D01*
X5349240Y2999790D01*
X5355539Y2999079D01*
X5484418Y2999079D01*
X5490718Y2999790D01*
X5496204Y3001721D01*
X5501081Y3004769D01*
X5505196Y3008884D01*
X5508244Y3013760D01*
X5510174Y3019247D01*
X5510885Y3025546D01*
X5510885Y3524402D01*
X5510174Y3530752D01*
X5508244Y3536187D01*
X5505196Y3541115D01*
X5501081Y3545179D01*
X5496204Y3548278D01*
X5490718Y3550158D01*
X5484418Y3550869D01*
X5355539Y3550869D01*
X5349240Y3550158D01*
X5343753Y3548278D01*
X5338876Y3545179D01*
X5334762Y3541115D01*
X5331714Y3536187D01*
X5329783Y3530752D01*
X5329072Y3524402D01*
X5329072Y3346043D01*
X5328310Y3342182D01*
X5326075Y3338880D01*
X5322824Y3336645D01*
X5318912Y3335883D01*
X5155793Y3335883D01*
X5147767Y3335375D01*
X5145684Y3335070D01*
X5135930Y3332683D01*
X5128564Y3329635D01*
X5126685Y3328670D01*
X5119928Y3324453D01*
X5112207Y3317849D01*
X5037226Y3242868D01*
X5033924Y3240684D01*
X5022240Y3239211D01*
X5013655Y3235807D01*
X5010861Y3235401D01*
X4989779Y3235401D01*
X4981752Y3234893D01*
X4979670Y3234588D01*
X4971897Y3232810D01*
X4962550Y3229102D01*
X4960670Y3228136D01*
X4953914Y3223920D01*
X4946192Y3217316D01*
X4822139Y3093262D01*
X4816957Y3087420D01*
X4814316Y3083509D01*
X4812080Y3081121D01*
X4809134Y3079546D01*
X4805883Y3079038D01*
X4780635Y3079038D01*
X4774285Y3078327D01*
X4768850Y3076397D01*
X4763922Y3073298D01*
X4759858Y3069234D01*
X4756759Y3064306D01*
X4754880Y3058871D01*
X4754168Y3052572D01*
X4754168Y3000197D01*
X4753356Y2996285D01*
X4751171Y2992983D01*
X4747869Y2990799D01*
X4744008Y2990037D01*
X4654956Y2990037D01*
X4650232Y2990545D01*
X4646472Y2992932D01*
X4634026Y3005378D01*
X4626813Y3011373D01*
X4618990Y3015742D01*
X4610557Y3018536D01*
X4601718Y3019806D01*
X4592777Y3019399D01*
X4584090Y3017316D01*
X4575911Y3013710D01*
X4568596Y3008680D01*
X4562246Y3002381D01*
X4557217Y2995015D01*
X4553610Y2986836D01*
X4551578Y2978150D01*
X4551324Y2972765D01*
X4550460Y2969107D01*
X4548378Y2966008D01*
X4545279Y2963926D01*
X4541621Y2963062D01*
X4536236Y2962808D01*
X4527550Y2960776D01*
X4519371Y2957169D01*
X4512005Y2952140D01*
X4505706Y2945790D01*
X4500626Y2938424D01*
X4498695Y2934004D01*
X4496460Y2930753D01*
X4493158Y2928670D01*
X4489297Y2927959D01*
X4485436Y2928721D01*
X4482185Y2930906D01*
X4261358Y3151733D01*
X4259173Y3155035D01*
X4258411Y3158947D01*
X4258360Y3249726D01*
X4257040Y3258921D01*
X4254246Y3267354D01*
X4249877Y3275177D01*
X4243882Y3282391D01*
X4082491Y3443782D01*
X4080306Y3447034D01*
X4079544Y3450844D01*
X4080256Y3454704D01*
X4082389Y3458006D01*
X4085590Y3460242D01*
X4090009Y3462223D01*
X4097375Y3467252D01*
X4103674Y3473551D01*
X4108754Y3480917D01*
X4112361Y3489096D01*
X4114393Y3497783D01*
X4114800Y3506724D01*
X4113580Y3515563D01*
X4110736Y3523996D01*
X4106367Y3531819D01*
X4100372Y3539032D01*
X4016197Y3623208D01*
X4010406Y3628085D01*
X3991813Y3646678D01*
X3989628Y3649929D01*
X3988866Y3653840D01*
X3989628Y3657752D01*
X3991813Y3661003D01*
X3995115Y3663238D01*
X3999026Y3664000D01*
X4240733Y3664000D01*
X4244644Y3663238D01*
X4247946Y3661054D01*
X4262577Y3646424D01*
X4264812Y3643122D01*
X4265574Y3639261D01*
X4264812Y3635349D01*
X4262577Y3632047D01*
X4170476Y3539947D01*
X4164482Y3532682D01*
X4160164Y3524910D01*
X4157319Y3516426D01*
X4156049Y3507587D01*
X4156506Y3498697D01*
X4158538Y3490010D01*
X4162145Y3481832D01*
X4167174Y3474465D01*
X4173474Y3468166D01*
X4180840Y3463137D01*
X4189018Y3459530D01*
X4197705Y3457448D01*
X4203141Y3457194D01*
X4206748Y3456381D01*
X4209846Y3454247D01*
X4211929Y3451148D01*
X4212793Y3447542D01*
X4213047Y3442106D01*
X4215079Y3433419D01*
X4218686Y3425240D01*
X4223766Y3417925D01*
X4230065Y3411575D01*
X4237431Y3406546D01*
X4245610Y3402939D01*
X4254296Y3400907D01*
X4259681Y3400653D01*
X4263339Y3399790D01*
X4266387Y3397656D01*
X4268520Y3394608D01*
X4269384Y3390950D01*
X4269638Y3385565D01*
X4271670Y3376879D01*
X4275277Y3368700D01*
X4280306Y3361334D01*
X4286605Y3355035D01*
X4293971Y3349955D01*
X4302150Y3346348D01*
X4310837Y3344316D01*
X4316272Y3344062D01*
X4319879Y3343198D01*
X4322978Y3341115D01*
X4325061Y3338017D01*
X4325924Y3334410D01*
X4326178Y3328974D01*
X4328210Y3320287D01*
X4331817Y3312109D01*
X4336897Y3304743D01*
X4343196Y3298444D01*
X4350562Y3293414D01*
X4358741Y3289808D01*
X4367428Y3287776D01*
X4372813Y3287522D01*
X4376470Y3286658D01*
X4379569Y3284524D01*
X4381652Y3281476D01*
X4382516Y3277819D01*
X4382770Y3272383D01*
X4384802Y3263696D01*
X4388408Y3255568D01*
X4393438Y3248202D01*
X4399788Y3241903D01*
X4407103Y3236823D01*
X4415282Y3233216D01*
X4423968Y3231184D01*
X4429404Y3230930D01*
X4433011Y3230067D01*
X4436110Y3227984D01*
X4438243Y3224885D01*
X4439056Y3221278D01*
X4439310Y3215843D01*
X4441393Y3207156D01*
X4445000Y3198977D01*
X4450029Y3191611D01*
X4456328Y3185312D01*
X4463694Y3180283D01*
X4471873Y3176676D01*
X4480560Y3174644D01*
X4485944Y3174390D01*
X4489602Y3173526D01*
X4492701Y3171393D01*
X4494784Y3168345D01*
X4495647Y3164687D01*
X4495901Y3159252D01*
X4497933Y3150565D01*
X4501540Y3142437D01*
X4506569Y3135071D01*
X4512919Y3128721D01*
X4520285Y3123692D01*
X4528413Y3120085D01*
X4537100Y3118053D01*
X4542536Y3117799D01*
X4546193Y3116935D01*
X4549241Y3114852D01*
X4551375Y3111754D01*
X4552238Y3108147D01*
X4552492Y3102711D01*
X4554524Y3094024D01*
X4558131Y3085846D01*
X4563160Y3078480D01*
X4569460Y3072180D01*
X4576826Y3067151D01*
X4585004Y3063544D01*
X4593691Y3061462D01*
X4602581Y3061055D01*
X4611420Y3062325D01*
X4619904Y3065119D01*
X4627676Y3069488D01*
X4634941Y3075482D01*
X4719116Y3159658D01*
X4725111Y3166922D01*
X4729480Y3174695D01*
X4732324Y3183178D01*
X4733544Y3192018D01*
X4733137Y3200908D01*
X4731054Y3209594D01*
X4727498Y3217773D01*
X4722418Y3225139D01*
X4716119Y3231438D01*
X4708753Y3236468D01*
X4704334Y3238449D01*
X4701133Y3240684D01*
X4699000Y3243986D01*
X4698288Y3247847D01*
X4699050Y3251657D01*
X4701235Y3254908D01*
X5565495Y4119270D01*
X5571083Y4126636D01*
X5575096Y4134662D01*
X5577535Y4143248D01*
X5578398Y4152595D01*
X5578398Y4260189D01*
X5579160Y4264050D01*
X5581345Y4267352D01*
X5584647Y4269536D01*
X5588558Y4270349D01*
X5608167Y4270349D01*
X5614466Y4271060D01*
X5619953Y4272940D01*
X5624830Y4276039D01*
X5628944Y4280103D01*
X5631992Y4285030D01*
X5633923Y4290466D01*
X5634634Y4296816D01*
X5634634Y4453128D01*
X5633923Y4459478D01*
X5631992Y4464913D01*
X5628944Y4469841D01*
X5624830Y4473905D01*
X5619953Y4477004D01*
X5614466Y4478934D01*
X5608167Y4479645D01*
X5451805Y4479645D01*
X5445506Y4478934D01*
X5440019Y4477004D01*
X5435142Y4473905D01*
X5431028Y4469841D01*
X5427980Y4464913D01*
X5426049Y4459478D01*
X5425338Y4453128D01*
X5425338Y4296816D01*
X5426049Y4290466D01*
X5427980Y4285030D01*
X5431028Y4280103D01*
X5435142Y4276039D01*
X5440019Y4272940D01*
X5445506Y4271060D01*
X5451805Y4270349D01*
X5471414Y4270349D01*
X5475274Y4269536D01*
X5478576Y4267352D01*
X5480812Y4264050D01*
X5481574Y4260189D01*
X5481574Y4176369D01*
X5480812Y4172508D01*
X5478576Y4169206D01*
X4632756Y3323386D01*
X4629505Y3321202D01*
X4625695Y3320389D01*
X4621834Y3321151D01*
X4618532Y3323234D01*
X4616297Y3326485D01*
X4614316Y3330905D01*
X4609287Y3338271D01*
X4602988Y3344570D01*
X4595622Y3349650D01*
X4591151Y3351580D01*
X4587951Y3353815D01*
X4585817Y3357118D01*
X4585106Y3360978D01*
X4585919Y3364839D01*
X4588103Y3368090D01*
X4615383Y3395421D01*
X4620971Y3402837D01*
X4624984Y3410813D01*
X4627422Y3419398D01*
X4628286Y3428746D01*
X4628235Y4775860D01*
X4626965Y4785055D01*
X4624120Y4793538D01*
X4619752Y4801311D01*
X4613757Y4808575D01*
X4433925Y4988407D01*
X4431995Y4991100D01*
X4431030Y4994249D01*
X4431131Y4997551D01*
X4433671Y5010251D01*
X4434535Y5023916D01*
X4433671Y5037582D01*
X4430979Y5050993D01*
X4426610Y5063947D01*
X4420514Y5076240D01*
X4412945Y5087620D01*
X4403902Y5097932D01*
X4393641Y5106924D01*
X4382262Y5114544D01*
X4369968Y5120589D01*
X4357014Y5125008D01*
X4343603Y5127650D01*
X4329938Y5128564D01*
X4316272Y5127650D01*
X4302861Y5125008D01*
X4289907Y5120589D01*
X4277614Y5114544D01*
X4266234Y5106924D01*
X4255973Y5097932D01*
X4246930Y5087620D01*
X4239310Y5076240D01*
X4233265Y5063947D01*
X4228846Y5050993D01*
X4226204Y5037582D01*
X4225290Y5023916D01*
X4226204Y5010251D01*
X4228846Y4996840D01*
X4233265Y4983886D01*
X4239310Y4971643D01*
X4246930Y4960264D01*
X4255973Y4949952D01*
X4266234Y4940909D01*
X4277614Y4933340D01*
X4289907Y4927295D01*
X4302861Y4922875D01*
X4316272Y4920183D01*
X4329938Y4919319D01*
X4343603Y4920183D01*
X4356303Y4922723D01*
X4359605Y4922824D01*
X4362754Y4921859D01*
X4365447Y4919929D01*
X4528464Y4756912D01*
X4530699Y4753610D01*
X4531461Y4749749D01*
X4531461Y4726686D01*
X4530699Y4722774D01*
X4528464Y4719472D01*
X4525213Y4717288D01*
X4521301Y4716526D01*
X4517440Y4717288D01*
X4514138Y4719472D01*
X4429912Y4803394D01*
X4427474Y4807356D01*
X4426610Y4809947D01*
X4420514Y4822240D01*
X4412945Y4833620D01*
X4403902Y4843932D01*
X4393641Y4852924D01*
X4382262Y4860544D01*
X4369968Y4866589D01*
X4357014Y4871008D01*
X4343603Y4873650D01*
X4329938Y4874564D01*
X4316272Y4873650D01*
X4302861Y4871008D01*
X4289907Y4866589D01*
X4277614Y4860544D01*
X4266234Y4852924D01*
X4255973Y4843932D01*
X4246930Y4833620D01*
X4239310Y4822240D01*
X4233265Y4809947D01*
X4228846Y4796993D01*
X4226204Y4783582D01*
X4225290Y4769916D01*
X4226204Y4756251D01*
X4228846Y4742840D01*
X4233265Y4729886D01*
X4239310Y4717643D01*
X4246930Y4706264D01*
X4255973Y4695952D01*
X4266234Y4686909D01*
X4277614Y4679340D01*
X4289907Y4673295D01*
X4302861Y4668875D01*
X4316272Y4666183D01*
X4329938Y4665319D01*
X4343603Y4666183D01*
X4357014Y4668875D01*
X4369968Y4673295D01*
X4382262Y4679340D01*
X4393641Y4686909D01*
X4395012Y4688128D01*
X4398264Y4690059D01*
X4402023Y4690668D01*
X4405731Y4689805D01*
X4408881Y4687671D01*
X4428642Y4667961D01*
X4430877Y4664659D01*
X4431639Y4660798D01*
X4431639Y4585157D01*
X4430725Y4580940D01*
X4428185Y4577486D01*
X4424426Y4575403D01*
X4420158Y4575048D01*
X4416094Y4576521D01*
X4412945Y4579620D01*
X4403902Y4589932D01*
X4393641Y4598924D01*
X4382262Y4606544D01*
X4375658Y4609795D01*
X4375658Y4561636D01*
X4421479Y4561636D01*
X4425340Y4560874D01*
X4428642Y4558690D01*
X4430877Y4555388D01*
X4431639Y4551476D01*
X4431639Y4480356D01*
X4430877Y4476496D01*
X4428642Y4473194D01*
X4425340Y4471009D01*
X4421479Y4470196D01*
X4375658Y4470196D01*
X4375658Y4422089D01*
X4382262Y4425340D01*
X4393641Y4432909D01*
X4403902Y4441952D01*
X4413046Y4452366D01*
X4416094Y4455363D01*
X4420158Y4456785D01*
X4424426Y4456430D01*
X4428185Y4454347D01*
X4430725Y4450943D01*
X4431639Y4446727D01*
X4431639Y4331157D01*
X4430725Y4326940D01*
X4428185Y4323486D01*
X4424426Y4321403D01*
X4420158Y4321048D01*
X4416094Y4322521D01*
X4412945Y4325620D01*
X4403902Y4335932D01*
X4393641Y4344924D01*
X4382262Y4352544D01*
X4369968Y4358589D01*
X4357014Y4363008D01*
X4343603Y4365650D01*
X4329938Y4366564D01*
X4316272Y4365650D01*
X4302861Y4363008D01*
X4289907Y4358589D01*
X4277614Y4352544D01*
X4266539Y4345127D01*
X4263390Y4343755D01*
X4259884Y4343501D01*
X4256532Y4344416D01*
X4253738Y4346397D01*
X4193895Y4406239D01*
X4191660Y4409541D01*
X4190898Y4413453D01*
X4190898Y5293461D01*
X4191660Y5297373D01*
X4193895Y5300675D01*
X4207916Y5314746D01*
X4211218Y5316931D01*
X4215130Y5317693D01*
X4218990Y5316931D01*
X4222292Y5314746D01*
X4224528Y5311444D01*
X4225290Y5307533D01*
X4225290Y5199786D01*
X4226001Y5193436D01*
X4227880Y5188000D01*
X4230979Y5183073D01*
X4235094Y5179009D01*
X4239971Y5175910D01*
X4245457Y5173980D01*
X4251756Y5173268D01*
X4408119Y5173268D01*
X4414418Y5173980D01*
X4419904Y5175910D01*
X4424781Y5179009D01*
X4428896Y5183073D01*
X4431944Y5188000D01*
X4433874Y5193436D01*
X4434586Y5199786D01*
X4434586Y5343906D01*
X4435348Y5347817D01*
X4437532Y5351119D01*
X4440834Y5353304D01*
X4444746Y5354066D01*
X5383479Y5354066D01*
X5387340Y5353304D01*
X5390642Y5351119D01*
X5422341Y5319369D01*
X5424576Y5316118D01*
X5425338Y5312206D01*
X5425338Y5226812D01*
X5426049Y5220512D01*
X5427980Y5215026D01*
X5431028Y5210149D01*
X5435142Y5206034D01*
X5440019Y5202936D01*
X5445506Y5201056D01*
X5451805Y5200345D01*
X5608167Y5200345D01*
X5614466Y5201056D01*
X5619953Y5202936D01*
X5624830Y5206034D01*
X5628944Y5210149D01*
X5631992Y5215026D01*
X5633923Y5220512D01*
X5634634Y5226812D01*
X5634634Y5383174D01*
X5633923Y5389473D01*
X5631992Y5394909D01*
X5628944Y5399836D01*
X5624830Y5403900D01*
X5619953Y5406999D01*
X5614466Y5408930D01*
X5608167Y5409641D01*
X5522722Y5409641D01*
X5518861Y5410403D01*
X5515559Y5412587D01*
X5465521Y5462676D01*
X5463286Y5465978D01*
X5462524Y5469839D01*
X5463286Y5473750D01*
X5465521Y5477002D01*
X5468823Y5479237D01*
X5472684Y5479999D01*
X5663946Y5479999D01*
X5667806Y5479237D01*
X5671108Y5477002D01*
X5673344Y5473750D01*
X5674106Y5469839D01*
X5674106Y2135936D01*
X5673344Y2132076D01*
X5671108Y2128774D01*
X5667806Y2126589D01*
X5663946Y2125776D01*
G37*

%LPC*%
G36*
X5002072Y2650591D02*
G01*
X5035143Y2650591D01*
X5035143Y2689910D01*
X5028539Y2689910D01*
X5022240Y2689199D01*
X5016754Y2687269D01*
X5011877Y2684221D01*
X5007762Y2680106D01*
X5004714Y2675229D01*
X5002784Y2669743D01*
X5002072Y2663444D01*
G37*
G36*
X5074818Y2650591D02*
G01*
X5107889Y2650591D01*
X5107889Y2663444D01*
X5107178Y2669743D01*
X5105247Y2675229D01*
X5102199Y2680106D01*
X5098084Y2684221D01*
X5093208Y2687269D01*
X5087721Y2689199D01*
X5081422Y2689910D01*
X5074818Y2689910D01*
G37*
G36*
X5028539Y3000044D02*
G01*
X5035143Y3000044D01*
X5035143Y3039364D01*
X5002072Y3039364D01*
X5002072Y3026562D01*
X5002784Y3020212D01*
X5004714Y3014776D01*
X5007762Y3009849D01*
X5011877Y3005785D01*
X5016754Y3002686D01*
X5022240Y3000756D01*
G37*
G36*
X5074818Y3000044D02*
G01*
X5081422Y3000044D01*
X5087721Y3000756D01*
X5093208Y3002686D01*
X5098084Y3005785D01*
X5102199Y3009849D01*
X5105247Y3014776D01*
X5107178Y3020212D01*
X5107889Y3026562D01*
X5107889Y3039364D01*
X5074818Y3039364D01*
G37*
G36*
X4284218Y4422089D02*
G01*
X4284218Y4470196D01*
X4236059Y4470196D01*
X4239310Y4463643D01*
X4246930Y4452264D01*
X4255973Y4441952D01*
X4266234Y4432909D01*
X4277614Y4425340D01*
G37*
G36*
X4236059Y4561636D02*
G01*
X4284218Y4561636D01*
X4284218Y4609795D01*
X4277614Y4606544D01*
X4266234Y4598924D01*
X4255973Y4589932D01*
X4246930Y4579620D01*
X4239310Y4568240D01*
G37*
G36*
X5451805Y4580331D02*
G01*
X5608167Y4580331D01*
X5614466Y4581042D01*
X5619953Y4582972D01*
X5624830Y4586020D01*
X5628944Y4590135D01*
X5631992Y4595012D01*
X5633923Y4600498D01*
X5634634Y4606798D01*
X5634634Y4763160D01*
X5633923Y4769459D01*
X5631992Y4774946D01*
X5628944Y4779822D01*
X5624830Y4783937D01*
X5619953Y4786985D01*
X5614466Y4788916D01*
X5608167Y4789627D01*
X5451805Y4789627D01*
X5445506Y4788916D01*
X5440019Y4786985D01*
X5435142Y4783937D01*
X5431028Y4779822D01*
X5427980Y4774946D01*
X5426049Y4769459D01*
X5425338Y4763160D01*
X5425338Y4606798D01*
X5426049Y4600498D01*
X5427980Y4595012D01*
X5431028Y4590135D01*
X5435142Y4586020D01*
X5440019Y4582972D01*
X5445506Y4581042D01*
G37*
G36*
X5575706Y4890312D02*
G01*
X5608167Y4890312D01*
X5614466Y4891024D01*
X5619953Y4892954D01*
X5624830Y4896053D01*
X5628944Y4900117D01*
X5631992Y4905044D01*
X5633923Y4910480D01*
X5634634Y4916830D01*
X5634634Y4949240D01*
X5575706Y4949240D01*
G37*
G36*
X5451805Y4890312D02*
G01*
X5484266Y4890312D01*
X5484266Y4949240D01*
X5425338Y4949240D01*
X5425338Y4916830D01*
X5426049Y4910480D01*
X5427980Y4905044D01*
X5431028Y4900117D01*
X5435142Y4896053D01*
X5440019Y4892954D01*
X5445506Y4891024D01*
G37*
G36*
X5575706Y5040680D02*
G01*
X5634634Y5040680D01*
X5634634Y5073142D01*
X5633923Y5079492D01*
X5631992Y5084927D01*
X5628944Y5089855D01*
X5624830Y5093919D01*
X5619953Y5097018D01*
X5614466Y5098897D01*
X5608167Y5099608D01*
X5575706Y5099608D01*
G37*
G36*
X5425338Y5040680D02*
G01*
X5484266Y5040680D01*
X5484266Y5099608D01*
X5451805Y5099608D01*
X5445506Y5098897D01*
X5440019Y5097018D01*
X5435142Y5093919D01*
X5431028Y5089855D01*
X5427980Y5084927D01*
X5426049Y5079492D01*
X5425338Y5073142D01*
G37*

%LPD*%
G36*
X736092Y2125776D02*
G01*
X732180Y2126589D01*
X728878Y2128774D01*
X726694Y2132076D01*
X725932Y2135936D01*
X725932Y2148890D01*
X726694Y2152802D01*
X728878Y2156104D01*
X732180Y2158288D01*
X736092Y2159050D01*
X761136Y2159050D01*
X761136Y2228596D01*
X736092Y2228596D01*
X732180Y2229408D01*
X728878Y2231593D01*
X726694Y2234895D01*
X725932Y2238756D01*
X725932Y2331161D01*
X726694Y2335072D01*
X728878Y2338324D01*
X732180Y2340559D01*
X736092Y2341321D01*
X761136Y2341321D01*
X761136Y2410866D01*
X736092Y2410866D01*
X732180Y2411628D01*
X728878Y2413863D01*
X726694Y2417165D01*
X725932Y2421026D01*
X725881Y3543909D01*
X726694Y3547770D01*
X728878Y3551072D01*
X732180Y3553307D01*
X736041Y3554069D01*
X783640Y3554069D01*
X783640Y3611118D01*
X736041Y3611118D01*
X732180Y3611879D01*
X728878Y3614115D01*
X726694Y3617417D01*
X725881Y3621278D01*
X725932Y3688638D01*
X726694Y3692550D01*
X728878Y3695852D01*
X732180Y3698036D01*
X736092Y3698798D01*
X783640Y3698798D01*
X783640Y3763822D01*
X784402Y3767734D01*
X786638Y3771036D01*
X789940Y3773220D01*
X793800Y3773982D01*
X926185Y3773982D01*
X930097Y3773220D01*
X933399Y3771036D01*
X935583Y3767734D01*
X936345Y3763822D01*
X936345Y3698798D01*
X1025906Y3698798D01*
X1025906Y3729380D01*
X1025194Y3735730D01*
X1023264Y3741165D01*
X1020216Y3746093D01*
X1016101Y3750157D01*
X1011224Y3753256D01*
X1008329Y3754272D01*
X1004874Y3756304D01*
X1002487Y3759606D01*
X1001572Y3763518D01*
X1002233Y3767531D01*
X1004417Y3770934D01*
X1007719Y3773220D01*
X1011732Y3773982D01*
X1223314Y3774033D01*
X1227277Y3773220D01*
X1230579Y3770934D01*
X1232763Y3767531D01*
X1233474Y3763518D01*
X1232509Y3759606D01*
X1230122Y3756355D01*
X1226667Y3754272D01*
X1223772Y3753256D01*
X1218895Y3750157D01*
X1214780Y3746093D01*
X1211681Y3741165D01*
X1209802Y3735730D01*
X1209090Y3729380D01*
X1209090Y3698798D01*
X1248613Y3698798D01*
X1248613Y3763873D01*
X1249426Y3767734D01*
X1251610Y3771036D01*
X1254912Y3773220D01*
X1258773Y3774033D01*
X1291183Y3774033D01*
X1295044Y3773220D01*
X1298346Y3771036D01*
X1300581Y3767734D01*
X1301343Y3763873D01*
X1301343Y3698798D01*
X1340916Y3698798D01*
X1340916Y3729380D01*
X1340205Y3735730D01*
X1338275Y3741165D01*
X1335176Y3746093D01*
X1331112Y3750157D01*
X1326184Y3753256D01*
X1323289Y3754272D01*
X1319834Y3756355D01*
X1317447Y3759606D01*
X1316532Y3763518D01*
X1317193Y3767531D01*
X1319377Y3770934D01*
X1322730Y3773220D01*
X1326692Y3774033D01*
X1823364Y3774033D01*
X1827326Y3773220D01*
X1830628Y3770934D01*
X1832813Y3767531D01*
X1833524Y3763518D01*
X1832559Y3759606D01*
X1830171Y3756355D01*
X1826717Y3754272D01*
X1823770Y3753256D01*
X1818893Y3750157D01*
X1814779Y3746093D01*
X1811731Y3741165D01*
X1809800Y3735730D01*
X1809089Y3729380D01*
X1809089Y3580536D01*
X1809800Y3574237D01*
X1811731Y3568750D01*
X1814779Y3563874D01*
X1818893Y3559759D01*
X1823770Y3556711D01*
X1829257Y3554780D01*
X1835556Y3554069D01*
X1954428Y3554069D01*
X1960727Y3554780D01*
X1966214Y3556711D01*
X1971090Y3559759D01*
X1975205Y3563874D01*
X1978304Y3568750D01*
X1980184Y3574237D01*
X1980895Y3580536D01*
X1980895Y3729380D01*
X1980184Y3735730D01*
X1978304Y3741165D01*
X1975205Y3746093D01*
X1971090Y3750157D01*
X1966214Y3753256D01*
X1963267Y3754272D01*
X1959813Y3756355D01*
X1957425Y3759606D01*
X1956460Y3763568D01*
X1957171Y3767531D01*
X1959356Y3770934D01*
X1962657Y3773220D01*
X1966620Y3774033D01*
X3999382Y3774084D01*
X4005884Y3774897D01*
X4011422Y3776979D01*
X4016552Y3780536D01*
X4019600Y3783584D01*
X4022242Y3787140D01*
X4024731Y3792677D01*
X4025900Y3800144D01*
X4025900Y5469839D01*
X4026662Y5473750D01*
X4028897Y5477002D01*
X4032199Y5479237D01*
X4036060Y5479999D01*
X4162298Y5479999D01*
X4166158Y5479237D01*
X4169460Y5477002D01*
X4171645Y5473750D01*
X4172458Y5469839D01*
X4171645Y5465978D01*
X4169460Y5462676D01*
X4078681Y5371846D01*
X4071670Y5363718D01*
X4066286Y5354878D01*
X4062323Y5345328D01*
X4059936Y5335270D01*
X4059072Y5324602D01*
X4059072Y4382312D01*
X4059936Y4371644D01*
X4062323Y4361586D01*
X4066286Y4352036D01*
X4071670Y4343196D01*
X4078681Y4335068D01*
X4198112Y4215587D01*
X4206240Y4208627D01*
X4215079Y4203242D01*
X4224629Y4199280D01*
X4234688Y4196842D01*
X4245000Y4196029D01*
X4248759Y4195013D01*
X4251858Y4192625D01*
X4255973Y4187951D01*
X4266234Y4178909D01*
X4277614Y4171340D01*
X4289907Y4165295D01*
X4302861Y4160875D01*
X4316272Y4158183D01*
X4329938Y4157319D01*
X4343603Y4158183D01*
X4357014Y4160875D01*
X4369968Y4165295D01*
X4382262Y4171340D01*
X4393641Y4178909D01*
X4403902Y4187951D01*
X4413046Y4198366D01*
X4416094Y4201363D01*
X4420158Y4202785D01*
X4424426Y4202430D01*
X4428185Y4200347D01*
X4430725Y4196943D01*
X4431639Y4192727D01*
X4431639Y4077157D01*
X4430725Y4072940D01*
X4428185Y4069486D01*
X4424426Y4067403D01*
X4420158Y4067048D01*
X4416094Y4068521D01*
X4412945Y4071620D01*
X4403902Y4081932D01*
X4393641Y4090924D01*
X4382262Y4098544D01*
X4369968Y4104589D01*
X4357014Y4109008D01*
X4343603Y4111650D01*
X4329938Y4112564D01*
X4316272Y4111650D01*
X4302861Y4109008D01*
X4289907Y4104589D01*
X4277614Y4098544D01*
X4266234Y4090924D01*
X4255973Y4081932D01*
X4246930Y4071620D01*
X4239310Y4060240D01*
X4233265Y4047947D01*
X4228846Y4034993D01*
X4226204Y4021582D01*
X4225290Y4007916D01*
X4226204Y3994251D01*
X4228846Y3980840D01*
X4233265Y3967886D01*
X4239310Y3955643D01*
X4246930Y3944264D01*
X4255973Y3933951D01*
X4266234Y3924909D01*
X4277614Y3917340D01*
X4289907Y3911295D01*
X4302861Y3906875D01*
X4316272Y3904183D01*
X4329938Y3903319D01*
X4343603Y3904183D01*
X4357014Y3906875D01*
X4369968Y3911295D01*
X4382262Y3917340D01*
X4393641Y3924909D01*
X4403902Y3933951D01*
X4413046Y3944365D01*
X4416094Y3947363D01*
X4420158Y3948785D01*
X4424426Y3948429D01*
X4428185Y3946347D01*
X4430725Y3942943D01*
X4431639Y3938727D01*
X4431639Y3637940D01*
X4430826Y3633978D01*
X4428540Y3630625D01*
X4425137Y3628440D01*
X4421124Y3627780D01*
X4417161Y3628694D01*
X4410252Y3631946D01*
X4400804Y3634486D01*
X4397705Y3634740D01*
X4394352Y3635654D01*
X4391456Y3637635D01*
X4389424Y3640429D01*
X4385919Y3653282D01*
X4381804Y3662172D01*
X4376166Y3670249D01*
X4369206Y3677158D01*
X4361180Y3682796D01*
X4352239Y3686962D01*
X4342790Y3689502D01*
X4338218Y3689908D01*
X4334814Y3690823D01*
X4331970Y3692804D01*
X4291076Y3733546D01*
X4284573Y3738879D01*
X4277512Y3742639D01*
X4269841Y3744976D01*
X4261358Y3745839D01*
X3025394Y3745839D01*
X3016910Y3744976D01*
X3009239Y3742639D01*
X3002178Y3738879D01*
X2995574Y3733495D01*
X2957169Y3695039D01*
X2953867Y3692855D01*
X2949956Y3692042D01*
X2946095Y3692855D01*
X2942793Y3695039D01*
X2919272Y3718560D01*
X2912668Y3723944D01*
X2905607Y3727754D01*
X2897936Y3730040D01*
X2889504Y3730904D01*
X2703830Y3730904D01*
X2695397Y3730040D01*
X2687726Y3727754D01*
X2680665Y3723944D01*
X2674061Y3718560D01*
X2577642Y3622141D01*
X2574340Y3619906D01*
X2570429Y3619144D01*
X2486710Y3619144D01*
X2480411Y3618433D01*
X2474925Y3616502D01*
X2470048Y3613454D01*
X2465933Y3609340D01*
X2462834Y3604463D01*
X2460955Y3598976D01*
X2460244Y3592677D01*
X2460244Y3480562D01*
X2460955Y3474212D01*
X2462834Y3468776D01*
X2465933Y3463848D01*
X2470048Y3459784D01*
X2474925Y3456686D01*
X2480411Y3454806D01*
X2486710Y3454095D01*
X2623261Y3454095D01*
X2629611Y3454806D01*
X2635046Y3456686D01*
X2639974Y3459784D01*
X2644038Y3463848D01*
X2647137Y3468776D01*
X2649016Y3474212D01*
X2649728Y3480562D01*
X2649728Y3574338D01*
X2650540Y3578199D01*
X2652725Y3581501D01*
X2717342Y3646119D01*
X2720644Y3648303D01*
X2724505Y3649065D01*
X2734462Y3649065D01*
X2738628Y3648201D01*
X2742031Y3645662D01*
X2744114Y3642004D01*
X2744571Y3637787D01*
X2743860Y3631437D01*
X2743860Y3533546D01*
X2744063Y3530904D01*
X2744063Y3273196D01*
X2743708Y3270554D01*
X2742692Y3268116D01*
X2740710Y3264662D01*
X2739085Y3262579D01*
X2542946Y3066389D01*
X2539644Y3064154D01*
X2535732Y3063392D01*
X2492146Y3063392D01*
X2487980Y3064306D01*
X2484577Y3066796D01*
X2482494Y3070453D01*
X2482037Y3074670D01*
X2483358Y3078683D01*
X2486202Y3081832D01*
X2493162Y3088741D01*
X2498801Y3096818D01*
X2502966Y3105708D01*
X2505506Y3115208D01*
X2506370Y3124962D01*
X2505506Y3134766D01*
X2502966Y3144266D01*
X2498801Y3153156D01*
X2493162Y3161233D01*
X2486253Y3168142D01*
X2478176Y3173780D01*
X2469286Y3177946D01*
X2459786Y3180486D01*
X2450033Y3181350D01*
X2444496Y3180892D01*
X2420620Y3180892D01*
X2416454Y3181756D01*
X2413050Y3184296D01*
X2410917Y3187954D01*
X2410510Y3192170D01*
X2410917Y3195574D01*
X2410917Y3208629D01*
X2361336Y3208629D01*
X2361336Y3201060D01*
X2360574Y3197199D01*
X2358339Y3193897D01*
X2355088Y3191662D01*
X2351176Y3190900D01*
X2298801Y3190900D01*
X2294890Y3191662D01*
X2291638Y3193897D01*
X2289403Y3197199D01*
X2288641Y3201060D01*
X2288641Y3208629D01*
X2239060Y3208629D01*
X2239060Y3195574D01*
X2239772Y3189274D01*
X2241854Y3183331D01*
X2242413Y3179978D01*
X2241854Y3176625D01*
X2239772Y3170732D01*
X2239060Y3164433D01*
X2239060Y3085541D01*
X2239772Y3079242D01*
X2241854Y3073349D01*
X2242413Y3069996D01*
X2241854Y3066643D01*
X2239772Y3060750D01*
X2239060Y3054400D01*
X2239060Y2975559D01*
X2239772Y2969260D01*
X2241854Y2963316D01*
X2242413Y2959963D01*
X2241854Y2956610D01*
X2239772Y2950718D01*
X2239060Y2944418D01*
X2239060Y2865526D01*
X2239772Y2859227D01*
X2241854Y2853334D01*
X2242413Y2849981D01*
X2241854Y2846628D01*
X2239772Y2840736D01*
X2239060Y2834436D01*
X2239060Y2755544D01*
X2239772Y2749245D01*
X2241854Y2743352D01*
X2242413Y2739999D01*
X2241854Y2736646D01*
X2239772Y2730754D01*
X2239060Y2724404D01*
X2239060Y2645562D01*
X2239772Y2639263D01*
X2241702Y2633776D01*
X2244801Y2628900D01*
X2248865Y2624785D01*
X2254758Y2621076D01*
X2257704Y2618282D01*
X2259279Y2614523D01*
X2259279Y2610459D01*
X2257704Y2606700D01*
X2254758Y2603906D01*
X2248865Y2600198D01*
X2244801Y2596134D01*
X2241702Y2591206D01*
X2239772Y2585770D01*
X2239060Y2579420D01*
X2239060Y2561336D01*
X2288641Y2561336D01*
X2288641Y2608935D01*
X2289403Y2612796D01*
X2291638Y2616098D01*
X2294890Y2618333D01*
X2298801Y2619095D01*
X2351176Y2619095D01*
X2355088Y2618333D01*
X2358339Y2616098D01*
X2360574Y2612796D01*
X2361336Y2608935D01*
X2361336Y2561336D01*
X2410917Y2561336D01*
X2410917Y2579420D01*
X2410206Y2585770D01*
X2408275Y2591206D01*
X2405176Y2596134D01*
X2401112Y2600198D01*
X2395220Y2603906D01*
X2392273Y2606700D01*
X2390698Y2610459D01*
X2390698Y2614523D01*
X2392273Y2618282D01*
X2395220Y2621076D01*
X2401112Y2624785D01*
X2405176Y2628900D01*
X2408275Y2633776D01*
X2410206Y2639263D01*
X2410917Y2645562D01*
X2410917Y2724404D01*
X2410206Y2730754D01*
X2408123Y2736646D01*
X2407564Y2739999D01*
X2408123Y2743352D01*
X2410206Y2749245D01*
X2410917Y2755544D01*
X2410917Y2834436D01*
X2410510Y2837789D01*
X2410917Y2842006D01*
X2413050Y2845663D01*
X2416454Y2848203D01*
X2420620Y2849067D01*
X2445562Y2849016D01*
X2450033Y2848660D01*
X2459786Y2849524D01*
X2469286Y2852064D01*
X2478176Y2856179D01*
X2486253Y2861818D01*
X2493162Y2868777D01*
X2498801Y2876804D01*
X2502966Y2885744D01*
X2505506Y2895193D01*
X2506370Y2904998D01*
X2505506Y2914802D01*
X2502966Y2924251D01*
X2498801Y2933192D01*
X2493162Y2941218D01*
X2483358Y2951276D01*
X2482037Y2955340D01*
X2482494Y2959557D01*
X2484577Y2963214D01*
X2487980Y2965704D01*
X2492146Y2966567D01*
X2561894Y2966618D01*
X2571089Y2967888D01*
X2579522Y2970733D01*
X2587345Y2975102D01*
X2594559Y2981096D01*
X2790037Y3176574D01*
X2793339Y3178810D01*
X2797251Y3179572D01*
X3271418Y3179572D01*
X3275329Y3178810D01*
X3278632Y3176574D01*
X3280816Y3173272D01*
X3281578Y3169412D01*
X3281578Y2844038D01*
X3280867Y2840177D01*
X3278733Y2836926D01*
X3275482Y2834741D01*
X3271672Y2833878D01*
X3267862Y2834538D01*
X3264509Y2836570D01*
X3262223Y2839720D01*
X3258464Y2847848D01*
X3252825Y2855925D01*
X3245866Y2862834D01*
X3237839Y2868472D01*
X3228898Y2872638D01*
X3219450Y2875178D01*
X3209645Y2876042D01*
X3199841Y2875178D01*
X3190392Y2872638D01*
X3181451Y2868472D01*
X3172714Y2862376D01*
X3169056Y2860751D01*
X3164992Y2860700D01*
X3161284Y2862224D01*
X3158439Y2865069D01*
X3156915Y2868777D01*
X3156966Y2872841D01*
X3162960Y2885744D01*
X3165500Y2895193D01*
X3166364Y2904998D01*
X3165500Y2914802D01*
X3162960Y2924251D01*
X3161944Y2926384D01*
X3161030Y2930652D01*
X3161030Y2966364D01*
X3157220Y2967228D01*
X3154019Y2969463D01*
X3151886Y2972714D01*
X3151124Y2976524D01*
X3151124Y3018434D01*
X3151886Y3022244D01*
X3154019Y3025495D01*
X3157220Y3027730D01*
X3161030Y3028594D01*
X3161030Y3072892D01*
X3154019Y3072180D01*
X3144367Y3068523D01*
X3140608Y3068523D01*
X3136442Y3070301D01*
X3130956Y3072180D01*
X3124657Y3072892D01*
X3095294Y3072892D01*
X3088995Y3072180D01*
X3079394Y3068523D01*
X3075584Y3068523D01*
X3071418Y3070301D01*
X3065983Y3072180D01*
X3059633Y3072892D01*
X3030321Y3072892D01*
X3023971Y3072180D01*
X3014370Y3068523D01*
X3010611Y3068523D01*
X3006445Y3070301D01*
X3000959Y3072180D01*
X2993948Y3072892D01*
X2993948Y3028594D01*
X2997758Y3027730D01*
X3000959Y3025495D01*
X3003092Y3022244D01*
X3003854Y3018434D01*
X3003854Y2976524D01*
X3003092Y2972714D01*
X3000959Y2969463D01*
X2997758Y2967228D01*
X2993948Y2966364D01*
X2993948Y2922016D01*
X2997809Y2921254D01*
X3001111Y2919069D01*
X3003296Y2915767D01*
X3004058Y2911856D01*
X3004058Y2855468D01*
X3003753Y2851150D01*
X3001924Y2847695D01*
X2998876Y2845155D01*
X2995168Y2843987D01*
X2990392Y2843428D01*
X2984906Y2841498D01*
X2980029Y2838450D01*
X2975914Y2834335D01*
X2972866Y2829458D01*
X2970936Y2823972D01*
X2970225Y2817672D01*
X2970225Y2705557D01*
X2970936Y2699207D01*
X2972866Y2693771D01*
X2975914Y2688894D01*
X2980029Y2684780D01*
X2984906Y2681681D01*
X2990392Y2679801D01*
X2996692Y2679090D01*
X3133242Y2679090D01*
X3144012Y2680563D01*
X3147771Y2679649D01*
X3150920Y2677464D01*
X3153003Y2674213D01*
X3153714Y2670403D01*
X3153714Y2659532D01*
X3153003Y2655773D01*
X3150920Y2652522D01*
X3147771Y2650286D01*
X3144012Y2649372D01*
X3139592Y2650185D01*
X3133242Y2650896D01*
X2996692Y2650896D01*
X2990392Y2650185D01*
X2984906Y2648254D01*
X2980029Y2645206D01*
X2975914Y2641092D01*
X2972866Y2636215D01*
X2970936Y2630728D01*
X2970225Y2624429D01*
X2970225Y2512314D01*
X2969920Y2507335D01*
X2967939Y2503728D01*
X2964637Y2501188D01*
X2960624Y2500172D01*
X2956509Y2500884D01*
X2953054Y2503170D01*
X2927705Y2528468D01*
X2925521Y2531770D01*
X2924759Y2535682D01*
X2924759Y2624429D01*
X2924048Y2630728D01*
X2922117Y2636215D01*
X2919018Y2641092D01*
X2914954Y2645206D01*
X2910027Y2648254D01*
X2904591Y2650185D01*
X2898241Y2650896D01*
X2761691Y2650896D01*
X2755392Y2650185D01*
X2749905Y2648254D01*
X2745028Y2645206D01*
X2740914Y2641092D01*
X2737866Y2636215D01*
X2735935Y2630728D01*
X2735224Y2624429D01*
X2735224Y2512314D01*
X2735935Y2505964D01*
X2737866Y2500528D01*
X2740914Y2495600D01*
X2745028Y2491536D01*
X2749905Y2488438D01*
X2755392Y2486558D01*
X2761691Y2485796D01*
X2850489Y2485796D01*
X2854350Y2485034D01*
X2857652Y2482850D01*
X2953004Y2387498D01*
X2955290Y2383993D01*
X2955950Y2379827D01*
X2954883Y2375763D01*
X2952292Y2372461D01*
X2948533Y2370531D01*
X2944368Y2370277D01*
X2934462Y2373934D01*
X2928162Y2374646D01*
X2771800Y2374646D01*
X2765501Y2373934D01*
X2760014Y2372004D01*
X2755138Y2368905D01*
X2751023Y2364841D01*
X2747975Y2359914D01*
X2746044Y2354478D01*
X2745333Y2348179D01*
X2745333Y2191816D01*
X2746044Y2185517D01*
X2747975Y2180031D01*
X2751023Y2175154D01*
X2755138Y2171039D01*
X2760014Y2167940D01*
X2765501Y2166061D01*
X2771800Y2165350D01*
X2928162Y2165350D01*
X2934462Y2166061D01*
X2939948Y2167940D01*
X2944825Y2171039D01*
X2948940Y2175154D01*
X2951988Y2180031D01*
X2953918Y2185517D01*
X2954629Y2191816D01*
X2954629Y2348179D01*
X2953918Y2354478D01*
X2950260Y2364333D01*
X2950514Y2368550D01*
X2952496Y2372258D01*
X2955747Y2374900D01*
X2959811Y2375966D01*
X2963976Y2375306D01*
X2967482Y2373020D01*
X3032353Y2308148D01*
X3034588Y2304846D01*
X3035350Y2300935D01*
X3035350Y2191816D01*
X3036062Y2185517D01*
X3037941Y2180031D01*
X3041040Y2175154D01*
X3045155Y2171039D01*
X3050032Y2167940D01*
X3055518Y2166061D01*
X3061817Y2165350D01*
X3218180Y2165350D01*
X3224479Y2166061D01*
X3229914Y2167940D01*
X3234842Y2171039D01*
X3238906Y2175154D01*
X3242005Y2180031D01*
X3243935Y2185517D01*
X3244646Y2191816D01*
X3244646Y2348179D01*
X3243935Y2354478D01*
X3242005Y2359914D01*
X3238906Y2364841D01*
X3234842Y2368905D01*
X3229914Y2372004D01*
X3224479Y2373934D01*
X3218180Y2374646D01*
X3085795Y2374646D01*
X3081883Y2375408D01*
X3078581Y2377592D01*
X2987598Y2468626D01*
X2985312Y2472080D01*
X2984601Y2476195D01*
X2985617Y2480208D01*
X2988106Y2483510D01*
X2991764Y2485542D01*
X2996692Y2485796D01*
X3133242Y2485796D01*
X3139592Y2486558D01*
X3145028Y2488438D01*
X3149955Y2491536D01*
X3154019Y2495600D01*
X3157118Y2500528D01*
X3158998Y2505862D01*
X3160877Y2509113D01*
X3163773Y2511501D01*
X3167380Y2512618D01*
X3173120Y2513330D01*
X3177794Y2514346D01*
X3182467Y2515819D01*
X3186988Y2517698D01*
X3191306Y2519934D01*
X3195421Y2522575D01*
X3199282Y2525522D01*
X3203041Y2528976D01*
X3249015Y2574950D01*
X3252470Y2578709D01*
X3255416Y2582570D01*
X3258058Y2586685D01*
X3260293Y2591003D01*
X3262172Y2595524D01*
X3263646Y2600147D01*
X3264712Y2604922D01*
X3265322Y2609748D01*
X3265576Y2614879D01*
X3265576Y2697073D01*
X3266338Y2700985D01*
X3268522Y2704287D01*
X3271824Y2706471D01*
X3275736Y2707233D01*
X3279597Y2706471D01*
X3282899Y2704287D01*
X3285083Y2700985D01*
X3286607Y2697327D01*
X3288741Y2693212D01*
X3291281Y2689250D01*
X3294126Y2685592D01*
X3297377Y2681986D01*
X3677361Y2302205D01*
X3679545Y2298903D01*
X3680358Y2295042D01*
X3680358Y2191816D01*
X3681069Y2185517D01*
X3682949Y2180031D01*
X3686048Y2175154D01*
X3690112Y2171039D01*
X3695039Y2167940D01*
X3700475Y2166061D01*
X3706825Y2165350D01*
X3863136Y2165350D01*
X3869486Y2166061D01*
X3874922Y2167940D01*
X3879850Y2171039D01*
X3883914Y2175154D01*
X3887012Y2180031D01*
X3888943Y2185517D01*
X3889654Y2191816D01*
X3889654Y2348179D01*
X3888943Y2354478D01*
X3887012Y2359914D01*
X3883914Y2364841D01*
X3879850Y2368905D01*
X3874922Y2372004D01*
X3869486Y2373934D01*
X3863136Y2374646D01*
X3760215Y2374646D01*
X3756304Y2375408D01*
X3753053Y2377592D01*
X3391408Y2739034D01*
X3389172Y2742336D01*
X3388410Y2746248D01*
X3388410Y3230016D01*
X3387902Y3236417D01*
X3387902Y3269386D01*
X3387191Y3275736D01*
X3385108Y3281629D01*
X3384550Y3284982D01*
X3385108Y3288334D01*
X3387191Y3294227D01*
X3387902Y3300577D01*
X3387902Y3313379D01*
X3354832Y3313379D01*
X3354832Y3306064D01*
X3354070Y3302152D01*
X3351885Y3298850D01*
X3348583Y3296665D01*
X3344672Y3295904D01*
X3325317Y3295904D01*
X3321405Y3296665D01*
X3318103Y3298850D01*
X3315919Y3302152D01*
X3315157Y3306064D01*
X3315157Y3313379D01*
X3282086Y3313379D01*
X3282086Y3300628D01*
X3283051Y3292805D01*
X3282696Y3288537D01*
X3280562Y3284829D01*
X3277158Y3282289D01*
X3272993Y3281375D01*
X2836062Y3281375D01*
X2832150Y3282137D01*
X2828848Y3284372D01*
X2826664Y3287674D01*
X2825902Y3291535D01*
X2825902Y3496868D01*
X2826664Y3500780D01*
X2828848Y3504082D01*
X2832150Y3506266D01*
X2836011Y3507028D01*
X2836011Y3551377D01*
X2832201Y3552240D01*
X2829001Y3554425D01*
X2826867Y3557727D01*
X2826156Y3561537D01*
X2826156Y3603447D01*
X2826867Y3607257D01*
X2829001Y3610508D01*
X2832201Y3612743D01*
X2836011Y3613607D01*
X2836011Y3638905D01*
X2836773Y3642817D01*
X2839008Y3646119D01*
X2842310Y3648303D01*
X2846171Y3649065D01*
X2853791Y3649065D01*
X2857703Y3648303D01*
X2861005Y3646119D01*
X2863189Y3642817D01*
X2863951Y3638905D01*
X2863951Y3613607D01*
X2867761Y3612743D01*
X2870962Y3610508D01*
X2873095Y3607257D01*
X2873857Y3603447D01*
X2873857Y3561537D01*
X2873095Y3557727D01*
X2870962Y3554425D01*
X2867761Y3552240D01*
X2863951Y3551377D01*
X2863951Y3507028D01*
X2870962Y3507740D01*
X2880614Y3511448D01*
X2884373Y3511448D01*
X2888538Y3509670D01*
X2893974Y3507740D01*
X2900324Y3507028D01*
X2929636Y3507028D01*
X2935986Y3507740D01*
X2945587Y3511448D01*
X2949397Y3511448D01*
X2953512Y3509670D01*
X2958998Y3507740D01*
X2965297Y3507028D01*
X2994660Y3507028D01*
X3000959Y3507740D01*
X3010611Y3511448D01*
X3014370Y3511448D01*
X3018536Y3509670D01*
X3023971Y3507740D01*
X3030321Y3507028D01*
X3059633Y3507028D01*
X3065983Y3507740D01*
X3075584Y3511448D01*
X3079394Y3511448D01*
X3083509Y3509670D01*
X3088995Y3507740D01*
X3095294Y3507028D01*
X3124657Y3507028D01*
X3130956Y3507740D01*
X3140608Y3511448D01*
X3144367Y3511448D01*
X3148533Y3509670D01*
X3154019Y3507740D01*
X3160318Y3507028D01*
X3189681Y3507028D01*
X3195980Y3507740D01*
X3201416Y3509670D01*
X3206343Y3512769D01*
X3210407Y3516833D01*
X3213506Y3521760D01*
X3215436Y3527196D01*
X3216148Y3533546D01*
X3216148Y3631437D01*
X3215436Y3637787D01*
X3213506Y3643223D01*
X3210255Y3648456D01*
X3208782Y3652469D01*
X3209086Y3656787D01*
X3211169Y3660546D01*
X3214624Y3663086D01*
X3218840Y3664000D01*
X3405174Y3664000D01*
X3409086Y3663238D01*
X3412337Y3661003D01*
X3414572Y3657752D01*
X3415334Y3653840D01*
X3415334Y3501796D01*
X3416046Y3495497D01*
X3417976Y3490010D01*
X3421024Y3485134D01*
X3425088Y3481070D01*
X3431184Y3477310D01*
X3433876Y3474872D01*
X3435553Y3471621D01*
X3436010Y3468065D01*
X3435146Y3464509D01*
X3433064Y3461512D01*
X3424428Y3452723D01*
X3418840Y3445408D01*
X3414877Y3437382D01*
X3412439Y3428796D01*
X3411575Y3419449D01*
X3411626Y2778201D01*
X3412896Y2769006D01*
X3415741Y2760573D01*
X3420059Y2752750D01*
X3426104Y2745536D01*
X3592220Y2579471D01*
X3599637Y2573883D01*
X3607612Y2569870D01*
X3616198Y2567432D01*
X3625545Y2566568D01*
X3768445Y2566619D01*
X3777640Y2567889D01*
X3786073Y2570734D01*
X3793896Y2575102D01*
X3801110Y2581097D01*
X3806901Y2586888D01*
X3810152Y2589072D01*
X3814013Y2589834D01*
X3817823Y2589123D01*
X3821125Y2586990D01*
X3823360Y2583789D01*
X3825341Y2579370D01*
X3830370Y2572004D01*
X3836720Y2565654D01*
X3844036Y2560624D01*
X3852214Y2557018D01*
X3860901Y2554986D01*
X3866337Y2554732D01*
X3869944Y2553868D01*
X3873042Y2551785D01*
X3875176Y2548686D01*
X3875989Y2545080D01*
X3876243Y2539644D01*
X3878326Y2530957D01*
X3881932Y2522778D01*
X3886962Y2515412D01*
X3893261Y2509113D01*
X3900627Y2504084D01*
X3908806Y2500477D01*
X3917492Y2498394D01*
X3922877Y2498140D01*
X3926535Y2497328D01*
X3929634Y2495194D01*
X3931716Y2492095D01*
X3932580Y2488488D01*
X3932834Y2483053D01*
X3934866Y2474366D01*
X3938473Y2466238D01*
X3943502Y2458872D01*
X3949852Y2452522D01*
X3957218Y2447493D01*
X3965346Y2443886D01*
X3974033Y2441854D01*
X3982974Y2441448D01*
X3991813Y2442667D01*
X4000246Y2445512D01*
X4008069Y2449830D01*
X4015282Y2455875D01*
X4064304Y2504846D01*
X4067556Y2507030D01*
X4071467Y2507792D01*
X4075379Y2507030D01*
X4078630Y2504846D01*
X4080865Y2501544D01*
X4081627Y2497632D01*
X4081627Y2384806D01*
X4080865Y2380894D01*
X4078630Y2377592D01*
X4075379Y2375408D01*
X4071467Y2374646D01*
X4051808Y2374646D01*
X4045508Y2373934D01*
X4040022Y2372004D01*
X4035145Y2368905D01*
X4031030Y2364841D01*
X4027982Y2359914D01*
X4026052Y2354478D01*
X4025341Y2348179D01*
X4025341Y2191816D01*
X4026052Y2185517D01*
X4027982Y2180031D01*
X4031030Y2175154D01*
X4035145Y2171039D01*
X4040022Y2167940D01*
X4045508Y2166061D01*
X4051808Y2165350D01*
X4208170Y2165350D01*
X4214469Y2166061D01*
X4219956Y2167940D01*
X4224832Y2171039D01*
X4228947Y2175154D01*
X4231995Y2180031D01*
X4233926Y2185517D01*
X4234637Y2191816D01*
X4234637Y2348179D01*
X4233926Y2354478D01*
X4231995Y2359914D01*
X4228947Y2364841D01*
X4224832Y2368905D01*
X4219956Y2372004D01*
X4214469Y2373934D01*
X4208170Y2374646D01*
X4188612Y2374646D01*
X4184700Y2375408D01*
X4181398Y2377592D01*
X4179214Y2380894D01*
X4178452Y2384806D01*
X4178452Y2507538D01*
X4179214Y2511450D01*
X4181398Y2514752D01*
X4184700Y2516936D01*
X4188612Y2517698D01*
X4192473Y2516936D01*
X4195775Y2514752D01*
X4253788Y2456738D01*
X4261002Y2450744D01*
X4268825Y2446426D01*
X4277258Y2443581D01*
X4286097Y2442311D01*
X4295038Y2442768D01*
X4303725Y2444800D01*
X4311853Y2448407D01*
X4319219Y2453436D01*
X4325569Y2459736D01*
X4330598Y2467102D01*
X4334205Y2475280D01*
X4336237Y2483967D01*
X4336491Y2489403D01*
X4337354Y2493010D01*
X4339437Y2496108D01*
X4342536Y2498191D01*
X4346194Y2499055D01*
X4351578Y2499309D01*
X4360265Y2501341D01*
X4368444Y2504948D01*
X4375810Y2510028D01*
X4382109Y2516327D01*
X4387189Y2523693D01*
X4390745Y2531821D01*
X4392828Y2540508D01*
X4393082Y2545943D01*
X4393895Y2549601D01*
X4396028Y2552649D01*
X4399127Y2554782D01*
X4402734Y2555646D01*
X4408170Y2555900D01*
X4416856Y2557932D01*
X4420717Y2559659D01*
X4380280Y2600096D01*
X4377537Y2597404D01*
X4374286Y2595219D01*
X4370374Y2594406D01*
X4366463Y2595219D01*
X4363212Y2597404D01*
X4310227Y2650337D01*
X4308043Y2653639D01*
X4307281Y2657551D01*
X4308043Y2661412D01*
X4310227Y2664714D01*
X4312970Y2667406D01*
X4272483Y2707894D01*
X4270756Y2703982D01*
X4268724Y2695295D01*
X4268470Y2689910D01*
X4267606Y2686253D01*
X4265523Y2683205D01*
X4262424Y2681071D01*
X4258818Y2680208D01*
X4253382Y2679954D01*
X4244695Y2677922D01*
X4236516Y2674315D01*
X4229150Y2669286D01*
X4222851Y2662986D01*
X4217822Y2655620D01*
X4214215Y2647442D01*
X4212132Y2638755D01*
X4211929Y2633319D01*
X4211066Y2629712D01*
X4208932Y2626614D01*
X4205884Y2624531D01*
X4202226Y2623667D01*
X4196791Y2623413D01*
X4190949Y2622042D01*
X4187291Y2621838D01*
X4183837Y2622956D01*
X4180992Y2625191D01*
X4179112Y2628341D01*
X4178452Y2631897D01*
X4178401Y2763926D01*
X4177131Y2773121D01*
X4174286Y2781604D01*
X4169918Y2789377D01*
X4163923Y2796641D01*
X3799636Y3160928D01*
X3797452Y3164179D01*
X3796639Y3168040D01*
X3797350Y3171850D01*
X3799484Y3175152D01*
X3802735Y3177387D01*
X3807155Y3179368D01*
X3814521Y3184398D01*
X3820871Y3190748D01*
X3825900Y3198114D01*
X3829507Y3206242D01*
X3831539Y3214928D01*
X3831793Y3220364D01*
X3832656Y3224022D01*
X3834739Y3227070D01*
X3837838Y3229203D01*
X3841445Y3230067D01*
X3846880Y3230270D01*
X3855567Y3232353D01*
X3859479Y3234029D01*
X3818991Y3274517D01*
X3816299Y3271824D01*
X3812997Y3269589D01*
X3809085Y3268827D01*
X3805224Y3269589D01*
X3801922Y3271824D01*
X3748989Y3324758D01*
X3746754Y3328060D01*
X3745992Y3331921D01*
X3746754Y3335832D01*
X3748989Y3339134D01*
X3751681Y3341827D01*
X3711194Y3382314D01*
X3709517Y3378403D01*
X3707434Y3369716D01*
X3707180Y3364331D01*
X3706368Y3360674D01*
X3704234Y3357575D01*
X3701135Y3355492D01*
X3697528Y3354628D01*
X3692093Y3354374D01*
X3683406Y3352342D01*
X3675227Y3348736D01*
X3667912Y3343706D01*
X3661562Y3337356D01*
X3656533Y3329990D01*
X3652926Y3321862D01*
X3650894Y3313176D01*
X3650640Y3307740D01*
X3649776Y3304082D01*
X3647694Y3301034D01*
X3644595Y3298901D01*
X3640937Y3298037D01*
X3635552Y3297834D01*
X3626865Y3295751D01*
X3618687Y3292144D01*
X3611321Y3287115D01*
X3605022Y3280816D01*
X3599942Y3273450D01*
X3596335Y3265271D01*
X3594303Y3256584D01*
X3594049Y3251149D01*
X3593185Y3247542D01*
X3591102Y3244443D01*
X3588004Y3242360D01*
X3584397Y3241497D01*
X3578961Y3241243D01*
X3570274Y3239211D01*
X3562096Y3235604D01*
X3554729Y3230575D01*
X3548430Y3224225D01*
X3543401Y3216859D01*
X3539794Y3208731D01*
X3537762Y3200044D01*
X3537356Y3191103D01*
X3538575Y3182264D01*
X3541420Y3173831D01*
X3545738Y3166008D01*
X3551732Y3158794D01*
X3635959Y3074568D01*
X3643172Y3068574D01*
X3650945Y3064256D01*
X3659428Y3061411D01*
X3668268Y3060192D01*
X3677158Y3060598D01*
X3685895Y3062630D01*
X3694023Y3066237D01*
X3701389Y3071266D01*
X3707688Y3077616D01*
X3712768Y3084931D01*
X3714699Y3089351D01*
X3716934Y3092602D01*
X3720236Y3094685D01*
X3724097Y3095447D01*
X3727907Y3094634D01*
X3731158Y3092450D01*
X4078630Y2744978D01*
X4080865Y2741676D01*
X4081627Y2737815D01*
X4081627Y2632710D01*
X4080814Y2628696D01*
X4078478Y2625344D01*
X4075023Y2623210D01*
X4071010Y2622550D01*
X4066844Y2622753D01*
X4063187Y2623616D01*
X4060139Y2625699D01*
X4058005Y2628798D01*
X4057142Y2632456D01*
X4056938Y2637840D01*
X4054856Y2646527D01*
X4051249Y2654706D01*
X4046220Y2662072D01*
X4039920Y2668371D01*
X4032554Y2673400D01*
X4024376Y2677007D01*
X4015689Y2679090D01*
X4010253Y2679344D01*
X4006646Y2680157D01*
X4003548Y2682290D01*
X4001465Y2685389D01*
X4000601Y2688996D01*
X4000347Y2694432D01*
X3998315Y2703118D01*
X3994708Y2711297D01*
X3989679Y2718612D01*
X3983329Y2724962D01*
X3975963Y2729992D01*
X3967835Y2733598D01*
X3959148Y2735630D01*
X3953713Y2735884D01*
X3950055Y2736748D01*
X3947007Y2738831D01*
X3944874Y2741930D01*
X3944010Y2745587D01*
X3943756Y2750972D01*
X3941724Y2759659D01*
X3938117Y2767838D01*
X3933088Y2775204D01*
X3926789Y2781503D01*
X3919423Y2786583D01*
X3911244Y2790190D01*
X3902557Y2792222D01*
X3897122Y2792476D01*
X3893515Y2793339D01*
X3890416Y2795422D01*
X3888333Y2798521D01*
X3887470Y2802128D01*
X3887215Y2807563D01*
X3885184Y2816250D01*
X3881577Y2824429D01*
X3876497Y2831795D01*
X3870198Y2838094D01*
X3862832Y2843123D01*
X3854704Y2846730D01*
X3846017Y2848762D01*
X3840581Y2849016D01*
X3836924Y2849880D01*
X3833876Y2852013D01*
X3831742Y2855061D01*
X3830878Y2858719D01*
X3830624Y2864104D01*
X3828592Y2872790D01*
X3824986Y2880969D01*
X3819956Y2888335D01*
X3813657Y2894634D01*
X3806291Y2899714D01*
X3798112Y2903321D01*
X3789426Y2905353D01*
X3783990Y2905607D01*
X3780383Y2906471D01*
X3777284Y2908554D01*
X3775201Y2911652D01*
X3774338Y2915259D01*
X3774084Y2920695D01*
X3772052Y2929382D01*
X3768445Y2937560D01*
X3763365Y2944926D01*
X3757066Y2951226D01*
X3749700Y2956255D01*
X3741521Y2959862D01*
X3732834Y2961894D01*
X3727450Y2962148D01*
X3723792Y2963011D01*
X3720693Y2965145D01*
X3718610Y2968193D01*
X3717747Y2971850D01*
X3717493Y2977286D01*
X3715461Y2985973D01*
X3711854Y2994101D01*
X3706825Y3001467D01*
X3700475Y3007766D01*
X3693160Y3012846D01*
X3684981Y3016453D01*
X3676294Y3018485D01*
X3667353Y3018891D01*
X3658514Y3017672D01*
X3650081Y3014827D01*
X3642258Y3010458D01*
X3635044Y3004464D01*
X3550869Y2920288D01*
X3544824Y2913075D01*
X3540506Y2905252D01*
X3537661Y2896819D01*
X3536442Y2887980D01*
X3536848Y2879039D01*
X3538880Y2870352D01*
X3542487Y2862173D01*
X3547516Y2854807D01*
X3553866Y2848508D01*
X3561232Y2843479D01*
X3569360Y2839872D01*
X3578047Y2837840D01*
X3583482Y2837586D01*
X3587140Y2836722D01*
X3590188Y2834589D01*
X3592322Y2831541D01*
X3593185Y2827883D01*
X3593439Y2822498D01*
X3595471Y2813812D01*
X3599078Y2805633D01*
X3604107Y2798267D01*
X3610406Y2791968D01*
X3617772Y2786888D01*
X3625951Y2783281D01*
X3634638Y2781249D01*
X3640074Y2780995D01*
X3643680Y2780131D01*
X3646779Y2778048D01*
X3648862Y2774950D01*
X3649726Y2771343D01*
X3649979Y2765907D01*
X3652012Y2757220D01*
X3655618Y2749042D01*
X3660698Y2741676D01*
X3666998Y2735376D01*
X3674364Y2730347D01*
X3682542Y2726740D01*
X3691229Y2724708D01*
X3696614Y2724454D01*
X3700272Y2723591D01*
X3703320Y2721457D01*
X3705453Y2718409D01*
X3706317Y2714752D01*
X3706571Y2709316D01*
X3708603Y2700629D01*
X3712210Y2692501D01*
X3717239Y2685135D01*
X3721608Y2680766D01*
X3723843Y2677464D01*
X3724605Y2673553D01*
X3723843Y2669692D01*
X3721608Y2666390D01*
X3718356Y2664155D01*
X3714445Y2663393D01*
X3649370Y2663393D01*
X3645458Y2664155D01*
X3642156Y2666390D01*
X3511346Y2797149D01*
X3509162Y2800451D01*
X3508400Y2804363D01*
X3508400Y3395726D01*
X3509162Y3399637D01*
X3511346Y3402888D01*
X3555441Y3447237D01*
X3561029Y3454654D01*
X3565042Y3462731D01*
X3566668Y3468115D01*
X3568750Y3471875D01*
X3572205Y3474415D01*
X3576421Y3475329D01*
X3598164Y3475329D01*
X3604463Y3476040D01*
X3609949Y3477971D01*
X3614826Y3481019D01*
X3618941Y3485134D01*
X3621989Y3490010D01*
X3623919Y3495497D01*
X3624630Y3501796D01*
X3624630Y3653840D01*
X3625392Y3657752D01*
X3627628Y3661003D01*
X3630929Y3663238D01*
X3634790Y3664000D01*
X3871417Y3664000D01*
X3875074Y3663340D01*
X3878224Y3661410D01*
X3880459Y3658463D01*
X3881526Y3654907D01*
X3881221Y3651199D01*
X3879494Y3644798D01*
X3878630Y3634994D01*
X3879494Y3625189D01*
X3882034Y3615740D01*
X3886200Y3606800D01*
X3891838Y3598773D01*
X3898747Y3591814D01*
X3900271Y3590798D01*
X3902964Y3588004D01*
X3904437Y3584346D01*
X3904386Y3580485D01*
X3902913Y3576878D01*
X3900170Y3574084D01*
X3894175Y3569970D01*
X3887825Y3563670D01*
X3882796Y3556304D01*
X3879189Y3548126D01*
X3877157Y3539439D01*
X3876903Y3534003D01*
X3876040Y3530396D01*
X3873957Y3527298D01*
X3870858Y3525215D01*
X3867251Y3524351D01*
X3861815Y3524097D01*
X3853129Y3522065D01*
X3844950Y3518458D01*
X3837584Y3513378D01*
X3831285Y3507079D01*
X3826256Y3499713D01*
X3822649Y3491534D01*
X3820566Y3482848D01*
X3820363Y3477463D01*
X3819499Y3473805D01*
X3817365Y3470706D01*
X3814318Y3468624D01*
X3810660Y3467760D01*
X3805224Y3467506D01*
X3796537Y3465474D01*
X3788410Y3461867D01*
X3781044Y3456838D01*
X3774694Y3450488D01*
X3769664Y3443173D01*
X3766058Y3434994D01*
X3764026Y3426307D01*
X3763772Y3420872D01*
X3762908Y3417265D01*
X3760825Y3414166D01*
X3757726Y3412032D01*
X3754069Y3411220D01*
X3748684Y3410965D01*
X3739997Y3408883D01*
X3736086Y3407206D01*
X3776573Y3366719D01*
X3779265Y3369411D01*
X3782568Y3371646D01*
X3786479Y3372408D01*
X3790340Y3371646D01*
X3793642Y3369411D01*
X3846576Y3316478D01*
X3848811Y3313176D01*
X3849573Y3309315D01*
X3848811Y3305403D01*
X3846576Y3302101D01*
X3843883Y3299409D01*
X3884371Y3258921D01*
X3886047Y3262833D01*
X3888130Y3271520D01*
X3888333Y3276955D01*
X3889197Y3280562D01*
X3891330Y3283661D01*
X3894378Y3285744D01*
X3898036Y3286607D01*
X3903472Y3286861D01*
X3912158Y3288893D01*
X3920286Y3292500D01*
X3927652Y3297529D01*
X3934002Y3303879D01*
X3939032Y3311245D01*
X3942638Y3319373D01*
X3944670Y3328060D01*
X3944924Y3333496D01*
X3945788Y3337153D01*
X3947871Y3340201D01*
X3950970Y3342335D01*
X3954627Y3343198D01*
X3960012Y3343452D01*
X3968699Y3345484D01*
X3976878Y3349091D01*
X3984244Y3354120D01*
X3990543Y3360420D01*
X3995572Y3367786D01*
X3997553Y3372256D01*
X3999788Y3375456D01*
X4003090Y3377590D01*
X4006951Y3378301D01*
X4010761Y3377488D01*
X4014012Y3375304D01*
X4158589Y3230778D01*
X4160774Y3227476D01*
X4161586Y3223564D01*
X4161637Y2906522D01*
X4162907Y2897327D01*
X4165752Y2888894D01*
X4170070Y2881071D01*
X4176064Y2873857D01*
X4300626Y2749346D01*
X4302810Y2746095D01*
X4303572Y2742234D01*
X4302861Y2738374D01*
X4300728Y2735072D01*
X4297375Y2732786D01*
X4337862Y2692298D01*
X4340555Y2695041D01*
X4343857Y2697226D01*
X4347718Y2697988D01*
X4351629Y2697226D01*
X4354931Y2695041D01*
X4407865Y2642057D01*
X4410049Y2638755D01*
X4410811Y2634894D01*
X4410049Y2630982D01*
X4407865Y2627680D01*
X4405172Y2624988D01*
X4448098Y2582062D01*
X4452112Y2582214D01*
X4455922Y2580792D01*
X4458868Y2578049D01*
X4461814Y2573782D01*
X4468774Y2566822D01*
X4476800Y2561183D01*
X4485741Y2557068D01*
X4495190Y2554528D01*
X4504994Y2553665D01*
X4514799Y2554528D01*
X4524248Y2557068D01*
X4533188Y2561183D01*
X4541215Y2566822D01*
X4548174Y2573782D01*
X4553813Y2581808D01*
X4557928Y2590749D01*
X4560468Y2600198D01*
X4561332Y2610002D01*
X4560468Y2619806D01*
X4557928Y2629255D01*
X4553813Y2638196D01*
X4548174Y2646222D01*
X4541215Y2653182D01*
X4535982Y2656840D01*
X4533036Y2659989D01*
X4531715Y2664002D01*
X4532122Y2668270D01*
X4534509Y2672130D01*
X4493412Y2713228D01*
X4490669Y2710535D01*
X4487418Y2708300D01*
X4483506Y2707538D01*
X4479594Y2708300D01*
X4476343Y2710535D01*
X4423359Y2763469D01*
X4421174Y2766771D01*
X4420412Y2770682D01*
X4421174Y2774543D01*
X4423359Y2777845D01*
X4426102Y2780538D01*
X4385614Y2821025D01*
X4383328Y2817672D01*
X4380026Y2815539D01*
X4376166Y2814828D01*
X4372305Y2815590D01*
X4369054Y2817774D01*
X4261358Y2925470D01*
X4259173Y2928772D01*
X4258411Y2932684D01*
X4258411Y2993288D01*
X4259173Y2997149D01*
X4261358Y3000451D01*
X4264660Y3002686D01*
X4268571Y3003448D01*
X4272432Y3002686D01*
X4275734Y3000451D01*
X4413758Y2862478D01*
X4415942Y2859227D01*
X4416704Y2855366D01*
X4415993Y2851505D01*
X4413859Y2848203D01*
X4410506Y2845917D01*
X4450994Y2805430D01*
X4453686Y2808173D01*
X4456988Y2810357D01*
X4460849Y2811119D01*
X4464761Y2810357D01*
X4468063Y2808173D01*
X4520996Y2755188D01*
X4523181Y2751886D01*
X4523994Y2748026D01*
X4523181Y2744114D01*
X4520996Y2740863D01*
X4518304Y2738120D01*
X4559808Y2696616D01*
X4563465Y2698242D01*
X4567428Y2698343D01*
X4571187Y2696921D01*
X4574032Y2694178D01*
X4577435Y2689352D01*
X4584344Y2682392D01*
X4592421Y2676753D01*
X4601311Y2672638D01*
X4610811Y2670098D01*
X4620615Y2669235D01*
X4630369Y2670098D01*
X4639868Y2672638D01*
X4648758Y2676753D01*
X4656836Y2682392D01*
X4663744Y2689352D01*
X4671669Y2700782D01*
X4674616Y2702814D01*
X4678070Y2703728D01*
X4681626Y2703372D01*
X4690567Y2700782D01*
X4699965Y2699918D01*
X4744008Y2699918D01*
X4747869Y2699156D01*
X4751171Y2696972D01*
X4753356Y2693670D01*
X4754168Y2689758D01*
X4754168Y2637180D01*
X4754880Y2630881D01*
X4756759Y2625394D01*
X4759858Y2620518D01*
X4763922Y2616403D01*
X4768850Y2613304D01*
X4774285Y2611424D01*
X4780635Y2610713D01*
X4809642Y2610713D01*
X4813808Y2609799D01*
X4817262Y2607259D01*
X4822139Y2601671D01*
X4951222Y2472639D01*
X4958943Y2466035D01*
X4967528Y2460853D01*
X4974894Y2457805D01*
X4976926Y2457145D01*
X4986731Y2455062D01*
X4994808Y2454554D01*
X5010861Y2454554D01*
X5013655Y2454148D01*
X5016754Y2452674D01*
X5022240Y2450795D01*
X5030063Y2450084D01*
X5033924Y2449271D01*
X5037226Y2447086D01*
X5112207Y2372106D01*
X5119928Y2365502D01*
X5126685Y2361285D01*
X5135930Y2357323D01*
X5137912Y2356662D01*
X5145684Y2354884D01*
X5147767Y2354580D01*
X5155793Y2354072D01*
X5308904Y2354072D01*
X5312816Y2353310D01*
X5316118Y2351074D01*
X5318302Y2347772D01*
X5319064Y2343912D01*
X5319064Y2165553D01*
X5319776Y2159203D01*
X5321706Y2153767D01*
X5324754Y2148890D01*
X5332323Y2141524D01*
X5333847Y2137460D01*
X5333593Y2133142D01*
X5331510Y2129332D01*
X5328056Y2126742D01*
X5323789Y2125776D01*
G37*

%LPC*%
G36*
X868832Y2159050D02*
G01*
X909421Y2159050D01*
X915720Y2159762D01*
X921207Y2161692D01*
X926084Y2164791D01*
X930198Y2168855D01*
X933297Y2173782D01*
X935177Y2179218D01*
X935888Y2185517D01*
X935888Y2228596D01*
X868832Y2228596D01*
G37*
G36*
X3485692Y2165350D02*
G01*
X3518154Y2165350D01*
X3524504Y2166061D01*
X3529939Y2167940D01*
X3534816Y2171039D01*
X3538931Y2175154D01*
X3542029Y2180031D01*
X3543909Y2185517D01*
X3544620Y2191816D01*
X3544620Y2224278D01*
X3485692Y2224278D01*
G37*
G36*
X3361842Y2165350D02*
G01*
X3394252Y2165350D01*
X3394252Y2224278D01*
X3335324Y2224278D01*
X3335324Y2191816D01*
X3336036Y2185517D01*
X3337966Y2180031D01*
X3341065Y2175154D01*
X3345129Y2171039D01*
X3350056Y2167940D01*
X3355492Y2166061D01*
G37*
G36*
X2481834Y2165350D02*
G01*
X2638145Y2165350D01*
X2644495Y2166061D01*
X2649931Y2167940D01*
X2654858Y2171039D01*
X2658922Y2175154D01*
X2662021Y2180031D01*
X2663901Y2185517D01*
X2664612Y2191816D01*
X2664612Y2348179D01*
X2663901Y2354478D01*
X2662021Y2359914D01*
X2658922Y2364841D01*
X2654858Y2368905D01*
X2649931Y2372004D01*
X2644495Y2373934D01*
X2638145Y2374646D01*
X2481834Y2374646D01*
X2475484Y2373934D01*
X2470048Y2372004D01*
X2465120Y2368905D01*
X2461056Y2364841D01*
X2457958Y2359914D01*
X2456027Y2354478D01*
X2455316Y2348179D01*
X2455316Y2191816D01*
X2456027Y2185517D01*
X2457958Y2180031D01*
X2461056Y2175154D01*
X2465120Y2171039D01*
X2470048Y2167940D01*
X2475484Y2166061D01*
G37*
G36*
X3335324Y2315718D02*
G01*
X3394252Y2315718D01*
X3394252Y2374646D01*
X3361842Y2374646D01*
X3355492Y2373934D01*
X3350056Y2372004D01*
X3345129Y2368905D01*
X3341065Y2364841D01*
X3337966Y2359914D01*
X3336036Y2354478D01*
X3335324Y2348179D01*
G37*
G36*
X3485692Y2315718D02*
G01*
X3544620Y2315718D01*
X3544620Y2348179D01*
X3543909Y2354478D01*
X3542029Y2359914D01*
X3538931Y2364841D01*
X3534816Y2368905D01*
X3529939Y2372004D01*
X3524504Y2373934D01*
X3518154Y2374646D01*
X3485692Y2374646D01*
G37*
G36*
X868832Y2341321D02*
G01*
X935888Y2341321D01*
X935888Y2384399D01*
X935177Y2390698D01*
X933297Y2396185D01*
X930198Y2401062D01*
X926084Y2405176D01*
X921207Y2408275D01*
X915720Y2410155D01*
X909421Y2410866D01*
X868832Y2410866D01*
G37*
G36*
X2361336Y2454097D02*
G01*
X2384399Y2454097D01*
X2390749Y2454808D01*
X2396185Y2456738D01*
X2401112Y2459786D01*
X2405176Y2463901D01*
X2408275Y2468778D01*
X2410206Y2474264D01*
X2410917Y2480564D01*
X2410917Y2498648D01*
X2361336Y2498648D01*
G37*
G36*
X2265578Y2454097D02*
G01*
X2288641Y2454097D01*
X2288641Y2498648D01*
X2239060Y2498648D01*
X2239060Y2480564D01*
X2239772Y2474264D01*
X2241702Y2468778D01*
X2244801Y2463901D01*
X2248865Y2459786D01*
X2253792Y2456738D01*
X2259228Y2454808D01*
G37*
G36*
X2761691Y2679090D02*
G01*
X2898241Y2679090D01*
X2904591Y2679801D01*
X2910027Y2681681D01*
X2914954Y2684780D01*
X2919018Y2688894D01*
X2922117Y2693771D01*
X2924048Y2699207D01*
X2924759Y2705557D01*
X2924759Y2817672D01*
X2924048Y2823972D01*
X2922117Y2829458D01*
X2919069Y2834335D01*
X2917647Y2837840D01*
X2917647Y2841650D01*
X2919069Y2845155D01*
X2921609Y2847949D01*
X2925013Y2849575D01*
X2934258Y2852064D01*
X2943199Y2856179D01*
X2951226Y2861818D01*
X2958185Y2868777D01*
X2963824Y2876804D01*
X2967939Y2885744D01*
X2970479Y2895193D01*
X2971342Y2904998D01*
X2970479Y2914802D01*
X2967939Y2924251D01*
X2966974Y2926384D01*
X2966008Y2930702D01*
X2966008Y2966364D01*
X2962198Y2967228D01*
X2958998Y2969463D01*
X2956864Y2972714D01*
X2956153Y2976524D01*
X2956153Y3018434D01*
X2956864Y3022244D01*
X2958998Y3025495D01*
X2962198Y3027730D01*
X2966008Y3028594D01*
X2966008Y3072892D01*
X2958998Y3072180D01*
X2949397Y3068523D01*
X2945587Y3068523D01*
X2941421Y3070301D01*
X2935986Y3072180D01*
X2929636Y3072892D01*
X2900324Y3072892D01*
X2893974Y3072180D01*
X2884373Y3068523D01*
X2880614Y3068523D01*
X2876448Y3070301D01*
X2870962Y3072180D01*
X2864662Y3072892D01*
X2835300Y3072892D01*
X2829001Y3072180D01*
X2819400Y3068523D01*
X2815590Y3068523D01*
X2811424Y3070301D01*
X2805988Y3072180D01*
X2798978Y3072892D01*
X2798978Y3028594D01*
X2802737Y3027730D01*
X2805938Y3025495D01*
X2808071Y3022244D01*
X2808833Y3018434D01*
X2808833Y2976524D01*
X2808071Y2972714D01*
X2805938Y2969463D01*
X2802737Y2967228D01*
X2798978Y2966364D01*
X2798978Y2922016D01*
X2802839Y2921254D01*
X2806141Y2919069D01*
X2808325Y2915767D01*
X2809087Y2911856D01*
X2809087Y2861157D01*
X2808325Y2857246D01*
X2806090Y2853944D01*
X2800248Y2847848D01*
X2796743Y2845104D01*
X2792425Y2844139D01*
X2761691Y2844139D01*
X2755392Y2843428D01*
X2749905Y2841498D01*
X2745028Y2838450D01*
X2740914Y2834335D01*
X2737866Y2829458D01*
X2735935Y2823972D01*
X2735224Y2817672D01*
X2735224Y2705557D01*
X2735935Y2699207D01*
X2737866Y2693771D01*
X2740914Y2688894D01*
X2745028Y2684780D01*
X2749905Y2681681D01*
X2755392Y2679801D01*
G37*
G36*
X2771038Y2922016D02*
G01*
X2771038Y2966364D01*
X2743860Y2966364D01*
X2743860Y2948533D01*
X2744571Y2942183D01*
X2746451Y2936748D01*
X2749550Y2931820D01*
X2753614Y2927756D01*
X2758541Y2924657D01*
X2763977Y2922778D01*
G37*
G36*
X3188970Y2922016D02*
G01*
X3195980Y2922778D01*
X3201416Y2924657D01*
X3206343Y2927756D01*
X3210407Y2931820D01*
X3213506Y2936748D01*
X3215436Y2942183D01*
X3216148Y2948533D01*
X3216148Y2966364D01*
X3188970Y2966364D01*
G37*
G36*
X3188970Y3028594D02*
G01*
X3216148Y3028594D01*
X3216148Y3046425D01*
X3215436Y3052775D01*
X3213506Y3058210D01*
X3210407Y3063138D01*
X3206343Y3067202D01*
X3201416Y3070301D01*
X3195980Y3072180D01*
X3188970Y3072892D01*
G37*
G36*
X2743860Y3028594D02*
G01*
X2771038Y3028594D01*
X2771038Y3072892D01*
X2763977Y3072180D01*
X2758541Y3070301D01*
X2753614Y3067202D01*
X2749550Y3063138D01*
X2746451Y3058210D01*
X2744571Y3052775D01*
X2743860Y3046425D01*
G37*
G36*
X2486710Y3260801D02*
G01*
X2623261Y3260801D01*
X2629611Y3261512D01*
X2635046Y3263442D01*
X2639974Y3266541D01*
X2644038Y3270605D01*
X2647137Y3275533D01*
X2649016Y3280968D01*
X2649728Y3287318D01*
X2649728Y3399434D01*
X2649016Y3405733D01*
X2647137Y3411220D01*
X2644038Y3416096D01*
X2639974Y3420211D01*
X2635046Y3423259D01*
X2629611Y3425190D01*
X2623261Y3425901D01*
X2486710Y3425901D01*
X2480411Y3425190D01*
X2474925Y3423259D01*
X2470048Y3420211D01*
X2463393Y3413099D01*
X2460396Y3411474D01*
X2457043Y3410864D01*
X2421077Y3410864D01*
X2417165Y3411677D01*
X2413863Y3413861D01*
X2411679Y3417163D01*
X2410917Y3421024D01*
X2410917Y3494430D01*
X2410206Y3500729D01*
X2408986Y3504133D01*
X2408428Y3507486D01*
X2408986Y3510838D01*
X2410206Y3514242D01*
X2410917Y3520541D01*
X2410917Y3579418D01*
X2410206Y3585718D01*
X2408275Y3591204D01*
X2405176Y3596081D01*
X2401112Y3600196D01*
X2396185Y3603294D01*
X2390749Y3605174D01*
X2384399Y3605885D01*
X2265578Y3605885D01*
X2259228Y3605174D01*
X2253792Y3603294D01*
X2248865Y3600196D01*
X2244801Y3596081D01*
X2241702Y3591204D01*
X2239772Y3585718D01*
X2239060Y3579418D01*
X2239060Y3520541D01*
X2239772Y3514242D01*
X2240991Y3510838D01*
X2241550Y3507486D01*
X2240991Y3504133D01*
X2239772Y3500729D01*
X2239060Y3494430D01*
X2239060Y3415537D01*
X2239772Y3409238D01*
X2241854Y3403346D01*
X2242413Y3399993D01*
X2241854Y3396640D01*
X2239772Y3390747D01*
X2239060Y3384397D01*
X2239060Y3305556D01*
X2239772Y3299256D01*
X2241854Y3293364D01*
X2242413Y3290011D01*
X2241854Y3286658D01*
X2239772Y3280765D01*
X2239060Y3274415D01*
X2239060Y3261360D01*
X2288641Y3261360D01*
X2288641Y3268929D01*
X2289403Y3272790D01*
X2291638Y3276092D01*
X2294890Y3278327D01*
X2298801Y3279089D01*
X2351176Y3279089D01*
X2355088Y3278327D01*
X2358339Y3276092D01*
X2360574Y3272790D01*
X2361336Y3268929D01*
X2361336Y3261360D01*
X2410917Y3261360D01*
X2410917Y3268878D01*
X2411679Y3272790D01*
X2413863Y3276092D01*
X2417165Y3278276D01*
X2421077Y3279038D01*
X2455011Y3279038D01*
X2458364Y3278479D01*
X2461361Y3276854D01*
X2463596Y3274314D01*
X2465933Y3270605D01*
X2470048Y3266541D01*
X2474925Y3263442D01*
X2480411Y3261512D01*
G37*
G36*
X3282086Y3365601D02*
G01*
X3315157Y3365601D01*
X3315157Y3404920D01*
X3308553Y3404920D01*
X3302254Y3404209D01*
X3296767Y3402279D01*
X3291890Y3399180D01*
X3287776Y3395116D01*
X3284677Y3390188D01*
X3282797Y3384753D01*
X3282086Y3378403D01*
G37*
G36*
X3354832Y3365601D02*
G01*
X3387902Y3365601D01*
X3387902Y3378403D01*
X3387191Y3384753D01*
X3385261Y3390188D01*
X3382213Y3395116D01*
X3378098Y3399180D01*
X3373221Y3402279D01*
X3367735Y3404209D01*
X3361436Y3404920D01*
X3354832Y3404920D01*
G37*
G36*
X1235557Y3554069D02*
G01*
X1248613Y3554069D01*
X1248613Y3611118D01*
X1209090Y3611118D01*
X1209090Y3580536D01*
X1209802Y3574237D01*
X1211681Y3568750D01*
X1214780Y3563874D01*
X1218895Y3559759D01*
X1223772Y3556711D01*
X1229258Y3554780D01*
G37*
G36*
X1301343Y3554069D02*
G01*
X1314399Y3554069D01*
X1320749Y3554780D01*
X1326184Y3556711D01*
X1331112Y3559759D01*
X1335176Y3563874D01*
X1338275Y3568750D01*
X1340205Y3574237D01*
X1340916Y3580536D01*
X1340916Y3611118D01*
X1301343Y3611118D01*
G37*
G36*
X936345Y3554069D02*
G01*
X999439Y3554069D01*
X1005738Y3554780D01*
X1011224Y3556711D01*
X1016101Y3559759D01*
X1020216Y3563874D01*
X1023264Y3568750D01*
X1025194Y3574237D01*
X1025906Y3580536D01*
X1025906Y3611118D01*
X936345Y3611118D01*
G37*

%LPD*%
G36*
X4024985Y8769959D02*
G01*
X4024985Y8630005D01*
X4119981Y8725001D01*
G37*
G36*
X3694988Y8894978D02*
G01*
X3639972Y8839962D01*
X3634994Y8319973D01*
X3690010Y8269986D01*
X3944975Y8269986D01*
X4030014Y8325002D01*
X4030014Y8589975D01*
X3859987Y8525002D01*
X3699967Y8595004D01*
X3699967Y8769959D01*
X3734968Y8804960D01*
X3985006Y8804960D01*
X4024985Y8725001D01*
X4224985Y8725001D01*
X4220006Y8894978D01*
G37*
G36*
X1414983Y6914997D02*
G01*
X1115009Y6874967D01*
X1039977Y6604965D01*
X1239977Y6604965D01*
X1490014Y6354978D01*
X1550009Y6404965D01*
X1414983Y6539992D01*
G37*
G36*
X1140002Y8700008D02*
G01*
X1019505Y8698484D01*
X1020013Y8560003D01*
X1100023Y8479993D01*
X1100023Y8019999D01*
X1140002Y7980019D01*
X1550974Y7980984D01*
X1570990Y8011007D01*
X1570024Y8019999D01*
X1573022Y8027009D01*
X1560017Y8040014D01*
X1532991Y8069986D01*
X1379982Y8069986D01*
X1350010Y8100009D01*
X1350010Y8170011D01*
X1379982Y8199983D01*
X1554988Y8199983D01*
X1599996Y8239963D01*
X1680006Y8239963D01*
X1709978Y8274964D01*
X1709978Y8395004D01*
X1665020Y8439962D01*
X1420012Y8440013D01*
G37*
G36*
X2094992Y8184997D02*
G01*
X2049983Y8139988D01*
X2049983Y7909966D01*
X1975002Y7834985D01*
X1969973Y6574993D01*
X1934972Y6539992D01*
X1859991Y6479997D01*
X1859991Y6459982D01*
X1909978Y6409994D01*
X1909978Y6109970D01*
X2049983Y6109970D01*
X2094992Y6065012D01*
X2094992Y5985002D01*
X2175002Y5985002D01*
X2175002Y6065012D01*
X2224989Y6114999D01*
X2300020Y6114999D01*
X2319985Y6134963D01*
X2325014Y6364986D01*
X2325014Y7574991D01*
X2414981Y7665008D01*
X2414981Y7929981D01*
X2550007Y8064957D01*
X2550007Y8184997D01*
G37*
G36*
X1375003Y7455001D02*
G01*
X1375003Y7379970D01*
X1480007Y7379970D01*
X1564995Y7294981D01*
X1564995Y7230008D01*
X1484985Y7149998D01*
X1389989Y7149998D01*
X1395018Y7074966D01*
X1484985Y7074966D01*
X1550009Y7009993D01*
X1550009Y6809994D01*
X1480007Y6749999D01*
X1480007Y6510020D01*
X1540002Y6479997D01*
X1579981Y6520027D01*
X1579981Y6690004D01*
X1779981Y6884974D01*
X1779981Y7430008D01*
X1754987Y7455001D01*
G37*
G36*
X2094992Y8774988D02*
G01*
X2039975Y8719972D01*
X2039975Y8434984D01*
X2164994Y8430006D01*
X2350008Y8269986D01*
X2550007Y8459978D01*
X2550007Y8719972D01*
X2494991Y8774988D01*
G37*
G36*
X2865018Y8774988D02*
G01*
X2789986Y8699957D01*
X2789986Y8395004D01*
X2729992Y8334959D01*
X2684983Y8334959D01*
X2630017Y8279993D01*
X2630017Y8059978D01*
X2699969Y7989976D01*
X2810002Y7929981D01*
X2814980Y7989976D01*
X2865018Y8039963D01*
X2999994Y8040014D01*
X3144977Y8184997D01*
X3144977Y8369960D01*
X3220008Y8444992D01*
X3304997Y8444992D01*
X3399993Y8539988D01*
X3399993Y8774988D01*
G37*
G36*
X3329990Y8774988D02*
G01*
X3360013Y8704986D01*
X3210001Y8539988D01*
X3259988Y8490000D01*
X3350006Y8490000D01*
X3395014Y8534958D01*
X3529990Y8534958D01*
X3560013Y8564981D01*
X3560013Y8744966D01*
X3529990Y8774988D01*
G37*
G36*
X2925013Y7900009D02*
G01*
X2855010Y7830007D01*
X2585008Y7824978D01*
X2509977Y7749997D01*
X2509977Y7639964D01*
X2430018Y7560005D01*
X2424988Y6310020D01*
X2424988Y5690006D01*
X2475026Y5640019D01*
X2899968Y5639968D01*
X2950006Y5690006D01*
X2954985Y6944969D01*
X2960014Y7374991D01*
X2999994Y7414971D01*
X2999994Y7779969D01*
X3034995Y7814970D01*
X3034995Y7900009D01*
G37*
G36*
X2989986Y7589977D02*
G01*
X2999994Y7519974D01*
X3030016Y7549997D01*
X3030016Y7552486D01*
X2992475Y7589977D01*
G37*
G36*
X1350010Y7725003D02*
G01*
X1185011Y7694980D01*
X1294993Y7584998D01*
X1414983Y7584998D01*
X1509979Y7674965D01*
G37*
G36*
X1325016Y6999986D02*
G01*
X1199997Y6874967D01*
X1414983Y6824980D01*
X1414983Y6969963D01*
G37*
G36*
X963371Y6240018D02*
G01*
X839978Y6199987D01*
X870000Y6170015D01*
X940003Y6170015D01*
X963371Y6193383D01*
G37*
G36*
X923391Y6825488D02*
G01*
X1020013Y6570014D01*
X1179982Y6729984D01*
X1084529Y6825488D01*
G37*
G36*
X923086Y8009483D02*
G01*
X923391Y8009178D01*
X923391Y7779512D01*
X1170025Y7869986D01*
X1030478Y8009483D01*
G37*
G36*
X3704996Y6544970D02*
G01*
X3704996Y6494983D01*
X3774998Y6424980D01*
X4164990Y6424980D01*
X4234992Y6495745D01*
X4185716Y6544970D01*
G37*
G36*
X1715007Y7869986D02*
G01*
X1709978Y7634986D01*
X1715007Y7630007D01*
X1715007Y7599984D01*
X1824989Y7599984D01*
X1865020Y7639964D01*
X1865020Y7830007D01*
X1824989Y7869986D01*
G37*
G36*
X1540002Y8164982D02*
G01*
X1538020Y8107984D01*
X1905000Y8109966D01*
X1905000Y8164982D01*
G37*
G36*
X3820007Y6459982D02*
G01*
X3725011Y6395008D01*
X3754983Y6350000D01*
X3799992Y6344970D01*
X3880002Y6424980D01*
X3880002Y6455003D01*
X3824986Y6459982D01*
G37*
G36*
X3639972Y8474964D02*
G01*
X3564991Y8399983D01*
X3589985Y8374989D01*
X3694988Y8374989D01*
G37*
G36*
X2834995Y5890006D02*
G01*
X2820009Y5799988D01*
X2869996Y5799988D01*
X2925013Y5804966D01*
X3010001Y5720029D01*
X3010001Y5789980D01*
X2950006Y5849975D01*
X2894990Y5879998D01*
G37*
G36*
X4595012Y7379970D02*
G01*
X4499965Y7214971D01*
X4550003Y7164984D01*
X4550003Y6694982D01*
X4504994Y6649974D01*
X4504994Y6374993D01*
X4669993Y6539992D01*
X4669993Y7255002D01*
X4595012Y7329982D01*
G37*
G36*
X4509973Y6539992D02*
G01*
X4474972Y6504990D01*
X4544974Y6539992D01*
G37*
G36*
X4344974Y6455003D02*
G01*
X4344974Y6429959D01*
X4399991Y6374993D01*
X4504994Y6374993D01*
X4504994Y6449974D01*
G37*
G36*
X3604971Y7792466D02*
G01*
X3579977Y7767472D01*
X3719982Y7767472D01*
X3694988Y7792466D01*
G37*
G36*
X5374995Y6554978D02*
G01*
X5374995Y6522974D01*
X5406999Y6522974D01*
G37*
D11*
X5478272Y6473189D02*
G01*
X5245100Y6473189D01*
X5245100Y6430010D01*
D12*
X5245100Y6430010D02*
G01*
X5184902Y6370065D01*
X5184902Y6204965D01*
D13*
X3183384Y7384999D02*
G01*
X3059988Y7261605D01*
X3059988Y7154976D01*
D14*
X4769865Y7800086D02*
G01*
X4769990Y7799961D01*
X4769990Y6564985D01*
D15*
X4238630Y6969958D02*
G01*
X4109994Y6841322D01*
X4109994Y6794240D01*
D14*
X3684996Y6889986D02*
G01*
X3759987Y6964977D01*
X3759987Y7034987D01*
D16*
X3774950Y6717537D02*
G01*
X3774950Y6830057D01*
X3899992Y6955099D01*
X3899992Y7034987D01*
D17*
X3649985Y7682489D02*
G01*
X3737495Y7682489D01*
X3799992Y7744985D01*
X3799992Y7824978D01*
X3189991Y7682489D02*
G01*
X3107491Y7682489D01*
X3074995Y7714985D01*
X3074995Y7788348D01*
X3171629Y7884982D01*
X3189991Y7747487D02*
G01*
X3292490Y7747487D01*
X3376620Y7663357D01*
X3376620Y7384986D01*
X3062986Y7617968D02*
G01*
X3189986Y7617460D01*
X3649992Y8019983D02*
G01*
X3724993Y8019983D01*
X3799992Y7944985D01*
X3799992Y7824983D01*
D18*
X3929888Y7250684D02*
G01*
X4190745Y7250684D01*
X4284979Y7344918D01*
X4284979Y7539989D01*
D19*
X1225042Y5775070D02*
G01*
X1350124Y5649988D01*
X1915335Y5649988D01*
X2134997Y5869650D01*
X1954997Y5954651D02*
G01*
X1954997Y5884986D01*
X1840001Y5769990D01*
X1730019Y5769990D01*
X3314979Y6522491D02*
G01*
X3254984Y6462496D01*
X3254984Y6444995D01*
X3254984Y6444995D02*
G01*
X3314979Y6504990D01*
X3314979Y6522491D01*
D20*
X3544989Y6619991D02*
G01*
X3759992Y6619991D01*
D12*
X5519988Y7874982D02*
G01*
X5289958Y7874982D01*
X5244970Y7829994D01*
X4134993Y5769988D02*
G01*
X4179991Y5724989D01*
X4985001Y5724989D01*
D14*
X4485002Y6204999D02*
G01*
X4769990Y6489987D01*
X4769990Y6644419D01*
X4910074Y7940039D02*
G01*
X4769865Y7800086D01*
X4720081Y7849870D01*
X4720081Y7875015D01*
D11*
X5244970Y6429971D02*
G01*
X5244970Y6264968D01*
X5185001Y6204999D01*
X5478195Y6473212D02*
G01*
X5209981Y6204999D01*
X5185001Y6204999D01*
X5185001Y6204999D02*
G01*
X5299981Y6204999D01*
X5478195Y6383213D01*
X5478195Y6383213D02*
G01*
X5431436Y6429971D01*
X5244970Y6429971D01*
X5478198Y6383213D02*
G01*
X5478198Y6473210D01*
X5583196Y6383213D02*
G01*
X5478198Y6383213D01*
X5583196Y6473210D02*
G01*
X5583196Y6383213D01*
X5478198Y6473210D02*
G01*
X5583196Y6473210D01*
D21*
X5519927Y8184895D02*
G01*
X5154929Y8184895D01*
X4910074Y7940039D01*
X4634991Y7940039D01*
D22*
X4574997Y8809989D02*
G01*
X4659988Y8894980D01*
X5254990Y8894980D01*
X5344988Y8804983D01*
X5519988Y8804983D01*
D14*
X3259993Y6299987D02*
G01*
X3097987Y6299977D01*
D23*
X4159991Y6969986D02*
G01*
X4159991Y7069983D01*
X4414992Y6969986D02*
G01*
X4414992Y7069985D01*
X4414992Y7069985D02*
G01*
X4159994Y7069985D01*
D22*
X3784993Y5769988D02*
G01*
X3784993Y6079987D01*
D23*
X3531997Y6349987D02*
G01*
X3384994Y6202984D01*
X3384994Y6079987D01*
X3384997Y6079987D02*
G01*
X3304994Y5999987D01*
X3154248Y5999987D01*
D11*
X3100070Y6503415D02*
G01*
X3098038Y6299962D01*
D20*
X3314954Y6587489D02*
G01*
X3407409Y6587489D01*
X3439922Y6620002D01*
X3545077Y6620002D01*
D15*
X3759992Y6619986D02*
G01*
X3904995Y6620002D01*
X4079240Y6794245D01*
X4109974Y6794245D01*
D18*
X4284995Y7939994D02*
G01*
X4284995Y7984980D01*
X3894993Y8374981D01*
D19*
X3649985Y7617465D02*
G01*
X3881767Y7617465D01*
X3929999Y7569233D01*
D14*
X3238360Y8084980D02*
G01*
X3171629Y8018249D01*
X3171629Y7884982D01*
D11*
X3949971Y7779974D02*
G01*
X4029981Y7779974D01*
X3949969Y7779984D02*
G01*
X3949969Y7859984D01*
X4029976Y7939986D02*
G01*
X3949969Y7939986D01*
X4029976Y7779984D02*
G01*
X4029976Y7859984D01*
X4029976Y7939986D02*
G01*
X4029976Y7859984D01*
X3949969Y7859984D02*
G01*
X3949969Y7939986D01*
D18*
X3939992Y7249985D02*
G01*
X3739332Y7249985D01*
X3650178Y7339139D01*
X3650178Y7499413D01*
D11*
X3431540Y8085073D02*
G01*
X3435095Y8088376D01*
X3435095Y8199881D01*
X3595115Y8359902D01*
X3739895Y8359902D01*
D20*
X3189991Y7552466D02*
G01*
X2797512Y7552466D01*
X2784995Y7564983D01*
D15*
X4328622Y6969958D02*
G01*
X4152905Y6794240D01*
X4109994Y6794240D01*
D14*
X3550005Y6906996D02*
G01*
X3567015Y6889986D01*
X3684996Y6889986D01*
D20*
X3099998Y6696618D02*
G01*
X3144113Y6652503D01*
X3314976Y6652503D01*
D16*
X3320006Y6973354D02*
G01*
X3314976Y6968324D01*
X3314976Y6717502D01*
D14*
X3091606Y6894984D02*
G01*
X3099993Y6886597D01*
X3099993Y6696608D01*
X3320008Y7166620D02*
G01*
X3496376Y7166620D01*
X3550005Y7112990D01*
D20*
X1850321Y6644998D02*
G01*
X1850321Y6719661D01*
X1784997Y6784985D01*
X1613052Y6499123D02*
G01*
X1699674Y6585745D01*
X1699674Y6644998D01*
D16*
X1704997Y8534981D02*
G01*
X1749996Y8534981D01*
X1850009Y8434969D01*
X1850009Y8361596D01*
D24*
X2674993Y8469988D02*
G01*
X2274994Y8469988D01*
D25*
X1648404Y6216253D02*
G01*
X1560001Y6304655D01*
X1560001Y6340002D01*
X1506981Y6180907D02*
G01*
X1560001Y6233927D01*
X1560001Y6340002D01*
X1400906Y6393022D02*
G01*
X1353939Y6439992D01*
X1156614Y6439992D01*
X1648404Y6463751D02*
G01*
X1683750Y6428404D01*
X1719115Y6286964D02*
G01*
X1666077Y6340002D01*
X1560001Y6340002D01*
X1400906Y6286982D02*
G01*
X1343931Y6230007D01*
X1156622Y6230007D01*
X1436270Y6251618D02*
G01*
X1471617Y6216271D01*
D13*
X1666239Y6446520D02*
G01*
X1720001Y6500002D01*
X2040000Y6500002D01*
D25*
X1830070Y6079997D02*
G01*
X1830070Y6389878D01*
X1800097Y6420104D01*
X1745995Y6420104D01*
X1719071Y6392926D01*
X1519979Y5769990D02*
G01*
X1519979Y5864987D01*
X1534980Y5879988D01*
X1630060Y5879988D01*
X1830070Y6079997D01*
X1613039Y6180889D02*
G01*
X1634997Y6158931D01*
X1634997Y6084986D01*
D13*
X1459997Y6239987D02*
G01*
X1374998Y6154986D01*
X1374998Y6154986D02*
G01*
X1319997Y6099985D01*
X1319997Y6099985D02*
G01*
X1374993Y6044989D01*
X1374998Y6044989D02*
G01*
X1429997Y6099987D01*
X1429997Y6099987D02*
G01*
X1374998Y6154986D01*
D25*
X1683765Y6251702D02*
G01*
X1724913Y6210300D01*
X1724913Y6070092D01*
X1595120Y5940044D01*
X1014984Y5869939D02*
G01*
X1014984Y5774944D01*
D13*
X1314998Y5984986D02*
G01*
X1259997Y6039987D01*
X1259997Y6039987D02*
G01*
X1319994Y6099985D01*
X1374998Y6044989D02*
G01*
X1314998Y5984989D01*
D25*
X1595120Y5940044D02*
G01*
X1590039Y5934963D01*
X1480057Y5934963D01*
X1445005Y5899912D01*
X1044955Y5899912D01*
X1014984Y5869939D01*
D22*
X4709995Y8239986D02*
G01*
X4799998Y8239986D01*
X4619990Y8239986D02*
G01*
X4709995Y8239986D01*
X4619990Y8339985D02*
G01*
X4619990Y8239986D01*
X4709995Y8339985D02*
G01*
X4619990Y8339985D01*
X4799998Y8339985D02*
G01*
X4709995Y8339985D01*
X4889990Y8339985D02*
G01*
X4799998Y8339985D01*
X4889990Y8239986D02*
G01*
X4799998Y8239986D01*
X4889985Y8339983D02*
G01*
X4889997Y8339970D01*
X4889997Y8239975D01*
D24*
X4374995Y8809984D02*
G01*
X4174995Y8809984D01*
X4574992Y8559998D02*
G01*
X4374992Y8559998D01*
X4620006Y8290052D02*
G01*
X4335018Y8290052D01*
X4174997Y8450071D01*
X4174997Y8560054D01*
D12*
X3914990Y8354984D02*
G01*
X3914990Y8379983D01*
D26*
X3439985Y5769990D02*
G01*
X3389998Y5720003D01*
X2680004Y5720003D01*
D19*
X3848341Y2696786D02*
G01*
X3766558Y2614993D01*
X3625085Y2614993D01*
X3459985Y2780093D01*
X3459985Y3419924D01*
X3519926Y3480120D01*
X3519926Y3579939D01*
X4528746Y2815904D02*
G01*
X4209981Y3134677D01*
X4209981Y3247829D01*
X3967490Y3490325D02*
G01*
X4209981Y3247829D01*
X4209981Y2908409D01*
X4415612Y2702775D01*
X4415612Y2702775D02*
G01*
X4504982Y2613405D01*
X4504982Y2609982D01*
X4528807Y2815910D02*
G01*
X4620511Y2725486D01*
D13*
X4329935Y4261932D02*
G01*
X4244980Y4261932D01*
X4124987Y4381929D01*
X4124987Y5324980D01*
X4219989Y5419981D01*
X5414980Y5419981D01*
X5529973Y5304980D01*
D19*
X4329935Y5023932D02*
G01*
X4579868Y4773993D01*
X4579868Y3428301D01*
X4468111Y3316544D01*
X4411469Y3373186D02*
G01*
X4480041Y3441509D01*
X4480041Y4685093D01*
X4394949Y4769932D01*
X4329935Y4769932D01*
X4390892Y3578928D02*
G01*
X4298434Y3486213D01*
X4332986Y3633983D02*
G01*
X4241817Y3542819D01*
X3934957Y3635060D02*
G01*
X4019034Y3550986D01*
X3684518Y3207578D02*
G01*
X4130034Y2762059D01*
X4130034Y2270066D01*
D27*
X3064982Y2568348D02*
G01*
X3163346Y2568348D01*
X3209645Y2614640D01*
X3209645Y2819656D01*
X2449987Y3124984D02*
G01*
X2324986Y3124977D01*
X2324986Y2904985D02*
G01*
X2449987Y2904985D01*
D25*
X2784975Y3582469D02*
G01*
X2784975Y3239973D01*
X2794474Y3230471D01*
D19*
X2324986Y3014992D02*
G01*
X2559997Y3014992D01*
X2784975Y3239973D01*
D16*
X3334969Y3230471D02*
G01*
X2794474Y3230471D01*
X2784975Y3239973D01*
D28*
X3785100Y2270066D02*
G01*
X3507226Y2547686D01*
X3335007Y2719898D01*
X3335007Y3230440D01*
D14*
X5054975Y3174481D02*
G01*
X4989479Y3174481D01*
X4864986Y3049981D01*
X4864986Y2941614D01*
D19*
X4636919Y2924060D02*
G01*
X4654468Y2941614D01*
X4864986Y2941614D01*
X4580326Y2867492D02*
G01*
X4699474Y2748343D01*
X4864986Y2748343D01*
X4581232Y3203379D02*
G01*
X5529973Y4152120D01*
X5529973Y4374984D01*
D25*
X2829996Y2568354D02*
G01*
X3128373Y2269985D01*
X3139981Y2269985D01*
X2979915Y3582482D02*
G01*
X2979915Y3659952D01*
X3024873Y3704910D01*
X4261858Y3704910D01*
X4332973Y3634044D01*
X2554973Y3541608D02*
G01*
X2703355Y3689985D01*
X2889986Y3689985D01*
X2915003Y3664968D01*
X2915003Y3582469D01*
X3109991Y2894982D02*
G01*
X3109991Y2982480D01*
X2915003Y2982480D02*
G01*
X2914990Y2894982D01*
D14*
X5054975Y2515476D02*
G01*
X5155486Y2414968D01*
X5419966Y2414968D01*
X4864986Y2748343D02*
G01*
X4864986Y2644988D01*
X4994490Y2515476D01*
X5054975Y2515476D01*
X5419966Y3274989D02*
G01*
X5155486Y3274989D01*
X5054975Y3174481D01*
D25*
X2850001Y2982480D02*
G01*
X2849989Y2839984D01*
X2830009Y2820004D01*
X2830009Y2761607D01*
X3044990Y2982480D02*
G01*
X3044990Y2854985D01*
X3064982Y2834993D01*
X3064982Y2761607D01*
D19*
X3980756Y2489751D02*
G01*
X4065607Y2574602D01*
X3924165Y2546316D02*
G01*
X4009016Y2631168D01*
X3867599Y2602908D02*
G01*
X3952450Y2687759D01*
X3811033Y2659448D02*
G01*
X3895885Y2744299D01*
X3754467Y2716039D02*
G01*
X3839319Y2800891D01*
X3697902Y2772605D02*
G01*
X3782753Y2857456D01*
X3641336Y2829171D02*
G01*
X3726187Y2914022D01*
X3584745Y2885737D02*
G01*
X3669596Y2970588D01*
X3585659Y3193346D02*
G01*
X3670510Y3108495D01*
X3642225Y3249912D02*
G01*
X3727076Y3165060D01*
X3698791Y3306503D02*
G01*
X3783642Y3221652D01*
X3755356Y3363043D02*
G01*
X3840208Y3278192D01*
X3811948Y3419635D02*
G01*
X3896799Y3334783D01*
X3868488Y3476175D02*
G01*
X3953339Y3391324D01*
X3925079Y3532766D02*
G01*
X4009931Y3447915D01*
X3981645Y3589332D02*
G01*
X4066496Y3504481D01*
X4204378Y3505370D02*
G01*
X4289229Y3590221D01*
X4260969Y3448804D02*
G01*
X4345820Y3533655D01*
X4317535Y3392238D02*
G01*
X4402386Y3477089D01*
X4374100Y3335672D02*
G01*
X4458952Y3420524D01*
X4430666Y3279106D02*
G01*
X4515518Y3363958D01*
X4487232Y3222541D02*
G01*
X4572083Y3307392D01*
X4543798Y3165975D02*
G01*
X4628649Y3250826D01*
X4600389Y3109384D02*
G01*
X4685240Y3194235D01*
X4599475Y2971502D02*
G01*
X4684326Y2886651D01*
X4542909Y2914911D02*
G01*
X4627760Y2830060D01*
X4486343Y2858345D02*
G01*
X4571194Y2773494D01*
X4429777Y2801780D02*
G01*
X4514629Y2716928D01*
X4373211Y2745214D02*
G01*
X4458063Y2660362D01*
X4316646Y2688648D02*
G01*
X4401497Y2603797D01*
X4260080Y2632082D02*
G01*
X4344931Y2547231D01*
X4203489Y2575491D02*
G01*
X4288340Y2490640D01*
D29*
X1382527Y6268598D02*
G01*
X1419296Y6305367D01*
X1417883Y6233241D02*
G01*
X1454652Y6270010D01*
X1453240Y6197884D02*
G01*
X1490009Y6234653D01*
X1488597Y6162527D02*
G01*
X1525366Y6199296D01*
X1594667Y6199271D02*
G01*
X1631436Y6162502D01*
X1630024Y6234628D02*
G01*
X1666793Y6197859D01*
X1665356Y6269984D02*
G01*
X1702125Y6233215D01*
X1700738Y6305341D02*
G01*
X1737507Y6268572D01*
X1700738Y6374643D02*
G01*
X1737507Y6411412D01*
X1665356Y6410025D02*
G01*
X1702125Y6446794D01*
X1630024Y6445356D02*
G01*
X1666793Y6482125D01*
X1594667Y6480738D02*
G01*
X1631436Y6517507D01*
X1488597Y6517482D02*
G01*
X1525366Y6480713D01*
X1453240Y6482125D02*
G01*
X1490009Y6445356D01*
X1417883Y6446768D02*
G01*
X1454652Y6409999D01*
X1382527Y6411412D02*
G01*
X1419296Y6374643D01*
D30*
X996287Y8390509D02*
G01*
X849886Y8390509D01*
X996287Y8263509D02*
G01*
X849886Y8263509D01*
X996287Y8136509D02*
G01*
X849886Y8136509D01*
X996287Y8009509D02*
G01*
X849886Y8009509D01*
X1550108Y8390509D02*
G01*
X1403708Y8390509D01*
X1550108Y8263509D02*
G01*
X1403708Y8263509D01*
X1550108Y8136509D02*
G01*
X1403708Y8136509D01*
X1550108Y8009509D02*
G01*
X1403708Y8009509D01*
D32*
G01*
X3650005Y8019973D03*
G01*
X3650005Y7879969D03*
D33*
G01*
X2919984Y7154976D03*
G01*
X3059988Y7154976D03*
G01*
X3759987Y7034987D03*
G01*
X3899992Y7034987D03*
G36*
X4780059Y2757365D02*
G01*
X4950157Y2757365D01*
X4950157Y2636613D01*
X4780059Y2636613D01*
G37*
D34*
G01*
X4865115Y2992729D03*
D35*
G01*
X1225042Y5775070D03*
G01*
X1014984Y5775070D03*
G36*
X1911797Y5994986D02*
G01*
X1998197Y5994986D01*
X1998197Y5914339D01*
X1911797Y5914339D01*
G37*
D36*
G01*
X1954987Y6105321D03*
G36*
X2178197Y5979988D02*
G01*
X2091796Y5979988D01*
X2091796Y6060635D01*
X2178197Y6060635D01*
G37*
G01*
X2134997Y5869660D03*
G36*
X2769745Y3047009D02*
G01*
X2800225Y3047009D01*
X2800225Y2947949D01*
X2769745Y2947949D01*
G37*
G36*
X2834746Y3047009D02*
G01*
X2865226Y3047009D01*
X2865226Y2947949D01*
X2834746Y2947949D01*
G37*
G36*
X2899745Y3047009D02*
G01*
X2930225Y3047009D01*
X2930225Y2947949D01*
X2899745Y2947949D01*
G37*
G36*
X2964746Y3047009D02*
G01*
X2995226Y3047009D01*
X2995226Y2947949D01*
X2964746Y2947949D01*
G37*
G36*
X3029747Y3047009D02*
G01*
X3060227Y3047009D01*
X3060227Y2947949D01*
X3029747Y2947949D01*
G37*
G36*
X3094746Y3047009D02*
G01*
X3125226Y3047009D01*
X3125226Y2947949D01*
X3094746Y2947949D01*
G37*
G36*
X3159747Y3047009D02*
G01*
X3190227Y3047009D01*
X3190227Y2947949D01*
X3159747Y2947949D01*
G37*
G36*
X3159747Y3632012D02*
G01*
X3190227Y3632012D01*
X3190227Y3532952D01*
X3159747Y3532952D01*
G37*
G36*
X3094746Y3632012D02*
G01*
X3125226Y3632012D01*
X3125226Y3532952D01*
X3094746Y3532952D01*
G37*
G36*
X3029747Y3632012D02*
G01*
X3060227Y3632012D01*
X3060227Y3532952D01*
X3029747Y3532952D01*
G37*
G36*
X2964746Y3632012D02*
G01*
X2995226Y3632012D01*
X2995226Y3532952D01*
X2964746Y3532952D01*
G37*
G36*
X2899745Y3632012D02*
G01*
X2930225Y3632012D01*
X2930225Y3532952D01*
X2899745Y3532952D01*
G37*
G36*
X2834746Y3632012D02*
G01*
X2865226Y3632012D01*
X2865226Y3532952D01*
X2834746Y3532952D01*
G37*
G36*
X2769745Y3632012D02*
G01*
X2800225Y3632012D01*
X2800225Y3532952D01*
X2769745Y3532952D01*
G37*
G36*
X2898835Y2704983D02*
G01*
X2761137Y2704983D01*
X2761137Y2818236D01*
X2898835Y2818236D01*
G37*
D38*
G01*
X2829991Y2568346D03*
G36*
X3133836Y2704983D02*
G01*
X2996138Y2704983D01*
X2996138Y2818236D01*
X3133836Y2818236D01*
G37*
G01*
X3064992Y2568346D03*
G36*
X2623837Y3479982D02*
G01*
X2486139Y3479982D01*
X2486139Y3593236D01*
X2623837Y3593236D01*
G37*
G01*
X2554986Y3343351D03*
G36*
X3602494Y6417487D02*
G01*
X3602494Y6282486D01*
X3461494Y6282486D01*
X3461494Y6417487D01*
G37*
G36*
X3667493Y6417487D02*
G01*
X3667493Y6282486D01*
X3808493Y6282486D01*
X3808493Y6417487D01*
G37*
G36*
X1567497Y7502484D02*
G01*
X1702498Y7502484D01*
X1702498Y7361483D01*
X1567497Y7361483D01*
G37*
D40*
G01*
X1634997Y7637983D03*
G36*
X2332497Y6312489D02*
G01*
X2332497Y6177488D01*
X2191496Y6177488D01*
X2191496Y6312489D01*
G37*
G36*
X2397495Y6312489D02*
G01*
X2397495Y6177488D01*
X2538496Y6177488D01*
X2538496Y6312489D01*
G37*
G36*
X4497491Y7772483D02*
G01*
X4632492Y7772483D01*
X4632492Y7631483D01*
X4497491Y7631483D01*
G37*
G01*
X4564989Y7907985D03*
G36*
X2687495Y7847484D02*
G01*
X2822496Y7847484D01*
X2822496Y7706484D01*
X2687495Y7706484D01*
G37*
G01*
X2754985Y7982991D03*
G36*
X4342490Y6652486D02*
G01*
X4477491Y6652486D01*
X4477491Y6511485D01*
X4342490Y6511485D01*
G37*
G01*
X4409998Y6787972D03*
G36*
X2962495Y6367487D02*
G01*
X2962495Y6232486D01*
X2821495Y6232486D01*
X2821495Y6367487D01*
G37*
G36*
X3027494Y6367487D02*
G01*
X3027494Y6232486D01*
X3168495Y6232486D01*
X3168495Y6367487D01*
G37*
D41*
G01*
X5249992Y6430002D03*
G01*
X5249992Y7829999D03*
D42*
G01*
X1354988Y7539989D03*
D43*
G01*
X1354988Y7416977D03*
D44*
G01*
X1354988Y7314996D03*
G01*
X1354988Y7214996D03*
D43*
G01*
X1354988Y7112990D03*
D42*
G01*
X1354988Y6989978D03*
G36*
X1657997Y8209983D02*
G01*
X1711998Y8209983D01*
X1711998Y8130974D01*
X1657997Y8130974D01*
G37*
D45*
G01*
X1685010Y8279485D03*
G36*
X3361987Y3299983D02*
G01*
X3307986Y3299983D01*
X3307986Y3378992D01*
X3361987Y3378992D01*
G37*
G01*
X3334994Y3230473D03*
G36*
X1739996Y6688188D02*
G01*
X1739996Y6601787D01*
X1659348Y6601787D01*
X1659348Y6688188D01*
G37*
G36*
X1809998Y6688188D02*
G01*
X1809998Y6601787D01*
X1890646Y6601787D01*
X1890646Y6688188D01*
G37*
G36*
X1100000Y6371153D02*
G01*
X1100000Y6508851D01*
X1213253Y6508851D01*
X1213253Y6371153D01*
G37*
G36*
X1020000Y6371153D02*
G01*
X1020000Y6508851D01*
X906746Y6508851D01*
X906746Y6371153D01*
G37*
G36*
X1446855Y6340000D02*
G01*
X1560004Y6453149D01*
X1673156Y6340000D01*
X1560004Y6226848D01*
G37*
G36*
X5081983Y2584985D02*
G01*
X5027983Y2584985D01*
X5027983Y2663995D01*
X5081983Y2663995D01*
G37*
G01*
X5054981Y2515488D03*
G36*
X5027983Y3104982D02*
G01*
X5081983Y3104982D01*
X5081983Y3025973D01*
X5027983Y3025973D01*
G37*
G01*
X5054981Y3174492D03*
G36*
X3482492Y6977486D02*
G01*
X3617493Y6977486D01*
X3617493Y6836486D01*
X3482492Y6836486D01*
G37*
D40*
G01*
X3550005Y7112990D03*
D49*
G01*
X2324988Y2529992D03*
D50*
G01*
X815009Y2284984D03*
D51*
G01*
X859993Y3654983D03*
D52*
G01*
X1275003Y3654983D03*
D53*
G01*
X1894992Y3654983D03*
D54*
G01*
X2324988Y3549980D03*
D43*
G01*
X2324988Y3454984D03*
G01*
X2324988Y3345002D03*
G01*
X2324988Y3234994D03*
G01*
X2324988Y3124987D03*
G01*
X2324988Y3014979D03*
G01*
X2324988Y2904997D03*
G01*
X2324988Y2794990D03*
G01*
X2324988Y2684983D03*
D55*
G01*
X4284979Y7939989D03*
G01*
X4284979Y7539989D03*
D56*
G01*
X3785006Y6079997D03*
G01*
X3385007Y6079997D03*
D57*
G01*
X3929989Y7250734D03*
G01*
X3929989Y7569250D03*
G01*
X4109999Y6475729D03*
G01*
X4109999Y6794245D03*
G36*
X3080001Y6156594D02*
G01*
X3228500Y6156594D01*
X3228500Y5843396D01*
X3080001Y5843396D01*
G37*
G36*
X2761485Y6156594D02*
G01*
X2909984Y6156594D01*
X2909984Y5843396D01*
X2761485Y5843396D01*
G37*
D35*
G01*
X1730019Y5769990D03*
G01*
X1519961Y5769990D03*
G36*
X1020000Y6298852D02*
G01*
X1020000Y6161153D01*
X906746Y6161153D01*
X906746Y6298852D01*
G37*
G36*
X1100000Y6298852D02*
G01*
X1100000Y6161153D01*
X1213253Y6161153D01*
X1213253Y6298852D01*
G37*
G36*
X3239993Y7453833D02*
G01*
X3239993Y7316134D01*
X3126740Y7316134D01*
X3126740Y7453833D01*
G37*
G36*
X3319993Y7453833D02*
G01*
X3319993Y7316134D01*
X3433246Y7316134D01*
X3433246Y7453833D01*
G37*
G36*
X3034995Y7953834D02*
G01*
X3034995Y7816136D01*
X2921741Y7816136D01*
X2921741Y7953834D01*
G37*
G36*
X3114995Y7953834D02*
G01*
X3114995Y7816136D01*
X3228248Y7816136D01*
X3228248Y7953834D01*
G37*
G36*
X3294994Y8153831D02*
G01*
X3294994Y8016133D01*
X3181741Y8016133D01*
X3181741Y8153831D01*
G37*
G36*
X3374994Y8153831D02*
G01*
X3374994Y8016133D01*
X3488248Y8016133D01*
X3488248Y8153831D01*
G37*
G36*
X3168843Y6639986D02*
G01*
X3031144Y6639986D01*
X3031144Y6753240D01*
X3168843Y6753240D01*
G37*
D38*
G01*
X3099993Y6503365D03*
G36*
X2954995Y6963834D02*
G01*
X2954995Y6826135D01*
X2841741Y6826135D01*
X2841741Y6963834D01*
G37*
G36*
X3034995Y6963834D02*
G01*
X3034995Y6826135D01*
X3148248Y6826135D01*
X3148248Y6963834D01*
G37*
G36*
X3388842Y7109985D02*
G01*
X3251144Y7109985D01*
X3251144Y7223239D01*
X3388842Y7223239D01*
G37*
G01*
X3319983Y6973366D03*
G36*
X1918845Y8304982D02*
G01*
X1781147Y8304982D01*
X1781147Y8418235D01*
X1918845Y8418235D01*
G37*
G01*
X1850009Y8168360D03*
G36*
X1100000Y8300001D02*
G01*
X1299999Y8300001D01*
X1299999Y8100001D01*
X1100000Y8100001D01*
G37*
D60*
G01*
X3189986Y7747482D03*
G01*
X3189986Y7682484D03*
G01*
X3189986Y7617460D03*
G01*
X3189986Y7552461D03*
G01*
X3650005Y7552461D03*
G01*
X3650005Y7617460D03*
G01*
X3650005Y7682484D03*
G01*
X3650005Y7747482D03*
G01*
X3314979Y6717512D03*
G01*
X3314979Y6652513D03*
G01*
X3314979Y6587489D03*
G01*
X3314979Y6522491D03*
G01*
X3774998Y6522491D03*
G01*
X3774998Y6587489D03*
G01*
X3774998Y6652513D03*
G01*
X3774998Y6717512D03*
D61*
G01*
X5419979Y2414981D03*
D62*
G01*
X5419979Y3274974D03*
G36*
X3580002Y7559979D02*
G01*
X3720007Y7559979D01*
X3720007Y7489977D01*
X3580002Y7489977D01*
G37*
G36*
X4345000Y8039988D02*
G01*
X4904993Y8039988D01*
X4904993Y7839989D01*
X4345000Y7839989D01*
G37*
G36*
X829995Y8390001D02*
G01*
X1019987Y8390001D01*
X1019987Y7819999D01*
X829995Y7819999D01*
G37*
G36*
X899998Y7869986D02*
G01*
X1429994Y7869986D01*
X1429994Y7690002D01*
X899998Y7690002D01*
G37*
G36*
X829995Y7830007D02*
G01*
X1140002Y7830007D01*
X1140002Y6840016D01*
X829995Y6840016D01*
G37*
G36*
X1010005Y6920001D02*
G01*
X1250010Y6920001D01*
X1250010Y6730009D01*
X1010005Y6730009D01*
G37*
G36*
X840003Y6820001D02*
G01*
X1020013Y6820001D01*
X1020013Y6199987D01*
X840003Y6199987D01*
G37*
G36*
X1415008Y7869986D02*
G01*
X1734997Y7869986D01*
X1734997Y7599984D01*
X1415008Y7599984D01*
G37*
G36*
X3704996Y6534988D02*
G01*
X3810000Y6534988D01*
X3810000Y6289979D01*
X3704996Y6289979D01*
G37*
G36*
X3604996Y7904987D02*
G01*
X3694988Y7904987D01*
X3694988Y7749971D01*
X3604996Y7749971D01*
G37*
G36*
X3899992Y7789976D02*
G01*
X4080002Y7789976D01*
X4080002Y7549972D01*
X3899992Y7549972D01*
G37*
G36*
X4215002Y7014971D02*
G01*
X4480001Y7014971D01*
X4480001Y6719976D01*
X4215002Y6719976D01*
G37*
G36*
X4094988Y7004989D02*
G01*
X4154982Y7004989D01*
X4154982Y6854977D01*
X4094988Y6854977D01*
G37*
G36*
X4499990Y7694980D02*
G01*
X4629988Y7694980D01*
X4629988Y7214971D01*
X4499990Y7214971D01*
G37*
G36*
X4345000Y6649973D02*
G01*
X4504994Y6649973D01*
X4504994Y6439966D01*
X4345000Y6439966D01*
G37*
G36*
X2354986Y3384981D02*
G01*
X2519984Y3384981D01*
X2519984Y3304971D01*
X2354986Y3304971D01*
G37*
G36*
X5060002Y6640004D02*
G01*
X5440001Y6640004D01*
X5440001Y6280002D01*
X5060002Y6280002D01*
G37*
D63*
G01*
X1329944Y8839962D03*
G01*
X960120Y8619997D03*
G01*
X5529986Y4374972D03*
G01*
X5519978Y7874990D03*
G01*
X4129989Y5769990D03*
G01*
X4129989Y2269972D03*
G01*
X3785108Y5769863D03*
D64*
G01*
X2075002Y8294979D03*
G01*
X2075002Y8894978D03*
G01*
X3274999Y8894978D03*
G01*
X3274999Y8294979D03*
D65*
G01*
X2275001Y8469985D03*
G01*
X2675000Y8469985D03*
G01*
X3075000Y8469985D03*
G01*
X4574997Y8560003D03*
G01*
X4374997Y8560003D03*
G01*
X4174997Y8560003D03*
G01*
X4574997Y8809989D03*
G01*
X4374997Y8809989D03*
G01*
X4174997Y8809989D03*
D21*
G01*
X4874996Y8684996D03*
G01*
X3874998Y8684996D03*
D63*
G01*
X5529986Y5304967D03*
G01*
X5529986Y4684979D03*
G01*
X3784981Y2269972D03*
G01*
X5519978Y8804986D03*
G01*
X5519978Y8184972D03*
D66*
G01*
X4329938Y4007942D03*
G01*
X4329938Y4261942D03*
G01*
X4329938Y4515942D03*
G01*
X4329938Y4769942D03*
G01*
X4329938Y5023942D03*
D63*
G01*
X4329938Y5277942D03*
G01*
X5519978Y8494979D03*
G01*
X3439998Y5769990D03*
G01*
X5529986Y4994986D03*
G01*
X3439998Y2269972D03*
G01*
X2849981Y2269972D03*
G01*
X3139973Y2269972D03*
G01*
X3519982Y3579977D03*
G01*
X2559989Y2269972D03*
D31*
G01*
X1249984Y8149996D03*
G01*
X1249984Y8249996D03*
G01*
X1149985Y8249996D03*
G01*
X1149985Y8149996D03*
G01*
X3799992Y7824978D03*
G01*
X3949979Y7939989D03*
G01*
X4029989Y7940014D03*
G01*
X4029989Y7860004D03*
G01*
X3949979Y7859979D03*
G01*
X3949979Y7779969D03*
G01*
X4029989Y7779994D03*
G01*
X3062986Y7617993D03*
G01*
X1780006Y7809992D03*
G01*
X1680006Y7809992D03*
G01*
X1059992Y6670014D03*
G01*
X1070000Y7909991D03*
G01*
X2904997Y6609994D03*
G01*
X2904997Y6529984D03*
G01*
X2904997Y6449974D03*
G01*
X2689986Y7329982D03*
G01*
X2599994Y5720003D03*
G01*
X2680004Y5720003D03*
G01*
X2689986Y7409992D03*
G01*
X4709998Y8339962D03*
G01*
X4799990Y8339962D03*
G01*
X4709998Y8239963D03*
G01*
X4799990Y8239963D03*
G01*
X4619980Y8239963D03*
G01*
X4619980Y8339962D03*
G01*
X4889982Y8239963D03*
G01*
X4889982Y8339962D03*
G01*
X3254984Y6444995D03*
G01*
X3684981Y6889978D03*
G01*
X4328617Y6969963D03*
G01*
X4328617Y7069988D03*
G01*
X4238625Y7069988D03*
G01*
X4238625Y6969963D03*
G01*
X4159986Y6969988D03*
G01*
X4159986Y7069988D03*
G01*
X1785010Y6784975D03*
G01*
X1634997Y6084976D03*
G01*
X1934997Y6269989D03*
G01*
X1375003Y6154978D03*
G01*
X1375003Y6044996D03*
G01*
X1319987Y6099987D03*
G01*
X1429994Y6099987D03*
G01*
X1259992Y6039993D03*
G01*
X1315008Y5984976D03*
G01*
X3515004Y8734983D03*
G01*
X3515004Y8574989D03*
G01*
X3515004Y8654973D03*
G01*
X3434994Y8734983D03*
G01*
X3434994Y8654973D03*
G01*
X3434994Y8574989D03*
G01*
X3094990Y8324977D03*
G01*
X3019983Y8324977D03*
G01*
X3019983Y8254974D03*
G01*
X3094990Y8254974D03*
G01*
X3094990Y8184972D03*
G01*
X3019983Y8184972D03*
G01*
X1705000Y8534984D03*
G01*
X4415002Y7069988D03*
G01*
X4415002Y6969988D03*
G01*
X3259988Y6299987D03*
G01*
X5583199Y6383223D03*
G01*
X5478195Y6383223D03*
G01*
X5478195Y6473215D03*
G01*
X5583199Y6473215D03*
G01*
X4580000Y6579996D03*
G01*
X4624984Y7249972D03*
G01*
X4390999Y3578987D03*
G01*
X4332986Y3634003D03*
G01*
X3934993Y3634994D03*
G01*
X2915005Y2904997D03*
G01*
X3110001Y2904997D03*
G01*
X2450007Y2904997D03*
G01*
X2450007Y3124987D03*
G01*
X4504994Y2610002D03*
G01*
X3209645Y2819679D03*
G01*
X3315004Y3519982D03*
G01*
X3739997Y2524988D03*
G01*
X2629992Y2734995D03*
G01*
X4709998Y2340000D03*
G01*
X5099989Y3494989D03*
G01*
X5594984Y3624986D03*
G01*
X2345004Y3724986D03*
G01*
X2245004Y3724986D03*
G01*
X2344953Y2195017D03*
G01*
X2244953Y2195017D03*
G01*
X3754983Y3524986D03*
G01*
X3594988Y3399993D03*
G01*
X3754983Y3619982D03*
G01*
X4620590Y2725572D03*
G01*
X4324984Y2904997D03*
G01*
X4089984Y3049981D03*
G01*
X3880002Y2880004D03*
G01*
X4304995Y3274999D03*
G01*
X3645001Y2710002D03*
D12*
X5215003Y6204991D02*
G01*
X5155003Y6204991D01*
X4515004Y6204991D02*
G01*
X4455005Y6204991D01*
X5015003Y5724982D02*
G01*
X4955004Y5724982D01*
D11*
X985006Y6832980D02*
G01*
X905007Y6832980D01*
X985006Y7696962D02*
G01*
X905007Y7696962D01*
X1370009Y6832980D02*
G01*
X1260010Y6832980D01*
X1370009Y7696962D02*
G01*
X1260010Y7696962D01*
M02*
