G04 Layer: TopPasteMaskLayer*
G04 EasyEDA v6.4.30, 2022-01-21 15:04:52*
G04 c46cb3ee090d4a1eb143410c139ed502,dc6f5eff9a9d40dcab93570daa8facdf,10*
G04 Gerber Generator version 0.2*
G04 Scale: 100 percent, Rotated: No, Reflected: No *
G04 Dimensions in millimeters *
G04 leading zeros omitted , absolute positions ,4 integer and 5 decimal *
%FSLAX45Y45*%
%MOMM*%

%ADD19C,0.4500*%
%ADD29C,0.2800*%
%ADD30C,0.5740*%
%ADD32R,0.9000X0.8000*%
%ADD33R,0.8000X0.9000*%
%ADD35R,1.3005X1.3995*%
%ADD41R,2.5000X2.5000*%
%ADD43R,1.2000X0.8000*%
%ADD49R,1.2000X1.0000*%
%ADD50R,1.9000X2.0000*%
%ADD51R,2.8000X1.5000*%
%ADD52R,0.8000X1.5000*%
%ADD53R,1.2000X1.5000*%
%ADD54R,1.2000X0.6000*%
%ADD55R,1.8000X2.0000*%
%ADD56R,2.0000X1.8000*%
%ADD57R,3.1320X1.4850*%
%ADD60R,1.3970X0.4060*%
%ADD61R,1.5000X5.0000*%
%ADD62R,1.3000X5.0000*%

%LPD*%
G36*
X4790084Y2757373D02*
G01*
X4780076Y2747365D01*
X4780076Y2646629D01*
X4790084Y2636621D01*
X4940147Y2636621D01*
X4950155Y2646629D01*
X4950155Y2747365D01*
X4940147Y2757373D01*
X4904028Y2757373D01*
X4894021Y2747365D01*
X4894021Y2726334D01*
X4884013Y2716326D01*
X4846167Y2716326D01*
X4836210Y2726334D01*
X4836210Y2747365D01*
X4826203Y2757373D01*
G37*
G36*
X4790084Y3053130D02*
G01*
X4780076Y3043123D01*
X4780076Y2942386D01*
X4790084Y2932379D01*
X4826203Y2932379D01*
X4836210Y2942386D01*
X4836210Y2963418D01*
X4846167Y2973425D01*
X4884013Y2973425D01*
X4894021Y2963418D01*
X4894021Y2942386D01*
X4904028Y2932379D01*
X4940147Y2932379D01*
X4950155Y2942386D01*
X4950155Y3043123D01*
X4940147Y3053130D01*
G37*
G36*
X1915007Y5995466D02*
G01*
X1909978Y5990488D01*
X1909978Y5910478D01*
X1915007Y5905500D01*
X1995017Y5905500D01*
X1999996Y5910478D01*
X1999996Y5990488D01*
X1995017Y5995466D01*
X1972208Y5995466D01*
X1972208Y5958484D01*
X1939188Y5958484D01*
X1939188Y5995466D01*
G37*
G36*
X1915007Y6154470D02*
G01*
X1909978Y6149492D01*
X1909978Y6070498D01*
X1915007Y6065469D01*
X1939188Y6065469D01*
X1939188Y6103467D01*
X1972208Y6103467D01*
X1972208Y6065469D01*
X1995017Y6065469D01*
X1999996Y6070498D01*
X1999996Y6149492D01*
X1995017Y6154470D01*
G37*
G36*
X2094992Y6069482D02*
G01*
X2090013Y6064504D01*
X2090013Y5984494D01*
X2094992Y5979464D01*
X2117801Y5979464D01*
X2117801Y6016498D01*
X2150770Y6016498D01*
X2150770Y5979464D01*
X2175002Y5979464D01*
X2179980Y5984494D01*
X2179980Y6064504D01*
X2175002Y6069482D01*
G37*
G36*
X2094992Y5909513D02*
G01*
X2090013Y5904484D01*
X2090013Y5825490D01*
X2094992Y5820511D01*
X2175002Y5820511D01*
X2179980Y5825490D01*
X2179980Y5904484D01*
X2175002Y5909513D01*
X2150770Y5909513D01*
X2150770Y5871514D01*
X2117801Y5871514D01*
X2117801Y5909513D01*
G37*
G36*
X2807004Y2620467D02*
G01*
X2766009Y2619959D01*
X2760980Y2614980D01*
X2760980Y2499969D01*
X2766009Y2494991D01*
X2893974Y2494991D01*
X2899003Y2499969D01*
X2899003Y2614980D01*
X2893974Y2619959D01*
X2852013Y2619502D01*
X2852013Y2575458D01*
X2807004Y2575458D01*
G37*
G36*
X2766009Y2834995D02*
G01*
X2760980Y2829966D01*
X2760980Y2715006D01*
X2766009Y2709976D01*
X2807004Y2710484D01*
X2807004Y2754477D01*
X2852013Y2754477D01*
X2852013Y2709976D01*
X2893974Y2709976D01*
X2899003Y2715006D01*
X2899003Y2829966D01*
X2893974Y2834995D01*
G37*
G36*
X3042005Y2620467D02*
G01*
X3001010Y2619959D01*
X2995980Y2614980D01*
X2995980Y2499969D01*
X3001010Y2494991D01*
X3128975Y2494991D01*
X3134004Y2499969D01*
X3134004Y2614980D01*
X3128975Y2619959D01*
X3087014Y2619502D01*
X3087014Y2575458D01*
X3042005Y2575458D01*
G37*
G36*
X3001010Y2834995D02*
G01*
X2995980Y2829966D01*
X2995980Y2715006D01*
X3001010Y2709976D01*
X3042005Y2710484D01*
X3042005Y2754477D01*
X3087014Y2754477D01*
X3087014Y2709976D01*
X3128975Y2709976D01*
X3134004Y2715006D01*
X3134004Y2829966D01*
X3128975Y2834995D01*
G37*
G36*
X2531973Y3395472D02*
G01*
X2490978Y3394964D01*
X2485999Y3389985D01*
X2485999Y3274974D01*
X2490978Y3269996D01*
X2618994Y3269996D01*
X2623972Y3274974D01*
X2623972Y3389985D01*
X2618994Y3394964D01*
X2576982Y3394506D01*
X2576982Y3350463D01*
X2531973Y3350463D01*
G37*
G36*
X2490978Y3610000D02*
G01*
X2485999Y3604971D01*
X2485999Y3489960D01*
X2490978Y3484981D01*
X2531973Y3485489D01*
X2531973Y3529482D01*
X2576982Y3529482D01*
X2576982Y3484981D01*
X2618994Y3484981D01*
X2623972Y3489960D01*
X2623972Y3604971D01*
X2618994Y3610000D01*
G37*
G36*
X3682492Y6417005D02*
G01*
X3677513Y6411976D01*
X3677970Y6369964D01*
X3722014Y6369964D01*
X3722014Y6325006D01*
X3677005Y6325006D01*
X3677513Y6283960D01*
X3682492Y6278981D01*
X3797503Y6278981D01*
X3802481Y6283960D01*
X3802481Y6411976D01*
X3797503Y6417005D01*
G37*
G36*
X3467506Y6417005D02*
G01*
X3462477Y6411976D01*
X3462477Y6283960D01*
X3467506Y6278981D01*
X3582517Y6278981D01*
X3587496Y6283960D01*
X3586987Y6325006D01*
X3542995Y6325006D01*
X3542995Y6369964D01*
X3587496Y6369964D01*
X3587496Y6411976D01*
X3582517Y6417005D01*
G37*
G36*
X1573022Y7702499D02*
G01*
X1567992Y7697470D01*
X1567992Y7582509D01*
X1573022Y7577480D01*
X1614982Y7577988D01*
X1614982Y7621981D01*
X1659991Y7621981D01*
X1659991Y7576972D01*
X1700987Y7577480D01*
X1706016Y7582509D01*
X1706016Y7697470D01*
X1700987Y7702499D01*
G37*
G36*
X1573022Y7487462D02*
G01*
X1567992Y7482484D01*
X1567992Y7367473D01*
X1573022Y7362494D01*
X1700987Y7362494D01*
X1706016Y7367473D01*
X1706016Y7482484D01*
X1700987Y7487462D01*
X1659991Y7487005D01*
X1659991Y7442962D01*
X1614982Y7442962D01*
X1614982Y7487462D01*
G37*
G36*
X2412492Y6312001D02*
G01*
X2407513Y6306972D01*
X2407970Y6265011D01*
X2452014Y6265011D01*
X2452014Y6220002D01*
X2407005Y6220002D01*
X2407513Y6179007D01*
X2412492Y6173978D01*
X2527503Y6173978D01*
X2532481Y6179007D01*
X2532481Y6306972D01*
X2527503Y6312001D01*
G37*
G36*
X2197506Y6312001D02*
G01*
X2192477Y6306972D01*
X2192477Y6179007D01*
X2197506Y6173978D01*
X2312517Y6173978D01*
X2317496Y6179007D01*
X2316988Y6220002D01*
X2272995Y6220002D01*
X2272995Y6265011D01*
X2317496Y6265011D01*
X2317496Y6306972D01*
X2312517Y6312001D01*
G37*
G36*
X4503013Y7972501D02*
G01*
X4497984Y7967472D01*
X4497984Y7852460D01*
X4503013Y7847482D01*
X4544974Y7847990D01*
X4544974Y7891983D01*
X4589983Y7891983D01*
X4589983Y7846974D01*
X4630978Y7847482D01*
X4636008Y7852460D01*
X4636008Y7967472D01*
X4630978Y7972501D01*
G37*
G36*
X4503013Y7757464D02*
G01*
X4497984Y7752486D01*
X4497984Y7637475D01*
X4503013Y7632496D01*
X4630978Y7632496D01*
X4636008Y7637475D01*
X4636008Y7752486D01*
X4630978Y7757464D01*
X4589983Y7757007D01*
X4589983Y7712964D01*
X4544974Y7712964D01*
X4544974Y7757464D01*
G37*
G36*
X2693009Y8047481D02*
G01*
X2687980Y8042503D01*
X2687980Y7927492D01*
X2693009Y7922463D01*
X2734970Y7922971D01*
X2734970Y7966964D01*
X2779979Y7966964D01*
X2779979Y7922006D01*
X2820974Y7922463D01*
X2826004Y7927492D01*
X2826004Y8042503D01*
X2820974Y8047481D01*
G37*
G36*
X2693009Y7832496D02*
G01*
X2687980Y7827467D01*
X2687980Y7712506D01*
X2693009Y7707477D01*
X2820974Y7707477D01*
X2826004Y7712506D01*
X2826004Y7827467D01*
X2820974Y7832496D01*
X2779979Y7831988D01*
X2779979Y7787995D01*
X2734970Y7787995D01*
X2734970Y7832496D01*
G37*
G36*
X4347972Y6852462D02*
G01*
X4342993Y6847484D01*
X4342993Y6732473D01*
X4347972Y6727494D01*
X4389983Y6728002D01*
X4389983Y6771995D01*
X4434992Y6771995D01*
X4434992Y6726986D01*
X4475988Y6727494D01*
X4481017Y6732473D01*
X4481017Y6847484D01*
X4475988Y6852462D01*
G37*
G36*
X4347972Y6637477D02*
G01*
X4342993Y6632498D01*
X4342993Y6517487D01*
X4347972Y6512509D01*
X4475988Y6512509D01*
X4481017Y6517487D01*
X4481017Y6632498D01*
X4475988Y6637477D01*
X4434992Y6636969D01*
X4434992Y6592976D01*
X4389983Y6592976D01*
X4389983Y6637477D01*
G37*
G36*
X3042513Y6366967D02*
G01*
X3037484Y6361988D01*
X3037992Y6319977D01*
X3081985Y6319977D01*
X3081985Y6274968D01*
X3036976Y6274968D01*
X3037484Y6233972D01*
X3042513Y6228994D01*
X3157474Y6228994D01*
X3162503Y6233972D01*
X3162503Y6361988D01*
X3157474Y6366967D01*
G37*
G36*
X2827477Y6366967D02*
G01*
X2822498Y6361988D01*
X2822498Y6233972D01*
X2827477Y6228994D01*
X2942488Y6228994D01*
X2947517Y6233972D01*
X2947009Y6274968D01*
X2903016Y6274968D01*
X2903016Y6319977D01*
X2947517Y6319977D01*
X2947517Y6361988D01*
X2942488Y6366967D01*
G37*
G36*
X1259992Y7746949D02*
G01*
X1255014Y7746746D01*
X1250086Y7745984D01*
X1245260Y7744764D01*
X1240586Y7743037D01*
X1236065Y7740903D01*
X1231849Y7738313D01*
X1227836Y7735265D01*
X1224178Y7731912D01*
X1220927Y7728153D01*
X1217980Y7724089D01*
X1215491Y7719771D01*
X1213459Y7715250D01*
X1211884Y7710525D01*
X1210767Y7705648D01*
X1210157Y7700721D01*
X1210005Y7695742D01*
X1210360Y7690764D01*
X1211224Y7685836D01*
X1212596Y7681061D01*
X1214424Y7676388D01*
X1216710Y7671968D01*
X1219403Y7667802D01*
X1222502Y7663891D01*
X1226007Y7660335D01*
X1229817Y7657134D01*
X1233932Y7654290D01*
X1238300Y7651902D01*
X1242872Y7649972D01*
X1247648Y7648498D01*
X1252524Y7647533D01*
X1257503Y7647025D01*
X1369974Y7646974D01*
X1374952Y7647228D01*
X1379931Y7647990D01*
X1384757Y7649209D01*
X1389430Y7650886D01*
X1393901Y7653070D01*
X1398168Y7655661D01*
X1402130Y7658658D01*
X1405788Y7662062D01*
X1409090Y7665821D01*
X1411986Y7669834D01*
X1414475Y7674152D01*
X1416558Y7678724D01*
X1418132Y7683449D01*
X1419250Y7688275D01*
X1419860Y7693253D01*
X1419961Y7698231D01*
X1419606Y7703210D01*
X1418742Y7708087D01*
X1417370Y7712913D01*
X1415592Y7717536D01*
X1413306Y7721955D01*
X1410614Y7726172D01*
X1407464Y7730083D01*
X1404010Y7733639D01*
X1400200Y7736840D01*
X1396085Y7739634D01*
X1391716Y7742021D01*
X1387094Y7743952D01*
X1382318Y7745425D01*
X1377442Y7746390D01*
X1372463Y7746898D01*
G37*
G36*
X905002Y7746949D02*
G01*
X900023Y7746746D01*
X895096Y7745984D01*
X890269Y7744764D01*
X885596Y7743037D01*
X881075Y7740903D01*
X876808Y7738313D01*
X872845Y7735265D01*
X869187Y7731912D01*
X865886Y7728153D01*
X862990Y7724089D01*
X860501Y7719771D01*
X858469Y7715250D01*
X856843Y7710525D01*
X855776Y7705648D01*
X855116Y7700721D01*
X855014Y7695742D01*
X855370Y7690764D01*
X856234Y7685836D01*
X857605Y7681061D01*
X859434Y7676388D01*
X861669Y7671968D01*
X864412Y7667802D01*
X867511Y7663891D01*
X870966Y7660335D01*
X874826Y7657134D01*
X878941Y7654290D01*
X883310Y7651902D01*
X887882Y7649972D01*
X892657Y7648498D01*
X897534Y7647533D01*
X902512Y7647025D01*
X985012Y7646974D01*
X989990Y7647228D01*
X994918Y7647990D01*
X999744Y7649209D01*
X1004417Y7650886D01*
X1008887Y7653070D01*
X1013155Y7655661D01*
X1017117Y7658658D01*
X1020775Y7662062D01*
X1024077Y7665821D01*
X1026972Y7669834D01*
X1029462Y7674152D01*
X1031544Y7678724D01*
X1033119Y7683449D01*
X1034237Y7688275D01*
X1034846Y7693253D01*
X1034999Y7698231D01*
X1034592Y7703210D01*
X1033729Y7708087D01*
X1032408Y7712913D01*
X1030579Y7717536D01*
X1028293Y7721955D01*
X1025601Y7726172D01*
X1022502Y7730083D01*
X1018997Y7733639D01*
X1015187Y7736840D01*
X1011072Y7739634D01*
X1006703Y7742021D01*
X1002080Y7743952D01*
X997305Y7745425D01*
X992428Y7746390D01*
X987501Y7746898D01*
G37*
G36*
X1259992Y6882993D02*
G01*
X1255014Y6882739D01*
X1250086Y6882028D01*
X1245260Y6880758D01*
X1240586Y6879081D01*
X1236065Y6876897D01*
X1231849Y6874306D01*
X1227836Y6871309D01*
X1224178Y6867906D01*
X1220927Y6864146D01*
X1217980Y6860133D01*
X1215491Y6855815D01*
X1213459Y6851243D01*
X1211884Y6846519D01*
X1210767Y6841693D01*
X1210157Y6836714D01*
X1210005Y6831736D01*
X1210360Y6826758D01*
X1211224Y6821881D01*
X1212596Y6817055D01*
X1214424Y6812432D01*
X1216710Y6808012D01*
X1219403Y6803796D01*
X1222502Y6799935D01*
X1226007Y6796328D01*
X1229817Y6793128D01*
X1233932Y6790334D01*
X1238300Y6787946D01*
X1242872Y6786016D01*
X1247648Y6784543D01*
X1252524Y6783527D01*
X1257503Y6783070D01*
X1369974Y6783019D01*
X1374952Y6783222D01*
X1379931Y6783984D01*
X1384757Y6785203D01*
X1389430Y6786930D01*
X1393901Y6789064D01*
X1398168Y6791706D01*
X1402130Y6794703D01*
X1405788Y6798106D01*
X1409090Y6801815D01*
X1411986Y6805879D01*
X1414475Y6810197D01*
X1416558Y6814718D01*
X1418132Y6819442D01*
X1419250Y6824319D01*
X1419860Y6829247D01*
X1419961Y6834225D01*
X1419606Y6839203D01*
X1418742Y6844131D01*
X1417370Y6848906D01*
X1415592Y6853580D01*
X1413306Y6858000D01*
X1410614Y6862165D01*
X1407464Y6866077D01*
X1404010Y6869633D01*
X1400200Y6872833D01*
X1396085Y6875678D01*
X1391716Y6878066D01*
X1387094Y6879996D01*
X1382318Y6881469D01*
X1377442Y6882434D01*
X1372463Y6882942D01*
G37*
G36*
X905002Y6882993D02*
G01*
X900023Y6882739D01*
X895096Y6881977D01*
X890269Y6880758D01*
X885596Y6879081D01*
X881075Y6876897D01*
X876808Y6874306D01*
X872845Y6871309D01*
X869187Y6867906D01*
X865886Y6864146D01*
X862990Y6860133D01*
X860501Y6855815D01*
X858469Y6851243D01*
X856843Y6846519D01*
X855776Y6841693D01*
X855116Y6836714D01*
X855014Y6831736D01*
X855370Y6826758D01*
X856234Y6821881D01*
X857605Y6817055D01*
X859434Y6812432D01*
X861669Y6808012D01*
X864412Y6803796D01*
X867511Y6799884D01*
X870966Y6796328D01*
X874826Y6793128D01*
X878941Y6790334D01*
X883310Y6787946D01*
X887882Y6786016D01*
X892657Y6784543D01*
X897534Y6783527D01*
X902512Y6783070D01*
X985012Y6782968D01*
X989990Y6783222D01*
X994918Y6783984D01*
X999744Y6785203D01*
X1004417Y6786930D01*
X1008887Y6789064D01*
X1013155Y6791655D01*
X1017117Y6794703D01*
X1020775Y6798056D01*
X1024077Y6801815D01*
X1026972Y6805879D01*
X1029462Y6810197D01*
X1031544Y6814718D01*
X1033119Y6819442D01*
X1034237Y6824319D01*
X1034846Y6829247D01*
X1034999Y6834225D01*
X1034592Y6839203D01*
X1033729Y6844131D01*
X1032408Y6848906D01*
X1030579Y6853529D01*
X1028293Y6858000D01*
X1025601Y6862165D01*
X1022502Y6866077D01*
X1018997Y6869633D01*
X1015187Y6872833D01*
X1011072Y6875678D01*
X1006703Y6878066D01*
X1002080Y6879996D01*
X997305Y6881418D01*
X992428Y6882434D01*
X987501Y6882942D01*
G37*
G36*
X1294993Y7584998D02*
G01*
X1294993Y7494981D01*
X1414983Y7494981D01*
X1414983Y7584998D01*
G37*
G36*
X1294993Y7456982D02*
G01*
X1294993Y7376972D01*
X1414983Y7376972D01*
X1414983Y7456982D01*
G37*
G36*
X1294993Y7349998D02*
G01*
X1294993Y7279995D01*
X1414983Y7279995D01*
X1414983Y7349998D01*
G37*
G36*
X1294993Y7249972D02*
G01*
X1294993Y7179970D01*
X1414983Y7179970D01*
X1414983Y7249972D01*
G37*
G36*
X1294993Y7152995D02*
G01*
X1294993Y7072985D01*
X1414983Y7072985D01*
X1414983Y7152995D01*
G37*
G36*
X1294993Y7034987D02*
G01*
X1294993Y6944969D01*
X1414983Y6944969D01*
X1414983Y7034987D01*
G37*
G36*
X1662480Y8204962D02*
G01*
X1657502Y8199983D01*
X1657502Y8146999D01*
X1662480Y8141970D01*
X1707489Y8141970D01*
X1712518Y8146999D01*
X1712518Y8199983D01*
X1707489Y8204962D01*
G37*
G36*
X1662480Y8307984D02*
G01*
X1657502Y8303006D01*
X1657502Y8249970D01*
X1662480Y8244992D01*
X1707489Y8244992D01*
X1712518Y8249970D01*
X1712518Y8303006D01*
X1707489Y8307984D01*
G37*
G36*
X3312464Y3367989D02*
G01*
X3307486Y3362960D01*
X3307486Y3309975D01*
X3312464Y3304997D01*
X3357473Y3304997D01*
X3362502Y3309975D01*
X3362502Y3362960D01*
X3357473Y3367989D01*
G37*
G36*
X3312464Y3264966D02*
G01*
X3307486Y3259988D01*
X3307486Y3207004D01*
X3312464Y3201974D01*
X3357473Y3201974D01*
X3362502Y3207004D01*
X3362502Y3259988D01*
X3357473Y3264966D01*
G37*
G36*
X1655521Y6690004D02*
G01*
X1650492Y6684975D01*
X1650492Y6605016D01*
X1655521Y6599986D01*
X1735480Y6599986D01*
X1740509Y6605016D01*
X1740509Y6627774D01*
X1703476Y6627774D01*
X1703476Y6660794D01*
X1740509Y6660794D01*
X1740509Y6684975D01*
X1735480Y6690004D01*
G37*
G36*
X1815490Y6690004D02*
G01*
X1810512Y6684975D01*
X1810512Y6660794D01*
X1848510Y6660794D01*
X1848510Y6627774D01*
X1810512Y6627774D01*
X1810512Y6605016D01*
X1815490Y6599986D01*
X1894484Y6599986D01*
X1899513Y6605016D01*
X1899513Y6684975D01*
X1894484Y6690004D01*
G37*
G36*
X894994Y6509004D02*
G01*
X890016Y6504025D01*
X890016Y6376009D01*
X894994Y6370980D01*
X1010005Y6370980D01*
X1014984Y6376009D01*
X1014476Y6418021D01*
X970483Y6418021D01*
X970483Y6462979D01*
X1015492Y6462979D01*
X1014984Y6504025D01*
X1010005Y6509004D01*
G37*
G36*
X1109980Y6509004D02*
G01*
X1105001Y6504025D01*
X1105509Y6462979D01*
X1149502Y6462979D01*
X1149502Y6418021D01*
X1105001Y6418021D01*
X1105001Y6376009D01*
X1109980Y6370980D01*
X1224991Y6370980D01*
X1230020Y6376009D01*
X1230020Y6504025D01*
X1224991Y6509004D01*
G37*
G36*
X5032502Y2551988D02*
G01*
X5027472Y2544978D01*
X5027472Y2496972D01*
X5032502Y2491994D01*
X5077460Y2491994D01*
X5082489Y2496972D01*
X5082489Y2544978D01*
X5077460Y2551988D01*
G37*
G36*
X5032502Y2648000D02*
G01*
X5027472Y2642971D01*
X5027472Y2594965D01*
X5032502Y2588006D01*
X5077460Y2588006D01*
X5082489Y2594965D01*
X5082489Y2642971D01*
X5077460Y2648000D01*
G37*
G36*
X5032502Y3198012D02*
G01*
X5027472Y3192983D01*
X5027472Y3144977D01*
X5032502Y3137966D01*
X5077460Y3137966D01*
X5082489Y3144977D01*
X5082489Y3192983D01*
X5077460Y3198012D01*
G37*
G36*
X5032502Y3102000D02*
G01*
X5027472Y3094990D01*
X5027472Y3046984D01*
X5032502Y3042005D01*
X5077460Y3042005D01*
X5082489Y3046984D01*
X5082489Y3094990D01*
X5077460Y3102000D01*
G37*
G36*
X3487978Y7177481D02*
G01*
X3483000Y7172502D01*
X3483000Y7057491D01*
X3487978Y7052513D01*
X3529990Y7052970D01*
X3529990Y7096963D01*
X3574999Y7096963D01*
X3574999Y7052005D01*
X3615994Y7052513D01*
X3620973Y7057491D01*
X3620973Y7172502D01*
X3615994Y7177481D01*
G37*
G36*
X3487978Y6962495D02*
G01*
X3483000Y6957466D01*
X3483000Y6842506D01*
X3487978Y6837476D01*
X3615994Y6837476D01*
X3620973Y6842506D01*
X3620973Y6957466D01*
X3615994Y6962495D01*
X3574999Y6961987D01*
X3574999Y6917994D01*
X3529990Y6917994D01*
X3529990Y6962495D01*
G37*
G36*
X1109980Y6298996D02*
G01*
X1105001Y6294018D01*
X1105509Y6252006D01*
X1149502Y6252006D01*
X1149502Y6206998D01*
X1104493Y6206998D01*
X1105001Y6166002D01*
X1109980Y6161024D01*
X1224991Y6161024D01*
X1230020Y6166002D01*
X1230020Y6294018D01*
X1224991Y6298996D01*
G37*
G36*
X894994Y6298996D02*
G01*
X890016Y6294018D01*
X890016Y6166002D01*
X894994Y6161024D01*
X1010005Y6161024D01*
X1014984Y6166002D01*
X1014476Y6206998D01*
X970483Y6206998D01*
X970483Y6252006D01*
X1014984Y6252006D01*
X1014984Y6294018D01*
X1010005Y6298996D01*
G37*
G36*
X3329990Y7453985D02*
G01*
X3325012Y7449007D01*
X3325469Y7406995D01*
X3369513Y7406995D01*
X3369513Y7361986D01*
X3324504Y7361986D01*
X3325012Y7320991D01*
X3329990Y7315962D01*
X3445001Y7315962D01*
X3449980Y7320991D01*
X3449980Y7449007D01*
X3445001Y7453985D01*
G37*
G36*
X3115005Y7453985D02*
G01*
X3109976Y7449007D01*
X3109976Y7320991D01*
X3115005Y7315962D01*
X3230016Y7315962D01*
X3234994Y7320991D01*
X3234486Y7361986D01*
X3190494Y7361986D01*
X3190494Y7406995D01*
X3234994Y7406995D01*
X3234994Y7449007D01*
X3230016Y7453985D01*
G37*
G36*
X3125012Y7954009D02*
G01*
X3119983Y7948980D01*
X3120491Y7906969D01*
X3164484Y7906969D01*
X3164484Y7862011D01*
X3119475Y7862011D01*
X3119983Y7820964D01*
X3125012Y7815986D01*
X3239973Y7815986D01*
X3245002Y7820964D01*
X3245002Y7948980D01*
X3239973Y7954009D01*
G37*
G36*
X2909976Y7954009D02*
G01*
X2904998Y7948980D01*
X2904998Y7820964D01*
X2909976Y7815986D01*
X3024987Y7815986D01*
X3030016Y7820964D01*
X3029508Y7862011D01*
X2985516Y7862011D01*
X2985516Y7906969D01*
X3030016Y7906969D01*
X3030016Y7948980D01*
X3024987Y7954009D01*
G37*
G36*
X3385007Y8154009D02*
G01*
X3379978Y8148980D01*
X3380486Y8106968D01*
X3424478Y8106968D01*
X3424478Y8062010D01*
X3379470Y8062010D01*
X3379978Y8020964D01*
X3385007Y8015986D01*
X3500018Y8015986D01*
X3504996Y8020964D01*
X3504996Y8148980D01*
X3500018Y8154009D01*
G37*
G36*
X3169970Y8154009D02*
G01*
X3164992Y8148980D01*
X3164992Y8020964D01*
X3169970Y8015986D01*
X3284982Y8015986D01*
X3290011Y8020964D01*
X3289503Y8062010D01*
X3245510Y8062010D01*
X3245510Y8106968D01*
X3290011Y8106968D01*
X3290011Y8148980D01*
X3284982Y8154009D01*
G37*
G36*
X3077006Y6555486D02*
G01*
X3036011Y6554978D01*
X3030982Y6549999D01*
X3030982Y6434988D01*
X3036011Y6429959D01*
X3163976Y6429959D01*
X3169005Y6434988D01*
X3169005Y6549999D01*
X3163976Y6554978D01*
X3122015Y6554470D01*
X3122015Y6510477D01*
X3077006Y6510477D01*
G37*
G36*
X3036011Y6769963D02*
G01*
X3030982Y6764985D01*
X3030982Y6649974D01*
X3036011Y6644995D01*
X3077006Y6645503D01*
X3077006Y6689496D01*
X3122015Y6689496D01*
X3122015Y6644995D01*
X3163976Y6644995D01*
X3169005Y6649974D01*
X3169005Y6764985D01*
X3163976Y6769963D01*
G37*
G36*
X3045002Y6963968D02*
G01*
X3039973Y6958990D01*
X3040481Y6916978D01*
X3084474Y6916978D01*
X3084474Y6871970D01*
X3039516Y6871970D01*
X3039973Y6830974D01*
X3045002Y6825996D01*
X3160014Y6825996D01*
X3164992Y6830974D01*
X3164992Y6958990D01*
X3160014Y6963968D01*
G37*
G36*
X2830017Y6963968D02*
G01*
X2824988Y6958990D01*
X2824988Y6830974D01*
X2830017Y6825996D01*
X2944977Y6825996D01*
X2950006Y6830974D01*
X2949498Y6871970D01*
X2905506Y6871970D01*
X2905506Y6916978D01*
X2950006Y6916978D01*
X2950006Y6958990D01*
X2944977Y6963968D01*
G37*
G36*
X3297021Y7025487D02*
G01*
X3255975Y7024979D01*
X3250996Y7020001D01*
X3250996Y6904990D01*
X3255975Y6899960D01*
X3383991Y6899960D01*
X3389020Y6904990D01*
X3389020Y7020001D01*
X3383991Y7024979D01*
X3341979Y7024471D01*
X3341979Y6980478D01*
X3297021Y6980478D01*
G37*
G36*
X3255975Y7239965D02*
G01*
X3250996Y7234986D01*
X3250996Y7119975D01*
X3255975Y7114997D01*
X3297021Y7115505D01*
X3297021Y7159498D01*
X3341979Y7159498D01*
X3341979Y7114997D01*
X3383991Y7114997D01*
X3389020Y7119975D01*
X3389020Y7234986D01*
X3383991Y7239965D01*
G37*
G36*
X1827022Y8220506D02*
G01*
X1785975Y8219998D01*
X1780997Y8214969D01*
X1780997Y8099958D01*
X1785975Y8094980D01*
X1913991Y8094980D01*
X1919020Y8099958D01*
X1919020Y8214969D01*
X1913991Y8219998D01*
X1871980Y8219490D01*
X1871980Y8175498D01*
X1827022Y8175498D01*
G37*
G36*
X1785975Y8434984D02*
G01*
X1780997Y8430006D01*
X1780997Y8314994D01*
X1785975Y8309965D01*
X1827022Y8310473D01*
X1827022Y8354466D01*
X1871980Y8354466D01*
X1871980Y8309965D01*
X1913991Y8309965D01*
X1919020Y8314994D01*
X1919020Y8430006D01*
X1913991Y8434984D01*
G37*
D19*
X3980756Y2489751D02*
G01*
X4065607Y2574602D01*
X3924165Y2546316D02*
G01*
X4009016Y2631168D01*
X3867599Y2602908D02*
G01*
X3952450Y2687759D01*
X3811033Y2659448D02*
G01*
X3895885Y2744299D01*
X3754467Y2716039D02*
G01*
X3839319Y2800891D01*
X3697902Y2772605D02*
G01*
X3782753Y2857456D01*
X3641336Y2829171D02*
G01*
X3726187Y2914022D01*
X3584745Y2885737D02*
G01*
X3669596Y2970588D01*
X3585659Y3193346D02*
G01*
X3670510Y3108495D01*
X3642225Y3249912D02*
G01*
X3727076Y3165060D01*
X3698791Y3306503D02*
G01*
X3783642Y3221652D01*
X3755356Y3363043D02*
G01*
X3840208Y3278192D01*
X3811948Y3419635D02*
G01*
X3896799Y3334783D01*
X3868488Y3476175D02*
G01*
X3953339Y3391324D01*
X3925079Y3532766D02*
G01*
X4009931Y3447915D01*
X3981645Y3589332D02*
G01*
X4066496Y3504481D01*
X4204378Y3505370D02*
G01*
X4289229Y3590221D01*
X4260969Y3448804D02*
G01*
X4345820Y3533655D01*
X4317535Y3392238D02*
G01*
X4402386Y3477089D01*
X4374100Y3335672D02*
G01*
X4458952Y3420524D01*
X4430666Y3279106D02*
G01*
X4515518Y3363958D01*
X4487232Y3222541D02*
G01*
X4572083Y3307392D01*
X4543798Y3165975D02*
G01*
X4628649Y3250826D01*
X4600389Y3109384D02*
G01*
X4685240Y3194235D01*
X4599475Y2971502D02*
G01*
X4684326Y2886651D01*
X4542909Y2914911D02*
G01*
X4627760Y2830060D01*
X4486343Y2858345D02*
G01*
X4571194Y2773494D01*
X4429777Y2801780D02*
G01*
X4514629Y2716928D01*
X4373211Y2745214D02*
G01*
X4458063Y2660362D01*
X4316646Y2688648D02*
G01*
X4401497Y2603797D01*
X4260080Y2632082D02*
G01*
X4344931Y2547231D01*
X4203489Y2575491D02*
G01*
X4288340Y2490640D01*
D29*
X1382527Y6268598D02*
G01*
X1419296Y6305367D01*
X1417883Y6233241D02*
G01*
X1454652Y6270010D01*
X1453240Y6197884D02*
G01*
X1490009Y6234653D01*
X1488597Y6162527D02*
G01*
X1525366Y6199296D01*
X1594667Y6199271D02*
G01*
X1631436Y6162502D01*
X1630024Y6234628D02*
G01*
X1666793Y6197859D01*
X1665356Y6269984D02*
G01*
X1702125Y6233215D01*
X1700738Y6305341D02*
G01*
X1737507Y6268572D01*
X1700738Y6374643D02*
G01*
X1737507Y6411412D01*
X1665356Y6410025D02*
G01*
X1702125Y6446794D01*
X1630024Y6445356D02*
G01*
X1666793Y6482125D01*
X1594667Y6480738D02*
G01*
X1631436Y6517507D01*
X1488597Y6517482D02*
G01*
X1525366Y6480713D01*
X1453240Y6482125D02*
G01*
X1490009Y6445356D01*
X1417883Y6446768D02*
G01*
X1454652Y6409999D01*
X1382527Y6411412D02*
G01*
X1419296Y6374643D01*
D30*
X996287Y8390509D02*
G01*
X849886Y8390509D01*
X996287Y8263509D02*
G01*
X849886Y8263509D01*
X996287Y8136509D02*
G01*
X849886Y8136509D01*
X996287Y8009509D02*
G01*
X849886Y8009509D01*
X1550108Y8390509D02*
G01*
X1403708Y8390509D01*
X1550108Y8263509D02*
G01*
X1403708Y8263509D01*
X1550108Y8136509D02*
G01*
X1403708Y8136509D01*
X1550108Y8009509D02*
G01*
X1403708Y8009509D01*
D32*
G01*
X3650005Y8019973D03*
G01*
X3650005Y7879969D03*
D33*
G01*
X2919984Y7154976D03*
G01*
X3059988Y7154976D03*
G01*
X3759987Y7034987D03*
G01*
X3899992Y7034987D03*
D35*
G01*
X1225042Y5775070D03*
G01*
X1014984Y5775070D03*
G36*
X2769745Y3047009D02*
G01*
X2800225Y3047009D01*
X2800225Y2947949D01*
X2769745Y2947949D01*
G37*
G36*
X2834746Y3047009D02*
G01*
X2865226Y3047009D01*
X2865226Y2947949D01*
X2834746Y2947949D01*
G37*
G36*
X2899745Y3047009D02*
G01*
X2930225Y3047009D01*
X2930225Y2947949D01*
X2899745Y2947949D01*
G37*
G36*
X2964746Y3047009D02*
G01*
X2995226Y3047009D01*
X2995226Y2947949D01*
X2964746Y2947949D01*
G37*
G36*
X3029747Y3047009D02*
G01*
X3060227Y3047009D01*
X3060227Y2947949D01*
X3029747Y2947949D01*
G37*
G36*
X3094746Y3047009D02*
G01*
X3125226Y3047009D01*
X3125226Y2947949D01*
X3094746Y2947949D01*
G37*
G36*
X3159747Y3047009D02*
G01*
X3190227Y3047009D01*
X3190227Y2947949D01*
X3159747Y2947949D01*
G37*
G36*
X3159747Y3632012D02*
G01*
X3190227Y3632012D01*
X3190227Y3532952D01*
X3159747Y3532952D01*
G37*
G36*
X3094746Y3632012D02*
G01*
X3125226Y3632012D01*
X3125226Y3532952D01*
X3094746Y3532952D01*
G37*
G36*
X3029747Y3632012D02*
G01*
X3060227Y3632012D01*
X3060227Y3532952D01*
X3029747Y3532952D01*
G37*
G36*
X2964746Y3632012D02*
G01*
X2995226Y3632012D01*
X2995226Y3532952D01*
X2964746Y3532952D01*
G37*
G36*
X2899745Y3632012D02*
G01*
X2930225Y3632012D01*
X2930225Y3532952D01*
X2899745Y3532952D01*
G37*
G36*
X2834746Y3632012D02*
G01*
X2865226Y3632012D01*
X2865226Y3532952D01*
X2834746Y3532952D01*
G37*
G36*
X2769745Y3632012D02*
G01*
X2800225Y3632012D01*
X2800225Y3532952D01*
X2769745Y3532952D01*
G37*
D41*
G01*
X5249992Y6430002D03*
G01*
X5249992Y7829999D03*
G36*
X1446855Y6340000D02*
G01*
X1560004Y6453149D01*
X1673156Y6340000D01*
X1560004Y6226848D01*
G37*
D49*
G01*
X2324988Y2529992D03*
D50*
G01*
X815009Y2284984D03*
D51*
G01*
X859993Y3654983D03*
D52*
G01*
X1275003Y3654983D03*
D53*
G01*
X1894992Y3654983D03*
D54*
G01*
X2324988Y3549980D03*
D43*
G01*
X2324988Y3454984D03*
G01*
X2324988Y3345002D03*
G01*
X2324988Y3234994D03*
G01*
X2324988Y3124987D03*
G01*
X2324988Y3014979D03*
G01*
X2324988Y2904997D03*
G01*
X2324988Y2794990D03*
G01*
X2324988Y2684983D03*
D55*
G01*
X4284979Y7939989D03*
G01*
X4284979Y7539989D03*
D56*
G01*
X3785006Y6079997D03*
G01*
X3385007Y6079997D03*
D57*
G01*
X3929989Y7250734D03*
G01*
X3929989Y7569250D03*
G01*
X4109999Y6475729D03*
G01*
X4109999Y6794245D03*
G36*
X3080001Y6156594D02*
G01*
X3228500Y6156594D01*
X3228500Y5843396D01*
X3080001Y5843396D01*
G37*
G36*
X2761485Y6156594D02*
G01*
X2909984Y6156594D01*
X2909984Y5843396D01*
X2761485Y5843396D01*
G37*
D35*
G01*
X1730019Y5769990D03*
G01*
X1519961Y5769990D03*
G36*
X1100000Y8300001D02*
G01*
X1299999Y8300001D01*
X1299999Y8100001D01*
X1100000Y8100001D01*
G37*
D60*
G01*
X3189986Y7747482D03*
G01*
X3189986Y7682484D03*
G01*
X3189986Y7617460D03*
G01*
X3189986Y7552461D03*
G01*
X3650005Y7552461D03*
G01*
X3650005Y7617460D03*
G01*
X3650005Y7682484D03*
G01*
X3650005Y7747482D03*
G01*
X3314979Y6717512D03*
G01*
X3314979Y6652513D03*
G01*
X3314979Y6587489D03*
G01*
X3314979Y6522491D03*
G01*
X3774998Y6522491D03*
G01*
X3774998Y6587489D03*
G01*
X3774998Y6652513D03*
G01*
X3774998Y6717512D03*
D61*
G01*
X5419979Y2414981D03*
D62*
G01*
X5419979Y3274974D03*
M02*
