G04 Layer: TopSilkscreenLayer*
G04 EasyEDA v6.4.30, 2022-01-21 15:04:52*
G04 c46cb3ee090d4a1eb143410c139ed502,dc6f5eff9a9d40dcab93570daa8facdf,10*
G04 Gerber Generator version 0.2*
G04 Scale: 100 percent, Rotated: No, Reflected: No *
G04 Dimensions in millimeters *
G04 leading zeros omitted , absolute positions ,4 integer and 5 decimal *
%FSLAX45Y45*%
%MOMM*%

%ADD10C,0.2540*%
%ADD17C,0.4000*%
%ADD25C,0.3000*%
%ADD67C,0.1524*%
%ADD68C,0.2032*%
%ADD69C,0.2030*%
%ADD70C,0.2000*%
%ADD71C,0.2500*%
%ADD72C,0.1500*%
%ADD73C,0.2400*%

%LPD*%
D67*
X1120089Y8613046D02*
G01*
X1213561Y8613046D01*
X5172770Y8774656D02*
G01*
X5162356Y8785070D01*
X5146862Y8790404D01*
X5126034Y8790404D01*
X5110286Y8785070D01*
X5099872Y8774656D01*
X5099872Y8764242D01*
X5105206Y8754082D01*
X5110286Y8748748D01*
X5120700Y8743668D01*
X5151942Y8733254D01*
X5162356Y8727920D01*
X5167436Y8722840D01*
X5172770Y8712426D01*
X5172770Y8696932D01*
X5162356Y8686518D01*
X5146862Y8681184D01*
X5126034Y8681184D01*
X5110286Y8686518D01*
X5099872Y8696932D01*
X5207060Y8790404D02*
G01*
X5232968Y8681184D01*
X5258876Y8790404D02*
G01*
X5232968Y8681184D01*
X5258876Y8790404D02*
G01*
X5285038Y8681184D01*
X5310946Y8790404D02*
G01*
X5285038Y8681184D01*
X5086713Y8239658D02*
G01*
X5086713Y8146186D01*
X5039977Y8192922D02*
G01*
X5133449Y8192922D01*
X5230223Y8255406D02*
G01*
X5178153Y8255406D01*
X5173073Y8208670D01*
X5178153Y8213750D01*
X5193901Y8218830D01*
X5209395Y8218830D01*
X5224889Y8213750D01*
X5235303Y8203336D01*
X5240637Y8187842D01*
X5240637Y8177428D01*
X5235303Y8161680D01*
X5224889Y8151520D01*
X5209395Y8146186D01*
X5193901Y8146186D01*
X5178153Y8151520D01*
X5173073Y8156600D01*
X5167739Y8167014D01*
X5274927Y8255406D02*
G01*
X5316329Y8146186D01*
X5357985Y8255406D02*
G01*
X5316329Y8146186D01*
X3037898Y5739267D02*
G01*
X3032818Y5749681D01*
X3022404Y5760095D01*
X3011990Y5765429D01*
X2991162Y5765429D01*
X2980748Y5760095D01*
X2970334Y5749681D01*
X2965254Y5739267D01*
X2959920Y5723773D01*
X2959920Y5697865D01*
X2965254Y5682117D01*
X2970334Y5671703D01*
X2980748Y5661543D01*
X2991162Y5656209D01*
X3011990Y5656209D01*
X3022404Y5661543D01*
X3032818Y5671703D01*
X3037898Y5682117D01*
X3037898Y5697865D01*
X3011990Y5697865D02*
G01*
X3037898Y5697865D01*
X3072188Y5765429D02*
G01*
X3072188Y5656209D01*
X3072188Y5765429D02*
G01*
X3144832Y5656209D01*
X3144832Y5765429D02*
G01*
X3144832Y5656209D01*
X3179122Y5765429D02*
G01*
X3179122Y5656209D01*
X3179122Y5765429D02*
G01*
X3215698Y5765429D01*
X3231192Y5760095D01*
X3241606Y5749681D01*
X3246686Y5739267D01*
X3252020Y5723773D01*
X3252020Y5697865D01*
X3246686Y5682117D01*
X3241606Y5671703D01*
X3231192Y5661543D01*
X3215698Y5656209D01*
X3179122Y5656209D01*
X4851859Y5334657D02*
G01*
X4851859Y5241185D01*
X4804869Y5287921D02*
G01*
X4898595Y5287921D01*
X4995115Y5350405D02*
G01*
X4943299Y5350405D01*
X4937965Y5303669D01*
X4943299Y5308749D01*
X4958793Y5314083D01*
X4974287Y5314083D01*
X4990035Y5308749D01*
X5000449Y5298335D01*
X5005529Y5282841D01*
X5005529Y5272427D01*
X5000449Y5256933D01*
X4990035Y5246519D01*
X4974287Y5241185D01*
X4958793Y5241185D01*
X4943299Y5246519D01*
X4937965Y5251599D01*
X4932885Y5262013D01*
X5039819Y5350405D02*
G01*
X5081475Y5241185D01*
X5122877Y5350405D02*
G01*
X5081475Y5241185D01*
X5230065Y5334657D02*
G01*
X5219651Y5345071D01*
X5203903Y5350405D01*
X5183329Y5350405D01*
X5167581Y5345071D01*
X5157167Y5334657D01*
X5157167Y5324243D01*
X5162501Y5314083D01*
X5167581Y5308749D01*
X5177995Y5303669D01*
X5209237Y5293255D01*
X5219651Y5287921D01*
X5224731Y5282841D01*
X5230065Y5272427D01*
X5230065Y5256933D01*
X5219651Y5246519D01*
X5203903Y5241185D01*
X5183329Y5241185D01*
X5167581Y5246519D01*
X5157167Y5256933D01*
X5264355Y5350405D02*
G01*
X5290263Y5241185D01*
X5316171Y5350405D02*
G01*
X5290263Y5241185D01*
X5316171Y5350405D02*
G01*
X5342079Y5241185D01*
X5368241Y5350405D02*
G01*
X5342079Y5241185D01*
X5152887Y5014241D02*
G01*
X5147807Y5024655D01*
X5137393Y5035069D01*
X5126979Y5040403D01*
X5106151Y5040403D01*
X5095737Y5035069D01*
X5085323Y5024655D01*
X5080243Y5014241D01*
X5074909Y4998747D01*
X5074909Y4972839D01*
X5080243Y4957091D01*
X5085323Y4946677D01*
X5095737Y4936517D01*
X5106151Y4931183D01*
X5126979Y4931183D01*
X5137393Y4936517D01*
X5147807Y4946677D01*
X5152887Y4957091D01*
X5152887Y4972839D01*
X5126979Y4972839D02*
G01*
X5152887Y4972839D01*
X5187177Y5040403D02*
G01*
X5187177Y4931183D01*
X5187177Y5040403D02*
G01*
X5259821Y4931183D01*
X5259821Y5040403D02*
G01*
X5259821Y4931183D01*
X5294111Y5040403D02*
G01*
X5294111Y4931183D01*
X5294111Y5040403D02*
G01*
X5330687Y5040403D01*
X5346181Y5035069D01*
X5356595Y5024655D01*
X5361675Y5014241D01*
X5367009Y4998747D01*
X5367009Y4972839D01*
X5361675Y4957091D01*
X5356595Y4946677D01*
X5346181Y4936517D01*
X5330687Y4931183D01*
X5294111Y4931183D01*
X3410709Y2517874D02*
G01*
X3400295Y2512794D01*
X3389881Y2502380D01*
X3384547Y2491966D01*
X3384547Y2471138D01*
X3389881Y2460724D01*
X3400295Y2450310D01*
X3410709Y2445230D01*
X3426203Y2439896D01*
X3452111Y2439896D01*
X3467859Y2445230D01*
X3478273Y2450310D01*
X3488433Y2460724D01*
X3493767Y2471138D01*
X3493767Y2491966D01*
X3488433Y2502380D01*
X3478273Y2512794D01*
X3467859Y2517874D01*
X3452111Y2517874D01*
X3452111Y2491966D02*
G01*
X3452111Y2517874D01*
X3384547Y2552164D02*
G01*
X3493767Y2552164D01*
X3384547Y2552164D02*
G01*
X3493767Y2624808D01*
X3384547Y2624808D02*
G01*
X3493767Y2624808D01*
X3384547Y2659098D02*
G01*
X3493767Y2659098D01*
X3384547Y2659098D02*
G01*
X3384547Y2695674D01*
X3389881Y2711168D01*
X3400295Y2721582D01*
X3410709Y2726662D01*
X3426203Y2731996D01*
X3452111Y2731996D01*
X3467859Y2726662D01*
X3478273Y2721582D01*
X3488433Y2711168D01*
X3493767Y2695674D01*
X3493767Y2659098D01*
X5101696Y4724687D02*
G01*
X5101696Y4631215D01*
X5054960Y4677953D02*
G01*
X5148432Y4677953D01*
X5245206Y4740437D02*
G01*
X5193136Y4740437D01*
X5188056Y4693699D01*
X5193136Y4698779D01*
X5208884Y4703861D01*
X5224378Y4703861D01*
X5239872Y4698779D01*
X5250286Y4688365D01*
X5255620Y4672871D01*
X5255620Y4662457D01*
X5250286Y4646711D01*
X5239872Y4636549D01*
X5224378Y4631215D01*
X5208884Y4631215D01*
X5193136Y4636549D01*
X5188056Y4641629D01*
X5182722Y4652045D01*
X5289910Y4740437D02*
G01*
X5331312Y4631215D01*
X5372968Y4740437D02*
G01*
X5331312Y4631215D01*
X3556680Y2519644D02*
G01*
X3556680Y2426169D01*
X3509944Y2472905D02*
G01*
X3603416Y2472905D01*
X3648120Y2535392D02*
G01*
X3705270Y2535392D01*
X3674282Y2493733D01*
X3689776Y2493733D01*
X3700190Y2488653D01*
X3705270Y2483319D01*
X3710604Y2467825D01*
X3710604Y2457411D01*
X3705270Y2441917D01*
X3694856Y2431503D01*
X3679362Y2426169D01*
X3663868Y2426169D01*
X3648120Y2431503D01*
X3643040Y2436583D01*
X3637706Y2447000D01*
X3749974Y2452334D02*
G01*
X3744894Y2447000D01*
X3749974Y2441917D01*
X3755308Y2447000D01*
X3749974Y2452334D01*
X3800012Y2535392D02*
G01*
X3857162Y2535392D01*
X3825920Y2493733D01*
X3841414Y2493733D01*
X3851828Y2488653D01*
X3857162Y2483319D01*
X3862242Y2467825D01*
X3862242Y2457411D01*
X3857162Y2441917D01*
X3846748Y2431503D01*
X3831000Y2426169D01*
X3815506Y2426169D01*
X3800012Y2431503D01*
X3794678Y2436583D01*
X3789598Y2447000D01*
X3896532Y2535392D02*
G01*
X3938188Y2426169D01*
X3979590Y2535392D02*
G01*
X3938188Y2426169D01*
X5081668Y8924762D02*
G01*
X5081668Y8831290D01*
X5034932Y8878026D02*
G01*
X5128404Y8878026D01*
X5225178Y8940256D02*
G01*
X5173108Y8940256D01*
X5168028Y8893520D01*
X5173108Y8898854D01*
X5188856Y8903934D01*
X5204350Y8903934D01*
X5219844Y8898854D01*
X5230258Y8888440D01*
X5235592Y8872692D01*
X5235592Y8862278D01*
X5230258Y8846784D01*
X5219844Y8836370D01*
X5204350Y8831290D01*
X5188856Y8831290D01*
X5173108Y8836370D01*
X5168028Y8841704D01*
X5162694Y8852118D01*
X5269882Y8940256D02*
G01*
X5311284Y8831290D01*
X5352940Y8940256D02*
G01*
X5311284Y8831290D01*
X4295020Y2330277D02*
G01*
X4295020Y2221316D01*
X4295020Y2330277D02*
G01*
X4341756Y2330277D01*
X4357243Y2325194D01*
X4362577Y2319865D01*
X4367659Y2309456D01*
X4367659Y2293952D01*
X4362577Y2283536D01*
X4357243Y2278466D01*
X4341756Y2273127D01*
X4295020Y2273127D01*
X4474855Y2314783D02*
G01*
X4464438Y2325194D01*
X4448688Y2330277D01*
X4428119Y2330277D01*
X4412358Y2325194D01*
X4401954Y2314783D01*
X4401954Y2304379D01*
X4407288Y2293952D01*
X4412358Y2288623D01*
X4422787Y2283536D01*
X4454022Y2273127D01*
X4464438Y2268044D01*
X4469508Y2262715D01*
X4474855Y2252306D01*
X4474855Y2236802D01*
X4464438Y2226386D01*
X4448688Y2221316D01*
X4428119Y2221316D01*
X4412358Y2226386D01*
X4401954Y2236802D01*
X5080012Y4430262D02*
G01*
X5080012Y4321281D01*
X5080012Y4430262D02*
G01*
X5126746Y4430262D01*
X5142250Y4425175D01*
X5147579Y4419838D01*
X5152661Y4409422D01*
X5152661Y4399000D01*
X5147579Y4388601D01*
X5142250Y4383514D01*
X5126746Y4378431D01*
X5080012Y4378431D02*
G01*
X5126746Y4378431D01*
X5142250Y4373112D01*
X5147579Y4368025D01*
X5152661Y4357611D01*
X5152661Y4341850D01*
X5147579Y4331451D01*
X5142250Y4326364D01*
X5126746Y4321281D01*
X5080012Y4321281D01*
X5259844Y4430262D02*
G01*
X5186941Y4321281D01*
X5186941Y4430262D02*
G01*
X5259844Y4430262D01*
X5186941Y4321281D02*
G01*
X5259844Y4321281D01*
X5294142Y4430262D02*
G01*
X5294142Y4321281D01*
X5294142Y4430262D02*
G01*
X5340875Y4430262D01*
X5356364Y4425175D01*
X5361696Y4419838D01*
X5366778Y4409422D01*
X5366778Y4399000D01*
X5361696Y4388601D01*
X5356364Y4383514D01*
X5340875Y4378431D01*
X5294142Y4378431D01*
X5330461Y4378431D02*
G01*
X5366778Y4321281D01*
X3675374Y3499594D02*
G01*
X3730515Y3444453D01*
X3745062Y3437089D01*
X3759789Y3437089D01*
X3774518Y3444633D01*
X3781882Y3451997D01*
X3789245Y3466546D01*
X3789245Y3481273D01*
X3781882Y3495822D01*
X3726743Y3550960D01*
X3765717Y3560480D02*
G01*
X3769309Y3571615D01*
X3769489Y3593706D01*
X3846540Y3516655D01*
X3877830Y8189249D02*
G01*
X3872750Y8199663D01*
X3862336Y8210077D01*
X3851922Y8215411D01*
X3831094Y8215411D01*
X3820680Y8210077D01*
X3810520Y8199663D01*
X3805186Y8189249D01*
X3800106Y8173755D01*
X3800106Y8147847D01*
X3805186Y8132099D01*
X3810520Y8121939D01*
X3820680Y8111525D01*
X3831094Y8106191D01*
X3851922Y8106191D01*
X3862336Y8111525D01*
X3872750Y8121939D01*
X3877830Y8132099D01*
X3974604Y8199663D02*
G01*
X3969270Y8210077D01*
X3953776Y8215411D01*
X3943362Y8215411D01*
X3927868Y8210077D01*
X3917454Y8194583D01*
X3912120Y8168675D01*
X3912120Y8142513D01*
X3917454Y8121939D01*
X3927868Y8111525D01*
X3943362Y8106191D01*
X3948696Y8106191D01*
X3964190Y8111525D01*
X3974604Y8121939D01*
X3979684Y8137433D01*
X3979684Y8142513D01*
X3974604Y8158261D01*
X3964190Y8168675D01*
X3948696Y8173755D01*
X3943362Y8173755D01*
X3927868Y8168675D01*
X3917454Y8158261D01*
X3912120Y8142513D01*
X2657762Y7174542D02*
G01*
X2652682Y7184702D01*
X2642268Y7195116D01*
X2631854Y7200450D01*
X2611026Y7200450D01*
X2600612Y7195116D01*
X2590198Y7184702D01*
X2585118Y7174542D01*
X2579784Y7158794D01*
X2579784Y7132886D01*
X2585118Y7117392D01*
X2590198Y7106978D01*
X2600612Y7096564D01*
X2611026Y7091230D01*
X2631854Y7091230D01*
X2642268Y7096564D01*
X2652682Y7106978D01*
X2657762Y7117392D01*
X2764950Y7200450D02*
G01*
X2712880Y7091230D01*
X2692052Y7200450D02*
G01*
X2764950Y7200450D01*
X3728138Y6854393D02*
G01*
X3722804Y6864807D01*
X3712390Y6874967D01*
X3701976Y6880301D01*
X3681402Y6880301D01*
X3670988Y6874967D01*
X3660574Y6864807D01*
X3655240Y6854393D01*
X3650160Y6838645D01*
X3650160Y6812737D01*
X3655240Y6797243D01*
X3660574Y6786829D01*
X3670988Y6776415D01*
X3681402Y6771081D01*
X3701976Y6771081D01*
X3712390Y6776415D01*
X3722804Y6786829D01*
X3728138Y6797243D01*
X3762428Y6859473D02*
G01*
X3772842Y6864807D01*
X3788336Y6880301D01*
X3788336Y6771081D01*
X3833040Y6880301D02*
G01*
X3890190Y6880301D01*
X3858948Y6838645D01*
X3874442Y6838645D01*
X3884856Y6833565D01*
X3890190Y6828231D01*
X3895270Y6812737D01*
X3895270Y6802323D01*
X3890190Y6786829D01*
X3879776Y6776415D01*
X3864282Y6771081D01*
X3848534Y6771081D01*
X3833040Y6776415D01*
X3827706Y6781495D01*
X3822626Y6791909D01*
X4780018Y2580411D02*
G01*
X4780018Y2471191D01*
X4780018Y2580411D02*
G01*
X4826754Y2580411D01*
X4842248Y2575077D01*
X4847582Y2569997D01*
X4852662Y2559583D01*
X4852662Y2549169D01*
X4847582Y2538755D01*
X4842248Y2533675D01*
X4826754Y2528341D01*
X4780018Y2528341D01*
X4816340Y2528341D02*
G01*
X4852662Y2471191D01*
X4959850Y2580411D02*
G01*
X4907780Y2471191D01*
X4886952Y2580411D02*
G01*
X4959850Y2580411D01*
X1546860Y8879839D02*
G01*
X1546860Y8786113D01*
X1500123Y8833104D02*
G01*
X1593595Y8833104D01*
X1320037Y8645397D02*
G01*
X1320037Y8536178D01*
X1320037Y8645397D02*
G01*
X1366773Y8645397D01*
X1382268Y8640063D01*
X1387602Y8634984D01*
X1392681Y8624570D01*
X1392681Y8614155D01*
X1387602Y8603742D01*
X1382268Y8598662D01*
X1366773Y8593328D01*
X1320037Y8593328D02*
G01*
X1366773Y8593328D01*
X1382268Y8588247D01*
X1387602Y8582913D01*
X1392681Y8572500D01*
X1392681Y8557005D01*
X1387602Y8546592D01*
X1382268Y8541512D01*
X1366773Y8536178D01*
X1320037Y8536178D01*
X1468628Y8645397D02*
G01*
X1426971Y8536178D01*
X1468628Y8645397D02*
G01*
X1510029Y8536178D01*
X1442720Y8572500D02*
G01*
X1494536Y8572500D01*
X1580895Y8645397D02*
G01*
X1580895Y8536178D01*
X1544320Y8645397D02*
G01*
X1617218Y8645397D01*
X899947Y6005329D02*
G01*
X899947Y5896109D01*
X899947Y5896109D02*
G01*
X962431Y5896109D01*
X996721Y6005329D02*
G01*
X996721Y5896109D01*
X996721Y6005329D02*
G01*
X1064285Y6005329D01*
X996721Y5953259D02*
G01*
X1038123Y5953259D01*
X996721Y5896109D02*
G01*
X1064285Y5896109D01*
X1098575Y6005329D02*
G01*
X1098575Y5896109D01*
X1098575Y6005329D02*
G01*
X1134897Y6005329D01*
X1150391Y6000249D01*
X1160805Y5989835D01*
X1165885Y5979421D01*
X1171219Y5963673D01*
X1171219Y5937765D01*
X1165885Y5922271D01*
X1160805Y5911857D01*
X1150391Y5901443D01*
X1134897Y5896109D01*
X1098575Y5896109D01*
X1210589Y5979421D02*
G01*
X1210589Y5984501D01*
X1215923Y5994915D01*
X1221003Y6000249D01*
X1231417Y6005329D01*
X1252245Y6005329D01*
X1262659Y6000249D01*
X1267739Y5994915D01*
X1273073Y5984501D01*
X1273073Y5974087D01*
X1267739Y5963673D01*
X1257325Y5948179D01*
X1205509Y5896109D01*
X1278153Y5896109D01*
X1860001Y5815103D02*
G01*
X1860001Y5706137D01*
X1860001Y5815103D02*
G01*
X1906737Y5815103D01*
X1922231Y5810023D01*
X1927565Y5804689D01*
X1932645Y5794529D01*
X1932645Y5784115D01*
X1927565Y5773701D01*
X1922231Y5768367D01*
X1906737Y5763287D01*
X1860001Y5763287D01*
X1896323Y5763287D02*
G01*
X1932645Y5706137D01*
X1977349Y5815103D02*
G01*
X2034499Y5815103D01*
X2003257Y5773701D01*
X2019005Y5773701D01*
X2029419Y5768367D01*
X2034499Y5763287D01*
X2039833Y5747539D01*
X2039833Y5737379D01*
X2034499Y5721631D01*
X2024085Y5711217D01*
X2008591Y5706137D01*
X1993097Y5706137D01*
X1977349Y5711217D01*
X1972269Y5716551D01*
X1966935Y5726965D01*
X2255138Y5815192D02*
G01*
X2255138Y5706226D01*
X2255138Y5815192D02*
G01*
X2301875Y5815192D01*
X2317368Y5810112D01*
X2322702Y5805032D01*
X2327783Y5794618D01*
X2327783Y5784204D01*
X2322702Y5773790D01*
X2317368Y5768456D01*
X2301875Y5763376D01*
X2255138Y5763376D01*
X2291461Y5763376D02*
G01*
X2327783Y5706226D01*
X2414143Y5815192D02*
G01*
X2362072Y5742548D01*
X2440050Y5742548D01*
X2414143Y5815192D02*
G01*
X2414143Y5706226D01*
X3119975Y3765290D02*
G01*
X3119975Y3687312D01*
X3125055Y3671818D01*
X3135469Y3661404D01*
X3151217Y3656324D01*
X3161631Y3656324D01*
X3177125Y3661404D01*
X3187539Y3671818D01*
X3192619Y3687312D01*
X3192619Y3765290D01*
X3289393Y3749796D02*
G01*
X3284059Y3760210D01*
X3268565Y3765290D01*
X3258151Y3765290D01*
X3242657Y3760210D01*
X3232243Y3744462D01*
X3226909Y3718554D01*
X3226909Y3692646D01*
X3232243Y3671818D01*
X3242657Y3661404D01*
X3258151Y3656324D01*
X3263485Y3656324D01*
X3278979Y3661404D01*
X3289393Y3671818D01*
X3294473Y3687312D01*
X3294473Y3692646D01*
X3289393Y3708140D01*
X3278979Y3718554D01*
X3263485Y3723634D01*
X3258151Y3723634D01*
X3242657Y3718554D01*
X3232243Y3708140D01*
X3226909Y3692646D01*
X2514991Y2970311D02*
G01*
X2514991Y2861345D01*
X2514991Y2970311D02*
G01*
X2561727Y2970311D01*
X2577221Y2965231D01*
X2582555Y2959897D01*
X2587635Y2949483D01*
X2587635Y2939069D01*
X2582555Y2928655D01*
X2577221Y2923575D01*
X2561727Y2918495D01*
X2514991Y2918495D01*
X2551313Y2918495D02*
G01*
X2587635Y2861345D01*
X2621925Y2949483D02*
G01*
X2632339Y2954817D01*
X2648087Y2970311D01*
X2648087Y2861345D01*
X2734193Y2970311D02*
G01*
X2682377Y2897667D01*
X2760101Y2897667D01*
X2734193Y2970311D02*
G01*
X2734193Y2861345D01*
X3184992Y2965287D02*
G01*
X3184992Y2856321D01*
X3184992Y2965287D02*
G01*
X3231728Y2965287D01*
X3247222Y2960207D01*
X3252556Y2954873D01*
X3257636Y2944459D01*
X3257636Y2934045D01*
X3252556Y2923631D01*
X3247222Y2918551D01*
X3231728Y2913471D01*
X3184992Y2913471D01*
X3221314Y2913471D02*
G01*
X3257636Y2856321D01*
X3291926Y2944459D02*
G01*
X3302340Y2949793D01*
X3318088Y2965287D01*
X3318088Y2856321D01*
X3414608Y2965287D02*
G01*
X3362792Y2965287D01*
X3357458Y2918551D01*
X3362792Y2923631D01*
X3378286Y2928965D01*
X3393780Y2928965D01*
X3409528Y2923631D01*
X3419942Y2913471D01*
X3425022Y2897723D01*
X3425022Y2887309D01*
X3419942Y2871815D01*
X3409528Y2861401D01*
X3393780Y2856321D01*
X3378286Y2856321D01*
X3362792Y2861401D01*
X3357458Y2866481D01*
X3352378Y2876895D01*
X2495011Y3760312D02*
G01*
X2495011Y3651346D01*
X2495011Y3760312D02*
G01*
X2541747Y3760312D01*
X2557241Y3755232D01*
X2562575Y3749898D01*
X2567655Y3739484D01*
X2567655Y3729070D01*
X2562575Y3718656D01*
X2557241Y3713576D01*
X2541747Y3708496D01*
X2495011Y3708496D01*
X2531333Y3708496D02*
G01*
X2567655Y3651346D01*
X2601945Y3739484D02*
G01*
X2612359Y3744818D01*
X2628107Y3760312D01*
X2628107Y3651346D01*
X2724627Y3744818D02*
G01*
X2719547Y3755232D01*
X2703799Y3760312D01*
X2693385Y3760312D01*
X2677891Y3755232D01*
X2667477Y3739484D01*
X2662397Y3713576D01*
X2662397Y3687668D01*
X2667477Y3666840D01*
X2677891Y3656426D01*
X2693385Y3651346D01*
X2698719Y3651346D01*
X2714213Y3656426D01*
X2724627Y3666840D01*
X2729961Y3682334D01*
X2729961Y3687668D01*
X2724627Y3703162D01*
X2714213Y3713576D01*
X2698719Y3718656D01*
X2693385Y3718656D01*
X2677891Y3713576D01*
X2667477Y3703162D01*
X2662397Y3687668D01*
X4789990Y7890299D02*
G01*
X4789990Y7781333D01*
X4789990Y7890299D02*
G01*
X4836726Y7890299D01*
X4852220Y7885219D01*
X4857554Y7879885D01*
X4862634Y7869471D01*
X4862634Y7859057D01*
X4857554Y7848643D01*
X4852220Y7843563D01*
X4836726Y7838483D01*
X4789990Y7838483D02*
G01*
X4836726Y7838483D01*
X4852220Y7833149D01*
X4857554Y7828069D01*
X4862634Y7817655D01*
X4862634Y7801907D01*
X4857554Y7791493D01*
X4852220Y7786413D01*
X4836726Y7781333D01*
X4789990Y7781333D01*
X4969822Y7890299D02*
G01*
X4896924Y7781333D01*
X4896924Y7890299D02*
G01*
X4969822Y7890299D01*
X4896924Y7781333D02*
G01*
X4969822Y7781333D01*
X5004112Y7890299D02*
G01*
X5004112Y7781333D01*
X5004112Y7890299D02*
G01*
X5050848Y7890299D01*
X5066342Y7885219D01*
X5071676Y7879885D01*
X5076756Y7869471D01*
X5076756Y7859057D01*
X5071676Y7848643D01*
X5066342Y7843563D01*
X5050848Y7838483D01*
X5004112Y7838483D01*
X5040434Y7838483D02*
G01*
X5076756Y7781333D01*
X4059994Y6050302D02*
G01*
X4059994Y5941336D01*
X4059994Y6050302D02*
G01*
X4106730Y6050302D01*
X4122224Y6045222D01*
X4127558Y6039888D01*
X4132638Y6029474D01*
X4132638Y6013980D01*
X4127558Y6003566D01*
X4122224Y5998486D01*
X4106730Y5993152D01*
X4059994Y5993152D01*
X4239826Y6034808D02*
G01*
X4229412Y6045222D01*
X4213664Y6050302D01*
X4193090Y6050302D01*
X4177342Y6045222D01*
X4166928Y6034808D01*
X4166928Y6024394D01*
X4172262Y6013980D01*
X4177342Y6008646D01*
X4187756Y6003566D01*
X4218998Y5993152D01*
X4229412Y5988072D01*
X4234492Y5982738D01*
X4239826Y5972324D01*
X4239826Y5956830D01*
X4229412Y5946416D01*
X4213664Y5941336D01*
X4193090Y5941336D01*
X4177342Y5946416D01*
X4166928Y5956830D01*
X3905260Y5846714D02*
G01*
X3998732Y5846714D01*
X3951996Y5799978D02*
G01*
X3951996Y5893450D01*
X3889766Y5938154D02*
G01*
X3889766Y5995304D01*
X3931168Y5964062D01*
X3931168Y5979810D01*
X3936502Y5990224D01*
X3941582Y5995304D01*
X3957076Y6000638D01*
X3967490Y6000638D01*
X3983238Y5995304D01*
X3993652Y5984890D01*
X3998732Y5969396D01*
X3998732Y5953648D01*
X3993652Y5938154D01*
X3988318Y5933074D01*
X3977904Y5927740D01*
X3889766Y6034928D02*
G01*
X3998732Y6076330D01*
X3889766Y6117986D02*
G01*
X3998732Y6076330D01*
X3889766Y6162690D02*
G01*
X3889766Y6219840D01*
X3931168Y6188598D01*
X3931168Y6204092D01*
X3936502Y6214506D01*
X3941582Y6219840D01*
X3957076Y6224920D01*
X3967490Y6224920D01*
X3983238Y6219840D01*
X3993652Y6209426D01*
X3998732Y6193678D01*
X3998732Y6178184D01*
X3993652Y6162690D01*
X3988318Y6157356D01*
X3977904Y6152276D01*
X3880584Y6332964D02*
G01*
X3870170Y6327630D01*
X3859756Y6317216D01*
X3854676Y6307056D01*
X3854676Y6286228D01*
X3859756Y6275814D01*
X3870170Y6265400D01*
X3880584Y6260066D01*
X3896332Y6254986D01*
X3922240Y6254986D01*
X3937734Y6260066D01*
X3948148Y6265400D01*
X3958562Y6275814D01*
X3963642Y6286228D01*
X3963642Y6307056D01*
X3958562Y6317216D01*
X3948148Y6327630D01*
X3937734Y6332964D01*
X3875504Y6367254D02*
G01*
X3870170Y6377668D01*
X3854676Y6393162D01*
X3963642Y6393162D01*
X3854676Y6479522D02*
G01*
X3927320Y6427452D01*
X3927320Y6505430D01*
X3854676Y6479522D02*
G01*
X3963642Y6479522D01*
X1851405Y7457005D02*
G01*
X1861820Y7462339D01*
X1872234Y7472753D01*
X1877313Y7482913D01*
X1877313Y7503741D01*
X1872234Y7514155D01*
X1861820Y7524569D01*
X1851405Y7529903D01*
X1835657Y7534983D01*
X1809750Y7534983D01*
X1794255Y7529903D01*
X1783842Y7524569D01*
X1773428Y7514155D01*
X1768347Y7503741D01*
X1768347Y7482913D01*
X1773428Y7472753D01*
X1783842Y7462339D01*
X1794255Y7457005D01*
X1856486Y7422715D02*
G01*
X1861820Y7412301D01*
X1877313Y7396807D01*
X1768347Y7396807D01*
X2432984Y6464393D02*
G01*
X2427650Y6474807D01*
X2417236Y6485221D01*
X2407076Y6490301D01*
X2386248Y6490301D01*
X2375834Y6485221D01*
X2365420Y6474807D01*
X2360086Y6464393D01*
X2355006Y6448645D01*
X2355006Y6422737D01*
X2360086Y6407243D01*
X2365420Y6396829D01*
X2375834Y6386415D01*
X2386248Y6381335D01*
X2407076Y6381335D01*
X2417236Y6386415D01*
X2427650Y6396829D01*
X2432984Y6407243D01*
X2472354Y6464393D02*
G01*
X2472354Y6469473D01*
X2477688Y6479887D01*
X2482768Y6485221D01*
X2493182Y6490301D01*
X2514010Y6490301D01*
X2524424Y6485221D01*
X2529504Y6479887D01*
X2534838Y6469473D01*
X2534838Y6459059D01*
X2529504Y6448645D01*
X2519090Y6433151D01*
X2467274Y6381335D01*
X2539918Y6381335D01*
X4552975Y8129394D02*
G01*
X4547641Y8139808D01*
X4537227Y8150222D01*
X4527067Y8155302D01*
X4506239Y8155302D01*
X4495825Y8150222D01*
X4485411Y8139808D01*
X4480077Y8129394D01*
X4474997Y8113646D01*
X4474997Y8087738D01*
X4480077Y8072244D01*
X4485411Y8061830D01*
X4495825Y8051416D01*
X4506239Y8046336D01*
X4527067Y8046336D01*
X4537227Y8051416D01*
X4547641Y8061830D01*
X4552975Y8072244D01*
X4613173Y8155302D02*
G01*
X4597679Y8150222D01*
X4592345Y8139808D01*
X4592345Y8129394D01*
X4597679Y8118980D01*
X4608093Y8113646D01*
X4628667Y8108566D01*
X4644415Y8103486D01*
X4654829Y8093072D01*
X4659909Y8082658D01*
X4659909Y8066910D01*
X4654829Y8056496D01*
X4649495Y8051416D01*
X4634001Y8046336D01*
X4613173Y8046336D01*
X4597679Y8051416D01*
X4592345Y8056496D01*
X4587265Y8066910D01*
X4587265Y8082658D01*
X4592345Y8093072D01*
X4602759Y8103486D01*
X4618507Y8108566D01*
X4639081Y8113646D01*
X4649495Y8118980D01*
X4654829Y8129394D01*
X4654829Y8139808D01*
X4649495Y8150222D01*
X4634001Y8155302D01*
X4613173Y8155302D01*
X2517983Y7894401D02*
G01*
X2512649Y7904815D01*
X2502235Y7915229D01*
X2492075Y7920309D01*
X2471247Y7920309D01*
X2460833Y7915229D01*
X2450419Y7904815D01*
X2445085Y7894401D01*
X2440005Y7878653D01*
X2440005Y7852745D01*
X2445085Y7837251D01*
X2450419Y7826837D01*
X2460833Y7816423D01*
X2471247Y7811343D01*
X2492075Y7811343D01*
X2502235Y7816423D01*
X2512649Y7826837D01*
X2517983Y7837251D01*
X2619837Y7883987D02*
G01*
X2614503Y7868493D01*
X2604089Y7858079D01*
X2588595Y7852745D01*
X2583515Y7852745D01*
X2567767Y7858079D01*
X2557353Y7868493D01*
X2552273Y7883987D01*
X2552273Y7889067D01*
X2557353Y7904815D01*
X2567767Y7915229D01*
X2583515Y7920309D01*
X2588595Y7920309D01*
X2604089Y7915229D01*
X2614503Y7904815D01*
X2619837Y7883987D01*
X2619837Y7858079D01*
X2614503Y7831917D01*
X2604089Y7816423D01*
X2588595Y7811343D01*
X2578181Y7811343D01*
X2562687Y7816423D01*
X2557353Y7826837D01*
X4617958Y6724393D02*
G01*
X4612624Y6734807D01*
X4602210Y6745221D01*
X4592050Y6750301D01*
X4571222Y6750301D01*
X4560808Y6745221D01*
X4550394Y6734807D01*
X4545060Y6724393D01*
X4539980Y6708645D01*
X4539980Y6682737D01*
X4545060Y6667243D01*
X4550394Y6656829D01*
X4560808Y6646415D01*
X4571222Y6641335D01*
X4592050Y6641335D01*
X4602210Y6646415D01*
X4612624Y6656829D01*
X4617958Y6667243D01*
X4652248Y6729473D02*
G01*
X4662662Y6734807D01*
X4678156Y6750301D01*
X4678156Y6641335D01*
X4743688Y6750301D02*
G01*
X4727940Y6745221D01*
X4717780Y6729473D01*
X4712446Y6703565D01*
X4712446Y6688071D01*
X4717780Y6661909D01*
X4727940Y6646415D01*
X4743688Y6641335D01*
X4754102Y6641335D01*
X4769596Y6646415D01*
X4780010Y6661909D01*
X4785090Y6688071D01*
X4785090Y6703565D01*
X4780010Y6729473D01*
X4769596Y6745221D01*
X4754102Y6750301D01*
X4743688Y6750301D01*
X2707967Y6509385D02*
G01*
X2702633Y6519798D01*
X2692219Y6530212D01*
X2682059Y6535293D01*
X2661231Y6535293D01*
X2650817Y6530212D01*
X2640403Y6519798D01*
X2635069Y6509385D01*
X2629989Y6493637D01*
X2629989Y6467729D01*
X2635069Y6452235D01*
X2640403Y6441820D01*
X2650817Y6431406D01*
X2661231Y6426327D01*
X2682059Y6426327D01*
X2692219Y6431406D01*
X2702633Y6441820D01*
X2707967Y6452235D01*
X2742257Y6514464D02*
G01*
X2752671Y6519798D01*
X2768165Y6535293D01*
X2768165Y6426327D01*
X2802455Y6514464D02*
G01*
X2812869Y6519798D01*
X2828363Y6535293D01*
X2828363Y6426327D01*
X2332639Y8224804D02*
G01*
X2322225Y8235218D01*
X2306731Y8240298D01*
X2285903Y8240298D01*
X2270409Y8235218D01*
X2259995Y8224804D01*
X2259995Y8214390D01*
X2265075Y8203976D01*
X2270409Y8198642D01*
X2280823Y8193562D01*
X2312065Y8183148D01*
X2322225Y8178068D01*
X2327559Y8172734D01*
X2332639Y8162320D01*
X2332639Y8146826D01*
X2322225Y8136412D01*
X2306731Y8131332D01*
X2285903Y8131332D01*
X2270409Y8136412D01*
X2259995Y8146826D01*
X2366929Y8240298D02*
G01*
X2393091Y8131332D01*
X2418999Y8240298D02*
G01*
X2393091Y8131332D01*
X2418999Y8240298D02*
G01*
X2444907Y8131332D01*
X2470815Y8240298D02*
G01*
X2444907Y8131332D01*
X2505105Y8219470D02*
G01*
X2515519Y8224804D01*
X2531267Y8240298D01*
X2531267Y8131332D01*
X4822979Y6424391D02*
G01*
X4817645Y6434805D01*
X4807231Y6445219D01*
X4797071Y6450299D01*
X4776243Y6450299D01*
X4765829Y6445219D01*
X4755415Y6434805D01*
X4750081Y6424391D01*
X4745001Y6408643D01*
X4745001Y6382735D01*
X4750081Y6367241D01*
X4755415Y6356827D01*
X4765829Y6346413D01*
X4776243Y6341333D01*
X4797071Y6341333D01*
X4807231Y6346413D01*
X4817645Y6356827D01*
X4822979Y6367241D01*
X4857269Y6450299D02*
G01*
X4857269Y6341333D01*
X4857269Y6450299D02*
G01*
X4929913Y6341333D01*
X4929913Y6450299D02*
G01*
X4929913Y6341333D01*
X4964203Y6429471D02*
G01*
X4974617Y6434805D01*
X4990111Y6450299D01*
X4990111Y6341333D01*
X4167637Y8289805D02*
G01*
X4157223Y8300219D01*
X4141729Y8305299D01*
X4120901Y8305299D01*
X4105407Y8300219D01*
X4094993Y8289805D01*
X4094993Y8279391D01*
X4100073Y8268977D01*
X4105407Y8263643D01*
X4115821Y8258563D01*
X4147063Y8248149D01*
X4157223Y8243069D01*
X4162557Y8237735D01*
X4167637Y8227321D01*
X4167637Y8211827D01*
X4157223Y8201413D01*
X4141729Y8196333D01*
X4120901Y8196333D01*
X4105407Y8201413D01*
X4094993Y8211827D01*
X4201927Y8305299D02*
G01*
X4228089Y8196333D01*
X4253997Y8305299D02*
G01*
X4228089Y8196333D01*
X4253997Y8305299D02*
G01*
X4279905Y8196333D01*
X4305813Y8305299D02*
G01*
X4279905Y8196333D01*
X4345437Y8279391D02*
G01*
X4345437Y8284471D01*
X4350517Y8294885D01*
X4355851Y8300219D01*
X4366265Y8305299D01*
X4387093Y8305299D01*
X4397253Y8300219D01*
X4402587Y8294885D01*
X4407667Y8284471D01*
X4407667Y8274057D01*
X4402587Y8263643D01*
X4392173Y8248149D01*
X4340103Y8196333D01*
X4413001Y8196333D01*
X1019997Y7880299D02*
G01*
X1019997Y7802321D01*
X1025077Y7786827D01*
X1035491Y7776413D01*
X1051239Y7771333D01*
X1061653Y7771333D01*
X1077147Y7776413D01*
X1087561Y7786827D01*
X1092641Y7802321D01*
X1092641Y7880299D01*
X1199829Y7864805D02*
G01*
X1189415Y7875219D01*
X1173667Y7880299D01*
X1153093Y7880299D01*
X1137345Y7875219D01*
X1126931Y7864805D01*
X1126931Y7854391D01*
X1132265Y7843977D01*
X1137345Y7838643D01*
X1147759Y7833563D01*
X1179001Y7823149D01*
X1189415Y7818069D01*
X1194495Y7812735D01*
X1199829Y7802321D01*
X1199829Y7786827D01*
X1189415Y7776413D01*
X1173667Y7771333D01*
X1153093Y7771333D01*
X1137345Y7776413D01*
X1126931Y7786827D01*
X1234119Y7880299D02*
G01*
X1234119Y7771333D01*
X1234119Y7880299D02*
G01*
X1280855Y7880299D01*
X1296349Y7875219D01*
X1301683Y7869885D01*
X1306763Y7859471D01*
X1306763Y7849057D01*
X1301683Y7838643D01*
X1296349Y7833563D01*
X1280855Y7828483D01*
X1234119Y7828483D02*
G01*
X1280855Y7828483D01*
X1296349Y7823149D01*
X1301683Y7818069D01*
X1306763Y7807655D01*
X1306763Y7791907D01*
X1301683Y7781493D01*
X1296349Y7776413D01*
X1280855Y7771333D01*
X1234119Y7771333D01*
X1341053Y7859471D02*
G01*
X1351467Y7864805D01*
X1366961Y7880299D01*
X1366961Y7771333D01*
X4194909Y3830246D02*
G01*
X4194909Y3721280D01*
X4194909Y3830246D02*
G01*
X4241645Y3830246D01*
X4257393Y3825166D01*
X4262473Y3819832D01*
X4267807Y3809418D01*
X4267807Y3799258D01*
X4262473Y3788844D01*
X4257393Y3783510D01*
X4241645Y3778430D01*
X4194909Y3778430D02*
G01*
X4241645Y3778430D01*
X4257393Y3773096D01*
X4262473Y3768016D01*
X4267807Y3757602D01*
X4267807Y3742108D01*
X4262473Y3731694D01*
X4257393Y3726360D01*
X4241645Y3721280D01*
X4194909Y3721280D01*
X4302097Y3830246D02*
G01*
X4302097Y3721280D01*
X4302097Y3721280D02*
G01*
X4364327Y3721280D01*
X4398617Y3830246D02*
G01*
X4398617Y3721280D01*
X4398617Y3830246D02*
G01*
X4466181Y3830246D01*
X4398617Y3778430D02*
G01*
X4440273Y3778430D01*
X4398617Y3721280D02*
G01*
X4466181Y3721280D01*
X1722948Y8019321D02*
G01*
X1717614Y8029735D01*
X1707454Y8040149D01*
X1697040Y8045229D01*
X1676212Y8045229D01*
X1665798Y8040149D01*
X1655384Y8029735D01*
X1650304Y8019321D01*
X1644970Y8003827D01*
X1644970Y7977665D01*
X1650304Y7962171D01*
X1655384Y7951757D01*
X1665798Y7941343D01*
X1676212Y7936263D01*
X1697040Y7936263D01*
X1707454Y7941343D01*
X1717614Y7951757D01*
X1722948Y7962171D01*
X1767652Y8045229D02*
G01*
X1824802Y8045229D01*
X1793560Y8003827D01*
X1809054Y8003827D01*
X1819468Y7998493D01*
X1824802Y7993413D01*
X1829882Y7977665D01*
X1829882Y7967505D01*
X1824802Y7951757D01*
X1814388Y7941343D01*
X1798894Y7936263D01*
X1783146Y7936263D01*
X1767652Y7941343D01*
X1762318Y7946677D01*
X1757238Y7957091D01*
X5137993Y8534468D02*
G01*
X5132659Y8544628D01*
X5122245Y8555042D01*
X5111831Y8560376D01*
X5091257Y8560376D01*
X5080843Y8555042D01*
X5070429Y8544628D01*
X5065095Y8534468D01*
X5060015Y8518720D01*
X5060015Y8492812D01*
X5065095Y8477318D01*
X5070429Y8466904D01*
X5080843Y8456490D01*
X5091257Y8451156D01*
X5111831Y8451156D01*
X5122245Y8456490D01*
X5132659Y8466904D01*
X5137993Y8477318D01*
X5137993Y8492812D01*
X5111831Y8492812D02*
G01*
X5137993Y8492812D01*
X5172283Y8560376D02*
G01*
X5172283Y8451156D01*
X5172283Y8560376D02*
G01*
X5244927Y8451156D01*
X5244927Y8560376D02*
G01*
X5244927Y8451156D01*
X5279217Y8560376D02*
G01*
X5279217Y8451156D01*
X5279217Y8560376D02*
G01*
X5315539Y8560376D01*
X5331287Y8555042D01*
X5341701Y8544628D01*
X5346781Y8534468D01*
X5351861Y8518720D01*
X5351861Y8492812D01*
X5346781Y8477318D01*
X5341701Y8466904D01*
X5331287Y8456490D01*
X5315539Y8451156D01*
X5279217Y8451156D01*
X2574858Y2435202D02*
G01*
X2683824Y2435202D01*
X2574858Y2435202D02*
G01*
X2683824Y2476604D01*
X2574858Y2518260D02*
G01*
X2683824Y2476604D01*
X2574858Y2518260D02*
G01*
X2683824Y2518260D01*
X2574858Y2552550D02*
G01*
X2683824Y2552550D01*
X2590352Y2659484D02*
G01*
X2579938Y2649070D01*
X2574858Y2633576D01*
X2574858Y2612748D01*
X2579938Y2597254D01*
X2590352Y2586840D01*
X2600766Y2586840D01*
X2611180Y2591920D01*
X2616260Y2597254D01*
X2621594Y2607668D01*
X2632008Y2638656D01*
X2637088Y2649070D01*
X2642422Y2654404D01*
X2652582Y2659484D01*
X2668330Y2659484D01*
X2678744Y2649070D01*
X2683824Y2633576D01*
X2683824Y2612748D01*
X2678744Y2597254D01*
X2668330Y2586840D01*
X2574858Y2725016D02*
G01*
X2579938Y2714602D01*
X2590352Y2704188D01*
X2600766Y2699108D01*
X2616260Y2693774D01*
X2642422Y2693774D01*
X2657916Y2699108D01*
X2668330Y2704188D01*
X2678744Y2714602D01*
X2683824Y2725016D01*
X2683824Y2745844D01*
X2678744Y2756258D01*
X2668330Y2766672D01*
X2657916Y2771752D01*
X2642422Y2776832D01*
X2616260Y2776832D01*
X2600766Y2771752D01*
X2590352Y2766672D01*
X2579938Y2756258D01*
X2574858Y2745844D01*
X2574858Y2725016D01*
X3179792Y2435021D02*
G01*
X3288758Y2435021D01*
X3179792Y2435021D02*
G01*
X3288758Y2476677D01*
X3179792Y2518079D02*
G01*
X3288758Y2476677D01*
X3179792Y2518079D02*
G01*
X3288758Y2518079D01*
X3179792Y2583611D02*
G01*
X3184872Y2573197D01*
X3195286Y2562783D01*
X3205700Y2557703D01*
X3221194Y2552369D01*
X3247356Y2552369D01*
X3262850Y2557703D01*
X3273264Y2562783D01*
X3283678Y2573197D01*
X3288758Y2583611D01*
X3288758Y2604439D01*
X3283678Y2614853D01*
X3273264Y2625267D01*
X3262850Y2630347D01*
X3247356Y2635681D01*
X3221194Y2635681D01*
X3205700Y2630347D01*
X3195286Y2625267D01*
X3184872Y2614853D01*
X3179792Y2604439D01*
X3179792Y2583611D01*
X3195286Y2742615D02*
G01*
X3184872Y2732201D01*
X3179792Y2716707D01*
X3179792Y2695879D01*
X3184872Y2680385D01*
X3195286Y2669971D01*
X3205700Y2669971D01*
X3216114Y2675051D01*
X3221194Y2680385D01*
X3226528Y2690799D01*
X3236942Y2721787D01*
X3242022Y2732201D01*
X3247356Y2737535D01*
X3257516Y2742615D01*
X3273264Y2742615D01*
X3283678Y2732201D01*
X3288758Y2716707D01*
X3288758Y2695879D01*
X3283678Y2680385D01*
X3273264Y2669971D01*
X3179792Y2776905D02*
G01*
X3288758Y2776905D01*
X3679974Y3770411D02*
G01*
X3679974Y3661191D01*
X3679974Y3770411D02*
G01*
X3726710Y3770411D01*
X3742204Y3765077D01*
X3747538Y3759997D01*
X3752618Y3749583D01*
X3752618Y3739169D01*
X3747538Y3728755D01*
X3742204Y3723421D01*
X3726710Y3718341D01*
X3679974Y3718341D01*
X3716296Y3718341D02*
G01*
X3752618Y3661191D01*
X3859806Y3754663D02*
G01*
X3849392Y3765077D01*
X3833644Y3770411D01*
X3813070Y3770411D01*
X3797322Y3765077D01*
X3786908Y3754663D01*
X3786908Y3744249D01*
X3792242Y3733835D01*
X3797322Y3728755D01*
X3807736Y3723421D01*
X3838978Y3713261D01*
X3849392Y3707927D01*
X3854472Y3702847D01*
X3859806Y3692433D01*
X3859806Y3676685D01*
X3849392Y3666271D01*
X3833644Y3661191D01*
X3813070Y3661191D01*
X3797322Y3666271D01*
X3786908Y3676685D01*
X3930418Y3770411D02*
G01*
X3930418Y3661191D01*
X3894096Y3770411D02*
G01*
X3966740Y3770411D01*
X2445169Y2507769D02*
G01*
X2434755Y2497355D01*
X2429675Y2481861D01*
X2429675Y2461033D01*
X2434755Y2445539D01*
X2445169Y2435125D01*
X2455583Y2435125D01*
X2465997Y2440205D01*
X2471077Y2445539D01*
X2476411Y2455953D01*
X2486825Y2486941D01*
X2491905Y2497355D01*
X2497239Y2502689D01*
X2507399Y2507769D01*
X2523147Y2507769D01*
X2533561Y2497355D01*
X2538641Y2481861D01*
X2538641Y2461033D01*
X2533561Y2445539D01*
X2523147Y2435125D01*
X2455583Y2620037D02*
G01*
X2445169Y2614957D01*
X2434755Y2604543D01*
X2429675Y2594129D01*
X2429675Y2573301D01*
X2434755Y2562887D01*
X2445169Y2552473D01*
X2455583Y2547393D01*
X2471077Y2542059D01*
X2497239Y2542059D01*
X2512733Y2547393D01*
X2523147Y2552473D01*
X2533561Y2562887D01*
X2538641Y2573301D01*
X2538641Y2594129D01*
X2533561Y2604543D01*
X2523147Y2614957D01*
X2512733Y2620037D01*
X2429675Y2654327D02*
G01*
X2538641Y2654327D01*
X2429675Y2726971D02*
G01*
X2502319Y2654327D01*
X2476411Y2680235D02*
G01*
X2538641Y2726971D01*
X3372998Y3104286D02*
G01*
X3367664Y3114700D01*
X3357250Y3125114D01*
X3346836Y3130194D01*
X3326262Y3130194D01*
X3315848Y3125114D01*
X3305434Y3114700D01*
X3300100Y3104286D01*
X3295020Y3088792D01*
X3295020Y3062884D01*
X3300100Y3047136D01*
X3305434Y3036722D01*
X3315848Y3026308D01*
X3326262Y3021228D01*
X3346836Y3021228D01*
X3357250Y3026308D01*
X3367664Y3036722D01*
X3372998Y3047136D01*
X3407288Y3109620D02*
G01*
X3417702Y3114700D01*
X3433196Y3130194D01*
X3433196Y3021228D01*
X3529716Y3130194D02*
G01*
X3477900Y3130194D01*
X3472566Y3083458D01*
X3477900Y3088792D01*
X3493394Y3093872D01*
X3509142Y3093872D01*
X3524636Y3088792D01*
X3535050Y3078378D01*
X3540130Y3062884D01*
X3540130Y3052470D01*
X3535050Y3036722D01*
X3524636Y3026308D01*
X3509142Y3021228D01*
X3493394Y3021228D01*
X3477900Y3026308D01*
X3472566Y3031642D01*
X3467486Y3042056D01*
X1534993Y6845284D02*
G01*
X1534993Y6736318D01*
X1534993Y6845284D02*
G01*
X1581729Y6845284D01*
X1597223Y6840204D01*
X1602557Y6834870D01*
X1607637Y6824456D01*
X1607637Y6814042D01*
X1602557Y6803628D01*
X1597223Y6798548D01*
X1581729Y6793468D01*
X1534993Y6793468D01*
X1571315Y6793468D02*
G01*
X1607637Y6736318D01*
X1641927Y6824456D02*
G01*
X1652341Y6829790D01*
X1668089Y6845284D01*
X1668089Y6736318D01*
X780000Y6685320D02*
G01*
X780000Y6576354D01*
X780000Y6685320D02*
G01*
X826736Y6685320D01*
X842230Y6680240D01*
X847564Y6674906D01*
X852644Y6664492D01*
X852644Y6654078D01*
X847564Y6643664D01*
X842230Y6638584D01*
X826736Y6633504D01*
X780000Y6633504D01*
X816322Y6633504D02*
G01*
X852644Y6576354D01*
X892268Y6659412D02*
G01*
X892268Y6664492D01*
X897348Y6674906D01*
X902682Y6680240D01*
X913096Y6685320D01*
X933670Y6685320D01*
X944084Y6680240D01*
X949418Y6674906D01*
X954498Y6664492D01*
X954498Y6654078D01*
X949418Y6643664D01*
X939004Y6628170D01*
X886934Y6576354D01*
X959832Y6576354D01*
X1254998Y6640301D02*
G01*
X1254998Y6562323D01*
X1260078Y6546829D01*
X1270492Y6536415D01*
X1286240Y6531335D01*
X1296654Y6531335D01*
X1312148Y6536415D01*
X1322562Y6546829D01*
X1327642Y6562323D01*
X1327642Y6640301D01*
X1367266Y6614393D02*
G01*
X1367266Y6619473D01*
X1372346Y6629887D01*
X1377680Y6635221D01*
X1388094Y6640301D01*
X1408668Y6640301D01*
X1419082Y6635221D01*
X1424416Y6629887D01*
X1429496Y6619473D01*
X1429496Y6609059D01*
X1424416Y6598645D01*
X1414002Y6583151D01*
X1361932Y6531335D01*
X1434830Y6531335D01*
X5037952Y2414379D02*
G01*
X5032618Y2424793D01*
X5022204Y2435207D01*
X5012044Y2440287D01*
X4991216Y2440287D01*
X4980802Y2435207D01*
X4970388Y2424793D01*
X4965054Y2414379D01*
X4959974Y2398631D01*
X4959974Y2372723D01*
X4965054Y2357229D01*
X4970388Y2346815D01*
X4980802Y2336401D01*
X4991216Y2331321D01*
X5012044Y2331321D01*
X5022204Y2336401D01*
X5032618Y2346815D01*
X5037952Y2357229D01*
X5124058Y2440287D02*
G01*
X5072242Y2367643D01*
X5150220Y2367643D01*
X5124058Y2440287D02*
G01*
X5124058Y2331321D01*
X5037965Y3344395D02*
G01*
X5032631Y3354809D01*
X5022217Y3365223D01*
X5012057Y3370303D01*
X4991229Y3370303D01*
X4980815Y3365223D01*
X4970401Y3354809D01*
X4965067Y3344395D01*
X4959987Y3328647D01*
X4959987Y3302739D01*
X4965067Y3287245D01*
X4970401Y3276831D01*
X4980815Y3266417D01*
X4991229Y3261337D01*
X5012057Y3261337D01*
X5022217Y3266417D01*
X5032631Y3276831D01*
X5037965Y3287245D01*
X5134485Y3370303D02*
G01*
X5082669Y3370303D01*
X5077335Y3323567D01*
X5082669Y3328647D01*
X5098163Y3333981D01*
X5113657Y3333981D01*
X5129405Y3328647D01*
X5139819Y3318487D01*
X5144899Y3302739D01*
X5144899Y3292325D01*
X5139819Y3276831D01*
X5129405Y3266417D01*
X5113657Y3261337D01*
X5098163Y3261337D01*
X5082669Y3266417D01*
X5077335Y3271497D01*
X5072255Y3281911D01*
X3670597Y7317973D02*
G01*
X3660183Y7312639D01*
X3649769Y7302225D01*
X3644689Y7292065D01*
X3644689Y7271237D01*
X3649769Y7260823D01*
X3660183Y7250409D01*
X3670597Y7245075D01*
X3686345Y7239995D01*
X3712253Y7239995D01*
X3727747Y7245075D01*
X3738161Y7250409D01*
X3748575Y7260823D01*
X3753655Y7271237D01*
X3753655Y7292065D01*
X3748575Y7302225D01*
X3738161Y7312639D01*
X3727747Y7317973D01*
X3665517Y7352263D02*
G01*
X3660183Y7362677D01*
X3644689Y7378171D01*
X3753655Y7378171D01*
X3670597Y7417795D02*
G01*
X3665517Y7417795D01*
X3655103Y7422875D01*
X3649769Y7427955D01*
X3644689Y7438369D01*
X3644689Y7459197D01*
X3649769Y7469611D01*
X3655103Y7474945D01*
X3665517Y7480025D01*
X3675931Y7480025D01*
X3686345Y7474945D01*
X3701839Y7464531D01*
X3753655Y7412461D01*
X3753655Y7485105D01*
X1352966Y2214394D02*
G01*
X1347632Y2224808D01*
X1337218Y2235222D01*
X1327058Y2240302D01*
X1306230Y2240302D01*
X1295816Y2235222D01*
X1285402Y2224808D01*
X1280068Y2214394D01*
X1274988Y2198646D01*
X1274988Y2172738D01*
X1280068Y2157244D01*
X1285402Y2146830D01*
X1295816Y2136416D01*
X1306230Y2131336D01*
X1327058Y2131336D01*
X1337218Y2136416D01*
X1347632Y2146830D01*
X1352966Y2157244D01*
X1428658Y2240302D02*
G01*
X1387256Y2131336D01*
X1428658Y2240302D02*
G01*
X1470314Y2131336D01*
X1402750Y2167658D02*
G01*
X1454820Y2167658D01*
X1504604Y2240302D02*
G01*
X1504604Y2131336D01*
X1504604Y2240302D02*
G01*
X1551340Y2240302D01*
X1567088Y2235222D01*
X1572168Y2229888D01*
X1577248Y2219474D01*
X1577248Y2209060D01*
X1572168Y2198646D01*
X1567088Y2193566D01*
X1551340Y2188486D01*
X1504604Y2188486D01*
X1540926Y2188486D02*
G01*
X1577248Y2131336D01*
X1611538Y2240302D02*
G01*
X1611538Y2131336D01*
X1611538Y2240302D02*
G01*
X1648114Y2240302D01*
X1663608Y2235222D01*
X1674022Y2224808D01*
X1679102Y2214394D01*
X1684436Y2198646D01*
X1684436Y2172738D01*
X1679102Y2157244D01*
X1674022Y2146830D01*
X1663608Y2136416D01*
X1648114Y2131336D01*
X1611538Y2131336D01*
X1718726Y2219474D02*
G01*
X1729140Y2224808D01*
X1744634Y2240302D01*
X1744634Y2131336D01*
X4314992Y7395298D02*
G01*
X4314992Y7286332D01*
X4314992Y7395298D02*
G01*
X4351314Y7395298D01*
X4367062Y7390218D01*
X4377222Y7379804D01*
X4382556Y7369390D01*
X4387636Y7353642D01*
X4387636Y7327734D01*
X4382556Y7312240D01*
X4377222Y7301826D01*
X4367062Y7291412D01*
X4351314Y7286332D01*
X4314992Y7286332D01*
X4421926Y7374470D02*
G01*
X4432340Y7379804D01*
X4448088Y7395298D01*
X4448088Y7286332D01*
X4034665Y6164983D02*
G01*
X4143631Y6164983D01*
X4034665Y6164983D02*
G01*
X4034665Y6201305D01*
X4039745Y6217053D01*
X4050159Y6227213D01*
X4060573Y6232547D01*
X4076321Y6237627D01*
X4102229Y6237627D01*
X4117723Y6232547D01*
X4128137Y6227213D01*
X4138551Y6217053D01*
X4143631Y6201305D01*
X4143631Y6164983D01*
X4060573Y6277251D02*
G01*
X4055493Y6277251D01*
X4045079Y6282331D01*
X4039745Y6287665D01*
X4034665Y6298079D01*
X4034665Y6318653D01*
X4039745Y6329067D01*
X4045079Y6334401D01*
X4055493Y6339481D01*
X4065907Y6339481D01*
X4076321Y6334401D01*
X4091815Y6323987D01*
X4143631Y6271917D01*
X4143631Y6344815D01*
X4149994Y7295304D02*
G01*
X4149994Y7186338D01*
X4149994Y7186338D02*
G01*
X4212224Y7186338D01*
X4246514Y7274476D02*
G01*
X4256928Y7279810D01*
X4272676Y7295304D01*
X4272676Y7186338D01*
X4324997Y6435305D02*
G01*
X4324997Y6326339D01*
X4324997Y6326339D02*
G01*
X4387227Y6326339D01*
X4426851Y6409397D02*
G01*
X4426851Y6414477D01*
X4431931Y6424891D01*
X4437265Y6430225D01*
X4447679Y6435305D01*
X4468507Y6435305D01*
X4478667Y6430225D01*
X4484001Y6424891D01*
X4489081Y6414477D01*
X4489081Y6404063D01*
X4484001Y6393649D01*
X4473587Y6378155D01*
X4421517Y6326339D01*
X4494415Y6326339D01*
X2534991Y6055296D02*
G01*
X2534991Y5946330D01*
X2534991Y5946330D02*
G01*
X2597221Y5946330D01*
X2641925Y6055296D02*
G01*
X2699075Y6055296D01*
X2668087Y6013640D01*
X2683581Y6013640D01*
X2693995Y6008560D01*
X2699075Y6003480D01*
X2704409Y5987732D01*
X2704409Y5977318D01*
X2699075Y5961824D01*
X2688661Y5951410D01*
X2673167Y5946330D01*
X2657673Y5946330D01*
X2641925Y5951410D01*
X2636845Y5956490D01*
X2631511Y5966904D01*
X1459999Y6005294D02*
G01*
X1459999Y5896328D01*
X1459999Y5896328D02*
G01*
X1522229Y5896328D01*
X1556519Y6005294D02*
G01*
X1556519Y5896328D01*
X1556519Y6005294D02*
G01*
X1624083Y6005294D01*
X1556519Y5953478D02*
G01*
X1598175Y5953478D01*
X1556519Y5896328D02*
G01*
X1624083Y5896328D01*
X1658373Y6005294D02*
G01*
X1658373Y5896328D01*
X1658373Y6005294D02*
G01*
X1694949Y6005294D01*
X1710443Y6000214D01*
X1720857Y5989800D01*
X1725937Y5979386D01*
X1731271Y5963638D01*
X1731271Y5937730D01*
X1725937Y5922236D01*
X1720857Y5911822D01*
X1710443Y5901408D01*
X1694949Y5896328D01*
X1658373Y5896328D01*
X1765561Y5984466D02*
G01*
X1775975Y5989800D01*
X1791469Y6005294D01*
X1791469Y5896328D01*
X770006Y6120292D02*
G01*
X770006Y6011326D01*
X770006Y6120292D02*
G01*
X816742Y6120292D01*
X832236Y6115212D01*
X837570Y6109878D01*
X842650Y6099464D01*
X842650Y6089050D01*
X837570Y6078636D01*
X832236Y6073556D01*
X816742Y6068476D01*
X770006Y6068476D01*
X806328Y6068476D02*
G01*
X842650Y6011326D01*
X939424Y6104798D02*
G01*
X934090Y6115212D01*
X918596Y6120292D01*
X908182Y6120292D01*
X892688Y6115212D01*
X882274Y6099464D01*
X876940Y6073556D01*
X876940Y6047648D01*
X882274Y6026820D01*
X892688Y6016406D01*
X908182Y6011326D01*
X913516Y6011326D01*
X929010Y6016406D01*
X939424Y6026820D01*
X944504Y6042314D01*
X944504Y6047648D01*
X939424Y6063142D01*
X929010Y6073556D01*
X913516Y6078636D01*
X908182Y6078636D01*
X892688Y6073556D01*
X882274Y6063142D01*
X876940Y6047648D01*
X2889994Y7440300D02*
G01*
X2889994Y7331334D01*
X2889994Y7440300D02*
G01*
X2936730Y7440300D01*
X2952224Y7435220D01*
X2957558Y7429886D01*
X2962638Y7419472D01*
X2962638Y7409058D01*
X2957558Y7398644D01*
X2952224Y7393564D01*
X2936730Y7388484D01*
X2889994Y7388484D01*
X2926316Y7388484D02*
G01*
X2962638Y7331334D01*
X3023090Y7440300D02*
G01*
X3007342Y7435220D01*
X3002262Y7424806D01*
X3002262Y7414392D01*
X3007342Y7403978D01*
X3017756Y7398644D01*
X3038584Y7393564D01*
X3054078Y7388484D01*
X3064492Y7378070D01*
X3069826Y7367656D01*
X3069826Y7351908D01*
X3064492Y7341494D01*
X3059412Y7336414D01*
X3043664Y7331334D01*
X3023090Y7331334D01*
X3007342Y7336414D01*
X3002262Y7341494D01*
X2996928Y7351908D01*
X2996928Y7367656D01*
X3002262Y7378070D01*
X3012676Y7388484D01*
X3028170Y7393564D01*
X3048998Y7398644D01*
X3059412Y7403978D01*
X3064492Y7414392D01*
X3064492Y7424806D01*
X3059412Y7435220D01*
X3043664Y7440300D01*
X3023090Y7440300D01*
X2874998Y8125297D02*
G01*
X2874998Y8016331D01*
X2874998Y8125297D02*
G01*
X2921734Y8125297D01*
X2937228Y8120217D01*
X2942562Y8114883D01*
X2947642Y8104469D01*
X2947642Y8094055D01*
X2942562Y8083641D01*
X2937228Y8078561D01*
X2921734Y8073481D01*
X2874998Y8073481D01*
X2911320Y8073481D02*
G01*
X2947642Y8016331D01*
X3049496Y8088975D02*
G01*
X3044416Y8073481D01*
X3034002Y8063067D01*
X3018508Y8057733D01*
X3013174Y8057733D01*
X2997680Y8063067D01*
X2987266Y8073481D01*
X2981932Y8088975D01*
X2981932Y8094055D01*
X2987266Y8109803D01*
X2997680Y8120217D01*
X3013174Y8125297D01*
X3018508Y8125297D01*
X3034002Y8120217D01*
X3044416Y8109803D01*
X3049496Y8088975D01*
X3049496Y8063067D01*
X3044416Y8036905D01*
X3034002Y8021411D01*
X3018508Y8016331D01*
X3008094Y8016331D01*
X2992346Y8021411D01*
X2987266Y8031825D01*
X3414981Y8330298D02*
G01*
X3414981Y8221332D01*
X3414981Y8330298D02*
G01*
X3461717Y8330298D01*
X3477211Y8325218D01*
X3482545Y8319884D01*
X3487625Y8309470D01*
X3487625Y8299056D01*
X3482545Y8288642D01*
X3477211Y8283562D01*
X3461717Y8278482D01*
X3414981Y8278482D01*
X3451303Y8278482D02*
G01*
X3487625Y8221332D01*
X3521915Y8309470D02*
G01*
X3532329Y8314804D01*
X3548077Y8330298D01*
X3548077Y8221332D01*
X3613355Y8330298D02*
G01*
X3597861Y8325218D01*
X3587447Y8309470D01*
X3582367Y8283562D01*
X3582367Y8268068D01*
X3587447Y8241906D01*
X3597861Y8226412D01*
X3613355Y8221332D01*
X3623769Y8221332D01*
X3639517Y8226412D01*
X3649931Y8241906D01*
X3655011Y8268068D01*
X3655011Y8283562D01*
X3649931Y8309470D01*
X3639517Y8325218D01*
X3623769Y8330298D01*
X3613355Y8330298D01*
X2779994Y6795302D02*
G01*
X2779994Y6686336D01*
X2779994Y6795302D02*
G01*
X2826730Y6795302D01*
X2842224Y6790222D01*
X2847558Y6784888D01*
X2852638Y6774474D01*
X2852638Y6764060D01*
X2847558Y6753646D01*
X2842224Y6748566D01*
X2826730Y6743486D01*
X2779994Y6743486D01*
X2816316Y6743486D02*
G01*
X2852638Y6686336D01*
X2886928Y6774474D02*
G01*
X2897342Y6779808D01*
X2913090Y6795302D01*
X2913090Y6686336D01*
X2947380Y6774474D02*
G01*
X2957794Y6779808D01*
X2973288Y6795302D01*
X2973288Y6686336D01*
X2544996Y6990300D02*
G01*
X2544996Y6881334D01*
X2544996Y6990300D02*
G01*
X2591732Y6990300D01*
X2607226Y6985220D01*
X2612560Y6979886D01*
X2617640Y6969472D01*
X2617640Y6959058D01*
X2612560Y6948644D01*
X2607226Y6943564D01*
X2591732Y6938484D01*
X2544996Y6938484D01*
X2581318Y6938484D02*
G01*
X2617640Y6881334D01*
X2651930Y6969472D02*
G01*
X2662344Y6974806D01*
X2678092Y6990300D01*
X2678092Y6881334D01*
X2717462Y6964392D02*
G01*
X2717462Y6969472D01*
X2722796Y6979886D01*
X2727876Y6985220D01*
X2738290Y6990300D01*
X2759118Y6990300D01*
X2769532Y6985220D01*
X2774612Y6979886D01*
X2779946Y6969472D01*
X2779946Y6959058D01*
X2774612Y6948644D01*
X2764198Y6933150D01*
X2712382Y6881334D01*
X2785026Y6881334D01*
X3484674Y7234991D02*
G01*
X3593640Y7234991D01*
X3484674Y7234991D02*
G01*
X3484674Y7281727D01*
X3489754Y7297221D01*
X3495088Y7302555D01*
X3505502Y7307635D01*
X3515916Y7307635D01*
X3526330Y7302555D01*
X3531410Y7297221D01*
X3536490Y7281727D01*
X3536490Y7234991D01*
X3536490Y7271313D02*
G01*
X3593640Y7307635D01*
X3505502Y7341925D02*
G01*
X3500168Y7352339D01*
X3484674Y7368087D01*
X3593640Y7368087D01*
X3484674Y7412791D02*
G01*
X3484674Y7469941D01*
X3526330Y7438699D01*
X3526330Y7454193D01*
X3531410Y7464607D01*
X3536490Y7469941D01*
X3552238Y7475021D01*
X3562652Y7475021D01*
X3578146Y7469941D01*
X3588560Y7459527D01*
X3593640Y7443779D01*
X3593640Y7428285D01*
X3588560Y7412791D01*
X3583480Y7407457D01*
X3573066Y7402377D01*
X1905000Y8050309D02*
G01*
X1905000Y7941343D01*
X1905000Y8050309D02*
G01*
X1951736Y8050309D01*
X1967229Y8045229D01*
X1972563Y8039895D01*
X1977643Y8029481D01*
X1977643Y8019067D01*
X1972563Y8008653D01*
X1967229Y8003573D01*
X1951736Y7998493D01*
X1905000Y7998493D01*
X1941322Y7998493D02*
G01*
X1977643Y7941343D01*
X2074418Y8050309D02*
G01*
X2022347Y8050309D01*
X2017268Y8003573D01*
X2022347Y8008653D01*
X2038095Y8013987D01*
X2053590Y8013987D01*
X2069084Y8008653D01*
X2079497Y7998493D01*
X2084831Y7982745D01*
X2084831Y7972331D01*
X2079497Y7956837D01*
X2069084Y7946423D01*
X2053590Y7941343D01*
X2038095Y7941343D01*
X2022347Y7946423D01*
X2017268Y7951503D01*
X2011934Y7961917D01*
X1439999Y7945320D02*
G01*
X1439999Y7867342D01*
X1445079Y7851848D01*
X1455493Y7841434D01*
X1471241Y7836354D01*
X1481655Y7836354D01*
X1497149Y7841434D01*
X1507563Y7851848D01*
X1512643Y7867342D01*
X1512643Y7945320D01*
X1557347Y7945320D02*
G01*
X1614497Y7945320D01*
X1583509Y7903664D01*
X1599003Y7903664D01*
X1609417Y7898584D01*
X1614497Y7893504D01*
X1619831Y7877756D01*
X1619831Y7867342D01*
X1614497Y7851848D01*
X1604083Y7841434D01*
X1588589Y7836354D01*
X1573095Y7836354D01*
X1557347Y7841434D01*
X1552267Y7846514D01*
X1546933Y7856928D01*
X3274992Y7940306D02*
G01*
X3274992Y7862328D01*
X3280072Y7846834D01*
X3290486Y7836420D01*
X3306234Y7831340D01*
X3316648Y7831340D01*
X3332142Y7836420D01*
X3342556Y7846834D01*
X3347636Y7862328D01*
X3347636Y7940306D01*
X3433996Y7940306D02*
G01*
X3381926Y7867662D01*
X3459904Y7867662D01*
X3433996Y7940306D02*
G01*
X3433996Y7831340D01*
X3225002Y6370299D02*
G01*
X3225002Y6292321D01*
X3230082Y6276827D01*
X3240496Y6266413D01*
X3256244Y6261333D01*
X3266658Y6261333D01*
X3282152Y6266413D01*
X3292566Y6276827D01*
X3297646Y6292321D01*
X3297646Y6370299D01*
X3394420Y6370299D02*
G01*
X3342350Y6370299D01*
X3337270Y6323563D01*
X3342350Y6328643D01*
X3358098Y6333977D01*
X3373592Y6333977D01*
X3389086Y6328643D01*
X3399500Y6318483D01*
X3404834Y6302735D01*
X3404834Y6292321D01*
X3399500Y6276827D01*
X3389086Y6266413D01*
X3373592Y6261333D01*
X3358098Y6261333D01*
X3342350Y6266413D01*
X3337270Y6271493D01*
X3331936Y6281907D01*
X5534974Y2235299D02*
G01*
X5607618Y2126333D01*
X5607618Y2235299D02*
G01*
X5534974Y2126333D01*
X5641908Y2214471D02*
G01*
X5652322Y2219805D01*
X5668070Y2235299D01*
X5668070Y2126333D01*
G36*
X1130046Y5815076D02*
G01*
X1100023Y5775096D01*
X1129995Y5735066D01*
G37*
G36*
X4386580Y8006689D02*
G01*
X4386580Y7955889D01*
X4437380Y7955889D01*
X4437380Y8006689D01*
G37*
G36*
X4132579Y8006689D02*
G01*
X4132579Y7955889D01*
X4183379Y7955889D01*
X4183379Y8006689D01*
G37*
G36*
X3800906Y5978398D02*
G01*
X3800906Y5927598D01*
X3851706Y5927598D01*
X3851706Y5978398D01*
G37*
G36*
X3800906Y6232398D02*
G01*
X3800906Y6181598D01*
X3851706Y6181598D01*
X3851706Y6232398D01*
G37*
G36*
X1634998Y5809996D02*
G01*
X1605026Y5770016D01*
X1634998Y5729986D01*
G37*
D10*
X3716901Y3039084D02*
G01*
X4134086Y2621899D01*
X4551273Y3039084D01*
X4134086Y3456271D01*
X3716901Y3039084D01*
X3610015Y8088983D02*
G01*
X3690018Y8088983D01*
X3579030Y7978007D02*
G01*
X3579030Y8058005D01*
X3720995Y7978007D02*
G01*
X3720995Y8058005D01*
X3578448Y7920418D02*
G01*
X3578448Y7840418D01*
X3609431Y7809435D02*
G01*
X3689428Y7809435D01*
X3720409Y7920418D02*
G01*
X3720409Y7840418D01*
X2850992Y7115007D02*
G01*
X2850992Y7195009D01*
X2961967Y7084021D02*
G01*
X2881970Y7084021D01*
X2961967Y7225987D02*
G01*
X2881970Y7225987D01*
X3019557Y7083440D02*
G01*
X3099556Y7083440D01*
X3130539Y7114423D02*
G01*
X3130539Y7194420D01*
X3019557Y7225400D02*
G01*
X3099556Y7225400D01*
X3690990Y6995010D02*
G01*
X3690990Y7075012D01*
X3801965Y6964024D02*
G01*
X3721968Y6964024D01*
X3801965Y7105990D02*
G01*
X3721968Y7105990D01*
X3859555Y6963443D02*
G01*
X3939555Y6963443D01*
X3970538Y6994425D02*
G01*
X3970538Y7074423D01*
X3859555Y7105403D02*
G01*
X3939555Y7105403D01*
D67*
X4757199Y2749745D02*
G01*
X4757199Y2613753D01*
X4973017Y2613753D01*
X4973017Y2749745D01*
X4757199Y2939986D02*
G01*
X4757199Y3075978D01*
X4973017Y3075978D01*
X4973017Y2939986D01*
D68*
X1456944Y8712962D02*
G01*
X1202944Y8712962D01*
X1202944Y8966962D01*
X1456944Y8966962D01*
X1456944Y8776462D01*
D69*
X1456944Y8712962D02*
G01*
X1456944Y8776462D01*
D68*
X1087120Y8492997D02*
G01*
X833120Y8492997D01*
X833120Y8746997D01*
X1087120Y8746997D01*
X1087120Y8556497D01*
D69*
X1087120Y8492997D02*
G01*
X1087120Y8556497D01*
D70*
X1080013Y5675071D02*
G01*
X920013Y5675071D01*
X920013Y5875070D01*
X1080013Y5875070D01*
X1160012Y5875070D02*
G01*
X1320012Y5875070D01*
X1320012Y5675071D01*
X1160012Y5675071D01*
X920013Y5675071D02*
G01*
X920013Y5675071D01*
X890013Y5705071D01*
X890013Y5845070D01*
X890013Y5845070D01*
X920013Y5875070D01*
D67*
X1888937Y5987366D02*
G01*
X1888937Y5891479D01*
X2021057Y5891479D01*
X2021057Y5987366D01*
X1888937Y6072609D02*
G01*
X1888937Y6168496D01*
X2021057Y6168496D01*
X2021057Y6072609D01*
X2201057Y5987608D02*
G01*
X2201057Y6083495D01*
X2068936Y6083495D01*
X2068936Y5987608D01*
X2201057Y5902365D02*
G01*
X2201057Y5806478D01*
X2068936Y5806478D01*
X2068936Y5902365D01*
D10*
X3229985Y3509980D02*
G01*
X2729986Y3509980D01*
X3229985Y3509980D02*
G01*
X3229985Y3069981D01*
X2729986Y3069981D02*
G01*
X2729986Y3509980D01*
X2729986Y3069981D02*
G01*
X3229985Y3069981D01*
D67*
X2921695Y2712603D02*
G01*
X2921695Y2841096D01*
X2738277Y2841096D01*
X2738277Y2712603D01*
X2921695Y2617363D02*
G01*
X2921695Y2488869D01*
X2738277Y2488869D01*
X2738277Y2617363D01*
X3156696Y2712603D02*
G01*
X3156696Y2841096D01*
X2973278Y2841096D01*
X2973278Y2712603D01*
X3156696Y2617363D02*
G01*
X3156696Y2488869D01*
X2973278Y2488869D01*
X2973278Y2617363D01*
X2646697Y3487602D02*
G01*
X2646697Y3616096D01*
X2463279Y3616096D01*
X2463279Y3487602D01*
X2646697Y3392363D02*
G01*
X2646697Y3263869D01*
X2463279Y3263869D01*
X2463279Y3392363D01*
D68*
X5656981Y4247979D02*
G01*
X5402981Y4247979D01*
X5402981Y4501979D01*
X5656981Y4501979D01*
X5656981Y4311479D01*
D69*
X5656981Y4247979D02*
G01*
X5656981Y4311479D01*
D68*
X5646988Y7747982D02*
G01*
X5392988Y7747982D01*
X5392988Y8001982D01*
X5646988Y8001982D01*
X5646988Y7811482D01*
D69*
X5646988Y7747982D02*
G01*
X5646988Y7811482D01*
D68*
X4256994Y5642988D02*
G01*
X4002994Y5642988D01*
X4002994Y5896988D01*
X4256994Y5896988D01*
X4256994Y5706488D01*
D69*
X4256994Y5642988D02*
G01*
X4256994Y5706488D01*
D68*
X4256986Y2142985D02*
G01*
X4002986Y2142985D01*
X4002986Y2396985D01*
X4256986Y2396985D01*
X4256986Y2206485D01*
D69*
X4256986Y2142985D02*
G01*
X4256986Y2206485D01*
D68*
X3912108Y5642863D02*
G01*
X3658108Y5642863D01*
X3658108Y5896863D01*
X3912108Y5896863D01*
X3912108Y5706363D01*
D69*
X3912108Y5642863D02*
G01*
X3912108Y5706363D01*
D67*
X3453874Y6259626D02*
G01*
X3594874Y6259626D01*
X3594874Y6440347D02*
G01*
X3453874Y6440347D01*
X3438634Y6425107D02*
G01*
X3438634Y6274866D01*
X3816113Y6259626D02*
G01*
X3675113Y6259626D01*
X3675113Y6440347D02*
G01*
X3816113Y6440347D01*
X3831353Y6425107D02*
G01*
X3831353Y6274866D01*
X1725358Y7353863D02*
G01*
X1725358Y7494864D01*
X1544637Y7494864D02*
G01*
X1544637Y7353863D01*
X1559877Y7338623D02*
G01*
X1710118Y7338623D01*
X1725358Y7716103D02*
G01*
X1725358Y7575102D01*
X1544637Y7575102D02*
G01*
X1544637Y7716103D01*
X1559877Y7731343D02*
G01*
X1710118Y7731343D01*
X2183876Y6154628D02*
G01*
X2324877Y6154628D01*
X2324877Y6335349D02*
G01*
X2183876Y6335349D01*
X2168636Y6320109D02*
G01*
X2168636Y6169868D01*
X2546116Y6154628D02*
G01*
X2405115Y6154628D01*
X2405115Y6335349D02*
G01*
X2546116Y6335349D01*
X2561356Y6320109D02*
G01*
X2561356Y6169868D01*
X4655352Y7623863D02*
G01*
X4655352Y7764863D01*
X4474631Y7764863D02*
G01*
X4474631Y7623863D01*
X4489871Y7608623D02*
G01*
X4640112Y7608623D01*
X4655352Y7986102D02*
G01*
X4655352Y7845102D01*
X4474631Y7845102D02*
G01*
X4474631Y7986102D01*
X4489871Y8001342D02*
G01*
X4640112Y8001342D01*
X2845356Y7698864D02*
G01*
X2845356Y7839864D01*
X2664635Y7839864D02*
G01*
X2664635Y7698864D01*
X2679875Y7683624D02*
G01*
X2830116Y7683624D01*
X2845356Y8061104D02*
G01*
X2845356Y7920103D01*
X2664635Y7920103D02*
G01*
X2664635Y8061104D01*
X2679875Y8076344D02*
G01*
X2830116Y8076344D01*
X4500351Y6503865D02*
G01*
X4500351Y6644866D01*
X4319630Y6644866D02*
G01*
X4319630Y6503865D01*
X4334870Y6488625D02*
G01*
X4485111Y6488625D01*
X4500351Y6866105D02*
G01*
X4500351Y6725104D01*
X4319630Y6725104D02*
G01*
X4319630Y6866105D01*
X4334870Y6881345D02*
G01*
X4485111Y6881345D01*
X2813875Y6209626D02*
G01*
X2954875Y6209626D01*
X2954875Y6390347D02*
G01*
X2813875Y6390347D01*
X2798635Y6375107D02*
G01*
X2798635Y6224866D01*
X3176115Y6209626D02*
G01*
X3035114Y6209626D01*
X3035114Y6390347D02*
G01*
X3176115Y6390347D01*
X3191355Y6375107D02*
G01*
X3191355Y6224866D01*
D10*
X3149998Y8925181D02*
G01*
X2700393Y8925181D01*
X2700393Y9829980D01*
X3149998Y9829980D01*
X3149998Y8925181D01*
X3374991Y8269988D02*
G01*
X1974994Y8269988D01*
X1974994Y8919999D01*
X3374991Y8919999D01*
X3374991Y8269988D01*
X5699988Y7680004D02*
G01*
X4799995Y7680004D01*
X5699988Y6580002D02*
G01*
X4799995Y6580002D01*
X4799995Y6580002D02*
G01*
X4799995Y7680004D01*
X5699988Y6580002D02*
G01*
X5699988Y7680004D01*
X5266888Y6269789D02*
G01*
X5394993Y6269789D01*
X4566886Y6269789D02*
G01*
X5103098Y6269789D01*
X4897592Y5664989D02*
G01*
X4288891Y5664989D01*
X4288891Y6269789D01*
X4403097Y6269789D01*
X5394993Y5664989D02*
G01*
X5072395Y5664989D01*
X5394993Y5710013D02*
G01*
X5698591Y5710013D01*
X5698591Y6218989D01*
X5394993Y6218989D01*
X5394993Y5664989D02*
G01*
X5394993Y6264988D01*
X4874991Y8384992D02*
G01*
X3874993Y8384992D01*
X3874993Y8984990D01*
X4874991Y8984990D01*
X4874991Y8384992D01*
X4674991Y8984990D02*
G01*
X4374992Y8984990D01*
X4374992Y9384990D01*
X4674991Y9384990D01*
X4674991Y8984990D01*
D71*
X694994Y7714983D02*
G01*
X694994Y6814987D01*
X1254996Y7304986D02*
G01*
X1274996Y7304986D01*
X1214996Y7164986D02*
G01*
X1254996Y7164986D01*
X1254996Y7224986D01*
X1274996Y7224986D01*
X1214996Y7364986D02*
G01*
X1254996Y7364986D01*
X1254996Y7304986D01*
X1214996Y7365987D02*
G01*
X1214996Y7163986D01*
D10*
X831672Y7546751D02*
G01*
X1081862Y7496967D01*
X1081862Y7366919D01*
X831672Y7316881D01*
X831672Y7366411D01*
X1041730Y7406289D01*
X1041730Y7459121D01*
X831672Y7499253D01*
X831672Y7546751D01*
X961720Y7516779D02*
G01*
X961720Y7476901D01*
X961750Y7386843D02*
G01*
X961750Y7346843D01*
X962258Y7059165D02*
G01*
X962258Y7019165D01*
X962228Y7189101D02*
G01*
X962228Y7149223D01*
X832180Y7219073D02*
G01*
X1082370Y7169289D01*
X1082370Y7039241D01*
X832180Y6989203D01*
X832180Y7038733D01*
X1042238Y7078611D01*
X1042238Y7131443D01*
X832180Y7171575D01*
X832180Y7219073D01*
D71*
X1398996Y7714983D02*
G01*
X699993Y7714985D01*
X1398996Y6814987D02*
G01*
X699993Y6814987D01*
X1398996Y7630099D02*
G01*
X1398996Y7607896D01*
X1398996Y6922071D02*
G01*
X1398996Y6899869D01*
D68*
X5656981Y5177980D02*
G01*
X5402981Y5177980D01*
X5402981Y5431980D01*
X5656981Y5431980D01*
X5656981Y5241480D01*
D69*
X5656981Y5177980D02*
G01*
X5656981Y5241480D01*
D68*
X5656981Y4557981D02*
G01*
X5402981Y4557981D01*
X5402981Y4811981D01*
X5656981Y4811981D01*
X5656981Y4621481D01*
D69*
X5656981Y4557981D02*
G01*
X5656981Y4621481D01*
D68*
X3911986Y2142985D02*
G01*
X3657986Y2142985D01*
X3657986Y2396985D01*
X3911986Y2396985D01*
X3911986Y2206485D01*
D69*
X3911986Y2142985D02*
G01*
X3911986Y2206485D01*
D68*
X5646988Y8677983D02*
G01*
X5392988Y8677983D01*
X5392988Y8931983D01*
X5646988Y8931983D01*
X5646988Y8741483D01*
D69*
X5646988Y8677983D02*
G01*
X5646988Y8741483D01*
D68*
X5646988Y8057984D02*
G01*
X5392988Y8057984D01*
X5392988Y8311984D01*
X5646988Y8311984D01*
X5646988Y8121484D01*
D69*
X5646988Y8057984D02*
G01*
X5646988Y8121484D01*
D68*
X4456930Y5214432D02*
G01*
X4456930Y5404932D01*
X4202930Y5404932D01*
X4202930Y3880932D01*
X4456930Y3880932D01*
D69*
X4456930Y3880932D02*
G01*
X4456930Y5214432D01*
D67*
X1635137Y8202363D02*
G01*
X1635137Y8123354D01*
X1734858Y8123354D02*
G01*
X1734858Y8202363D01*
X1650377Y8108114D02*
G01*
X1719618Y8108114D01*
X1734858Y8326615D02*
G01*
X1734858Y8247606D01*
X1635137Y8247606D02*
G01*
X1635137Y8326615D01*
X1650377Y8341855D02*
G01*
X1719618Y8341855D01*
D68*
X5646988Y8367981D02*
G01*
X5392988Y8367981D01*
X5392988Y8621981D01*
X5646988Y8621981D01*
X5646988Y8431481D01*
D69*
X5646988Y8367981D02*
G01*
X5646988Y8431481D01*
D68*
X3566995Y5642988D02*
G01*
X3312995Y5642988D01*
X3312995Y5896988D01*
X3566995Y5896988D01*
X3566995Y5706488D01*
D69*
X3566995Y5642988D02*
G01*
X3566995Y5706488D01*
D68*
X5656981Y4867978D02*
G01*
X5402981Y4867978D01*
X5402981Y5121978D01*
X5656981Y5121978D01*
X5656981Y4931478D01*
D69*
X5656981Y4867978D02*
G01*
X5656981Y4931478D01*
D68*
X3566988Y2142985D02*
G01*
X3312988Y2142985D01*
X3312988Y2396985D01*
X3566988Y2396985D01*
X3566988Y2206485D01*
D69*
X3566988Y2142985D02*
G01*
X3566988Y2206485D01*
D68*
X2976986Y2142985D02*
G01*
X2722986Y2142985D01*
X2722986Y2396985D01*
X2976986Y2396985D01*
X2976986Y2206485D01*
D69*
X2976986Y2142985D02*
G01*
X2976986Y2206485D01*
D68*
X3266986Y2142985D02*
G01*
X3012986Y2142985D01*
X3012986Y2396985D01*
X3266986Y2396985D01*
X3266986Y2206485D01*
D69*
X3266986Y2142985D02*
G01*
X3266986Y2206485D01*
D68*
X3646985Y3452982D02*
G01*
X3392985Y3452982D01*
X3392985Y3706982D01*
X3646985Y3706982D01*
X3646985Y3516482D01*
D69*
X3646985Y3452982D02*
G01*
X3646985Y3516482D01*
D68*
X2686987Y2142985D02*
G01*
X2432987Y2142985D01*
X2432987Y2396985D01*
X2686987Y2396985D01*
X2686987Y2206485D01*
D69*
X2686987Y2142985D02*
G01*
X2686987Y2206485D01*
D67*
X3384847Y3307603D02*
G01*
X3384847Y3386612D01*
X3285126Y3386612D02*
G01*
X3285126Y3307603D01*
X3369607Y3401852D02*
G01*
X3300366Y3401852D01*
X3285126Y3183351D02*
G01*
X3285126Y3262360D01*
X3384847Y3262360D02*
G01*
X3384847Y3183351D01*
X3369607Y3168111D02*
G01*
X3300366Y3168111D01*
X1732376Y6711048D02*
G01*
X1636488Y6711048D01*
X1636488Y6578927D01*
X1732376Y6578927D01*
X1817618Y6711048D02*
G01*
X1913506Y6711048D01*
X1913506Y6578927D01*
X1817618Y6578927D01*
X1107620Y6348293D02*
G01*
X1236113Y6348293D01*
X1236113Y6531711D01*
X1107620Y6531711D01*
X1012380Y6348293D02*
G01*
X883886Y6348293D01*
X883886Y6531711D01*
X1012380Y6531711D01*
D70*
X1347873Y6308191D02*
G01*
X1316065Y6340000D01*
X1347873Y6371805D01*
X1528198Y6552130D02*
G01*
X1560004Y6583939D01*
X1591812Y6552130D01*
X1772137Y6308191D02*
G01*
X1803946Y6340000D01*
X1772137Y6371805D01*
X1591812Y6127866D02*
G01*
X1560004Y6096058D01*
X1528198Y6127866D01*
D67*
X5005123Y2671615D02*
G01*
X5005123Y2592605D01*
X5104843Y2592605D02*
G01*
X5104843Y2671615D01*
X5089603Y2686855D02*
G01*
X5020363Y2686855D01*
X5005123Y2468354D02*
G01*
X5005123Y2547363D01*
X5104843Y2547363D02*
G01*
X5104843Y2468354D01*
X5089603Y2453114D02*
G01*
X5020363Y2453114D01*
X5104843Y3018353D02*
G01*
X5104843Y3097362D01*
X5005123Y3097362D02*
G01*
X5005123Y3018353D01*
X5020363Y3003113D02*
G01*
X5089603Y3003113D01*
X5104843Y3221614D02*
G01*
X5104843Y3142604D01*
X5005123Y3142604D02*
G01*
X5005123Y3221614D01*
X5020363Y3236854D02*
G01*
X5089603Y3236854D01*
X3640353Y6828866D02*
G01*
X3640353Y6969866D01*
X3459632Y6969866D02*
G01*
X3459632Y6828866D01*
X3474872Y6813626D02*
G01*
X3625113Y6813626D01*
X3640353Y7191105D02*
G01*
X3640353Y7050105D01*
X3459632Y7050105D02*
G01*
X3459632Y7191105D01*
X3474872Y7206345D02*
G01*
X3625113Y7206345D01*
D10*
X1211882Y3669990D02*
G01*
X1023109Y3669990D01*
X1811883Y3669990D02*
G01*
X1338110Y3669990D01*
X2342487Y3613104D02*
G01*
X2342487Y3669990D01*
X1978111Y3669990D01*
X2342487Y2603103D02*
G01*
X2342487Y2621876D01*
X2342487Y2269992D02*
G01*
X2342487Y2456875D01*
X747491Y2408095D02*
G01*
X747491Y3556866D01*
X2342487Y2269992D02*
G01*
X933112Y2269992D01*
X4144992Y7969984D02*
G01*
X4144992Y7509987D01*
X4171873Y7509987D02*
G01*
X4144992Y7509987D01*
X4424987Y7969984D02*
G01*
X4424987Y7509987D01*
X4282005Y7803093D02*
G01*
X4358205Y7726893D01*
X4218505Y7726893D01*
X4205805Y7726893D01*
X4218505Y7739593D01*
X4282005Y7803093D01*
X4424987Y7509987D02*
G01*
X4398103Y7509987D01*
X3814993Y6219987D02*
G01*
X3354997Y6219987D01*
X3354997Y6193106D02*
G01*
X3354997Y6219987D01*
X3814993Y5939993D02*
G01*
X3354997Y5939993D01*
X3648102Y6082974D02*
G01*
X3571902Y6006774D01*
X3571902Y6146474D01*
X3571902Y6159174D01*
X3584602Y6146474D01*
X3648102Y6082974D01*
X3354997Y5939993D02*
G01*
X3354997Y5966876D01*
D67*
X4109458Y7502606D02*
G01*
X4109458Y7651107D01*
X4094218Y7666347D01*
X3765781Y7666347D01*
X3750541Y7651107D01*
X3750541Y7502606D01*
X4109458Y7317366D02*
G01*
X4109458Y7168868D01*
X4094218Y7153628D01*
X3765781Y7153628D01*
X3750541Y7168868D01*
X3750541Y7317366D01*
X4289458Y6727606D02*
G01*
X4289458Y6876107D01*
X4274218Y6891347D01*
X3945780Y6891347D01*
X3930540Y6876107D01*
X3930540Y6727606D01*
X4289458Y6542366D02*
G01*
X4289458Y6393868D01*
X4274218Y6378628D01*
X3945780Y6378628D01*
X3930540Y6393868D01*
X3930540Y6542366D01*
X2902374Y6179454D02*
G01*
X2753873Y6179454D01*
X2738633Y6164214D01*
X2738633Y5835777D01*
X2753873Y5820537D01*
X2902374Y5820537D01*
X3087613Y6179454D02*
G01*
X3236112Y6179454D01*
X3251352Y6164214D01*
X3251352Y5835777D01*
X3236112Y5820537D01*
X3087613Y5820537D01*
D70*
X1584998Y5669988D02*
G01*
X1424998Y5669988D01*
X1424998Y5869988D01*
X1584998Y5869988D01*
X1664997Y5869988D02*
G01*
X1824997Y5869988D01*
X1824997Y5669988D01*
X1664997Y5669988D01*
X1424998Y5669988D02*
G01*
X1424998Y5669988D01*
X1394998Y5699988D01*
X1394998Y5839988D01*
X1394998Y5839988D01*
X1424998Y5869988D01*
D67*
X1012380Y6321712D02*
G01*
X883886Y6321712D01*
X883886Y6138293D01*
X1012380Y6138293D01*
X1107620Y6321712D02*
G01*
X1236113Y6321712D01*
X1236113Y6138293D01*
X1107620Y6138293D01*
X3232373Y7476693D02*
G01*
X3103879Y7476693D01*
X3103879Y7293274D01*
X3232373Y7293274D01*
X3327613Y7476693D02*
G01*
X3456106Y7476693D01*
X3456106Y7293274D01*
X3327613Y7293274D01*
X3027375Y7976694D02*
G01*
X2898881Y7976694D01*
X2898881Y7793276D01*
X3027375Y7793276D01*
X3122615Y7976694D02*
G01*
X3251108Y7976694D01*
X3251108Y7793276D01*
X3122615Y7793276D01*
X3287374Y8176691D02*
G01*
X3158881Y8176691D01*
X3158881Y7993273D01*
X3287374Y7993273D01*
X3382614Y8176691D02*
G01*
X3511108Y8176691D01*
X3511108Y7993273D01*
X3382614Y7993273D01*
X3191703Y6647606D02*
G01*
X3191703Y6776100D01*
X3008284Y6776100D01*
X3008284Y6647606D01*
X3191703Y6552366D02*
G01*
X3191703Y6423873D01*
X3008284Y6423873D01*
X3008284Y6552366D01*
X2947375Y6986694D02*
G01*
X2818881Y6986694D01*
X2818881Y6803275D01*
X2947375Y6803275D01*
X3042615Y6986694D02*
G01*
X3171108Y6986694D01*
X3171108Y6803275D01*
X3042615Y6803275D01*
X3411702Y7117605D02*
G01*
X3411702Y7246099D01*
X3228284Y7246099D01*
X3228284Y7117605D01*
X3411702Y7022365D02*
G01*
X3411702Y6893872D01*
X3228284Y6893872D01*
X3228284Y7022365D01*
X1941705Y8312602D02*
G01*
X1941705Y8441095D01*
X1758287Y8441095D01*
X1758287Y8312602D01*
X1941705Y8217362D02*
G01*
X1941705Y8088868D01*
X1758287Y8088868D01*
X1758287Y8217362D01*
X1047859Y8452622D02*
G01*
X1352141Y8452622D01*
X1352141Y7947380D01*
X1047859Y7947380D01*
X1047859Y8452622D01*
D72*
X3355225Y7797825D02*
G01*
X3289995Y7797825D01*
X3289995Y7499985D01*
X3549995Y7499985D01*
X3549995Y7797825D01*
X3484765Y7797825D01*
X3480219Y6767832D02*
G01*
X3414989Y6767832D01*
X3414989Y6469992D01*
X3674988Y6469992D01*
X3674988Y6767832D01*
X3609759Y6767832D01*
D10*
X5508094Y3421981D02*
G01*
X5650981Y3421981D01*
X5321866Y2268984D02*
G01*
X5193982Y2268984D01*
X5187983Y2268984D01*
X5187983Y3418982D01*
X5187983Y3421981D01*
X5331866Y3421981D01*
X5651980Y3421981D02*
G01*
X5651980Y2268984D01*
X5518096Y2268984D01*
D25*
G75*
G01*
X4156537Y2486800D02*
G03*
X4156718Y2486980I10698J-10517D01*
D17*
G75*
G01*
X4119898Y2742199D02*
G03*
X4120078Y2742377I14131J-14153D01*
D10*
G75*
G01*
X3609431Y7809431D02*
G02*
X3578449Y7840414I0J30983D01*
G75*
G01*
X3720414Y7840414D02*
G02*
X3689429Y7809431I-30983J0D01*
G75*
G01*
X3579030Y8058000D02*
G02*
X3610016Y8088983I30983J0D01*
G75*
G01*
X3690013Y8088983D02*
G02*
X3720996Y8058000I0J-30983D01*
G75*
G01*
X3130545Y7114423D02*
G02*
X3099562Y7083440I-30983J0D01*
G75*
G01*
X3099562Y7225406D02*
G02*
X3130545Y7194420I0J-30983D01*
G75*
G01*
X2881975Y7084022D02*
G02*
X2850993Y7115007I0J30983D01*
G75*
G01*
X2850993Y7195005D02*
G02*
X2881975Y7225988I30982J0D01*
G75*
G01*
X3970543Y6994426D02*
G02*
X3939560Y6963443I-30983J0D01*
G75*
G01*
X3939560Y7105409D02*
G02*
X3970543Y7074423I0J-30983D01*
G75*
G01*
X3721974Y6964025D02*
G02*
X3690991Y6995010I0J30983D01*
G75*
G01*
X3690991Y7075007D02*
G02*
X3721974Y7105990I30983J0D01*
D67*
G75*
G01*
X3453874Y6440348D02*
G03*
X3438634Y6425108I0J-15240D01*
G75*
G01*
X3438634Y6274867D02*
G03*
X3453874Y6259627I15240J0D01*
G75*
G01*
X3816114Y6440348D02*
G02*
X3831354Y6425108I0J-15240D01*
G75*
G01*
X3831354Y6274867D02*
G02*
X3816114Y6259627I-15240J0D01*
G75*
G01*
X1544638Y7353864D02*
G03*
X1559877Y7338624I15240J0D01*
G75*
G01*
X1710118Y7338624D02*
G03*
X1725358Y7353864I0J15240D01*
G75*
G01*
X1544638Y7716103D02*
G02*
X1559877Y7731343I15240J0D01*
G75*
G01*
X1710118Y7731343D02*
G02*
X1725358Y7716103I0J-15240D01*
G75*
G01*
X2183877Y6335349D02*
G03*
X2168637Y6320109I0J-15240D01*
G75*
G01*
X2168637Y6169868D02*
G03*
X2183877Y6154628I15240J0D01*
G75*
G01*
X2546116Y6335349D02*
G02*
X2561356Y6320109I0J-15240D01*
G75*
G01*
X2561356Y6169868D02*
G02*
X2546116Y6154628I-15240J0D01*
G75*
G01*
X4474632Y7623863D02*
G03*
X4489872Y7608623I15240J0D01*
G75*
G01*
X4640113Y7608623D02*
G03*
X4655353Y7623863I0J15240D01*
G75*
G01*
X4474632Y7986103D02*
G02*
X4489872Y8001343I15240J0D01*
G75*
G01*
X4640113Y8001343D02*
G02*
X4655353Y7986103I0J-15240D01*
G75*
G01*
X2664635Y7698864D02*
G03*
X2679875Y7683624I15240J0D01*
G75*
G01*
X2830116Y7683624D02*
G03*
X2845356Y7698864I0J15240D01*
G75*
G01*
X2664635Y8061104D02*
G02*
X2679875Y8076344I15240J0D01*
G75*
G01*
X2830116Y8076344D02*
G02*
X2845356Y8061104I0J-15240D01*
G75*
G01*
X4319631Y6503866D02*
G03*
X4334871Y6488626I15240J0D01*
G75*
G01*
X4485112Y6488626D02*
G03*
X4500352Y6503866I0J15240D01*
G75*
G01*
X4319631Y6866105D02*
G02*
X4334871Y6881345I15240J0D01*
G75*
G01*
X4485112Y6881345D02*
G02*
X4500352Y6866105I0J-15240D01*
G75*
G01*
X2813876Y6390348D02*
G03*
X2798635Y6375108I0J-15240D01*
G75*
G01*
X2798635Y6224867D02*
G03*
X2813876Y6209627I15241J0D01*
G75*
G01*
X3176115Y6390348D02*
G02*
X3191355Y6375108I0J-15240D01*
G75*
G01*
X3191355Y6224867D02*
G02*
X3176115Y6209627I-15240J0D01*
G75*
G01*
X1635138Y8123354D02*
G03*
X1650378Y8108114I15240J0D01*
G75*
G01*
X1719618Y8108114D02*
G03*
X1734858Y8123354I0J15240D01*
G75*
G01*
X1635138Y8326615D02*
G02*
X1650378Y8341855I15240J0D01*
G75*
G01*
X1719618Y8341855D02*
G02*
X1734858Y8326615I0J-15240D01*
G75*
G01*
X3384847Y3386612D02*
G03*
X3369607Y3401852I-15240J0D01*
G75*
G01*
X3300367Y3401852D02*
G03*
X3285127Y3386612I0J-15240D01*
G75*
G01*
X3384847Y3183352D02*
G02*
X3369607Y3168112I-15240J0D01*
G75*
G01*
X3300367Y3168112D02*
G02*
X3285127Y3183352I0J15240D01*
D25*
G75*
G01*
X1305504Y6301024D02*
G03*
X1305684Y6300846I-10441J-10771D01*
D67*
G75*
G01*
X5104844Y2671615D02*
G03*
X5089604Y2686855I-15240J0D01*
G75*
G01*
X5020363Y2686855D02*
G03*
X5005123Y2671615I0J-15240D01*
G75*
G01*
X5104844Y2468354D02*
G02*
X5089604Y2453114I-15240J0D01*
G75*
G01*
X5020363Y2453114D02*
G02*
X5005123Y2468354I0J15240D01*
G75*
G01*
X5005123Y3018353D02*
G03*
X5020363Y3003113I15240J0D01*
G75*
G01*
X5089604Y3003113D02*
G03*
X5104844Y3018353I0J15240D01*
G75*
G01*
X5005123Y3221614D02*
G02*
X5020363Y3236854I15240J0D01*
G75*
G01*
X5089604Y3236854D02*
G02*
X5104844Y3221614I0J-15240D01*
G75*
G01*
X3459632Y6828866D02*
G03*
X3474872Y6813626I15240J0D01*
G75*
G01*
X3625113Y6813626D02*
G03*
X3640353Y6828866I0J15240D01*
G75*
G01*
X3459632Y7191106D02*
G02*
X3474872Y7206346I15240J0D01*
G75*
G01*
X3625113Y7206346D02*
G02*
X3640353Y7191106I0J-15240D01*
D10*
G75*
G01*
X747492Y2408095D02*
G03*
X747403Y3556947I-878190J574358D01*
D72*
G75*
G01*
X3484766Y7797825D02*
G02*
X3355226Y7797825I-64770J0D01*
G75*
G01*
X3609759Y6767833D02*
G02*
X3480219Y6767833I-64770J0D01*
D25*
G75*
G01
X2832456Y3168066D02*
G03X2832456Y3168066I-15011J0D01*
G75*
G01
X2741397Y2998292D02*
G03X2741397Y2998292I-15011J0D01*
D10*
G75*
G01
X5623220Y6787101D02*
G03X5623220Y6787101I-68402J0D01*
G75*
G01
X5026320Y7396701D02*
G03X5026320Y7396701I-68402J0D01*
G75*
G01
X4910115Y6660101D02*
G03X4910115Y6660101I-28397J0D01*
G75*
G01
X5024415Y6660101D02*
G03X5024415Y6660101I-28397J0D01*
G75*
G01
X5013620Y6787101D02*
G03X5013620Y6787101I-68402J0D01*
G75*
G01
X5597820Y7396701D02*
G03X5597820Y7396701I-68402J0D01*
G75*
G01
X5507015Y7523701D02*
G03X5507015Y7523701I-28397J0D01*
G75*
G01
X5621315Y7523701D02*
G03X5621315Y7523701I-28397J0D01*
D25*
G75*
G01
X1138098Y8390509D02*
G03X1138098Y8390509I-15011J0D01*
G75*
G01
X938098Y8464448D02*
G03X938098Y8464448I-15011J0D01*
D73*
G75*
G01
X3211982Y7814970D02*
G03X3211982Y7814970I-11989J0D01*
G75*
G01
X3337001Y6785000D02*
G03X3337001Y6785000I-11989J0D01*
M02*
